G04 #@! TF.GenerationSoftware,KiCad,Pcbnew,(5.0.1)-3*
G04 #@! TF.CreationDate,2018-11-04T20:31:55+05:30*
G04 #@! TF.ProjectId,MosfetDriverOn210404,4D6F736665744472697665724F6E3231,rev?*
G04 #@! TF.SameCoordinates,Original*
G04 #@! TF.FileFunction,Legend,Bot*
G04 #@! TF.FilePolarity,Positive*
%FSLAX46Y46*%
G04 Gerber Fmt 4.6, Leading zero omitted, Abs format (unit mm)*
G04 Created by KiCad (PCBNEW (5.0.1)-3) date 11/4/2018 8:31:55 PM*
%MOMM*%
%LPD*%
G01*
G04 APERTURE LIST*
%ADD10C,0.120000*%
%ADD11C,0.150000*%
%ADD12C,2.082000*%
%ADD13C,2.082000*%
%ADD14C,0.100000*%
%ADD15C,3.658000*%
%ADD16C,1.902000*%
%ADD17C,1.702000*%
%ADD18C,3.302000*%
%ADD19C,1.702000*%
%ADD20C,1.802000*%
%ADD21C,1.802000*%
%ADD22O,1.802000X1.802000*%
%ADD23R,1.802000X1.802000*%
%ADD24C,2.102000*%
%ADD25C,1.902000*%
%ADD26C,1.452000*%
%ADD27C,1.102000*%
%ADD28C,0.702000*%
G04 APERTURE END LIST*
D10*
G04 #@! TO.C,R7*
X176757596Y-88101959D02*
X179659653Y-85199902D01*
X179175901Y-90520264D02*
X182077958Y-87618207D01*
G04 #@! TO.C,R8*
X167193311Y-78574933D02*
X170095368Y-75672876D01*
X164775006Y-76156628D02*
X167677063Y-73254571D01*
G04 #@! TO.C,R9*
X170150744Y-81495107D02*
X173052801Y-78593050D01*
X167732439Y-79076802D02*
X170634496Y-76174745D01*
G04 #@! TO.C,R11*
X170695924Y-82040286D02*
X173597980Y-79138228D01*
X173114228Y-84458592D02*
X176016284Y-81556534D01*
G04 #@! TO.C,R12*
X176122614Y-87466977D02*
X179024671Y-84564920D01*
X173704309Y-85048672D02*
X176606366Y-82146615D01*
G04 #@! TO.C,R8*
D11*
X174398274Y-75433824D02*
X174734992Y-75770541D01*
X174431946Y-76140931D01*
X174431946Y-76073587D01*
X174398274Y-75972572D01*
X174229915Y-75804213D01*
X174128900Y-75770541D01*
X174061557Y-75770541D01*
X173960541Y-75804213D01*
X173792183Y-75972572D01*
X173758511Y-76073587D01*
X173758511Y-76140931D01*
X173792183Y-76241946D01*
X173960541Y-76410305D01*
X174061557Y-76443976D01*
X174128900Y-76443976D01*
X173960541Y-74996091D02*
X173792183Y-75164450D01*
X174027885Y-75265465D02*
X173792183Y-75164450D01*
X173691167Y-74928748D01*
X173758511Y-75400152D02*
X173792183Y-75164450D01*
X173556480Y-75198122D01*
X173388122Y-74423671D02*
X173320778Y-74356328D01*
X173219763Y-74322656D01*
X173152419Y-74322656D01*
X173051404Y-74356328D01*
X172883045Y-74457343D01*
X172714687Y-74625702D01*
X172613671Y-74794061D01*
X172580000Y-74895076D01*
X172580000Y-74962419D01*
X172613671Y-75063435D01*
X172681015Y-75130778D01*
X172782030Y-75164450D01*
X172849374Y-75164450D01*
X172950389Y-75130778D01*
X173118748Y-75029763D01*
X173287106Y-74861404D01*
X173388122Y-74693045D01*
X173421793Y-74592030D01*
X173421793Y-74524687D01*
X173388122Y-74423671D01*
X172512656Y-74221641D02*
X172276954Y-73985938D01*
X171805549Y-74255312D02*
X172142267Y-74592030D01*
X172849374Y-73884923D01*
X172512656Y-73548206D01*
X172074923Y-73110473D02*
X172007580Y-73043129D01*
X171906564Y-73009458D01*
X171839221Y-73009458D01*
X171738206Y-73043129D01*
X171569847Y-73144145D01*
X171401488Y-73312503D01*
X171300473Y-73480862D01*
X171266801Y-73581877D01*
X171266801Y-73649221D01*
X171300473Y-73750236D01*
X171367816Y-73817580D01*
X171468832Y-73851251D01*
X171536175Y-73851251D01*
X171637190Y-73817580D01*
X171805549Y-73716564D01*
X171973908Y-73548206D01*
X172074923Y-73379847D01*
X172108595Y-73278832D01*
X172108595Y-73211488D01*
X172074923Y-73110473D01*
X171199458Y-72235007D02*
X171536175Y-72571725D01*
X171233129Y-72942114D01*
X171233129Y-72874771D01*
X171199458Y-72773755D01*
X171031099Y-72605397D01*
X170930084Y-72571725D01*
X170862740Y-72571725D01*
X170761725Y-72605397D01*
X170593366Y-72773755D01*
X170559694Y-72874771D01*
X170559694Y-72942114D01*
X170593366Y-73043129D01*
X170761725Y-73211488D01*
X170862740Y-73245160D01*
X170930084Y-73245160D01*
G04 #@! TD*
%LPC*%
D12*
G04 #@! TO.C,J4*
X109060000Y-143750000D03*
D13*
X108359964Y-144450036D02*
X109760036Y-143049964D01*
D12*
X112595534Y-147285534D03*
D14*
G36*
X114767766Y-146585498D02*
X111895498Y-149457766D01*
X110423302Y-147985570D01*
X113295570Y-145113302D01*
X114767766Y-146585498D01*
X114767766Y-146585498D01*
G37*
G04 #@! TD*
D15*
G04 #@! TO.C,Q4*
X154432320Y-71664422D03*
X161616525Y-64480218D03*
D16*
X164310602Y-70766398D03*
X162514551Y-72562449D03*
D14*
G36*
X160689495Y-73262590D02*
X160730800Y-73268717D01*
X160771305Y-73278863D01*
X160810621Y-73292930D01*
X160848368Y-73310784D01*
X160884184Y-73332251D01*
X160917723Y-73357125D01*
X160948663Y-73385167D01*
X161691833Y-74128337D01*
X161719875Y-74159277D01*
X161744749Y-74192816D01*
X161766216Y-74228632D01*
X161784070Y-74266379D01*
X161798137Y-74305695D01*
X161808283Y-74346200D01*
X161814410Y-74387505D01*
X161816459Y-74429211D01*
X161814410Y-74470917D01*
X161808283Y-74512222D01*
X161798137Y-74552727D01*
X161784070Y-74592043D01*
X161766216Y-74629790D01*
X161744749Y-74665606D01*
X161719875Y-74699145D01*
X161691833Y-74730085D01*
X161090085Y-75331833D01*
X161059145Y-75359875D01*
X161025606Y-75384749D01*
X160989790Y-75406216D01*
X160952043Y-75424070D01*
X160912727Y-75438137D01*
X160872222Y-75448283D01*
X160830917Y-75454410D01*
X160789211Y-75456459D01*
X160747505Y-75454410D01*
X160706200Y-75448283D01*
X160665695Y-75438137D01*
X160626379Y-75424070D01*
X160588632Y-75406216D01*
X160552816Y-75384749D01*
X160519277Y-75359875D01*
X160488337Y-75331833D01*
X159745167Y-74588663D01*
X159717125Y-74557723D01*
X159692251Y-74524184D01*
X159670784Y-74488368D01*
X159652930Y-74450621D01*
X159638863Y-74411305D01*
X159628717Y-74370800D01*
X159622590Y-74329495D01*
X159620541Y-74287789D01*
X159622590Y-74246083D01*
X159628717Y-74204778D01*
X159638863Y-74164273D01*
X159652930Y-74124957D01*
X159670784Y-74087210D01*
X159692251Y-74051394D01*
X159717125Y-74017855D01*
X159745167Y-73986915D01*
X160346915Y-73385167D01*
X160377855Y-73357125D01*
X160411394Y-73332251D01*
X160447210Y-73310784D01*
X160484957Y-73292930D01*
X160524273Y-73278863D01*
X160564778Y-73268717D01*
X160606083Y-73262590D01*
X160647789Y-73260541D01*
X160689495Y-73262590D01*
X160689495Y-73262590D01*
G37*
D17*
X160718500Y-74358500D03*
G04 #@! TD*
D14*
G04 #@! TO.C,Q3*
G36*
X148878495Y-85073590D02*
X148919800Y-85079717D01*
X148960305Y-85089863D01*
X148999621Y-85103930D01*
X149037368Y-85121784D01*
X149073184Y-85143251D01*
X149106723Y-85168125D01*
X149137663Y-85196167D01*
X149880833Y-85939337D01*
X149908875Y-85970277D01*
X149933749Y-86003816D01*
X149955216Y-86039632D01*
X149973070Y-86077379D01*
X149987137Y-86116695D01*
X149997283Y-86157200D01*
X150003410Y-86198505D01*
X150005459Y-86240211D01*
X150003410Y-86281917D01*
X149997283Y-86323222D01*
X149987137Y-86363727D01*
X149973070Y-86403043D01*
X149955216Y-86440790D01*
X149933749Y-86476606D01*
X149908875Y-86510145D01*
X149880833Y-86541085D01*
X149279085Y-87142833D01*
X149248145Y-87170875D01*
X149214606Y-87195749D01*
X149178790Y-87217216D01*
X149141043Y-87235070D01*
X149101727Y-87249137D01*
X149061222Y-87259283D01*
X149019917Y-87265410D01*
X148978211Y-87267459D01*
X148936505Y-87265410D01*
X148895200Y-87259283D01*
X148854695Y-87249137D01*
X148815379Y-87235070D01*
X148777632Y-87217216D01*
X148741816Y-87195749D01*
X148708277Y-87170875D01*
X148677337Y-87142833D01*
X147934167Y-86399663D01*
X147906125Y-86368723D01*
X147881251Y-86335184D01*
X147859784Y-86299368D01*
X147841930Y-86261621D01*
X147827863Y-86222305D01*
X147817717Y-86181800D01*
X147811590Y-86140495D01*
X147809541Y-86098789D01*
X147811590Y-86057083D01*
X147817717Y-86015778D01*
X147827863Y-85975273D01*
X147841930Y-85935957D01*
X147859784Y-85898210D01*
X147881251Y-85862394D01*
X147906125Y-85828855D01*
X147934167Y-85797915D01*
X148535915Y-85196167D01*
X148566855Y-85168125D01*
X148600394Y-85143251D01*
X148636210Y-85121784D01*
X148673957Y-85103930D01*
X148713273Y-85089863D01*
X148753778Y-85079717D01*
X148795083Y-85073590D01*
X148836789Y-85071541D01*
X148878495Y-85073590D01*
X148878495Y-85073590D01*
G37*
D17*
X148907500Y-86169500D03*
D16*
X150703551Y-84373449D03*
X152499602Y-82577398D03*
D15*
X149805525Y-76291218D03*
X142621320Y-83475422D03*
G04 #@! TD*
D14*
G04 #@! TO.C,IRFZ44N*
G36*
X173579995Y-102599590D02*
X173621300Y-102605717D01*
X173661805Y-102615863D01*
X173701121Y-102629930D01*
X173738868Y-102647784D01*
X173774684Y-102669251D01*
X173808223Y-102694125D01*
X173839163Y-102722167D01*
X174582333Y-103465337D01*
X174610375Y-103496277D01*
X174635249Y-103529816D01*
X174656716Y-103565632D01*
X174674570Y-103603379D01*
X174688637Y-103642695D01*
X174698783Y-103683200D01*
X174704910Y-103724505D01*
X174706959Y-103766211D01*
X174704910Y-103807917D01*
X174698783Y-103849222D01*
X174688637Y-103889727D01*
X174674570Y-103929043D01*
X174656716Y-103966790D01*
X174635249Y-104002606D01*
X174610375Y-104036145D01*
X174582333Y-104067085D01*
X173980585Y-104668833D01*
X173949645Y-104696875D01*
X173916106Y-104721749D01*
X173880290Y-104743216D01*
X173842543Y-104761070D01*
X173803227Y-104775137D01*
X173762722Y-104785283D01*
X173721417Y-104791410D01*
X173679711Y-104793459D01*
X173638005Y-104791410D01*
X173596700Y-104785283D01*
X173556195Y-104775137D01*
X173516879Y-104761070D01*
X173479132Y-104743216D01*
X173443316Y-104721749D01*
X173409777Y-104696875D01*
X173378837Y-104668833D01*
X172635667Y-103925663D01*
X172607625Y-103894723D01*
X172582751Y-103861184D01*
X172561284Y-103825368D01*
X172543430Y-103787621D01*
X172529363Y-103748305D01*
X172519217Y-103707800D01*
X172513090Y-103666495D01*
X172511041Y-103624789D01*
X172513090Y-103583083D01*
X172519217Y-103541778D01*
X172529363Y-103501273D01*
X172543430Y-103461957D01*
X172561284Y-103424210D01*
X172582751Y-103388394D01*
X172607625Y-103354855D01*
X172635667Y-103323915D01*
X173237415Y-102722167D01*
X173268355Y-102694125D01*
X173301894Y-102669251D01*
X173337710Y-102647784D01*
X173375457Y-102629930D01*
X173414773Y-102615863D01*
X173455278Y-102605717D01*
X173496583Y-102599590D01*
X173538289Y-102597541D01*
X173579995Y-102599590D01*
X173579995Y-102599590D01*
G37*
D17*
X173609000Y-103695500D03*
D16*
X171812949Y-105491551D03*
X170016898Y-107287602D03*
D15*
X172710975Y-113573782D03*
X179895180Y-106389578D03*
G04 #@! TD*
G04 #@! TO.C,Q2*
X191642680Y-94642078D03*
X184458475Y-101826282D03*
D16*
X181764398Y-95540102D03*
X183560449Y-93744051D03*
D14*
G36*
X185327495Y-90852090D02*
X185368800Y-90858217D01*
X185409305Y-90868363D01*
X185448621Y-90882430D01*
X185486368Y-90900284D01*
X185522184Y-90921751D01*
X185555723Y-90946625D01*
X185586663Y-90974667D01*
X186329833Y-91717837D01*
X186357875Y-91748777D01*
X186382749Y-91782316D01*
X186404216Y-91818132D01*
X186422070Y-91855879D01*
X186436137Y-91895195D01*
X186446283Y-91935700D01*
X186452410Y-91977005D01*
X186454459Y-92018711D01*
X186452410Y-92060417D01*
X186446283Y-92101722D01*
X186436137Y-92142227D01*
X186422070Y-92181543D01*
X186404216Y-92219290D01*
X186382749Y-92255106D01*
X186357875Y-92288645D01*
X186329833Y-92319585D01*
X185728085Y-92921333D01*
X185697145Y-92949375D01*
X185663606Y-92974249D01*
X185627790Y-92995716D01*
X185590043Y-93013570D01*
X185550727Y-93027637D01*
X185510222Y-93037783D01*
X185468917Y-93043910D01*
X185427211Y-93045959D01*
X185385505Y-93043910D01*
X185344200Y-93037783D01*
X185303695Y-93027637D01*
X185264379Y-93013570D01*
X185226632Y-92995716D01*
X185190816Y-92974249D01*
X185157277Y-92949375D01*
X185126337Y-92921333D01*
X184383167Y-92178163D01*
X184355125Y-92147223D01*
X184330251Y-92113684D01*
X184308784Y-92077868D01*
X184290930Y-92040121D01*
X184276863Y-92000805D01*
X184266717Y-91960300D01*
X184260590Y-91918995D01*
X184258541Y-91877289D01*
X184260590Y-91835583D01*
X184266717Y-91794278D01*
X184276863Y-91753773D01*
X184290930Y-91714457D01*
X184308784Y-91676710D01*
X184330251Y-91640894D01*
X184355125Y-91607355D01*
X184383167Y-91576415D01*
X184984915Y-90974667D01*
X185015855Y-90946625D01*
X185049394Y-90921751D01*
X185085210Y-90900284D01*
X185122957Y-90882430D01*
X185162273Y-90868363D01*
X185202778Y-90858217D01*
X185244083Y-90852090D01*
X185285789Y-90850041D01*
X185327495Y-90852090D01*
X185327495Y-90852090D01*
G37*
D17*
X185356500Y-91948000D03*
G04 #@! TD*
D18*
G04 #@! TO.C,REF\002A\002A*
X128670000Y-147550000D03*
G04 #@! TD*
G04 #@! TO.C,REF\002A\002A*
X108690000Y-113000000D03*
G04 #@! TD*
G04 #@! TO.C,REF\002A\002A*
X162306000Y-56896000D03*
G04 #@! TD*
D17*
G04 #@! TO.C,U5*
X149198470Y-97480524D03*
D19*
X149481313Y-97763367D02*
X148915627Y-97197681D01*
D17*
X159974778Y-97480524D03*
D19*
X160257621Y-97763367D02*
X159691935Y-97197681D01*
D17*
X150994522Y-95684473D03*
D19*
X151277365Y-95967316D02*
X150711679Y-95401630D01*
D17*
X158178726Y-99276576D03*
D19*
X158461569Y-99559419D02*
X157895883Y-98993733D01*
D17*
X152790573Y-93888422D03*
D19*
X153073416Y-94171265D02*
X152507730Y-93605579D01*
D17*
X156382675Y-101072627D03*
D19*
X156665518Y-101355470D02*
X156099832Y-100789784D01*
D17*
X154586624Y-92092371D03*
D19*
X154869467Y-92375214D02*
X154303781Y-91809528D01*
D17*
X154586624Y-102868678D03*
D14*
G36*
X156072962Y-103151521D02*
X154869467Y-104355016D01*
X153100286Y-102585835D01*
X154303781Y-101382340D01*
X156072962Y-103151521D01*
X156072962Y-103151521D01*
G37*
G04 #@! TD*
D20*
G04 #@! TO.C,J3*
X140458733Y-103447038D03*
D21*
X140458733Y-103447038D02*
X140458733Y-103447038D01*
D20*
X138662681Y-105243090D03*
D21*
X138662681Y-105243090D02*
X138662681Y-105243090D01*
D20*
X136866630Y-107039141D03*
D21*
X136866630Y-107039141D02*
X136866630Y-107039141D01*
D20*
X135070579Y-108835192D03*
D14*
G36*
X136344785Y-108835192D02*
X135070579Y-110109398D01*
X133796373Y-108835192D01*
X135070579Y-107560986D01*
X136344785Y-108835192D01*
X136344785Y-108835192D01*
G37*
G04 #@! TD*
D20*
G04 #@! TO.C,J5*
X143555146Y-106543451D03*
D21*
X143555146Y-106543451D02*
X143555146Y-106543451D01*
D20*
X141759094Y-108339503D03*
D21*
X141759094Y-108339503D02*
X141759094Y-108339503D01*
D20*
X139963043Y-110135554D03*
D21*
X139963043Y-110135554D02*
X139963043Y-110135554D01*
D20*
X138166992Y-111931605D03*
D14*
G36*
X139441198Y-111931605D02*
X138166992Y-113205811D01*
X136892786Y-111931605D01*
X138166992Y-110657399D01*
X139441198Y-111931605D01*
X139441198Y-111931605D01*
G37*
G04 #@! TD*
D20*
G04 #@! TO.C,J6*
X126698554Y-119706846D03*
D21*
X126698554Y-119706846D02*
X126698554Y-119706846D01*
D20*
X124902502Y-121502898D03*
D21*
X124902502Y-121502898D02*
X124902502Y-121502898D01*
D20*
X123106451Y-123298949D03*
D21*
X123106451Y-123298949D02*
X123106451Y-123298949D01*
D20*
X121310400Y-125095000D03*
D14*
G36*
X122584606Y-125095000D02*
X121310400Y-126369206D01*
X120036194Y-125095000D01*
X121310400Y-123820794D01*
X122584606Y-125095000D01*
X122584606Y-125095000D01*
G37*
G04 #@! TD*
D20*
G04 #@! TO.C,J7*
X131848046Y-140407846D03*
D21*
X131848046Y-140407846D02*
X131848046Y-140407846D01*
D20*
X133644098Y-142203898D03*
D21*
X133644098Y-142203898D02*
X133644098Y-142203898D01*
D20*
X135440149Y-143999949D03*
D21*
X135440149Y-143999949D02*
X135440149Y-143999949D01*
D20*
X137236200Y-145796000D03*
D14*
G36*
X137236200Y-144521794D02*
X138510406Y-145796000D01*
X137236200Y-147070206D01*
X135961994Y-145796000D01*
X137236200Y-144521794D01*
X137236200Y-144521794D01*
G37*
G04 #@! TD*
D20*
G04 #@! TO.C,J8*
X114104723Y-94584552D03*
D21*
X114104723Y-94584552D02*
X114104723Y-94584552D01*
D20*
X115962362Y-92852275D03*
D21*
X115962362Y-92852275D02*
X115962362Y-92852275D01*
D20*
X117820000Y-91120000D03*
D21*
X117820000Y-91120000D02*
X117820000Y-91120000D01*
D20*
X119677638Y-89387724D03*
D14*
G36*
X118404208Y-89343255D02*
X119722107Y-88114294D01*
X120951068Y-89432193D01*
X119633169Y-90661154D01*
X118404208Y-89343255D01*
X118404208Y-89343255D01*
G37*
G04 #@! TD*
D20*
G04 #@! TO.C,J10*
X129682425Y-122844392D03*
D21*
X129682425Y-122844392D02*
X129682425Y-122844392D01*
D20*
X127886373Y-124640444D03*
D21*
X127886373Y-124640444D02*
X127886373Y-124640444D01*
D20*
X126090322Y-126436495D03*
D21*
X126090322Y-126436495D02*
X126090322Y-126436495D01*
D20*
X124294271Y-128232546D03*
D14*
G36*
X125568477Y-128232546D02*
X124294271Y-129506752D01*
X123020065Y-128232546D01*
X124294271Y-126958340D01*
X125568477Y-128232546D01*
X125568477Y-128232546D01*
G37*
G04 #@! TD*
D12*
G04 #@! TO.C,J12*
X180848000Y-78910034D03*
D13*
X181548036Y-78209998D02*
X180147964Y-79610070D01*
D12*
X177312466Y-75374500D03*
D14*
G36*
X175140234Y-76074536D02*
X178012502Y-73202268D01*
X179484698Y-74674464D01*
X176612430Y-77546732D01*
X175140234Y-76074536D01*
X175140234Y-76074536D01*
G37*
G04 #@! TD*
D20*
G04 #@! TO.C,J1*
X146655109Y-109643416D03*
D21*
X146655109Y-109643416D02*
X146655109Y-109643416D01*
D20*
X144859057Y-111439468D03*
D21*
X144859057Y-111439468D02*
X144859057Y-111439468D01*
D20*
X143063006Y-113235519D03*
D21*
X143063006Y-113235519D02*
X143063006Y-113235519D01*
D20*
X141266955Y-115031570D03*
D14*
G36*
X142541161Y-115031570D02*
X141266955Y-116305776D01*
X139992749Y-115031570D01*
X141266955Y-113757364D01*
X142541161Y-115031570D01*
X142541161Y-115031570D01*
G37*
G04 #@! TD*
D22*
G04 #@! TO.C,J11*
X164020500Y-105346500D03*
X161480500Y-105346500D03*
X164020500Y-102806500D03*
D23*
X161480500Y-102806500D03*
G04 #@! TD*
D24*
G04 #@! TO.C,SW1*
X136568584Y-116260168D03*
X133386604Y-119442149D03*
X131972390Y-111663974D03*
X128790409Y-114845955D03*
G04 #@! TD*
G04 #@! TO.C,SW4*
X132376501Y-127424323D03*
X135558482Y-130606303D03*
X127780307Y-132020517D03*
X130962288Y-135202498D03*
G04 #@! TD*
D20*
G04 #@! TO.C,ISP*
X160260197Y-128995868D03*
D21*
X160260197Y-128995868D02*
X160260197Y-128995868D01*
D20*
X158464145Y-130791919D03*
D21*
X158464145Y-130791919D02*
X158464145Y-130791919D01*
D20*
X158464145Y-127199817D03*
D21*
X158464145Y-127199817D02*
X158464145Y-127199817D01*
D20*
X156668094Y-128995868D03*
D21*
X156668094Y-128995868D02*
X156668094Y-128995868D01*
D20*
X156668094Y-125403766D03*
D21*
X156668094Y-125403766D02*
X156668094Y-125403766D01*
D20*
X154872043Y-127199817D03*
D14*
G36*
X154872043Y-128474023D02*
X153597837Y-127199817D01*
X154872043Y-125925611D01*
X156146249Y-127199817D01*
X154872043Y-128474023D01*
X154872043Y-128474023D01*
G37*
G04 #@! TD*
D17*
G04 #@! TO.C,SW2*
X151190138Y-113100814D03*
D19*
X151190138Y-113100814D02*
X151190138Y-113100814D01*
D17*
X151190138Y-123877122D03*
D19*
X151190138Y-123877122D02*
X151190138Y-123877122D01*
D17*
X152986189Y-114896866D03*
D19*
X152986189Y-114896866D02*
X152986189Y-114896866D01*
D17*
X149394086Y-122081070D03*
D19*
X149394086Y-122081070D02*
X149394086Y-122081070D01*
D17*
X154782240Y-116692917D03*
D19*
X154782240Y-116692917D02*
X154782240Y-116692917D01*
D17*
X147598035Y-120285019D03*
D19*
X147598035Y-120285019D02*
X147598035Y-120285019D01*
D17*
X156578291Y-118488968D03*
D19*
X156578291Y-118488968D02*
X156578291Y-118488968D01*
D17*
X145801984Y-118488968D03*
D14*
G36*
X145801984Y-119692464D02*
X144598488Y-118488968D01*
X145801984Y-117285472D01*
X147005480Y-118488968D01*
X145801984Y-119692464D01*
X145801984Y-119692464D01*
G37*
G04 #@! TD*
D24*
G04 #@! TO.C,SW3*
X143531710Y-145574199D03*
X140349729Y-142392219D03*
X148127904Y-140978005D03*
X144945923Y-137796024D03*
G04 #@! TD*
D17*
G04 #@! TO.C,U3*
X168943780Y-89155095D03*
D19*
X168660937Y-89437938D02*
X169226623Y-88872252D01*
D17*
X168943780Y-99931403D03*
D19*
X168660937Y-100214246D02*
X169226623Y-99648560D01*
D17*
X170739831Y-90951147D03*
D19*
X170456988Y-91233990D02*
X171022674Y-90668304D01*
D17*
X167147728Y-98135351D03*
D19*
X166864885Y-98418194D02*
X167430571Y-97852508D01*
D17*
X172535882Y-92747198D03*
D19*
X172253039Y-93030041D02*
X172818725Y-92464355D01*
D17*
X165351677Y-96339300D03*
D19*
X165068834Y-96622143D02*
X165634520Y-96056457D01*
D17*
X174331933Y-94543249D03*
D19*
X174049090Y-94826092D02*
X174614776Y-94260406D01*
D17*
X163555626Y-94543249D03*
D14*
G36*
X163272783Y-96029587D02*
X162069288Y-94826092D01*
X163838469Y-93056911D01*
X165041964Y-94260406D01*
X163272783Y-96029587D01*
X163272783Y-96029587D01*
G37*
G04 #@! TD*
D16*
G04 #@! TO.C,D11*
X152537177Y-140580399D03*
D25*
X152537177Y-140580399D02*
X152537177Y-140580399D01*
D16*
X147149023Y-135192245D03*
D14*
G36*
X145804106Y-135192245D02*
X147149023Y-133847328D01*
X148493940Y-135192245D01*
X147149023Y-136537162D01*
X145804106Y-135192245D01*
X145804106Y-135192245D01*
G37*
G04 #@! TD*
D16*
G04 #@! TO.C,D12*
X155550853Y-138310898D03*
D25*
X155550853Y-138310898D02*
X155550853Y-138310898D01*
D16*
X150162699Y-132922744D03*
D14*
G36*
X148817782Y-132922744D02*
X150162699Y-131577827D01*
X151507616Y-132922744D01*
X150162699Y-134267661D01*
X148817782Y-132922744D01*
X148817782Y-132922744D01*
G37*
G04 #@! TD*
D16*
G04 #@! TO.C,D13*
X158142687Y-135782565D03*
D25*
X158142687Y-135782565D02*
X158142687Y-135782565D01*
D16*
X152754533Y-130394411D03*
D14*
G36*
X151409616Y-130394411D02*
X152754533Y-129049494D01*
X154099450Y-130394411D01*
X152754533Y-131739328D01*
X151409616Y-130394411D01*
X151409616Y-130394411D01*
G37*
G04 #@! TD*
D20*
G04 #@! TO.C,J9*
X157795502Y-140502098D03*
D21*
X157795502Y-140502098D02*
X157795502Y-140502098D01*
D20*
X155999451Y-142298149D03*
D21*
X155999451Y-142298149D02*
X155999451Y-142298149D01*
D20*
X154203400Y-144094200D03*
D14*
G36*
X155477606Y-144094200D02*
X154203400Y-145368406D01*
X152929194Y-144094200D01*
X154203400Y-142819994D01*
X155477606Y-144094200D01*
X155477606Y-144094200D01*
G37*
G04 #@! TD*
G04 #@! TO.C,R7*
G36*
X180787636Y-84188319D02*
X180813737Y-84192191D01*
X180839334Y-84198602D01*
X180864179Y-84207492D01*
X180888033Y-84218774D01*
X180910666Y-84232340D01*
X180931861Y-84248059D01*
X180951413Y-84265779D01*
X183012081Y-86326447D01*
X183029801Y-86345999D01*
X183045520Y-86367194D01*
X183059086Y-86389827D01*
X183070368Y-86413681D01*
X183079258Y-86438526D01*
X183085669Y-86464123D01*
X183089541Y-86490224D01*
X183090836Y-86516580D01*
X183089541Y-86542936D01*
X183085669Y-86569037D01*
X183079258Y-86594634D01*
X183070368Y-86619479D01*
X183059086Y-86643333D01*
X183045520Y-86665966D01*
X183029801Y-86687161D01*
X183012081Y-86706713D01*
X182365627Y-87353167D01*
X182346075Y-87370887D01*
X182324880Y-87386606D01*
X182302247Y-87400172D01*
X182278393Y-87411454D01*
X182253548Y-87420344D01*
X182227951Y-87426755D01*
X182201850Y-87430627D01*
X182175494Y-87431922D01*
X182149138Y-87430627D01*
X182123037Y-87426755D01*
X182097440Y-87420344D01*
X182072595Y-87411454D01*
X182048741Y-87400172D01*
X182026108Y-87386606D01*
X182004913Y-87370887D01*
X181985361Y-87353167D01*
X179924693Y-85292499D01*
X179906973Y-85272947D01*
X179891254Y-85251752D01*
X179877688Y-85229119D01*
X179866406Y-85205265D01*
X179857516Y-85180420D01*
X179851105Y-85154823D01*
X179847233Y-85128722D01*
X179845938Y-85102366D01*
X179847233Y-85076010D01*
X179851105Y-85049909D01*
X179857516Y-85024312D01*
X179866406Y-84999467D01*
X179877688Y-84975613D01*
X179891254Y-84952980D01*
X179906973Y-84931785D01*
X179924693Y-84912233D01*
X180571147Y-84265779D01*
X180590699Y-84248059D01*
X180611894Y-84232340D01*
X180634527Y-84218774D01*
X180658381Y-84207492D01*
X180683226Y-84198602D01*
X180708823Y-84192191D01*
X180734924Y-84188319D01*
X180761280Y-84187024D01*
X180787636Y-84188319D01*
X180787636Y-84188319D01*
G37*
D26*
X181468387Y-85809473D03*
D14*
G36*
X176686416Y-88289539D02*
X176712517Y-88293411D01*
X176738114Y-88299822D01*
X176762959Y-88308712D01*
X176786813Y-88319994D01*
X176809446Y-88333560D01*
X176830641Y-88349279D01*
X176850193Y-88366999D01*
X178910861Y-90427667D01*
X178928581Y-90447219D01*
X178944300Y-90468414D01*
X178957866Y-90491047D01*
X178969148Y-90514901D01*
X178978038Y-90539746D01*
X178984449Y-90565343D01*
X178988321Y-90591444D01*
X178989616Y-90617800D01*
X178988321Y-90644156D01*
X178984449Y-90670257D01*
X178978038Y-90695854D01*
X178969148Y-90720699D01*
X178957866Y-90744553D01*
X178944300Y-90767186D01*
X178928581Y-90788381D01*
X178910861Y-90807933D01*
X178264407Y-91454387D01*
X178244855Y-91472107D01*
X178223660Y-91487826D01*
X178201027Y-91501392D01*
X178177173Y-91512674D01*
X178152328Y-91521564D01*
X178126731Y-91527975D01*
X178100630Y-91531847D01*
X178074274Y-91533142D01*
X178047918Y-91531847D01*
X178021817Y-91527975D01*
X177996220Y-91521564D01*
X177971375Y-91512674D01*
X177947521Y-91501392D01*
X177924888Y-91487826D01*
X177903693Y-91472107D01*
X177884141Y-91454387D01*
X175823473Y-89393719D01*
X175805753Y-89374167D01*
X175790034Y-89352972D01*
X175776468Y-89330339D01*
X175765186Y-89306485D01*
X175756296Y-89281640D01*
X175749885Y-89256043D01*
X175746013Y-89229942D01*
X175744718Y-89203586D01*
X175746013Y-89177230D01*
X175749885Y-89151129D01*
X175756296Y-89125532D01*
X175765186Y-89100687D01*
X175776468Y-89076833D01*
X175790034Y-89054200D01*
X175805753Y-89033005D01*
X175823473Y-89013453D01*
X176469927Y-88366999D01*
X176489479Y-88349279D01*
X176510674Y-88333560D01*
X176533307Y-88319994D01*
X176557161Y-88308712D01*
X176582006Y-88299822D01*
X176607603Y-88293411D01*
X176633704Y-88289539D01*
X176660060Y-88288244D01*
X176686416Y-88289539D01*
X176686416Y-88289539D01*
G37*
D26*
X177367167Y-89910693D03*
G04 #@! TD*
D14*
G04 #@! TO.C,R8*
G36*
X164703827Y-76344208D02*
X164729928Y-76348080D01*
X164755525Y-76354491D01*
X164780370Y-76363381D01*
X164804224Y-76374663D01*
X164826857Y-76388229D01*
X164848052Y-76403948D01*
X164867604Y-76421668D01*
X166928272Y-78482336D01*
X166945992Y-78501888D01*
X166961711Y-78523083D01*
X166975277Y-78545716D01*
X166986559Y-78569570D01*
X166995449Y-78594415D01*
X167001860Y-78620012D01*
X167005732Y-78646113D01*
X167007027Y-78672469D01*
X167005732Y-78698825D01*
X167001860Y-78724926D01*
X166995449Y-78750523D01*
X166986559Y-78775368D01*
X166975277Y-78799222D01*
X166961711Y-78821855D01*
X166945992Y-78843050D01*
X166928272Y-78862602D01*
X166281818Y-79509056D01*
X166262266Y-79526776D01*
X166241071Y-79542495D01*
X166218438Y-79556061D01*
X166194584Y-79567343D01*
X166169739Y-79576233D01*
X166144142Y-79582644D01*
X166118041Y-79586516D01*
X166091685Y-79587811D01*
X166065329Y-79586516D01*
X166039228Y-79582644D01*
X166013631Y-79576233D01*
X165988786Y-79567343D01*
X165964932Y-79556061D01*
X165942299Y-79542495D01*
X165921104Y-79526776D01*
X165901552Y-79509056D01*
X163840884Y-77448388D01*
X163823164Y-77428836D01*
X163807445Y-77407641D01*
X163793879Y-77385008D01*
X163782597Y-77361154D01*
X163773707Y-77336309D01*
X163767296Y-77310712D01*
X163763424Y-77284611D01*
X163762129Y-77258255D01*
X163763424Y-77231899D01*
X163767296Y-77205798D01*
X163773707Y-77180201D01*
X163782597Y-77155356D01*
X163793879Y-77131502D01*
X163807445Y-77108869D01*
X163823164Y-77087674D01*
X163840884Y-77068122D01*
X164487338Y-76421668D01*
X164506890Y-76403948D01*
X164528085Y-76388229D01*
X164550718Y-76374663D01*
X164574572Y-76363381D01*
X164599417Y-76354491D01*
X164625014Y-76348080D01*
X164651115Y-76344208D01*
X164677471Y-76342913D01*
X164703827Y-76344208D01*
X164703827Y-76344208D01*
G37*
D26*
X165384578Y-77965362D03*
D14*
G36*
X168805045Y-72242988D02*
X168831146Y-72246860D01*
X168856743Y-72253271D01*
X168881588Y-72262161D01*
X168905442Y-72273443D01*
X168928075Y-72287009D01*
X168949270Y-72302728D01*
X168968822Y-72320448D01*
X171029490Y-74381116D01*
X171047210Y-74400668D01*
X171062929Y-74421863D01*
X171076495Y-74444496D01*
X171087777Y-74468350D01*
X171096667Y-74493195D01*
X171103078Y-74518792D01*
X171106950Y-74544893D01*
X171108245Y-74571249D01*
X171106950Y-74597605D01*
X171103078Y-74623706D01*
X171096667Y-74649303D01*
X171087777Y-74674148D01*
X171076495Y-74698002D01*
X171062929Y-74720635D01*
X171047210Y-74741830D01*
X171029490Y-74761382D01*
X170383036Y-75407836D01*
X170363484Y-75425556D01*
X170342289Y-75441275D01*
X170319656Y-75454841D01*
X170295802Y-75466123D01*
X170270957Y-75475013D01*
X170245360Y-75481424D01*
X170219259Y-75485296D01*
X170192903Y-75486591D01*
X170166547Y-75485296D01*
X170140446Y-75481424D01*
X170114849Y-75475013D01*
X170090004Y-75466123D01*
X170066150Y-75454841D01*
X170043517Y-75441275D01*
X170022322Y-75425556D01*
X170002770Y-75407836D01*
X167942102Y-73347168D01*
X167924382Y-73327616D01*
X167908663Y-73306421D01*
X167895097Y-73283788D01*
X167883815Y-73259934D01*
X167874925Y-73235089D01*
X167868514Y-73209492D01*
X167864642Y-73183391D01*
X167863347Y-73157035D01*
X167864642Y-73130679D01*
X167868514Y-73104578D01*
X167874925Y-73078981D01*
X167883815Y-73054136D01*
X167895097Y-73030282D01*
X167908663Y-73007649D01*
X167924382Y-72986454D01*
X167942102Y-72966902D01*
X168588556Y-72320448D01*
X168608108Y-72302728D01*
X168629303Y-72287009D01*
X168651936Y-72273443D01*
X168675790Y-72262161D01*
X168700635Y-72253271D01*
X168726232Y-72246860D01*
X168752333Y-72242988D01*
X168778689Y-72241693D01*
X168805045Y-72242988D01*
X168805045Y-72242988D01*
G37*
D26*
X169485796Y-73864142D03*
G04 #@! TD*
D14*
G04 #@! TO.C,R9*
G36*
X167661260Y-79264382D02*
X167687361Y-79268254D01*
X167712958Y-79274665D01*
X167737803Y-79283555D01*
X167761657Y-79294837D01*
X167784290Y-79308403D01*
X167805485Y-79324122D01*
X167825037Y-79341842D01*
X169885705Y-81402510D01*
X169903425Y-81422062D01*
X169919144Y-81443257D01*
X169932710Y-81465890D01*
X169943992Y-81489744D01*
X169952882Y-81514589D01*
X169959293Y-81540186D01*
X169963165Y-81566287D01*
X169964460Y-81592643D01*
X169963165Y-81618999D01*
X169959293Y-81645100D01*
X169952882Y-81670697D01*
X169943992Y-81695542D01*
X169932710Y-81719396D01*
X169919144Y-81742029D01*
X169903425Y-81763224D01*
X169885705Y-81782776D01*
X169239251Y-82429230D01*
X169219699Y-82446950D01*
X169198504Y-82462669D01*
X169175871Y-82476235D01*
X169152017Y-82487517D01*
X169127172Y-82496407D01*
X169101575Y-82502818D01*
X169075474Y-82506690D01*
X169049118Y-82507985D01*
X169022762Y-82506690D01*
X168996661Y-82502818D01*
X168971064Y-82496407D01*
X168946219Y-82487517D01*
X168922365Y-82476235D01*
X168899732Y-82462669D01*
X168878537Y-82446950D01*
X168858985Y-82429230D01*
X166798317Y-80368562D01*
X166780597Y-80349010D01*
X166764878Y-80327815D01*
X166751312Y-80305182D01*
X166740030Y-80281328D01*
X166731140Y-80256483D01*
X166724729Y-80230886D01*
X166720857Y-80204785D01*
X166719562Y-80178429D01*
X166720857Y-80152073D01*
X166724729Y-80125972D01*
X166731140Y-80100375D01*
X166740030Y-80075530D01*
X166751312Y-80051676D01*
X166764878Y-80029043D01*
X166780597Y-80007848D01*
X166798317Y-79988296D01*
X167444771Y-79341842D01*
X167464323Y-79324122D01*
X167485518Y-79308403D01*
X167508151Y-79294837D01*
X167532005Y-79283555D01*
X167556850Y-79274665D01*
X167582447Y-79268254D01*
X167608548Y-79264382D01*
X167634904Y-79263087D01*
X167661260Y-79264382D01*
X167661260Y-79264382D01*
G37*
D26*
X168342011Y-80885536D03*
D14*
G36*
X171762478Y-75163162D02*
X171788579Y-75167034D01*
X171814176Y-75173445D01*
X171839021Y-75182335D01*
X171862875Y-75193617D01*
X171885508Y-75207183D01*
X171906703Y-75222902D01*
X171926255Y-75240622D01*
X173986923Y-77301290D01*
X174004643Y-77320842D01*
X174020362Y-77342037D01*
X174033928Y-77364670D01*
X174045210Y-77388524D01*
X174054100Y-77413369D01*
X174060511Y-77438966D01*
X174064383Y-77465067D01*
X174065678Y-77491423D01*
X174064383Y-77517779D01*
X174060511Y-77543880D01*
X174054100Y-77569477D01*
X174045210Y-77594322D01*
X174033928Y-77618176D01*
X174020362Y-77640809D01*
X174004643Y-77662004D01*
X173986923Y-77681556D01*
X173340469Y-78328010D01*
X173320917Y-78345730D01*
X173299722Y-78361449D01*
X173277089Y-78375015D01*
X173253235Y-78386297D01*
X173228390Y-78395187D01*
X173202793Y-78401598D01*
X173176692Y-78405470D01*
X173150336Y-78406765D01*
X173123980Y-78405470D01*
X173097879Y-78401598D01*
X173072282Y-78395187D01*
X173047437Y-78386297D01*
X173023583Y-78375015D01*
X173000950Y-78361449D01*
X172979755Y-78345730D01*
X172960203Y-78328010D01*
X170899535Y-76267342D01*
X170881815Y-76247790D01*
X170866096Y-76226595D01*
X170852530Y-76203962D01*
X170841248Y-76180108D01*
X170832358Y-76155263D01*
X170825947Y-76129666D01*
X170822075Y-76103565D01*
X170820780Y-76077209D01*
X170822075Y-76050853D01*
X170825947Y-76024752D01*
X170832358Y-75999155D01*
X170841248Y-75974310D01*
X170852530Y-75950456D01*
X170866096Y-75927823D01*
X170881815Y-75906628D01*
X170899535Y-75887076D01*
X171545989Y-75240622D01*
X171565541Y-75222902D01*
X171586736Y-75207183D01*
X171609369Y-75193617D01*
X171633223Y-75182335D01*
X171658068Y-75173445D01*
X171683665Y-75167034D01*
X171709766Y-75163162D01*
X171736122Y-75161867D01*
X171762478Y-75163162D01*
X171762478Y-75163162D01*
G37*
D26*
X172443229Y-76784316D03*
G04 #@! TD*
D14*
G04 #@! TO.C,R11*
G36*
X174725963Y-78126646D02*
X174752064Y-78130518D01*
X174777661Y-78136929D01*
X174802506Y-78145819D01*
X174826360Y-78157101D01*
X174848993Y-78170667D01*
X174870188Y-78186386D01*
X174889740Y-78204106D01*
X176950408Y-80264774D01*
X176968128Y-80284326D01*
X176983847Y-80305521D01*
X176997413Y-80328154D01*
X177008695Y-80352008D01*
X177017585Y-80376853D01*
X177023996Y-80402450D01*
X177027868Y-80428551D01*
X177029163Y-80454907D01*
X177027868Y-80481263D01*
X177023996Y-80507364D01*
X177017585Y-80532961D01*
X177008695Y-80557806D01*
X176997413Y-80581660D01*
X176983847Y-80604293D01*
X176968128Y-80625488D01*
X176950408Y-80645040D01*
X176303954Y-81291494D01*
X176284402Y-81309214D01*
X176263207Y-81324933D01*
X176240574Y-81338499D01*
X176216720Y-81349781D01*
X176191875Y-81358671D01*
X176166278Y-81365082D01*
X176140177Y-81368954D01*
X176113821Y-81370249D01*
X176087465Y-81368954D01*
X176061364Y-81365082D01*
X176035767Y-81358671D01*
X176010922Y-81349781D01*
X175987068Y-81338499D01*
X175964435Y-81324933D01*
X175943240Y-81309214D01*
X175923688Y-81291494D01*
X173863020Y-79230826D01*
X173845300Y-79211274D01*
X173829581Y-79190079D01*
X173816015Y-79167446D01*
X173804733Y-79143592D01*
X173795843Y-79118747D01*
X173789432Y-79093150D01*
X173785560Y-79067049D01*
X173784265Y-79040693D01*
X173785560Y-79014337D01*
X173789432Y-78988236D01*
X173795843Y-78962639D01*
X173804733Y-78937794D01*
X173816015Y-78913940D01*
X173829581Y-78891307D01*
X173845300Y-78870112D01*
X173863020Y-78850560D01*
X174509474Y-78204106D01*
X174529026Y-78186386D01*
X174550221Y-78170667D01*
X174572854Y-78157101D01*
X174596708Y-78145819D01*
X174621553Y-78136929D01*
X174647150Y-78130518D01*
X174673251Y-78126646D01*
X174699607Y-78125351D01*
X174725963Y-78126646D01*
X174725963Y-78126646D01*
G37*
D26*
X175406714Y-79747800D03*
D14*
G36*
X170624743Y-82227866D02*
X170650844Y-82231738D01*
X170676441Y-82238149D01*
X170701286Y-82247039D01*
X170725140Y-82258321D01*
X170747773Y-82271887D01*
X170768968Y-82287606D01*
X170788520Y-82305326D01*
X172849188Y-84365994D01*
X172866908Y-84385546D01*
X172882627Y-84406741D01*
X172896193Y-84429374D01*
X172907475Y-84453228D01*
X172916365Y-84478073D01*
X172922776Y-84503670D01*
X172926648Y-84529771D01*
X172927943Y-84556127D01*
X172926648Y-84582483D01*
X172922776Y-84608584D01*
X172916365Y-84634181D01*
X172907475Y-84659026D01*
X172896193Y-84682880D01*
X172882627Y-84705513D01*
X172866908Y-84726708D01*
X172849188Y-84746260D01*
X172202734Y-85392714D01*
X172183182Y-85410434D01*
X172161987Y-85426153D01*
X172139354Y-85439719D01*
X172115500Y-85451001D01*
X172090655Y-85459891D01*
X172065058Y-85466302D01*
X172038957Y-85470174D01*
X172012601Y-85471469D01*
X171986245Y-85470174D01*
X171960144Y-85466302D01*
X171934547Y-85459891D01*
X171909702Y-85451001D01*
X171885848Y-85439719D01*
X171863215Y-85426153D01*
X171842020Y-85410434D01*
X171822468Y-85392714D01*
X169761800Y-83332046D01*
X169744080Y-83312494D01*
X169728361Y-83291299D01*
X169714795Y-83268666D01*
X169703513Y-83244812D01*
X169694623Y-83219967D01*
X169688212Y-83194370D01*
X169684340Y-83168269D01*
X169683045Y-83141913D01*
X169684340Y-83115557D01*
X169688212Y-83089456D01*
X169694623Y-83063859D01*
X169703513Y-83039014D01*
X169714795Y-83015160D01*
X169728361Y-82992527D01*
X169744080Y-82971332D01*
X169761800Y-82951780D01*
X170408254Y-82305326D01*
X170427806Y-82287606D01*
X170449001Y-82271887D01*
X170471634Y-82258321D01*
X170495488Y-82247039D01*
X170520333Y-82238149D01*
X170545930Y-82231738D01*
X170572031Y-82227866D01*
X170598387Y-82226571D01*
X170624743Y-82227866D01*
X170624743Y-82227866D01*
G37*
D26*
X171305494Y-83849020D03*
G04 #@! TD*
D14*
G04 #@! TO.C,R12*
G36*
X173633129Y-85236252D02*
X173659230Y-85240124D01*
X173684827Y-85246535D01*
X173709672Y-85255425D01*
X173733526Y-85266707D01*
X173756159Y-85280273D01*
X173777354Y-85295992D01*
X173796906Y-85313712D01*
X175857574Y-87374380D01*
X175875294Y-87393932D01*
X175891013Y-87415127D01*
X175904579Y-87437760D01*
X175915861Y-87461614D01*
X175924751Y-87486459D01*
X175931162Y-87512056D01*
X175935034Y-87538157D01*
X175936329Y-87564513D01*
X175935034Y-87590869D01*
X175931162Y-87616970D01*
X175924751Y-87642567D01*
X175915861Y-87667412D01*
X175904579Y-87691266D01*
X175891013Y-87713899D01*
X175875294Y-87735094D01*
X175857574Y-87754646D01*
X175211120Y-88401100D01*
X175191568Y-88418820D01*
X175170373Y-88434539D01*
X175147740Y-88448105D01*
X175123886Y-88459387D01*
X175099041Y-88468277D01*
X175073444Y-88474688D01*
X175047343Y-88478560D01*
X175020987Y-88479855D01*
X174994631Y-88478560D01*
X174968530Y-88474688D01*
X174942933Y-88468277D01*
X174918088Y-88459387D01*
X174894234Y-88448105D01*
X174871601Y-88434539D01*
X174850406Y-88418820D01*
X174830854Y-88401100D01*
X172770186Y-86340432D01*
X172752466Y-86320880D01*
X172736747Y-86299685D01*
X172723181Y-86277052D01*
X172711899Y-86253198D01*
X172703009Y-86228353D01*
X172696598Y-86202756D01*
X172692726Y-86176655D01*
X172691431Y-86150299D01*
X172692726Y-86123943D01*
X172696598Y-86097842D01*
X172703009Y-86072245D01*
X172711899Y-86047400D01*
X172723181Y-86023546D01*
X172736747Y-86000913D01*
X172752466Y-85979718D01*
X172770186Y-85960166D01*
X173416640Y-85313712D01*
X173436192Y-85295992D01*
X173457387Y-85280273D01*
X173480020Y-85266707D01*
X173503874Y-85255425D01*
X173528719Y-85246535D01*
X173554316Y-85240124D01*
X173580417Y-85236252D01*
X173606773Y-85234957D01*
X173633129Y-85236252D01*
X173633129Y-85236252D01*
G37*
D26*
X174313880Y-86857406D03*
D14*
G36*
X177734349Y-81135032D02*
X177760450Y-81138904D01*
X177786047Y-81145315D01*
X177810892Y-81154205D01*
X177834746Y-81165487D01*
X177857379Y-81179053D01*
X177878574Y-81194772D01*
X177898126Y-81212492D01*
X179958794Y-83273160D01*
X179976514Y-83292712D01*
X179992233Y-83313907D01*
X180005799Y-83336540D01*
X180017081Y-83360394D01*
X180025971Y-83385239D01*
X180032382Y-83410836D01*
X180036254Y-83436937D01*
X180037549Y-83463293D01*
X180036254Y-83489649D01*
X180032382Y-83515750D01*
X180025971Y-83541347D01*
X180017081Y-83566192D01*
X180005799Y-83590046D01*
X179992233Y-83612679D01*
X179976514Y-83633874D01*
X179958794Y-83653426D01*
X179312340Y-84299880D01*
X179292788Y-84317600D01*
X179271593Y-84333319D01*
X179248960Y-84346885D01*
X179225106Y-84358167D01*
X179200261Y-84367057D01*
X179174664Y-84373468D01*
X179148563Y-84377340D01*
X179122207Y-84378635D01*
X179095851Y-84377340D01*
X179069750Y-84373468D01*
X179044153Y-84367057D01*
X179019308Y-84358167D01*
X178995454Y-84346885D01*
X178972821Y-84333319D01*
X178951626Y-84317600D01*
X178932074Y-84299880D01*
X176871406Y-82239212D01*
X176853686Y-82219660D01*
X176837967Y-82198465D01*
X176824401Y-82175832D01*
X176813119Y-82151978D01*
X176804229Y-82127133D01*
X176797818Y-82101536D01*
X176793946Y-82075435D01*
X176792651Y-82049079D01*
X176793946Y-82022723D01*
X176797818Y-81996622D01*
X176804229Y-81971025D01*
X176813119Y-81946180D01*
X176824401Y-81922326D01*
X176837967Y-81899693D01*
X176853686Y-81878498D01*
X176871406Y-81858946D01*
X177517860Y-81212492D01*
X177537412Y-81194772D01*
X177558607Y-81179053D01*
X177581240Y-81165487D01*
X177605094Y-81154205D01*
X177629939Y-81145315D01*
X177655536Y-81138904D01*
X177681637Y-81135032D01*
X177707993Y-81133737D01*
X177734349Y-81135032D01*
X177734349Y-81135032D01*
G37*
D26*
X178415100Y-82756186D03*
G04 #@! TD*
D20*
G04 #@! TO.C,J13*
X140970000Y-98171000D03*
D14*
G36*
X140970000Y-99445206D02*
X139695794Y-98171000D01*
X140970000Y-96896794D01*
X142244206Y-98171000D01*
X140970000Y-99445206D01*
X140970000Y-99445206D01*
G37*
D20*
X142766051Y-99967051D03*
D21*
X142766051Y-99967051D02*
X142766051Y-99967051D01*
G04 #@! TD*
D18*
G04 #@! TO.C,REF\002A\002A*
X199390000Y-93853000D03*
G04 #@! TD*
D27*
X161239200Y-123621800D03*
X118364000Y-146304000D03*
X119380000Y-147320000D03*
X117348000Y-147320000D03*
X116332000Y-148336000D03*
X120480000Y-148380000D03*
X118364000Y-148336000D03*
X156972000Y-149352000D03*
X157988000Y-148336000D03*
X159004000Y-147320000D03*
X160020000Y-146304000D03*
X161036000Y-145288000D03*
X162052000Y-144272000D03*
X163068000Y-143256000D03*
X164084000Y-142240000D03*
X164084000Y-140716000D03*
X165100000Y-138684000D03*
X166116000Y-137668000D03*
X159004000Y-149352000D03*
X160020000Y-148336000D03*
X161036000Y-147320000D03*
X162052000Y-146304000D03*
X163068000Y-145288000D03*
X164084000Y-144272000D03*
X165608000Y-140716000D03*
X165608000Y-142240000D03*
X167640000Y-138176000D03*
X134620000Y-87376000D03*
X133096000Y-87122000D03*
X133350000Y-88646000D03*
X131826000Y-88392000D03*
X132080000Y-89916000D03*
X130556000Y-89662000D03*
X130810000Y-91186000D03*
X138684000Y-94996000D03*
X140208000Y-93980000D03*
X140208000Y-95504000D03*
X138684000Y-96520000D03*
X166624000Y-117856000D03*
X166624000Y-115824000D03*
X163576000Y-109728000D03*
X163068000Y-111252000D03*
X162052000Y-112268000D03*
X161036000Y-113284000D03*
X162560000Y-97536000D03*
X158496000Y-90424000D03*
X157480000Y-91440000D03*
X155448000Y-94488000D03*
X156464000Y-93472000D03*
X161830000Y-96360000D03*
X157988000Y-107188000D03*
X116332000Y-95504000D03*
X117348000Y-94488000D03*
X119888000Y-101092000D03*
X123444000Y-86360000D03*
X124968000Y-85344000D03*
X126492000Y-84328000D03*
X128016000Y-83312000D03*
X129540000Y-82296000D03*
X168148000Y-60960000D03*
X165608000Y-82296000D03*
X166624000Y-83312000D03*
X164592000Y-83312000D03*
X165608000Y-84328000D03*
X163576000Y-67818000D03*
X165100000Y-67818000D03*
X166624000Y-67818000D03*
X168148000Y-67818000D03*
X169672000Y-67818000D03*
X170942000Y-68834000D03*
X169672000Y-69850000D03*
X171958000Y-70104000D03*
X170688000Y-71120000D03*
X184658000Y-82296000D03*
X187198000Y-93726000D03*
X187452000Y-92202000D03*
X188976000Y-92202000D03*
X190246000Y-91186000D03*
X191262000Y-89916000D03*
X182626000Y-99060000D03*
X181610000Y-98044000D03*
X178310000Y-95140000D03*
X181610000Y-91948000D03*
X182880000Y-91440000D03*
X181610000Y-90678000D03*
X170307000Y-97409000D03*
X169164000Y-96266000D03*
X167894000Y-94996000D03*
X166624000Y-93726000D03*
X165354000Y-92456000D03*
X136330000Y-100980000D03*
X135240000Y-102090000D03*
X117729000Y-124968000D03*
X117729000Y-126619000D03*
X117729000Y-128270000D03*
X111760000Y-129794000D03*
X111760000Y-128270000D03*
X111760000Y-126619000D03*
X111760000Y-124968000D03*
X117729000Y-129794000D03*
X143891000Y-125730000D03*
X142875000Y-126746000D03*
X129032000Y-136906000D03*
X129921000Y-137922000D03*
X121920000Y-131445000D03*
X121920000Y-132969000D03*
X121920000Y-134493000D03*
X118999000Y-127508000D03*
X118999000Y-129159000D03*
X118999000Y-125857000D03*
X110363000Y-125730000D03*
X110363000Y-127381000D03*
X110363000Y-129032000D03*
X131318000Y-131064000D03*
X165608000Y-116586000D03*
X151511000Y-100838000D03*
X166497000Y-60960000D03*
X164973000Y-60960000D03*
X163322000Y-60960000D03*
X165735000Y-59563000D03*
X167386000Y-59563000D03*
X164211000Y-59563000D03*
X183896000Y-117602000D03*
X182372000Y-116586000D03*
X182880000Y-118872000D03*
X181356000Y-117856000D03*
X181864000Y-120142000D03*
X180340000Y-119126000D03*
X180848000Y-121412000D03*
X177800000Y-126080000D03*
X176580000Y-127490000D03*
X175450000Y-128910000D03*
X194945000Y-96520000D03*
X195961000Y-95504000D03*
X196342000Y-96774000D03*
X195326000Y-97790000D03*
X193929000Y-97536000D03*
X194183000Y-98933000D03*
X192786000Y-98552000D03*
X193040000Y-99949000D03*
X191643000Y-99568000D03*
X166623999Y-139191999D03*
X146010000Y-115950000D03*
X146930000Y-114950000D03*
X147860000Y-113990000D03*
X148870000Y-113000000D03*
X149098000Y-116332000D03*
X150876000Y-116332000D03*
X150114000Y-117602000D03*
X151892000Y-117602000D03*
X151130000Y-118872000D03*
X152654000Y-118872000D03*
X166624000Y-113665000D03*
X165735000Y-114808000D03*
X183388000Y-115316000D03*
X163068000Y-74676000D03*
X133096000Y-149860000D03*
X132334000Y-148844000D03*
X131572000Y-149860000D03*
X132588000Y-130302000D03*
X133350000Y-131572000D03*
X145288000Y-68580000D03*
X146558000Y-67564000D03*
X147828000Y-66548000D03*
X149098000Y-65532000D03*
X149352000Y-67056000D03*
X148082000Y-68072000D03*
X146812000Y-69088000D03*
X183134000Y-82296000D03*
X115316000Y-96520000D03*
X111252000Y-96266000D03*
X110236000Y-97282000D03*
X109220000Y-98551998D03*
X108204000Y-99568000D03*
X132000000Y-114260000D03*
X133740000Y-114470000D03*
X133660000Y-116070000D03*
X156710000Y-123380000D03*
D28*
X162850000Y-101170000D03*
D27*
X157070000Y-103560000D03*
D28*
X157829999Y-104480001D03*
X135230000Y-100950000D03*
X162990000Y-130370000D03*
X163450000Y-129260002D03*
X163570000Y-129930000D03*
D27*
X174360000Y-130270000D03*
D28*
X162960000Y-84040000D03*
X162380000Y-84590000D03*
X161810000Y-85180000D03*
D27*
X120904000Y-117729000D03*
X177800000Y-114808000D03*
X178816000Y-113792000D03*
X114808000Y-115214400D03*
X114782600Y-116535200D03*
X112610000Y-140290000D03*
X111010000Y-140820000D03*
X112020000Y-141800000D03*
X143002000Y-77216000D03*
X140970000Y-79248000D03*
X139954000Y-80264000D03*
X144381286Y-76454000D03*
X141986000Y-78232000D03*
X138938000Y-81534000D03*
X179832000Y-111252000D03*
X179832000Y-112776000D03*
X176784000Y-115824000D03*
X175587874Y-116840000D03*
X115770000Y-137089998D03*
X114782602Y-138115330D03*
X113640000Y-139280000D03*
X136271000Y-123621800D03*
X155549600Y-122047000D03*
X147675600Y-139090400D03*
X169809210Y-121843800D03*
M02*
