M48
;DRILL file {KiCad (5.0.1)-3} date 11/5/2018 8:46:58 PM
;FORMAT={-:-/ absolute / inch / decimal}
FMAT,2
INCH,TZ
T1C0.0157
T2C0.0315
T3C0.0354
T4C0.0394
T5C0.0433
T6C0.0520
T7C0.1260
T8C0.1400
%
G90
G05
M72
T1
X5.324Y-3.9744
X6.03Y-4.23
X6.06Y-4.2
X6.1882Y-4.1197
X6.3705Y-3.3535
X6.3929Y-3.3303
X6.3996Y-3.8835
X6.4157Y-3.3087
X6.4169Y-5.1327
X6.435Y-5.089
X6.4398Y-5.1154
T2
X4.26Y-3.92
X4.3Y-3.88
X4.34Y-3.83
X4.345Y-4.95
X4.345Y-5.015
X4.345Y-5.08
X4.3705Y-5.5441
X4.38Y-3.79
X4.4Y-4.92
X4.4Y-4.985
X4.4Y-5.05
X4.4Y-5.11
X4.4102Y-5.5827
X4.4335Y-5.5232
X4.474Y-5.4835
X4.519Y-4.588
X4.519Y-5.4376
X4.52Y-4.536
X4.54Y-3.8
X4.5579Y-5.3972
X4.58Y-3.76
X4.58Y-5.84
X4.62Y-3.72
X4.62Y-5.8
X4.635Y-4.92
X4.635Y-4.985
X4.635Y-5.05
X4.635Y-5.11
X4.66Y-5.76
X4.66Y-5.84
X4.685Y-4.955
X4.685Y-5.02
X4.685Y-5.085
X4.7Y-5.8
X4.72Y-3.98
X4.7433Y-5.8417
X4.76Y-4.635
X4.8Y-5.175
X4.8Y-5.235
X4.8Y-5.295
X4.86Y-3.4
X4.92Y-3.36
X4.98Y-3.32
X5.04Y-3.28
X5.08Y-5.39
X5.1Y-3.24
X5.115Y-5.43
X5.14Y-3.53
X5.15Y-3.59
X5.17Y-5.16
X5.18Y-5.9
X5.19Y-3.48
X5.1969Y-4.4984
X5.2Y-3.54
X5.21Y-5.86
X5.22Y-5.13
X5.24Y-3.43
X5.24Y-5.9
X5.25Y-3.49
X5.25Y-5.18
X5.2622Y-4.5697
X5.2654Y-4.5067
X5.3Y-3.44
X5.3244Y-4.0193
X5.365Y-4.867
X5.3673Y-3.9756
X5.46Y-3.74
X5.46Y-3.8
X5.47Y-3.21
X5.51Y-3.16
X5.52Y-3.7
X5.52Y-3.76
X5.55Y-3.12
X5.59Y-3.08
X5.625Y-4.99
X5.63Y-3.04
X5.665Y-4.95
X5.6843Y-3.01
X5.72Y-2.7
X5.7484Y-4.565
X5.77Y-2.66
X5.78Y-2.72
X5.7846Y-4.5256
X5.814Y-5.476
X5.82Y-2.62
X5.8213Y-4.4878
X5.83Y-2.68
X5.861Y-4.4488
X5.87Y-2.58
X5.87Y-4.58
X5.88Y-2.64
X5.91Y-4.63
X5.94Y-4.58
X5.95Y-4.68
X5.965Y-3.97
X5.98Y-4.63
X6.01Y-4.68
X6.12Y-3.72
X6.124Y-4.805
X6.16Y-3.68
X6.1697Y-4.8575
X6.18Y-5.88
X6.1839Y-4.0772
X6.2Y-3.6
X6.22Y-4.22
X6.22Y-5.84
X6.24Y-3.56
X6.26Y-5.8
X6.26Y-5.88
X6.3Y-5.76
X6.3Y-5.84
X6.34Y-4.46
X6.34Y-5.72
X6.34Y-5.8
X6.348Y-4.867
X6.3713Y-3.7937
X6.38Y-4.42
X6.38Y-5.68
X6.38Y-5.76
X6.4Y-3.84
X6.42Y-2.94
X6.42Y-4.38
X6.42Y-5.64
X6.42Y-5.72
X6.43Y-2.4
X6.44Y-2.67
X6.44Y-4.32
X6.46Y-5.54
X6.46Y-5.6
X6.46Y-5.68
X6.465Y-2.345
X6.48Y-3.28
X6.495Y-2.4
X6.5Y-2.67
X6.5Y-5.46
X6.51Y-3.64
X6.52Y-3.24
X6.52Y-3.32
X6.52Y-4.59
X6.52Y-5.54
X6.52Y-5.6
X6.525Y-2.345
X6.525Y-4.52
X6.54Y-5.42
X6.555Y-2.4
X6.557Y-4.637
X6.56Y-5.48
X6.56Y-2.67
X6.56Y-3.28
X6.56Y-3.69
X6.56Y-4.475
X6.56Y-4.56
X6.59Y-2.345
X6.6Y-5.44
X6.61Y-3.74
X6.62Y-2.4
X6.62Y-2.67
X6.66Y-3.79
X6.6734Y-4.69
X6.68Y-2.67
X6.68Y-2.75
X6.705Y-3.835
X6.72Y-2.8
X6.73Y-2.71
X6.77Y-2.76
X6.8646Y-5.1287
X6.9075Y-5.0752
X6.9129Y-4.6
X6.952Y-5.0193
X6.96Y-4.56
X7.Y-4.52
X7.Y-4.9638
X7.0201Y-3.7457
X7.04Y-4.48
X7.08Y-4.38
X7.08Y-4.44
X7.1Y-4.69
X7.12Y-4.78
X7.14Y-4.64
X7.15Y-3.57
X7.15Y-3.62
X7.15Y-3.86
X7.16Y-4.73
X7.18Y-4.59
X7.19Y-3.9
X7.2Y-3.6
X7.2Y-4.68
X7.21Y-3.24
X7.22Y-4.54
X7.24Y-4.63
X7.27Y-3.24
X7.37Y-3.69
X7.38Y-3.63
X7.44Y-3.63
X7.49Y-3.59
X7.53Y-3.54
X7.545Y-3.92
X7.59Y-3.88
X7.6Y-3.935
X7.635Y-3.84
X7.645Y-3.895
X7.675Y-3.8
X7.69Y-3.85
X7.715Y-3.76
X7.73Y-3.81
X5.0953Y-3.4611
X5.1002Y-3.4047
X5.2332Y-3.3454
X5.2381Y-3.289
X6.6936Y-4.2239
X6.7643Y-4.1532
X6.835Y-4.0825
X6.7801Y-4.9565
X6.787Y-5.0127
X6.8766Y-4.9304
X6.8855Y-4.8866
X5.874Y-3.8378
X5.9447Y-3.7671
X6.0154Y-3.6964
X6.0861Y-3.6257
X6.0861Y-4.0499
X6.1568Y-3.9792
X6.2275Y-3.9085
X6.2982Y-3.8378
X5.8625Y-3.3925
X5.9332Y-3.3218
X6.0039Y-3.2511
X4.685Y-5.4493
X4.7416Y-5.4493
X4.8264Y-5.5907
X4.883Y-5.5907
X5.7402Y-4.6649
X5.8109Y-4.7356
X5.8817Y-4.8063
X5.9524Y-4.4528
X5.9524Y-4.8771
X6.0231Y-4.5235
X6.0938Y-4.5942
X6.1645Y-4.6649
X6.4392Y-3.7222
X6.5099Y-3.7929
X6.5806Y-3.8636
X6.6513Y-3.51
X6.6513Y-3.9343
X6.722Y-3.5808
X6.7928Y-3.6515
X6.8635Y-3.7222
X6.3275Y-2.9275
X6.3982Y-2.8568
X6.4689Y-2.7861
X4.3263Y-5.2372
X4.3563Y-5.1972
X4.4563Y-5.1972
X4.4863Y-5.1572
X4.336Y-4.821
X4.376Y-4.781
X4.636Y-4.821
X4.676Y-4.781
X7.1561Y-3.7614
X7.2268Y-3.6907
X7.2975Y-3.62
T3
X5.9119Y-5.2332
X6.124Y-5.4453
X5.7933Y-5.3225
X6.0054Y-5.5347
X6.014Y-5.1336
X6.2261Y-5.3458
T4
X6.3575Y-4.0475
X6.3575Y-4.1475
X6.4575Y-4.0475
X6.4575Y-4.1475
X4.8935Y-5.0485
X4.9642Y-4.9778
X5.0349Y-4.9071
X5.1056Y-4.8364
X5.55Y-3.865
X5.6207Y-3.9357
X6.0973Y-5.0079
X6.168Y-4.9372
X6.168Y-5.0786
X6.2387Y-5.0079
X6.2387Y-5.1493
X6.3095Y-5.0786
X5.3177Y-4.2849
X5.3884Y-4.2141
X5.4592Y-4.1434
X5.5299Y-4.0727
X5.4396Y-4.4068
X5.5104Y-4.336
X5.5811Y-4.2653
X5.6518Y-4.1946
X4.4923Y-3.7238
X4.5654Y-3.6556
X4.6386Y-3.5874
X4.7117Y-3.5192
X6.071Y-5.673
X6.1417Y-5.6023
X6.2124Y-5.5316
X5.1909Y-5.5279
X5.2616Y-5.5986
X5.3323Y-5.6693
X5.403Y-5.74
X4.776Y-4.925
X4.8467Y-4.8543
X4.9174Y-4.7836
X4.9881Y-4.7129
X5.5617Y-4.5288
X5.6324Y-4.4581
X5.7031Y-4.3874
X5.7738Y-4.3167
T5
X5.0705Y-4.5215
X5.1958Y-4.3962
X5.2514Y-4.7024
X5.3767Y-4.5772
X5.0307Y-5.1977
X5.156Y-5.3229
X5.2117Y-5.0167
X5.3369Y-5.142
X5.5256Y-5.606
X5.6509Y-5.7313
X5.7065Y-5.425
X5.8318Y-5.5503
T6
X6.9808Y-2.9675
X7.12Y-3.1067
X4.2937Y-5.6594
X4.4329Y-5.7986
T7
X6.39Y-2.24
X4.2791Y-4.4488
X7.85Y-3.695
X5.0657Y-5.8091
T8
X6.7996Y-4.4714
X7.0825Y-4.1886
X5.615Y-3.2864
X5.8979Y-3.0036
X6.08Y-2.8214
X6.3629Y-2.5386
X7.2621Y-4.0089
X7.545Y-3.7261
T0
M30
