G04 #@! TF.GenerationSoftware,KiCad,Pcbnew,(5.0.1)-3*
G04 #@! TF.CreationDate,2018-11-05T20:46:55+05:30*
G04 #@! TF.ProjectId,MosfetDriverOn210404,4D6F736665744472697665724F6E3231,rev?*
G04 #@! TF.SameCoordinates,Original*
G04 #@! TF.FileFunction,Soldermask,Bot*
G04 #@! TF.FilePolarity,Negative*
%FSLAX46Y46*%
G04 Gerber Fmt 4.6, Leading zero omitted, Abs format (unit mm)*
G04 Created by KiCad (PCBNEW (5.0.1)-3) date 11/5/2018 8:46:55 PM*
%MOMM*%
%LPD*%
G01*
G04 APERTURE LIST*
%ADD10C,0.100000*%
G04 APERTURE END LIST*
D10*
G36*
X114767767Y-146585498D02*
X111895498Y-149457767D01*
X110423301Y-147985570D01*
X113295570Y-145113301D01*
X114767767Y-146585498D01*
X114767767Y-146585498D01*
G37*
G36*
X129045256Y-145941298D02*
X129151579Y-145962447D01*
X129452042Y-146086903D01*
X129718852Y-146265180D01*
X129722454Y-146267587D01*
X129952413Y-146497546D01*
X130133098Y-146767960D01*
X130257553Y-147068422D01*
X130321000Y-147387389D01*
X130321000Y-147712611D01*
X130257553Y-148031578D01*
X130133098Y-148332040D01*
X129952413Y-148602454D01*
X129722454Y-148832413D01*
X129722451Y-148832415D01*
X129452042Y-149013097D01*
X129151579Y-149137553D01*
X129045256Y-149158702D01*
X128832611Y-149201000D01*
X128507389Y-149201000D01*
X128294744Y-149158702D01*
X128188421Y-149137553D01*
X127887958Y-149013097D01*
X127617549Y-148832415D01*
X127617546Y-148832413D01*
X127387587Y-148602454D01*
X127206902Y-148332040D01*
X127082447Y-148031578D01*
X127019000Y-147712611D01*
X127019000Y-147387389D01*
X127082447Y-147068422D01*
X127206902Y-146767960D01*
X127387587Y-146497546D01*
X127617546Y-146267587D01*
X127621148Y-146265180D01*
X127887958Y-146086903D01*
X128188421Y-145962447D01*
X128294744Y-145941298D01*
X128507389Y-145899000D01*
X128832611Y-145899000D01*
X129045256Y-145941298D01*
X129045256Y-145941298D01*
G37*
G36*
X138510407Y-145796000D02*
X137236200Y-147070207D01*
X135961993Y-145796000D01*
X137236200Y-144521793D01*
X138510407Y-145796000D01*
X138510407Y-145796000D01*
G37*
G36*
X143838275Y-144563588D02*
X144029544Y-144642814D01*
X144201686Y-144757836D01*
X144348073Y-144904223D01*
X144463095Y-145076365D01*
X144542321Y-145267634D01*
X144582710Y-145470683D01*
X144582710Y-145677715D01*
X144542321Y-145880764D01*
X144463095Y-146072033D01*
X144348073Y-146244175D01*
X144201686Y-146390562D01*
X144029544Y-146505584D01*
X143838275Y-146584810D01*
X143635226Y-146625199D01*
X143428194Y-146625199D01*
X143225145Y-146584810D01*
X143033876Y-146505584D01*
X142861734Y-146390562D01*
X142715347Y-146244175D01*
X142600325Y-146072033D01*
X142521099Y-145880764D01*
X142480710Y-145677715D01*
X142480710Y-145470683D01*
X142521099Y-145267634D01*
X142600325Y-145076365D01*
X142715347Y-144904223D01*
X142861734Y-144757836D01*
X143033876Y-144642814D01*
X143225145Y-144563588D01*
X143428194Y-144523199D01*
X143635226Y-144523199D01*
X143838275Y-144563588D01*
X143838275Y-144563588D01*
G37*
G36*
X109964105Y-142024027D02*
X110160337Y-142083553D01*
X110220618Y-142115774D01*
X110341182Y-142180217D01*
X110499695Y-142310305D01*
X110629783Y-142468818D01*
X110694226Y-142589382D01*
X110726447Y-142649663D01*
X110785973Y-142845895D01*
X110806071Y-143049964D01*
X110785973Y-143254034D01*
X110726447Y-143450266D01*
X110701489Y-143496958D01*
X110629783Y-143631111D01*
X110532290Y-143749907D01*
X110532289Y-143749908D01*
X109059907Y-145222289D01*
X109011160Y-145262294D01*
X108941110Y-145319783D01*
X108808597Y-145390613D01*
X108760265Y-145416447D01*
X108564033Y-145475973D01*
X108359964Y-145496071D01*
X108155895Y-145475973D01*
X107959663Y-145416447D01*
X107899382Y-145384226D01*
X107778818Y-145319783D01*
X107620305Y-145189695D01*
X107490217Y-145031182D01*
X107413638Y-144887912D01*
X107393553Y-144850337D01*
X107334027Y-144654105D01*
X107313929Y-144450036D01*
X107334027Y-144245967D01*
X107393553Y-144049735D01*
X107420165Y-143999949D01*
X107490217Y-143868890D01*
X107547706Y-143798840D01*
X107587711Y-143750093D01*
X109060092Y-142277711D01*
X109060093Y-142277710D01*
X109178889Y-142180217D01*
X109311402Y-142109387D01*
X109359734Y-142083553D01*
X109555966Y-142024027D01*
X109760036Y-142003929D01*
X109964105Y-142024027D01*
X109964105Y-142024027D01*
G37*
G36*
X155477607Y-144094200D02*
X154203400Y-145368407D01*
X152929193Y-144094200D01*
X154203400Y-142819993D01*
X155477607Y-144094200D01*
X155477607Y-144094200D01*
G37*
G36*
X135544809Y-143104898D02*
X135616776Y-143111986D01*
X135730002Y-143146333D01*
X135786616Y-143163506D01*
X135925236Y-143237601D01*
X135943140Y-143247171D01*
X135978878Y-143276501D01*
X136080335Y-143359763D01*
X136154607Y-143450265D01*
X136192927Y-143496958D01*
X136192928Y-143496960D01*
X136276592Y-143653482D01*
X136276592Y-143653483D01*
X136328112Y-143823322D01*
X136345508Y-143999949D01*
X136328112Y-144176576D01*
X136293765Y-144289802D01*
X136276592Y-144346416D01*
X136221205Y-144450036D01*
X136192927Y-144502940D01*
X136163597Y-144538678D01*
X136080335Y-144640135D01*
X135978878Y-144723397D01*
X135943140Y-144752727D01*
X135933582Y-144757836D01*
X135786616Y-144836392D01*
X135730002Y-144853565D01*
X135616776Y-144887912D01*
X135550592Y-144894430D01*
X135484409Y-144900949D01*
X135395889Y-144900949D01*
X135329706Y-144894430D01*
X135263522Y-144887912D01*
X135150296Y-144853565D01*
X135093682Y-144836392D01*
X134946716Y-144757836D01*
X134937158Y-144752727D01*
X134901420Y-144723397D01*
X134799963Y-144640135D01*
X134716701Y-144538678D01*
X134687371Y-144502940D01*
X134659093Y-144450036D01*
X134603706Y-144346416D01*
X134586533Y-144289802D01*
X134552186Y-144176576D01*
X134534790Y-143999949D01*
X134552186Y-143823322D01*
X134603706Y-143653483D01*
X134603706Y-143653482D01*
X134687370Y-143496960D01*
X134687371Y-143496958D01*
X134725691Y-143450265D01*
X134799963Y-143359763D01*
X134901420Y-143276501D01*
X134937158Y-143247171D01*
X134955062Y-143237601D01*
X135093682Y-143163506D01*
X135150296Y-143146333D01*
X135263522Y-143111986D01*
X135335489Y-143104898D01*
X135395889Y-143098949D01*
X135484409Y-143098949D01*
X135544809Y-143104898D01*
X135544809Y-143104898D01*
G37*
G36*
X140656294Y-141381608D02*
X140847563Y-141460834D01*
X141019705Y-141575856D01*
X141166092Y-141722243D01*
X141281114Y-141894385D01*
X141360340Y-142085654D01*
X141400729Y-142288703D01*
X141400729Y-142495735D01*
X141360340Y-142698784D01*
X141281114Y-142890053D01*
X141166092Y-143062195D01*
X141019705Y-143208582D01*
X140847563Y-143323604D01*
X140656294Y-143402830D01*
X140453245Y-143443219D01*
X140246213Y-143443219D01*
X140043164Y-143402830D01*
X139851895Y-143323604D01*
X139679753Y-143208582D01*
X139533366Y-143062195D01*
X139418344Y-142890053D01*
X139339118Y-142698784D01*
X139298729Y-142495735D01*
X139298729Y-142288703D01*
X139339118Y-142085654D01*
X139418344Y-141894385D01*
X139533366Y-141722243D01*
X139679753Y-141575856D01*
X139851895Y-141460834D01*
X140043164Y-141381608D01*
X140246213Y-141341219D01*
X140453245Y-141341219D01*
X140656294Y-141381608D01*
X140656294Y-141381608D01*
G37*
G36*
X156104111Y-141403098D02*
X156176078Y-141410186D01*
X156289304Y-141444533D01*
X156345918Y-141461706D01*
X156456735Y-141520940D01*
X156502442Y-141545371D01*
X156538180Y-141574701D01*
X156639637Y-141657963D01*
X156722899Y-141759420D01*
X156752229Y-141795158D01*
X156752230Y-141795160D01*
X156835894Y-141951682D01*
X156851743Y-142003929D01*
X156887414Y-142121522D01*
X156904810Y-142298149D01*
X156887414Y-142474776D01*
X156864484Y-142550365D01*
X156835894Y-142644616D01*
X156761799Y-142783236D01*
X156752229Y-142801140D01*
X156736756Y-142819994D01*
X156639637Y-142938335D01*
X156538180Y-143021597D01*
X156502442Y-143050927D01*
X156502440Y-143050928D01*
X156345918Y-143134592D01*
X156289304Y-143151765D01*
X156176078Y-143186112D01*
X156109893Y-143192631D01*
X156043711Y-143199149D01*
X155955191Y-143199149D01*
X155889009Y-143192631D01*
X155822824Y-143186112D01*
X155709598Y-143151765D01*
X155652984Y-143134592D01*
X155496462Y-143050928D01*
X155496460Y-143050927D01*
X155460722Y-143021597D01*
X155359265Y-142938335D01*
X155262146Y-142819994D01*
X155246673Y-142801140D01*
X155237103Y-142783236D01*
X155163008Y-142644616D01*
X155134418Y-142550365D01*
X155111488Y-142474776D01*
X155094092Y-142298149D01*
X155111488Y-142121522D01*
X155147159Y-142003929D01*
X155163008Y-141951682D01*
X155246672Y-141795160D01*
X155246673Y-141795158D01*
X155276003Y-141759420D01*
X155359265Y-141657963D01*
X155460722Y-141574701D01*
X155496460Y-141545371D01*
X155542167Y-141520940D01*
X155652984Y-141461706D01*
X155709598Y-141444533D01*
X155822824Y-141410186D01*
X155894791Y-141403098D01*
X155955191Y-141397149D01*
X156043711Y-141397149D01*
X156104111Y-141403098D01*
X156104111Y-141403098D01*
G37*
G36*
X133748748Y-141308846D02*
X133820725Y-141315935D01*
X133904075Y-141341219D01*
X133990565Y-141367455D01*
X134129185Y-141441550D01*
X134147089Y-141451120D01*
X134161879Y-141463258D01*
X134284284Y-141563712D01*
X134361633Y-141657963D01*
X134396876Y-141700907D01*
X134396877Y-141700909D01*
X134480541Y-141857431D01*
X134480541Y-141857432D01*
X134532061Y-142027271D01*
X134549457Y-142203898D01*
X134532061Y-142380525D01*
X134505278Y-142468818D01*
X134480541Y-142550365D01*
X134430162Y-142644616D01*
X134396876Y-142706889D01*
X134382405Y-142724522D01*
X134284284Y-142844084D01*
X134182827Y-142927346D01*
X134147089Y-142956676D01*
X134147087Y-142956677D01*
X133990565Y-143040341D01*
X133933951Y-143057514D01*
X133820725Y-143091861D01*
X133754541Y-143098379D01*
X133688358Y-143104898D01*
X133599838Y-143104898D01*
X133533655Y-143098379D01*
X133467471Y-143091861D01*
X133354245Y-143057514D01*
X133297631Y-143040341D01*
X133141109Y-142956677D01*
X133141107Y-142956676D01*
X133105369Y-142927346D01*
X133003912Y-142844084D01*
X132905791Y-142724522D01*
X132891320Y-142706889D01*
X132858034Y-142644616D01*
X132807655Y-142550365D01*
X132782918Y-142468818D01*
X132756135Y-142380525D01*
X132738739Y-142203898D01*
X132756135Y-142027271D01*
X132807655Y-141857432D01*
X132807655Y-141857431D01*
X132891319Y-141700909D01*
X132891320Y-141700907D01*
X132926563Y-141657963D01*
X133003912Y-141563712D01*
X133126317Y-141463258D01*
X133141107Y-141451120D01*
X133159011Y-141441550D01*
X133297631Y-141367455D01*
X133384121Y-141341219D01*
X133467471Y-141315935D01*
X133539448Y-141308846D01*
X133599838Y-141302898D01*
X133688358Y-141302898D01*
X133748748Y-141308846D01*
X133748748Y-141308846D01*
G37*
G36*
X122828373Y-141222293D02*
X122976333Y-141283581D01*
X122977813Y-141284570D01*
X123109487Y-141372551D01*
X123221264Y-141484328D01*
X123240206Y-141499874D01*
X123261817Y-141511425D01*
X123285266Y-141518538D01*
X123309652Y-141520940D01*
X123334038Y-141518538D01*
X123357487Y-141511425D01*
X123379098Y-141499874D01*
X123398030Y-141484337D01*
X123509815Y-141372552D01*
X123641490Y-141284570D01*
X123642970Y-141283581D01*
X123790930Y-141222293D01*
X123947997Y-141191051D01*
X124108147Y-141191051D01*
X124265214Y-141222293D01*
X124413174Y-141283581D01*
X124414654Y-141284570D01*
X124546329Y-141372552D01*
X124659571Y-141485794D01*
X124690043Y-141531399D01*
X124748542Y-141618949D01*
X124809830Y-141766909D01*
X124841072Y-141923976D01*
X124841072Y-142084126D01*
X124809830Y-142241193D01*
X124781202Y-142310305D01*
X124748543Y-142389151D01*
X124659571Y-142522308D01*
X124546329Y-142635550D01*
X124480202Y-142679734D01*
X124413174Y-142724521D01*
X124265214Y-142785809D01*
X124108147Y-142817051D01*
X123947997Y-142817051D01*
X123790930Y-142785809D01*
X123642970Y-142724521D01*
X123575942Y-142679734D01*
X123509815Y-142635550D01*
X123398039Y-142523774D01*
X123379098Y-142508229D01*
X123357487Y-142496678D01*
X123334038Y-142489565D01*
X123309652Y-142487163D01*
X123285266Y-142489565D01*
X123261817Y-142496678D01*
X123240206Y-142508229D01*
X123221264Y-142523774D01*
X123109488Y-142635550D01*
X123020917Y-142694731D01*
X122976333Y-142724521D01*
X122828373Y-142785809D01*
X122671306Y-142817051D01*
X122511156Y-142817051D01*
X122354089Y-142785809D01*
X122206129Y-142724521D01*
X122139101Y-142679734D01*
X122072974Y-142635550D01*
X121959732Y-142522308D01*
X121870760Y-142389151D01*
X121838101Y-142310305D01*
X121809473Y-142241193D01*
X121778231Y-142084126D01*
X121778231Y-141923976D01*
X121809473Y-141766909D01*
X121870761Y-141618949D01*
X121929260Y-141531399D01*
X121959732Y-141485794D01*
X122072974Y-141372552D01*
X122204649Y-141284570D01*
X122206129Y-141283581D01*
X122354089Y-141222293D01*
X122511156Y-141191051D01*
X122671306Y-141191051D01*
X122828373Y-141222293D01*
X122828373Y-141222293D01*
G37*
G36*
X148434469Y-139967394D02*
X148625738Y-140046620D01*
X148797880Y-140161642D01*
X148944267Y-140308029D01*
X149059289Y-140480171D01*
X149138515Y-140671440D01*
X149178904Y-140874489D01*
X149178904Y-141081521D01*
X149138515Y-141284570D01*
X149059289Y-141475839D01*
X148944267Y-141647981D01*
X148797880Y-141794368D01*
X148625738Y-141909390D01*
X148434469Y-141988616D01*
X148231420Y-142029005D01*
X148024388Y-142029005D01*
X147821339Y-141988616D01*
X147630070Y-141909390D01*
X147457928Y-141794368D01*
X147311541Y-141647981D01*
X147196519Y-141475839D01*
X147117293Y-141284570D01*
X147076904Y-141081521D01*
X147076904Y-140874489D01*
X147117293Y-140671440D01*
X147196519Y-140480171D01*
X147311541Y-140308029D01*
X147457928Y-140161642D01*
X147630070Y-140046620D01*
X147821339Y-139967394D01*
X148024388Y-139927005D01*
X148231420Y-139927005D01*
X148434469Y-139967394D01*
X148434469Y-139967394D01*
G37*
G36*
X152723602Y-139643159D02*
X152723605Y-139643160D01*
X152723606Y-139643160D01*
X152902870Y-139697539D01*
X152902872Y-139697540D01*
X153068082Y-139785847D01*
X153212889Y-139904687D01*
X153331729Y-140049494D01*
X153391674Y-140161642D01*
X153420037Y-140214706D01*
X153474416Y-140393970D01*
X153474417Y-140393974D01*
X153492778Y-140580399D01*
X153474417Y-140766824D01*
X153474416Y-140766827D01*
X153474416Y-140766828D01*
X153449622Y-140848564D01*
X153420036Y-140946094D01*
X153331729Y-141111304D01*
X153212889Y-141256111D01*
X153068082Y-141374951D01*
X152902872Y-141463258D01*
X152902870Y-141463259D01*
X152723606Y-141517638D01*
X152723605Y-141517638D01*
X152723602Y-141517639D01*
X152583895Y-141531399D01*
X152490459Y-141531399D01*
X152350752Y-141517639D01*
X152350749Y-141517638D01*
X152350748Y-141517638D01*
X152171484Y-141463259D01*
X152171482Y-141463258D01*
X152006272Y-141374951D01*
X151861465Y-141256111D01*
X151742625Y-141111304D01*
X151654318Y-140946094D01*
X151624733Y-140848564D01*
X151599938Y-140766828D01*
X151599938Y-140766827D01*
X151599937Y-140766824D01*
X151581576Y-140580399D01*
X151599937Y-140393974D01*
X151599938Y-140393970D01*
X151654317Y-140214706D01*
X151682680Y-140161642D01*
X151742625Y-140049494D01*
X151861465Y-139904687D01*
X152006272Y-139785847D01*
X152171482Y-139697540D01*
X152171484Y-139697539D01*
X152350748Y-139643160D01*
X152350749Y-139643160D01*
X152350752Y-139643159D01*
X152490459Y-139629399D01*
X152583895Y-139629399D01*
X152723602Y-139643159D01*
X152723602Y-139643159D01*
G37*
G36*
X157905944Y-139607616D02*
X157972129Y-139614135D01*
X158085355Y-139648482D01*
X158141969Y-139665655D01*
X158280589Y-139739750D01*
X158298493Y-139749320D01*
X158320840Y-139767660D01*
X158435688Y-139861912D01*
X158518950Y-139963369D01*
X158548280Y-139999107D01*
X158548281Y-139999109D01*
X158631945Y-140155631D01*
X158631945Y-140155632D01*
X158683465Y-140325471D01*
X158700861Y-140502098D01*
X158683465Y-140678725D01*
X158656739Y-140766828D01*
X158631945Y-140848565D01*
X158618088Y-140874489D01*
X158548280Y-141005089D01*
X158518950Y-141040827D01*
X158435688Y-141142284D01*
X158338195Y-141222293D01*
X158298493Y-141254876D01*
X158298491Y-141254877D01*
X158141969Y-141338541D01*
X158085355Y-141355714D01*
X157972129Y-141390061D01*
X157905944Y-141396580D01*
X157839762Y-141403098D01*
X157751242Y-141403098D01*
X157685060Y-141396580D01*
X157618875Y-141390061D01*
X157505649Y-141355714D01*
X157449035Y-141338541D01*
X157292513Y-141254877D01*
X157292511Y-141254876D01*
X157252809Y-141222293D01*
X157155316Y-141142284D01*
X157072054Y-141040827D01*
X157042724Y-141005089D01*
X156972916Y-140874489D01*
X156959059Y-140848565D01*
X156934265Y-140766828D01*
X156907539Y-140678725D01*
X156890143Y-140502098D01*
X156907539Y-140325471D01*
X156959059Y-140155632D01*
X156959059Y-140155631D01*
X157042723Y-139999109D01*
X157042724Y-139999107D01*
X157072054Y-139963369D01*
X157155316Y-139861912D01*
X157270164Y-139767660D01*
X157292511Y-139749320D01*
X157310415Y-139739750D01*
X157449035Y-139665655D01*
X157505649Y-139648482D01*
X157618875Y-139614135D01*
X157685060Y-139607616D01*
X157751242Y-139601098D01*
X157839762Y-139601098D01*
X157905944Y-139607616D01*
X157905944Y-139607616D01*
G37*
G36*
X131958488Y-139513364D02*
X132024673Y-139519883D01*
X132137899Y-139554230D01*
X132194513Y-139571403D01*
X132303014Y-139629399D01*
X132351037Y-139655068D01*
X132363937Y-139665655D01*
X132488232Y-139767660D01*
X132565581Y-139861912D01*
X132600824Y-139904855D01*
X132600825Y-139904857D01*
X132684489Y-140061379D01*
X132684489Y-140061380D01*
X132736009Y-140231219D01*
X132753405Y-140407846D01*
X132736009Y-140584473D01*
X132709628Y-140671440D01*
X132684489Y-140754313D01*
X132610394Y-140892933D01*
X132600824Y-140910837D01*
X132571891Y-140946092D01*
X132488232Y-141048032D01*
X132386775Y-141131294D01*
X132351037Y-141160624D01*
X132351035Y-141160625D01*
X132194513Y-141244289D01*
X132159608Y-141254877D01*
X132024673Y-141295809D01*
X131958488Y-141302328D01*
X131892306Y-141308846D01*
X131803786Y-141308846D01*
X131737604Y-141302328D01*
X131671419Y-141295809D01*
X131536484Y-141254877D01*
X131501579Y-141244289D01*
X131345057Y-141160625D01*
X131345055Y-141160624D01*
X131309317Y-141131294D01*
X131207860Y-141048032D01*
X131124201Y-140946092D01*
X131095268Y-140910837D01*
X131085698Y-140892933D01*
X131011603Y-140754313D01*
X130986464Y-140671440D01*
X130960083Y-140584473D01*
X130942687Y-140407846D01*
X130960083Y-140231219D01*
X131011603Y-140061380D01*
X131011603Y-140061379D01*
X131095267Y-139904857D01*
X131095268Y-139904855D01*
X131130511Y-139861912D01*
X131207860Y-139767660D01*
X131332155Y-139665655D01*
X131345055Y-139655068D01*
X131393078Y-139629399D01*
X131501579Y-139571403D01*
X131558193Y-139554230D01*
X131671419Y-139519883D01*
X131737604Y-139513364D01*
X131803786Y-139506846D01*
X131892306Y-139506846D01*
X131958488Y-139513364D01*
X131958488Y-139513364D01*
G37*
G36*
X155737278Y-137373658D02*
X155737281Y-137373659D01*
X155737282Y-137373659D01*
X155916546Y-137428038D01*
X155916548Y-137428039D01*
X156081758Y-137516346D01*
X156226565Y-137635186D01*
X156345405Y-137779993D01*
X156413705Y-137907772D01*
X156433713Y-137945205D01*
X156458479Y-138026849D01*
X156488093Y-138124473D01*
X156506454Y-138310898D01*
X156488093Y-138497323D01*
X156488092Y-138497326D01*
X156488092Y-138497327D01*
X156442055Y-138649092D01*
X156433712Y-138676593D01*
X156345405Y-138841803D01*
X156226565Y-138986610D01*
X156081758Y-139105450D01*
X155916548Y-139193757D01*
X155916546Y-139193758D01*
X155737282Y-139248137D01*
X155737281Y-139248137D01*
X155737278Y-139248138D01*
X155597571Y-139261898D01*
X155504135Y-139261898D01*
X155364428Y-139248138D01*
X155364425Y-139248137D01*
X155364424Y-139248137D01*
X155185160Y-139193758D01*
X155185158Y-139193757D01*
X155019948Y-139105450D01*
X154875141Y-138986610D01*
X154756301Y-138841803D01*
X154667994Y-138676593D01*
X154659652Y-138649092D01*
X154613614Y-138497327D01*
X154613614Y-138497326D01*
X154613613Y-138497323D01*
X154595252Y-138310898D01*
X154613613Y-138124473D01*
X154643227Y-138026849D01*
X154667993Y-137945205D01*
X154688001Y-137907772D01*
X154756301Y-137779993D01*
X154875141Y-137635186D01*
X155019948Y-137516346D01*
X155185158Y-137428039D01*
X155185160Y-137428038D01*
X155364424Y-137373659D01*
X155364425Y-137373659D01*
X155364428Y-137373658D01*
X155504135Y-137359898D01*
X155597571Y-137359898D01*
X155737278Y-137373658D01*
X155737278Y-137373658D01*
G37*
G36*
X119236270Y-137630191D02*
X119384230Y-137691479D01*
X119385770Y-137692508D01*
X119517384Y-137780449D01*
X119629161Y-137892226D01*
X119648103Y-137907772D01*
X119669714Y-137919323D01*
X119693163Y-137926436D01*
X119717549Y-137928838D01*
X119741935Y-137926436D01*
X119765384Y-137919323D01*
X119786995Y-137907772D01*
X119805927Y-137892235D01*
X119917712Y-137780450D01*
X120049327Y-137692508D01*
X120050867Y-137691479D01*
X120198827Y-137630191D01*
X120355894Y-137598949D01*
X120516044Y-137598949D01*
X120673111Y-137630191D01*
X120821071Y-137691479D01*
X120822611Y-137692508D01*
X120954226Y-137780450D01*
X121067468Y-137893692D01*
X121101886Y-137945203D01*
X121156439Y-138026847D01*
X121217727Y-138174807D01*
X121248969Y-138331874D01*
X121248969Y-138492024D01*
X121217727Y-138649091D01*
X121156439Y-138797051D01*
X121067467Y-138930207D01*
X120954227Y-139043447D01*
X120821071Y-139132419D01*
X120673111Y-139193707D01*
X120516044Y-139224949D01*
X120355894Y-139224949D01*
X120198827Y-139193707D01*
X120050867Y-139132419D01*
X119917711Y-139043447D01*
X119805937Y-138931673D01*
X119786995Y-138916127D01*
X119765384Y-138904576D01*
X119741935Y-138897463D01*
X119717549Y-138895061D01*
X119693163Y-138897463D01*
X119669714Y-138904576D01*
X119648103Y-138916127D01*
X119629161Y-138931672D01*
X119517385Y-139043448D01*
X119428814Y-139102629D01*
X119384230Y-139132419D01*
X119236270Y-139193707D01*
X119079203Y-139224949D01*
X118919053Y-139224949D01*
X118761986Y-139193707D01*
X118614026Y-139132419D01*
X118480870Y-139043447D01*
X118367630Y-138930207D01*
X118278658Y-138797051D01*
X118217370Y-138649091D01*
X118186128Y-138492024D01*
X118186128Y-138331874D01*
X118217370Y-138174807D01*
X118278658Y-138026847D01*
X118333211Y-137945203D01*
X118367629Y-137893692D01*
X118480871Y-137780450D01*
X118612486Y-137692508D01*
X118614026Y-137691479D01*
X118761986Y-137630191D01*
X118919053Y-137598949D01*
X119079203Y-137598949D01*
X119236270Y-137630191D01*
X119236270Y-137630191D01*
G37*
G36*
X145252488Y-136785413D02*
X145443757Y-136864639D01*
X145615899Y-136979661D01*
X145762286Y-137126048D01*
X145877308Y-137298190D01*
X145956534Y-137489459D01*
X145996923Y-137692508D01*
X145996923Y-137899540D01*
X145956534Y-138102589D01*
X145877308Y-138293858D01*
X145762286Y-138466000D01*
X145615899Y-138612387D01*
X145443757Y-138727409D01*
X145252488Y-138806635D01*
X145049439Y-138847024D01*
X144842407Y-138847024D01*
X144639358Y-138806635D01*
X144448089Y-138727409D01*
X144275947Y-138612387D01*
X144129560Y-138466000D01*
X144014538Y-138293858D01*
X143935312Y-138102589D01*
X143894923Y-137899540D01*
X143894923Y-137692508D01*
X143935312Y-137489459D01*
X144014538Y-137298190D01*
X144129560Y-137126048D01*
X144275947Y-136979661D01*
X144448089Y-136864639D01*
X144639358Y-136785413D01*
X144842407Y-136745024D01*
X145049439Y-136745024D01*
X145252488Y-136785413D01*
X145252488Y-136785413D01*
G37*
G36*
X158329112Y-134845325D02*
X158329115Y-134845326D01*
X158329116Y-134845326D01*
X158508380Y-134899705D01*
X158508382Y-134899706D01*
X158673592Y-134988013D01*
X158818399Y-135106853D01*
X158937239Y-135251660D01*
X158937240Y-135251662D01*
X159025547Y-135416872D01*
X159079926Y-135596136D01*
X159079927Y-135596140D01*
X159098288Y-135782565D01*
X159079927Y-135968990D01*
X159079926Y-135968993D01*
X159079926Y-135968994D01*
X159029908Y-136133883D01*
X159025546Y-136148260D01*
X158937239Y-136313470D01*
X158818399Y-136458277D01*
X158673592Y-136577117D01*
X158673590Y-136577118D01*
X158508380Y-136665425D01*
X158329116Y-136719804D01*
X158329115Y-136719804D01*
X158329112Y-136719805D01*
X158189405Y-136733565D01*
X158095969Y-136733565D01*
X157956262Y-136719805D01*
X157956259Y-136719804D01*
X157956258Y-136719804D01*
X157776994Y-136665425D01*
X157611784Y-136577118D01*
X157611782Y-136577117D01*
X157466975Y-136458277D01*
X157348135Y-136313470D01*
X157259828Y-136148260D01*
X157255467Y-136133883D01*
X157205448Y-135968994D01*
X157205448Y-135968993D01*
X157205447Y-135968990D01*
X157187086Y-135782565D01*
X157205447Y-135596140D01*
X157205448Y-135596136D01*
X157259827Y-135416872D01*
X157348134Y-135251662D01*
X157348135Y-135251660D01*
X157466975Y-135106853D01*
X157611782Y-134988013D01*
X157776992Y-134899706D01*
X157776994Y-134899705D01*
X157956258Y-134845326D01*
X157956259Y-134845326D01*
X157956262Y-134845325D01*
X158095969Y-134831565D01*
X158189405Y-134831565D01*
X158329112Y-134845325D01*
X158329112Y-134845325D01*
G37*
G36*
X148493941Y-135192245D02*
X147149023Y-136537163D01*
X145804105Y-135192245D01*
X147149023Y-133847327D01*
X148493941Y-135192245D01*
X148493941Y-135192245D01*
G37*
G36*
X131268853Y-134191887D02*
X131460122Y-134271113D01*
X131632264Y-134386135D01*
X131778651Y-134532522D01*
X131893673Y-134704664D01*
X131972899Y-134895933D01*
X132013288Y-135098982D01*
X132013288Y-135306014D01*
X131972899Y-135509063D01*
X131893673Y-135700332D01*
X131778651Y-135872474D01*
X131632264Y-136018861D01*
X131460122Y-136133883D01*
X131268853Y-136213109D01*
X131065804Y-136253498D01*
X130858772Y-136253498D01*
X130655723Y-136213109D01*
X130464454Y-136133883D01*
X130292312Y-136018861D01*
X130145925Y-135872474D01*
X130030903Y-135700332D01*
X129951677Y-135509063D01*
X129911288Y-135306014D01*
X129911288Y-135098982D01*
X129951677Y-134895933D01*
X130030903Y-134704664D01*
X130145925Y-134532522D01*
X130292312Y-134386135D01*
X130464454Y-134271113D01*
X130655723Y-134191887D01*
X130858772Y-134151498D01*
X131065804Y-134151498D01*
X131268853Y-134191887D01*
X131268853Y-134191887D01*
G37*
G36*
X151507617Y-132922744D02*
X150162699Y-134267662D01*
X148817781Y-132922744D01*
X150162699Y-131577826D01*
X151507617Y-132922744D01*
X151507617Y-132922744D01*
G37*
G36*
X110887142Y-131228242D02*
X111035102Y-131289530D01*
X111102130Y-131334317D01*
X111168257Y-131378501D01*
X111281499Y-131491743D01*
X111312198Y-131537688D01*
X111370470Y-131624898D01*
X111431758Y-131772858D01*
X111463000Y-131929925D01*
X111463000Y-132090075D01*
X111431758Y-132247142D01*
X111398645Y-132327082D01*
X111370471Y-132395100D01*
X111295207Y-132507742D01*
X111281498Y-132528258D01*
X111168258Y-132641498D01*
X111035102Y-132730470D01*
X110887141Y-132791758D01*
X110801184Y-132808856D01*
X110777735Y-132815969D01*
X110756124Y-132827520D01*
X110737182Y-132843065D01*
X110721637Y-132862007D01*
X110710085Y-132883618D01*
X110702972Y-132907067D01*
X110700570Y-132931454D01*
X110701000Y-132935819D01*
X110701000Y-133106075D01*
X110669758Y-133263142D01*
X110608470Y-133411102D01*
X110519498Y-133544258D01*
X110406258Y-133657498D01*
X110273102Y-133746470D01*
X110125142Y-133807758D01*
X109968075Y-133839000D01*
X109807925Y-133839000D01*
X109650858Y-133807758D01*
X109502898Y-133746470D01*
X109369742Y-133657498D01*
X109256502Y-133544258D01*
X109167530Y-133411102D01*
X109106242Y-133263142D01*
X109075000Y-133106075D01*
X109075000Y-132945925D01*
X109106242Y-132788858D01*
X109167530Y-132640898D01*
X109212317Y-132573870D01*
X109256501Y-132507743D01*
X109369743Y-132394501D01*
X109470643Y-132327082D01*
X109502898Y-132305530D01*
X109650859Y-132244242D01*
X109736816Y-132227144D01*
X109760265Y-132220031D01*
X109781876Y-132208480D01*
X109800818Y-132192935D01*
X109816363Y-132173993D01*
X109827915Y-132152382D01*
X109835028Y-132128933D01*
X109837430Y-132104546D01*
X109837000Y-132100181D01*
X109837000Y-131929925D01*
X109868242Y-131772858D01*
X109929530Y-131624898D01*
X109987802Y-131537688D01*
X110018501Y-131491743D01*
X110131743Y-131378501D01*
X110197870Y-131334317D01*
X110264898Y-131289530D01*
X110412858Y-131228242D01*
X110569925Y-131197000D01*
X110730075Y-131197000D01*
X110887142Y-131228242D01*
X110887142Y-131228242D01*
G37*
G36*
X128086872Y-131009906D02*
X128278141Y-131089132D01*
X128450283Y-131204154D01*
X128596670Y-131350541D01*
X128711692Y-131522683D01*
X128790918Y-131713952D01*
X128831307Y-131917001D01*
X128831307Y-132124033D01*
X128790918Y-132327082D01*
X128711692Y-132518351D01*
X128596670Y-132690493D01*
X128450283Y-132836880D01*
X128278141Y-132951902D01*
X128086872Y-133031128D01*
X127883823Y-133071517D01*
X127676791Y-133071517D01*
X127473742Y-133031128D01*
X127282473Y-132951902D01*
X127110331Y-132836880D01*
X126963944Y-132690493D01*
X126848922Y-132518351D01*
X126769696Y-132327082D01*
X126729307Y-132124033D01*
X126729307Y-131917001D01*
X126769696Y-131713952D01*
X126848922Y-131522683D01*
X126963944Y-131350541D01*
X127110331Y-131204154D01*
X127282473Y-131089132D01*
X127473742Y-131009906D01*
X127676791Y-130969517D01*
X127883823Y-130969517D01*
X128086872Y-131009906D01*
X128086872Y-131009906D01*
G37*
G36*
X114189142Y-130212242D02*
X114337102Y-130273530D01*
X114470258Y-130362502D01*
X114583498Y-130475742D01*
X114672470Y-130608898D01*
X114733758Y-130756858D01*
X114765000Y-130913925D01*
X114765000Y-131074075D01*
X114733758Y-131231142D01*
X114672470Y-131379102D01*
X114627683Y-131446130D01*
X114583499Y-131512257D01*
X114470257Y-131625499D01*
X114404130Y-131669683D01*
X114337102Y-131714470D01*
X114189141Y-131775758D01*
X114103184Y-131792856D01*
X114079735Y-131799969D01*
X114058124Y-131811520D01*
X114039182Y-131827065D01*
X114023637Y-131846007D01*
X114012085Y-131867618D01*
X114004972Y-131891067D01*
X114002570Y-131915454D01*
X114003000Y-131919819D01*
X114003000Y-132090075D01*
X113971758Y-132247142D01*
X113938645Y-132327082D01*
X113910471Y-132395100D01*
X113835207Y-132507742D01*
X113821498Y-132528258D01*
X113708258Y-132641498D01*
X113575102Y-132730470D01*
X113427142Y-132791758D01*
X113270075Y-132823000D01*
X113109925Y-132823000D01*
X112952858Y-132791758D01*
X112804898Y-132730470D01*
X112671742Y-132641498D01*
X112558502Y-132528258D01*
X112544794Y-132507742D01*
X112469529Y-132395100D01*
X112441355Y-132327082D01*
X112408242Y-132247142D01*
X112377000Y-132090075D01*
X112377000Y-131929925D01*
X112408242Y-131772858D01*
X112469530Y-131624898D01*
X112527802Y-131537688D01*
X112558501Y-131491743D01*
X112671743Y-131378501D01*
X112737870Y-131334317D01*
X112804898Y-131289530D01*
X112836896Y-131276276D01*
X112878879Y-131258886D01*
X112952859Y-131228242D01*
X113038816Y-131211144D01*
X113062265Y-131204031D01*
X113083876Y-131192480D01*
X113102818Y-131176935D01*
X113118363Y-131157993D01*
X113129915Y-131136382D01*
X113137028Y-131112933D01*
X113139430Y-131088546D01*
X113139000Y-131084181D01*
X113139000Y-130913925D01*
X113170242Y-130756858D01*
X113231530Y-130608898D01*
X113320502Y-130475742D01*
X113433742Y-130362502D01*
X113566898Y-130273530D01*
X113714858Y-130212242D01*
X113871925Y-130181000D01*
X114032075Y-130181000D01*
X114189142Y-130212242D01*
X114189142Y-130212242D01*
G37*
G36*
X154099451Y-130394411D02*
X152754533Y-131739329D01*
X151409615Y-130394411D01*
X152754533Y-129049493D01*
X154099451Y-130394411D01*
X154099451Y-130394411D01*
G37*
G36*
X158568805Y-129896868D02*
X158640772Y-129903956D01*
X158747485Y-129936327D01*
X158810612Y-129955476D01*
X158949232Y-130029571D01*
X158967136Y-130039141D01*
X159002874Y-130068471D01*
X159104331Y-130151733D01*
X159187593Y-130253190D01*
X159216923Y-130288928D01*
X159216924Y-130288930D01*
X159300588Y-130445452D01*
X159300588Y-130445453D01*
X159352108Y-130615292D01*
X159369504Y-130791919D01*
X159352108Y-130968546D01*
X159339561Y-131009907D01*
X159300588Y-131138386D01*
X159226883Y-131276276D01*
X159216923Y-131294910D01*
X159187593Y-131330648D01*
X159104331Y-131432105D01*
X159006664Y-131512257D01*
X158967136Y-131544697D01*
X158967134Y-131544698D01*
X158810612Y-131628362D01*
X158753998Y-131645535D01*
X158640772Y-131679882D01*
X158574587Y-131686401D01*
X158508405Y-131692919D01*
X158419885Y-131692919D01*
X158353703Y-131686401D01*
X158287518Y-131679882D01*
X158174292Y-131645535D01*
X158117678Y-131628362D01*
X157961156Y-131544698D01*
X157961154Y-131544697D01*
X157921626Y-131512257D01*
X157823959Y-131432105D01*
X157740697Y-131330648D01*
X157711367Y-131294910D01*
X157701407Y-131276276D01*
X157627702Y-131138386D01*
X157588729Y-131009907D01*
X157576182Y-130968546D01*
X157558786Y-130791919D01*
X157576182Y-130615292D01*
X157627702Y-130445453D01*
X157627702Y-130445452D01*
X157711366Y-130288930D01*
X157711367Y-130288928D01*
X157740697Y-130253190D01*
X157823959Y-130151733D01*
X157925416Y-130068471D01*
X157961154Y-130039141D01*
X157979058Y-130029571D01*
X158117678Y-129955476D01*
X158180805Y-129936327D01*
X158287518Y-129903956D01*
X158359485Y-129896868D01*
X158419885Y-129890919D01*
X158508405Y-129890919D01*
X158568805Y-129896868D01*
X158568805Y-129896868D01*
G37*
G36*
X135865047Y-129595692D02*
X136056316Y-129674918D01*
X136228458Y-129789940D01*
X136374845Y-129936327D01*
X136489867Y-130108469D01*
X136569093Y-130299738D01*
X136609482Y-130502787D01*
X136609482Y-130709819D01*
X136569093Y-130912868D01*
X136489867Y-131104137D01*
X136374845Y-131276279D01*
X136228458Y-131422666D01*
X136056316Y-131537688D01*
X135865047Y-131616914D01*
X135661998Y-131657303D01*
X135454966Y-131657303D01*
X135251917Y-131616914D01*
X135060648Y-131537688D01*
X134888506Y-131422666D01*
X134742119Y-131276279D01*
X134627097Y-131104137D01*
X134547871Y-130912868D01*
X134507482Y-130709819D01*
X134507482Y-130502787D01*
X134547871Y-130299738D01*
X134627097Y-130108469D01*
X134742119Y-129936327D01*
X134888506Y-129789940D01*
X135060648Y-129674918D01*
X135251917Y-129595692D01*
X135454966Y-129555303D01*
X135661998Y-129555303D01*
X135865047Y-129595692D01*
X135865047Y-129595692D01*
G37*
G36*
X160364857Y-128100817D02*
X160436824Y-128107905D01*
X160524453Y-128134487D01*
X160606664Y-128159425D01*
X160743462Y-128232546D01*
X160763188Y-128243090D01*
X160798926Y-128272420D01*
X160900383Y-128355682D01*
X160965422Y-128434934D01*
X161012975Y-128492877D01*
X161012976Y-128492879D01*
X161096640Y-128649401D01*
X161096640Y-128649402D01*
X161148160Y-128819241D01*
X161165556Y-128995868D01*
X161148160Y-129172495D01*
X161113813Y-129285721D01*
X161096640Y-129342335D01*
X161022545Y-129480955D01*
X161012975Y-129498859D01*
X160983645Y-129534597D01*
X160900383Y-129636054D01*
X160798926Y-129719316D01*
X160763188Y-129748646D01*
X160763186Y-129748647D01*
X160606664Y-129832311D01*
X160550050Y-129849484D01*
X160436824Y-129883831D01*
X160370640Y-129890349D01*
X160304457Y-129896868D01*
X160215937Y-129896868D01*
X160149754Y-129890349D01*
X160083570Y-129883831D01*
X159970344Y-129849484D01*
X159913730Y-129832311D01*
X159757208Y-129748647D01*
X159757206Y-129748646D01*
X159721468Y-129719316D01*
X159620011Y-129636054D01*
X159536749Y-129534597D01*
X159507419Y-129498859D01*
X159497849Y-129480955D01*
X159423754Y-129342335D01*
X159406581Y-129285721D01*
X159372234Y-129172495D01*
X159354838Y-128995868D01*
X159372234Y-128819241D01*
X159423754Y-128649402D01*
X159423754Y-128649401D01*
X159507418Y-128492879D01*
X159507419Y-128492877D01*
X159554972Y-128434934D01*
X159620011Y-128355682D01*
X159721468Y-128272420D01*
X159757206Y-128243090D01*
X159776932Y-128232546D01*
X159913730Y-128159425D01*
X159995941Y-128134487D01*
X160083570Y-128107905D01*
X160155537Y-128100817D01*
X160215937Y-128094868D01*
X160304457Y-128094868D01*
X160364857Y-128100817D01*
X160364857Y-128100817D01*
G37*
G36*
X156772754Y-128100817D02*
X156844721Y-128107905D01*
X156932350Y-128134487D01*
X157014561Y-128159425D01*
X157151359Y-128232546D01*
X157171085Y-128243090D01*
X157206823Y-128272420D01*
X157308280Y-128355682D01*
X157373319Y-128434934D01*
X157420872Y-128492877D01*
X157420873Y-128492879D01*
X157504537Y-128649401D01*
X157504537Y-128649402D01*
X157556057Y-128819241D01*
X157573453Y-128995868D01*
X157556057Y-129172495D01*
X157521710Y-129285721D01*
X157504537Y-129342335D01*
X157430442Y-129480955D01*
X157420872Y-129498859D01*
X157391542Y-129534597D01*
X157308280Y-129636054D01*
X157206823Y-129719316D01*
X157171085Y-129748646D01*
X157171083Y-129748647D01*
X157014561Y-129832311D01*
X156957947Y-129849484D01*
X156844721Y-129883831D01*
X156778537Y-129890349D01*
X156712354Y-129896868D01*
X156623834Y-129896868D01*
X156557651Y-129890349D01*
X156491467Y-129883831D01*
X156378241Y-129849484D01*
X156321627Y-129832311D01*
X156165105Y-129748647D01*
X156165103Y-129748646D01*
X156129365Y-129719316D01*
X156027908Y-129636054D01*
X155944646Y-129534597D01*
X155915316Y-129498859D01*
X155905746Y-129480955D01*
X155831651Y-129342335D01*
X155814478Y-129285721D01*
X155780131Y-129172495D01*
X155762735Y-128995868D01*
X155780131Y-128819241D01*
X155831651Y-128649402D01*
X155831651Y-128649401D01*
X155915315Y-128492879D01*
X155915316Y-128492877D01*
X155962869Y-128434934D01*
X156027908Y-128355682D01*
X156129365Y-128272420D01*
X156165103Y-128243090D01*
X156184829Y-128232546D01*
X156321627Y-128159425D01*
X156403838Y-128134487D01*
X156491467Y-128107905D01*
X156563434Y-128100817D01*
X156623834Y-128094868D01*
X156712354Y-128094868D01*
X156772754Y-128100817D01*
X156772754Y-128100817D01*
G37*
G36*
X125568478Y-128232546D02*
X124294271Y-129506753D01*
X123020064Y-128232546D01*
X124294271Y-126958339D01*
X125568478Y-128232546D01*
X125568478Y-128232546D01*
G37*
G36*
X132683066Y-126413712D02*
X132874335Y-126492938D01*
X133046477Y-126607960D01*
X133192864Y-126754347D01*
X133307886Y-126926489D01*
X133387112Y-127117758D01*
X133427501Y-127320807D01*
X133427501Y-127527839D01*
X133387112Y-127730888D01*
X133307886Y-127922157D01*
X133192864Y-128094299D01*
X133046477Y-128240686D01*
X132874335Y-128355708D01*
X132683066Y-128434934D01*
X132480017Y-128475323D01*
X132272985Y-128475323D01*
X132069936Y-128434934D01*
X131878667Y-128355708D01*
X131706525Y-128240686D01*
X131560138Y-128094299D01*
X131445116Y-127922157D01*
X131365890Y-127730888D01*
X131325501Y-127527839D01*
X131325501Y-127320807D01*
X131365890Y-127117758D01*
X131445116Y-126926489D01*
X131560138Y-126754347D01*
X131706525Y-126607960D01*
X131878667Y-126492938D01*
X132069936Y-126413712D01*
X132272985Y-126373323D01*
X132480017Y-126373323D01*
X132683066Y-126413712D01*
X132683066Y-126413712D01*
G37*
G36*
X156146250Y-127199817D02*
X154872043Y-128474024D01*
X153597836Y-127199817D01*
X154872043Y-125925610D01*
X156146250Y-127199817D01*
X156146250Y-127199817D01*
G37*
G36*
X172451522Y-125113598D02*
X172599482Y-125174886D01*
X172666510Y-125219673D01*
X172732637Y-125263857D01*
X172845879Y-125377099D01*
X172863697Y-125403766D01*
X172934850Y-125510254D01*
X172996138Y-125658214D01*
X173027380Y-125815281D01*
X173027380Y-125975431D01*
X172996138Y-126132498D01*
X172986177Y-126156545D01*
X172934851Y-126280456D01*
X172875551Y-126369206D01*
X172845878Y-126413614D01*
X172812685Y-126446807D01*
X172797139Y-126465749D01*
X172785588Y-126487360D01*
X172778475Y-126510809D01*
X172776073Y-126535195D01*
X172778475Y-126559581D01*
X172785588Y-126583030D01*
X172797139Y-126604641D01*
X172812685Y-126623583D01*
X172831625Y-126639127D01*
X172907744Y-126689988D01*
X173020986Y-126803230D01*
X173065170Y-126869357D01*
X173103345Y-126926489D01*
X173109958Y-126936387D01*
X173119051Y-126958339D01*
X173171245Y-127084345D01*
X173202487Y-127241412D01*
X173202487Y-127401562D01*
X173171245Y-127558629D01*
X173109957Y-127706589D01*
X173020985Y-127839745D01*
X172907745Y-127952985D01*
X172774589Y-128041957D01*
X172626629Y-128103245D01*
X172469562Y-128134487D01*
X172309412Y-128134487D01*
X172152345Y-128103245D01*
X172004385Y-128041957D01*
X171871229Y-127952985D01*
X171757989Y-127839745D01*
X171669017Y-127706589D01*
X171607729Y-127558629D01*
X171576487Y-127401562D01*
X171576487Y-127241412D01*
X171607729Y-127084345D01*
X171659923Y-126958339D01*
X171669016Y-126936387D01*
X171675630Y-126926489D01*
X171713804Y-126869357D01*
X171757988Y-126803230D01*
X171791182Y-126770036D01*
X171806728Y-126751094D01*
X171818279Y-126729483D01*
X171825392Y-126706034D01*
X171827794Y-126681648D01*
X171825392Y-126657262D01*
X171818279Y-126633813D01*
X171806728Y-126612202D01*
X171791182Y-126593260D01*
X171772242Y-126577716D01*
X171696123Y-126526855D01*
X171582881Y-126413613D01*
X171493909Y-126280456D01*
X171442583Y-126156545D01*
X171432622Y-126132498D01*
X171401380Y-125975431D01*
X171401380Y-125815281D01*
X171432622Y-125658214D01*
X171493910Y-125510254D01*
X171565063Y-125403766D01*
X171582881Y-125377099D01*
X171696123Y-125263857D01*
X171762250Y-125219673D01*
X171829278Y-125174886D01*
X171977238Y-125113598D01*
X172134305Y-125082356D01*
X172294455Y-125082356D01*
X172451522Y-125113598D01*
X172451522Y-125113598D01*
G37*
G36*
X158568805Y-126304766D02*
X158640772Y-126311854D01*
X158753998Y-126346201D01*
X158810612Y-126363374D01*
X158904601Y-126413613D01*
X158967136Y-126447039D01*
X158989934Y-126465749D01*
X159104331Y-126559631D01*
X159187593Y-126661088D01*
X159216923Y-126696826D01*
X159216924Y-126696828D01*
X159300588Y-126853350D01*
X159300588Y-126853351D01*
X159352108Y-127023190D01*
X159369504Y-127199817D01*
X159352108Y-127376444D01*
X159317761Y-127489670D01*
X159300588Y-127546284D01*
X159226493Y-127684904D01*
X159216923Y-127702808D01*
X159193878Y-127730888D01*
X159104331Y-127840003D01*
X159004225Y-127922157D01*
X158967136Y-127952595D01*
X158967134Y-127952596D01*
X158810612Y-128036260D01*
X158753998Y-128053433D01*
X158640772Y-128087780D01*
X158574613Y-128094296D01*
X158508405Y-128100817D01*
X158419885Y-128100817D01*
X158353677Y-128094296D01*
X158287518Y-128087780D01*
X158174292Y-128053433D01*
X158117678Y-128036260D01*
X157961156Y-127952596D01*
X157961154Y-127952595D01*
X157924065Y-127922157D01*
X157823959Y-127840003D01*
X157734412Y-127730888D01*
X157711367Y-127702808D01*
X157701797Y-127684904D01*
X157627702Y-127546284D01*
X157610529Y-127489670D01*
X157576182Y-127376444D01*
X157558786Y-127199817D01*
X157576182Y-127023190D01*
X157627702Y-126853351D01*
X157627702Y-126853350D01*
X157711366Y-126696828D01*
X157711367Y-126696826D01*
X157740697Y-126661088D01*
X157823959Y-126559631D01*
X157938356Y-126465749D01*
X157961154Y-126447039D01*
X158023689Y-126413613D01*
X158117678Y-126363374D01*
X158174292Y-126346201D01*
X158287518Y-126311854D01*
X158359485Y-126304766D01*
X158419885Y-126298817D01*
X158508405Y-126298817D01*
X158568805Y-126304766D01*
X158568805Y-126304766D01*
G37*
G36*
X126194982Y-125541444D02*
X126266949Y-125548532D01*
X126371974Y-125580391D01*
X126436789Y-125600052D01*
X126545599Y-125658213D01*
X126593313Y-125683717D01*
X126629051Y-125713047D01*
X126730508Y-125796309D01*
X126785965Y-125863885D01*
X126843100Y-125933504D01*
X126843101Y-125933506D01*
X126926765Y-126090028D01*
X126926765Y-126090029D01*
X126978285Y-126259868D01*
X126995681Y-126436495D01*
X126978285Y-126613122D01*
X126949396Y-126708356D01*
X126926765Y-126782962D01*
X126852670Y-126921582D01*
X126843100Y-126939486D01*
X126827627Y-126958340D01*
X126730508Y-127076681D01*
X126629051Y-127159943D01*
X126593313Y-127189273D01*
X126593311Y-127189274D01*
X126436789Y-127272938D01*
X126380175Y-127290111D01*
X126266949Y-127324458D01*
X126200764Y-127330977D01*
X126134582Y-127337495D01*
X126046062Y-127337495D01*
X125979880Y-127330977D01*
X125913695Y-127324458D01*
X125800469Y-127290111D01*
X125743855Y-127272938D01*
X125587333Y-127189274D01*
X125587331Y-127189273D01*
X125551593Y-127159943D01*
X125450136Y-127076681D01*
X125353017Y-126958340D01*
X125337544Y-126939486D01*
X125327974Y-126921582D01*
X125253879Y-126782962D01*
X125231248Y-126708356D01*
X125202359Y-126613122D01*
X125184963Y-126436495D01*
X125202359Y-126259868D01*
X125253879Y-126090029D01*
X125253879Y-126090028D01*
X125337543Y-125933506D01*
X125337544Y-125933504D01*
X125394679Y-125863885D01*
X125450136Y-125796309D01*
X125551593Y-125713047D01*
X125587331Y-125683717D01*
X125635045Y-125658213D01*
X125743855Y-125600052D01*
X125808670Y-125580391D01*
X125913695Y-125548532D01*
X125985662Y-125541444D01*
X126046062Y-125535495D01*
X126134582Y-125535495D01*
X126194982Y-125541444D01*
X126194982Y-125541444D01*
G37*
G36*
X122584607Y-125095000D02*
X121310400Y-126369207D01*
X120036193Y-125095000D01*
X121310400Y-123820793D01*
X122584607Y-125095000D01*
X122584607Y-125095000D01*
G37*
G36*
X156778536Y-124509284D02*
X156844721Y-124515803D01*
X156957947Y-124550150D01*
X157014561Y-124567323D01*
X157104408Y-124615348D01*
X157171085Y-124650988D01*
X157206823Y-124680318D01*
X157308280Y-124763580D01*
X157391542Y-124865037D01*
X157420872Y-124900775D01*
X157420873Y-124900777D01*
X157504537Y-125057299D01*
X157504537Y-125057300D01*
X157556057Y-125227139D01*
X157573453Y-125403766D01*
X157556057Y-125580393D01*
X157532450Y-125658214D01*
X157504537Y-125750233D01*
X157469767Y-125815282D01*
X157420872Y-125906757D01*
X157391542Y-125942495D01*
X157308280Y-126043952D01*
X157206823Y-126127214D01*
X157171085Y-126156544D01*
X157171083Y-126156545D01*
X157014561Y-126240209D01*
X156957947Y-126257382D01*
X156844721Y-126291729D01*
X156778536Y-126298248D01*
X156712354Y-126304766D01*
X156623834Y-126304766D01*
X156557652Y-126298248D01*
X156491467Y-126291729D01*
X156378241Y-126257382D01*
X156321627Y-126240209D01*
X156165105Y-126156545D01*
X156165103Y-126156544D01*
X156129365Y-126127214D01*
X156027908Y-126043952D01*
X155944646Y-125942495D01*
X155915316Y-125906757D01*
X155866421Y-125815282D01*
X155831651Y-125750233D01*
X155803738Y-125658214D01*
X155780131Y-125580393D01*
X155762735Y-125403766D01*
X155780131Y-125227139D01*
X155831651Y-125057300D01*
X155831651Y-125057299D01*
X155915315Y-124900777D01*
X155915316Y-124900775D01*
X155944646Y-124865037D01*
X156027908Y-124763580D01*
X156129365Y-124680318D01*
X156165103Y-124650988D01*
X156231780Y-124615348D01*
X156321627Y-124567323D01*
X156378241Y-124550150D01*
X156491467Y-124515803D01*
X156557652Y-124509284D01*
X156623834Y-124502766D01*
X156712354Y-124502766D01*
X156778536Y-124509284D01*
X156778536Y-124509284D01*
G37*
G36*
X175128677Y-123337254D02*
X175276637Y-123398542D01*
X175281878Y-123402044D01*
X175409792Y-123487513D01*
X175523034Y-123600755D01*
X175612006Y-123733912D01*
X175625889Y-123767429D01*
X175673293Y-123881870D01*
X175704535Y-124038937D01*
X175704535Y-124199087D01*
X175673293Y-124356154D01*
X175634159Y-124450630D01*
X175612564Y-124502766D01*
X175612005Y-124504114D01*
X175569770Y-124567323D01*
X175550338Y-124596406D01*
X175523033Y-124637270D01*
X175424252Y-124736051D01*
X175408706Y-124754993D01*
X175397155Y-124776604D01*
X175390042Y-124800053D01*
X175387640Y-124824439D01*
X175390042Y-124848825D01*
X175397155Y-124872275D01*
X175448091Y-124995245D01*
X175479333Y-125152312D01*
X175479333Y-125312462D01*
X175448091Y-125469529D01*
X175418302Y-125541444D01*
X175386804Y-125617487D01*
X175298107Y-125750233D01*
X175297831Y-125750645D01*
X175184591Y-125863885D01*
X175051435Y-125952857D01*
X174903475Y-126014145D01*
X174746408Y-126045387D01*
X174586258Y-126045387D01*
X174429191Y-126014145D01*
X174281231Y-125952857D01*
X174148075Y-125863885D01*
X174034835Y-125750645D01*
X174034560Y-125750233D01*
X173945862Y-125617487D01*
X173914364Y-125541444D01*
X173884575Y-125469529D01*
X173853333Y-125312462D01*
X173853333Y-125152312D01*
X173884575Y-124995245D01*
X173945863Y-124847285D01*
X174001793Y-124763580D01*
X174034834Y-124714130D01*
X174133616Y-124615348D01*
X174149162Y-124596406D01*
X174160713Y-124574795D01*
X174167826Y-124551346D01*
X174170228Y-124526960D01*
X174167826Y-124502574D01*
X174160713Y-124479124D01*
X174109777Y-124356154D01*
X174078535Y-124199087D01*
X174078535Y-124038937D01*
X174109777Y-123881870D01*
X174157181Y-123767429D01*
X174171064Y-123733912D01*
X174260036Y-123600755D01*
X174373278Y-123487513D01*
X174501192Y-123402044D01*
X174506433Y-123398542D01*
X174654393Y-123337254D01*
X174811460Y-123306012D01*
X174971610Y-123306012D01*
X175128677Y-123337254D01*
X175128677Y-123337254D01*
G37*
G36*
X127991023Y-123745392D02*
X128063000Y-123752481D01*
X128176226Y-123786828D01*
X128232840Y-123804001D01*
X128369638Y-123877122D01*
X128389364Y-123887666D01*
X128425102Y-123916996D01*
X128526559Y-124000258D01*
X128609821Y-124101715D01*
X128639151Y-124137453D01*
X128639152Y-124137455D01*
X128722816Y-124293977D01*
X128722816Y-124293978D01*
X128774336Y-124463817D01*
X128791732Y-124640444D01*
X128774336Y-124817071D01*
X128748945Y-124900775D01*
X128722816Y-124986911D01*
X128671799Y-125082356D01*
X128639151Y-125143435D01*
X128613340Y-125174885D01*
X128526559Y-125280630D01*
X128425102Y-125363892D01*
X128389364Y-125393222D01*
X128389362Y-125393223D01*
X128232840Y-125476887D01*
X128176226Y-125494060D01*
X128063000Y-125528407D01*
X127996815Y-125534926D01*
X127930633Y-125541444D01*
X127842113Y-125541444D01*
X127775931Y-125534926D01*
X127709746Y-125528407D01*
X127596520Y-125494060D01*
X127539906Y-125476887D01*
X127383384Y-125393223D01*
X127383382Y-125393222D01*
X127347644Y-125363892D01*
X127246187Y-125280630D01*
X127159406Y-125174885D01*
X127133595Y-125143435D01*
X127100947Y-125082356D01*
X127049930Y-124986911D01*
X127023801Y-124900775D01*
X126998410Y-124817071D01*
X126981014Y-124640444D01*
X126998410Y-124463817D01*
X127049930Y-124293978D01*
X127049930Y-124293977D01*
X127133594Y-124137455D01*
X127133595Y-124137453D01*
X127162925Y-124101715D01*
X127246187Y-124000258D01*
X127347644Y-123916996D01*
X127383382Y-123887666D01*
X127403108Y-123877122D01*
X127539906Y-123804001D01*
X127596520Y-123786828D01*
X127709746Y-123752481D01*
X127781723Y-123745392D01*
X127842113Y-123739444D01*
X127930633Y-123739444D01*
X127991023Y-123745392D01*
X127991023Y-123745392D01*
G37*
G36*
X151356959Y-123038435D02*
X151356962Y-123038436D01*
X151356963Y-123038436D01*
X151517377Y-123087097D01*
X151517379Y-123087098D01*
X151517382Y-123087099D01*
X151665216Y-123166117D01*
X151794797Y-123272463D01*
X151901143Y-123402044D01*
X151980161Y-123549878D01*
X151980162Y-123549881D01*
X151980163Y-123549883D01*
X152019887Y-123680835D01*
X152028825Y-123710301D01*
X152045255Y-123877122D01*
X152028825Y-124043943D01*
X152028824Y-124043946D01*
X152028824Y-124043947D01*
X151981763Y-124199087D01*
X151980161Y-124204366D01*
X151901143Y-124352200D01*
X151794797Y-124481781D01*
X151665216Y-124588127D01*
X151517382Y-124667145D01*
X151517379Y-124667146D01*
X151517377Y-124667147D01*
X151356963Y-124715808D01*
X151356962Y-124715808D01*
X151356959Y-124715809D01*
X151231942Y-124728122D01*
X151148334Y-124728122D01*
X151023317Y-124715809D01*
X151023314Y-124715808D01*
X151023313Y-124715808D01*
X150862899Y-124667147D01*
X150862897Y-124667146D01*
X150862894Y-124667145D01*
X150715060Y-124588127D01*
X150585479Y-124481781D01*
X150479133Y-124352200D01*
X150400115Y-124204366D01*
X150398514Y-124199087D01*
X150351452Y-124043947D01*
X150351452Y-124043946D01*
X150351451Y-124043943D01*
X150335021Y-123877122D01*
X150351451Y-123710301D01*
X150360389Y-123680835D01*
X150400113Y-123549883D01*
X150400114Y-123549881D01*
X150400115Y-123549878D01*
X150479133Y-123402044D01*
X150585479Y-123272463D01*
X150715060Y-123166117D01*
X150862894Y-123087099D01*
X150862897Y-123087098D01*
X150862899Y-123087097D01*
X151023313Y-123038436D01*
X151023314Y-123038436D01*
X151023317Y-123038435D01*
X151148334Y-123026122D01*
X151231942Y-123026122D01*
X151356959Y-123038435D01*
X151356959Y-123038435D01*
G37*
G36*
X123211111Y-122403898D02*
X123283078Y-122410986D01*
X123396304Y-122445333D01*
X123452918Y-122462506D01*
X123519181Y-122497925D01*
X123609442Y-122546171D01*
X123645180Y-122575501D01*
X123746637Y-122658763D01*
X123829899Y-122760220D01*
X123859229Y-122795958D01*
X123859230Y-122795960D01*
X123942894Y-122952482D01*
X123948711Y-122971658D01*
X123994414Y-123122322D01*
X124011810Y-123298949D01*
X123994414Y-123475576D01*
X123971875Y-123549878D01*
X123942894Y-123645416D01*
X123896423Y-123732355D01*
X123859229Y-123801940D01*
X123843756Y-123820794D01*
X123746637Y-123939135D01*
X123645180Y-124022397D01*
X123609442Y-124051727D01*
X123609440Y-124051728D01*
X123452918Y-124135392D01*
X123396304Y-124152565D01*
X123283078Y-124186912D01*
X123216894Y-124193430D01*
X123150711Y-124199949D01*
X123062191Y-124199949D01*
X122996008Y-124193430D01*
X122929824Y-124186912D01*
X122816598Y-124152565D01*
X122759984Y-124135392D01*
X122603462Y-124051728D01*
X122603460Y-124051727D01*
X122567722Y-124022397D01*
X122466265Y-123939135D01*
X122369146Y-123820794D01*
X122353673Y-123801940D01*
X122316479Y-123732355D01*
X122270008Y-123645416D01*
X122241027Y-123549878D01*
X122218488Y-123475576D01*
X122201092Y-123298949D01*
X122218488Y-123122322D01*
X122264191Y-122971658D01*
X122270008Y-122952482D01*
X122353672Y-122795960D01*
X122353673Y-122795958D01*
X122383003Y-122760220D01*
X122466265Y-122658763D01*
X122567722Y-122575501D01*
X122603460Y-122546171D01*
X122693721Y-122497925D01*
X122759984Y-122462506D01*
X122816598Y-122445333D01*
X122929824Y-122410986D01*
X123001791Y-122403898D01*
X123062191Y-122397949D01*
X123150711Y-122397949D01*
X123211111Y-122403898D01*
X123211111Y-122403898D01*
G37*
G36*
X129792868Y-121949911D02*
X129859052Y-121956429D01*
X129972278Y-121990776D01*
X130028892Y-122007949D01*
X130141795Y-122068298D01*
X130185416Y-122091614D01*
X130221154Y-122120944D01*
X130322611Y-122204206D01*
X130390567Y-122287012D01*
X130435203Y-122341401D01*
X130435204Y-122341403D01*
X130518868Y-122497925D01*
X130518868Y-122497926D01*
X130570388Y-122667765D01*
X130587784Y-122844392D01*
X130570388Y-123021019D01*
X130536041Y-123134245D01*
X130518868Y-123190859D01*
X130444773Y-123329479D01*
X130435203Y-123347383D01*
X130405873Y-123383121D01*
X130322611Y-123484578D01*
X130243035Y-123549883D01*
X130185416Y-123597170D01*
X130185414Y-123597171D01*
X130028892Y-123680835D01*
X129972278Y-123698008D01*
X129859052Y-123732355D01*
X129792867Y-123738874D01*
X129726685Y-123745392D01*
X129638165Y-123745392D01*
X129571983Y-123738874D01*
X129505798Y-123732355D01*
X129392572Y-123698008D01*
X129335958Y-123680835D01*
X129179436Y-123597171D01*
X129179434Y-123597170D01*
X129121815Y-123549883D01*
X129042239Y-123484578D01*
X128958977Y-123383121D01*
X128929647Y-123347383D01*
X128920077Y-123329479D01*
X128845982Y-123190859D01*
X128828809Y-123134245D01*
X128794462Y-123021019D01*
X128777066Y-122844392D01*
X128794462Y-122667765D01*
X128845982Y-122497926D01*
X128845982Y-122497925D01*
X128929646Y-122341403D01*
X128929647Y-122341401D01*
X128974283Y-122287012D01*
X129042239Y-122204206D01*
X129143696Y-122120944D01*
X129179434Y-122091614D01*
X129223055Y-122068298D01*
X129335958Y-122007949D01*
X129392572Y-121990776D01*
X129505798Y-121956429D01*
X129571982Y-121949911D01*
X129638165Y-121943392D01*
X129726685Y-121943392D01*
X129792868Y-121949911D01*
X129792868Y-121949911D01*
G37*
G36*
X119007542Y-120655642D02*
X119155502Y-120716930D01*
X119288658Y-120805902D01*
X119401898Y-120919142D01*
X119490870Y-121052298D01*
X119552158Y-121200258D01*
X119583400Y-121357325D01*
X119583400Y-121517475D01*
X119552158Y-121674542D01*
X119519317Y-121753826D01*
X119490871Y-121822500D01*
X119401899Y-121955657D01*
X119288657Y-122068899D01*
X119254663Y-122091613D01*
X119155502Y-122157870D01*
X119007542Y-122219158D01*
X118850475Y-122250400D01*
X118692400Y-122250400D01*
X118668014Y-122252802D01*
X118644565Y-122259915D01*
X118622954Y-122271466D01*
X118604012Y-122287012D01*
X118588466Y-122305954D01*
X118576915Y-122327565D01*
X118569802Y-122351014D01*
X118567400Y-122375400D01*
X118567400Y-122533475D01*
X118536158Y-122690542D01*
X118494101Y-122792074D01*
X118474871Y-122838500D01*
X118398711Y-122952483D01*
X118385898Y-122971658D01*
X118272658Y-123084898D01*
X118139502Y-123173870D01*
X117991542Y-123235158D01*
X117834475Y-123266400D01*
X117674325Y-123266400D01*
X117517258Y-123235158D01*
X117369298Y-123173870D01*
X117236142Y-123084898D01*
X117122902Y-122971658D01*
X117110090Y-122952483D01*
X117033929Y-122838500D01*
X117014699Y-122792074D01*
X116972642Y-122690542D01*
X116941400Y-122533475D01*
X116941400Y-122373325D01*
X116972642Y-122216258D01*
X117024272Y-122091613D01*
X117033929Y-122068300D01*
X117122901Y-121935143D01*
X117236143Y-121821901D01*
X117302270Y-121777717D01*
X117369298Y-121732930D01*
X117517258Y-121671642D01*
X117674325Y-121640400D01*
X117832400Y-121640400D01*
X117856786Y-121637998D01*
X117880235Y-121630885D01*
X117901846Y-121619334D01*
X117920788Y-121603788D01*
X117936334Y-121584846D01*
X117947885Y-121563235D01*
X117954998Y-121539786D01*
X117957400Y-121515400D01*
X117957400Y-121357325D01*
X117988642Y-121200258D01*
X118049930Y-121052298D01*
X118138902Y-120919142D01*
X118252142Y-120805902D01*
X118385298Y-120716930D01*
X118533258Y-120655642D01*
X118690325Y-120624400D01*
X118850475Y-120624400D01*
X119007542Y-120655642D01*
X119007542Y-120655642D01*
G37*
G36*
X111387542Y-120655642D02*
X111535502Y-120716930D01*
X111668658Y-120805902D01*
X111781898Y-120919142D01*
X111870870Y-121052298D01*
X111932158Y-121200258D01*
X111963400Y-121357325D01*
X111963400Y-121517475D01*
X111932158Y-121674542D01*
X111899317Y-121753826D01*
X111870871Y-121822500D01*
X111781899Y-121955657D01*
X111668657Y-122068899D01*
X111634663Y-122091613D01*
X111535502Y-122157870D01*
X111387542Y-122219158D01*
X111230475Y-122250400D01*
X111072400Y-122250400D01*
X111048014Y-122252802D01*
X111024565Y-122259915D01*
X111002954Y-122271466D01*
X110984012Y-122287012D01*
X110968466Y-122305954D01*
X110956915Y-122327565D01*
X110949802Y-122351014D01*
X110947400Y-122375400D01*
X110947400Y-122533475D01*
X110916158Y-122690542D01*
X110874101Y-122792074D01*
X110854871Y-122838500D01*
X110778711Y-122952483D01*
X110765898Y-122971658D01*
X110652658Y-123084898D01*
X110519502Y-123173870D01*
X110371542Y-123235158D01*
X110214475Y-123266400D01*
X110054325Y-123266400D01*
X109897258Y-123235158D01*
X109749298Y-123173870D01*
X109616142Y-123084898D01*
X109502902Y-122971658D01*
X109490090Y-122952483D01*
X109413929Y-122838500D01*
X109394699Y-122792074D01*
X109352642Y-122690542D01*
X109321400Y-122533475D01*
X109321400Y-122373325D01*
X109352642Y-122216258D01*
X109404272Y-122091613D01*
X109413929Y-122068300D01*
X109502901Y-121935143D01*
X109616143Y-121821901D01*
X109682270Y-121777717D01*
X109749298Y-121732930D01*
X109897258Y-121671642D01*
X110054325Y-121640400D01*
X110212400Y-121640400D01*
X110236786Y-121637998D01*
X110260235Y-121630885D01*
X110281846Y-121619334D01*
X110300788Y-121603788D01*
X110316334Y-121584846D01*
X110327885Y-121563235D01*
X110334998Y-121539786D01*
X110337400Y-121515400D01*
X110337400Y-121357325D01*
X110368642Y-121200258D01*
X110429930Y-121052298D01*
X110518902Y-120919142D01*
X110632142Y-120805902D01*
X110765298Y-120716930D01*
X110913258Y-120655642D01*
X111070325Y-120624400D01*
X111230475Y-120624400D01*
X111387542Y-120655642D01*
X111387542Y-120655642D01*
G37*
G36*
X149560907Y-121242383D02*
X149560910Y-121242384D01*
X149560911Y-121242384D01*
X149721325Y-121291045D01*
X149721327Y-121291046D01*
X149721330Y-121291047D01*
X149869164Y-121370065D01*
X149998745Y-121476411D01*
X150105091Y-121605992D01*
X150184109Y-121753826D01*
X150184110Y-121753829D01*
X150184111Y-121753831D01*
X150213091Y-121849365D01*
X150232773Y-121914249D01*
X150249203Y-122081070D01*
X150232773Y-122247891D01*
X150232772Y-122247894D01*
X150232772Y-122247895D01*
X150187254Y-122397949D01*
X150184109Y-122408314D01*
X150105091Y-122556148D01*
X149998745Y-122685729D01*
X149869164Y-122792075D01*
X149721330Y-122871093D01*
X149721327Y-122871094D01*
X149721325Y-122871095D01*
X149560911Y-122919756D01*
X149560910Y-122919756D01*
X149560907Y-122919757D01*
X149435890Y-122932070D01*
X149352282Y-122932070D01*
X149227265Y-122919757D01*
X149227262Y-122919756D01*
X149227261Y-122919756D01*
X149066847Y-122871095D01*
X149066845Y-122871094D01*
X149066842Y-122871093D01*
X148919008Y-122792075D01*
X148789427Y-122685729D01*
X148683081Y-122556148D01*
X148604063Y-122408314D01*
X148600919Y-122397949D01*
X148555400Y-122247895D01*
X148555400Y-122247894D01*
X148555399Y-122247891D01*
X148538969Y-122081070D01*
X148555399Y-121914249D01*
X148575081Y-121849365D01*
X148604061Y-121753831D01*
X148604062Y-121753829D01*
X148604063Y-121753826D01*
X148683081Y-121605992D01*
X148789427Y-121476411D01*
X148919008Y-121370065D01*
X149066842Y-121291047D01*
X149066845Y-121291046D01*
X149066847Y-121291045D01*
X149227261Y-121242384D01*
X149227262Y-121242384D01*
X149227265Y-121242383D01*
X149352282Y-121230070D01*
X149435890Y-121230070D01*
X149560907Y-121242383D01*
X149560907Y-121242383D01*
G37*
G36*
X125007152Y-120607846D02*
X125079129Y-120614935D01*
X125192355Y-120649282D01*
X125248969Y-120666455D01*
X125387589Y-120740550D01*
X125405493Y-120750120D01*
X125441231Y-120779450D01*
X125542688Y-120862712D01*
X125625950Y-120964169D01*
X125655280Y-120999907D01*
X125655281Y-120999909D01*
X125738945Y-121156431D01*
X125756118Y-121213045D01*
X125790465Y-121326271D01*
X125807861Y-121502898D01*
X125790465Y-121679525D01*
X125756118Y-121792751D01*
X125738945Y-121849365D01*
X125693095Y-121935143D01*
X125655280Y-122005889D01*
X125653589Y-122007949D01*
X125542688Y-122143084D01*
X125468208Y-122204207D01*
X125405493Y-122255676D01*
X125405491Y-122255677D01*
X125248969Y-122339341D01*
X125192355Y-122356514D01*
X125079129Y-122390861D01*
X125012944Y-122397380D01*
X124946762Y-122403898D01*
X124858242Y-122403898D01*
X124792060Y-122397380D01*
X124725875Y-122390861D01*
X124612649Y-122356514D01*
X124556035Y-122339341D01*
X124399513Y-122255677D01*
X124399511Y-122255676D01*
X124336796Y-122204207D01*
X124262316Y-122143084D01*
X124151415Y-122007949D01*
X124149724Y-122005889D01*
X124111909Y-121935143D01*
X124066059Y-121849365D01*
X124048886Y-121792751D01*
X124014539Y-121679525D01*
X123997143Y-121502898D01*
X124014539Y-121326271D01*
X124048886Y-121213045D01*
X124066059Y-121156431D01*
X124149723Y-120999909D01*
X124149724Y-120999907D01*
X124179054Y-120964169D01*
X124262316Y-120862712D01*
X124363773Y-120779450D01*
X124399511Y-120750120D01*
X124417415Y-120740550D01*
X124556035Y-120666455D01*
X124612649Y-120649282D01*
X124725875Y-120614935D01*
X124797852Y-120607846D01*
X124858242Y-120601898D01*
X124946762Y-120601898D01*
X125007152Y-120607846D01*
X125007152Y-120607846D01*
G37*
G36*
X147764856Y-119446332D02*
X147764859Y-119446333D01*
X147764860Y-119446333D01*
X147925274Y-119494994D01*
X147925276Y-119494995D01*
X147925279Y-119494996D01*
X148073113Y-119574014D01*
X148202694Y-119680360D01*
X148309040Y-119809941D01*
X148388058Y-119957775D01*
X148388059Y-119957778D01*
X148388060Y-119957780D01*
X148434879Y-120112122D01*
X148436722Y-120118198D01*
X148453152Y-120285019D01*
X148436722Y-120451840D01*
X148436721Y-120451843D01*
X148436721Y-120451844D01*
X148391203Y-120601898D01*
X148388058Y-120612263D01*
X148309040Y-120760097D01*
X148202694Y-120889678D01*
X148073113Y-120996024D01*
X147925279Y-121075042D01*
X147925276Y-121075043D01*
X147925274Y-121075044D01*
X147764860Y-121123705D01*
X147764859Y-121123705D01*
X147764856Y-121123706D01*
X147639839Y-121136019D01*
X147556231Y-121136019D01*
X147431214Y-121123706D01*
X147431211Y-121123705D01*
X147431210Y-121123705D01*
X147270796Y-121075044D01*
X147270794Y-121075043D01*
X147270791Y-121075042D01*
X147122957Y-120996024D01*
X146993376Y-120889678D01*
X146887030Y-120760097D01*
X146808012Y-120612263D01*
X146804868Y-120601898D01*
X146759349Y-120451844D01*
X146759349Y-120451843D01*
X146759348Y-120451840D01*
X146742918Y-120285019D01*
X146759348Y-120118198D01*
X146761191Y-120112122D01*
X146808010Y-119957780D01*
X146808011Y-119957778D01*
X146808012Y-119957775D01*
X146887030Y-119809941D01*
X146993376Y-119680360D01*
X147122957Y-119574014D01*
X147270791Y-119494996D01*
X147270794Y-119494995D01*
X147270796Y-119494994D01*
X147431210Y-119446333D01*
X147431211Y-119446333D01*
X147431214Y-119446332D01*
X147556231Y-119434019D01*
X147639839Y-119434019D01*
X147764856Y-119446332D01*
X147764856Y-119446332D01*
G37*
G36*
X126808997Y-118812365D02*
X126875181Y-118818883D01*
X126988407Y-118853230D01*
X127045021Y-118870403D01*
X127183297Y-118944314D01*
X127201545Y-118954068D01*
X127213703Y-118964046D01*
X127338740Y-119066660D01*
X127422002Y-119168117D01*
X127451332Y-119203855D01*
X127451333Y-119203857D01*
X127534997Y-119360379D01*
X127534997Y-119360380D01*
X127586517Y-119530219D01*
X127603913Y-119706846D01*
X127586517Y-119883473D01*
X127563978Y-119957775D01*
X127534997Y-120053313D01*
X127460902Y-120191933D01*
X127451332Y-120209837D01*
X127422002Y-120245575D01*
X127338740Y-120347032D01*
X127237283Y-120430294D01*
X127201545Y-120459624D01*
X127201543Y-120459625D01*
X127045021Y-120543289D01*
X126988407Y-120560462D01*
X126875181Y-120594809D01*
X126808996Y-120601328D01*
X126742814Y-120607846D01*
X126654294Y-120607846D01*
X126588112Y-120601328D01*
X126521927Y-120594809D01*
X126408701Y-120560462D01*
X126352087Y-120543289D01*
X126195565Y-120459625D01*
X126195563Y-120459624D01*
X126159825Y-120430294D01*
X126058368Y-120347032D01*
X125975106Y-120245575D01*
X125945776Y-120209837D01*
X125936206Y-120191933D01*
X125862111Y-120053313D01*
X125833130Y-119957775D01*
X125810591Y-119883473D01*
X125793195Y-119706846D01*
X125810591Y-119530219D01*
X125862111Y-119360380D01*
X125862111Y-119360379D01*
X125945775Y-119203857D01*
X125945776Y-119203855D01*
X125975106Y-119168117D01*
X126058368Y-119066660D01*
X126183405Y-118964046D01*
X126195563Y-118954068D01*
X126213811Y-118944314D01*
X126352087Y-118870403D01*
X126408701Y-118853230D01*
X126521927Y-118818883D01*
X126588111Y-118812365D01*
X126654294Y-118805846D01*
X126742814Y-118805846D01*
X126808997Y-118812365D01*
X126808997Y-118812365D01*
G37*
G36*
X133693169Y-118431538D02*
X133884438Y-118510764D01*
X134056580Y-118625786D01*
X134202967Y-118772173D01*
X134317989Y-118944315D01*
X134397215Y-119135584D01*
X134437604Y-119338633D01*
X134437604Y-119545665D01*
X134397215Y-119748714D01*
X134317989Y-119939983D01*
X134202967Y-120112125D01*
X134056580Y-120258512D01*
X133884438Y-120373534D01*
X133693169Y-120452760D01*
X133490120Y-120493149D01*
X133283088Y-120493149D01*
X133080039Y-120452760D01*
X132888770Y-120373534D01*
X132716628Y-120258512D01*
X132570241Y-120112125D01*
X132455219Y-119939983D01*
X132375993Y-119748714D01*
X132335604Y-119545665D01*
X132335604Y-119338633D01*
X132375993Y-119135584D01*
X132455219Y-118944315D01*
X132570241Y-118772173D01*
X132716628Y-118625786D01*
X132888770Y-118510764D01*
X133080039Y-118431538D01*
X133283088Y-118391149D01*
X133490120Y-118391149D01*
X133693169Y-118431538D01*
X133693169Y-118431538D01*
G37*
G36*
X147005480Y-118488968D02*
X145801984Y-119692464D01*
X144598488Y-118488968D01*
X145801984Y-117285472D01*
X147005480Y-118488968D01*
X147005480Y-118488968D01*
G37*
G36*
X156745112Y-117650281D02*
X156745115Y-117650282D01*
X156745116Y-117650282D01*
X156905530Y-117698943D01*
X156905532Y-117698944D01*
X156905535Y-117698945D01*
X157053369Y-117777963D01*
X157182950Y-117884309D01*
X157289296Y-118013890D01*
X157368314Y-118161724D01*
X157416978Y-118322147D01*
X157433408Y-118488968D01*
X157416978Y-118655789D01*
X157416977Y-118655792D01*
X157416977Y-118655793D01*
X157381673Y-118772176D01*
X157368314Y-118816212D01*
X157289296Y-118964046D01*
X157182950Y-119093627D01*
X157053369Y-119199973D01*
X156905535Y-119278991D01*
X156905532Y-119278992D01*
X156905530Y-119278993D01*
X156745116Y-119327654D01*
X156745115Y-119327654D01*
X156745112Y-119327655D01*
X156620095Y-119339968D01*
X156536487Y-119339968D01*
X156411470Y-119327655D01*
X156411467Y-119327654D01*
X156411466Y-119327654D01*
X156251052Y-119278993D01*
X156251050Y-119278992D01*
X156251047Y-119278991D01*
X156103213Y-119199973D01*
X155973632Y-119093627D01*
X155867286Y-118964046D01*
X155788268Y-118816212D01*
X155774910Y-118772176D01*
X155739605Y-118655793D01*
X155739605Y-118655792D01*
X155739604Y-118655789D01*
X155723174Y-118488968D01*
X155739604Y-118322147D01*
X155788268Y-118161724D01*
X155867286Y-118013890D01*
X155973632Y-117884309D01*
X156103213Y-117777963D01*
X156251047Y-117698945D01*
X156251050Y-117698944D01*
X156251052Y-117698943D01*
X156411466Y-117650282D01*
X156411467Y-117650282D01*
X156411470Y-117650281D01*
X156536487Y-117637968D01*
X156620095Y-117637968D01*
X156745112Y-117650281D01*
X156745112Y-117650281D01*
G37*
G36*
X154949061Y-115854230D02*
X154949064Y-115854231D01*
X154949065Y-115854231D01*
X155109479Y-115902892D01*
X155109481Y-115902893D01*
X155109484Y-115902894D01*
X155257318Y-115981912D01*
X155386899Y-116088258D01*
X155493245Y-116217839D01*
X155572263Y-116365673D01*
X155620927Y-116526096D01*
X155637357Y-116692917D01*
X155620927Y-116859738D01*
X155620926Y-116859741D01*
X155620926Y-116859742D01*
X155599570Y-116930144D01*
X155572263Y-117020161D01*
X155493245Y-117167995D01*
X155386899Y-117297576D01*
X155257318Y-117403922D01*
X155109484Y-117482940D01*
X155109481Y-117482941D01*
X155109479Y-117482942D01*
X154949065Y-117531603D01*
X154949064Y-117531603D01*
X154949061Y-117531604D01*
X154824044Y-117543917D01*
X154740436Y-117543917D01*
X154615419Y-117531604D01*
X154615416Y-117531603D01*
X154615415Y-117531603D01*
X154455001Y-117482942D01*
X154454999Y-117482941D01*
X154454996Y-117482940D01*
X154307162Y-117403922D01*
X154177581Y-117297576D01*
X154071235Y-117167995D01*
X153992217Y-117020161D01*
X153964911Y-116930144D01*
X153943554Y-116859742D01*
X153943554Y-116859741D01*
X153943553Y-116859738D01*
X153927123Y-116692917D01*
X153943553Y-116526096D01*
X153992217Y-116365673D01*
X154071235Y-116217839D01*
X154177581Y-116088258D01*
X154307162Y-115981912D01*
X154454996Y-115902894D01*
X154454999Y-115902893D01*
X154455001Y-115902892D01*
X154615415Y-115854231D01*
X154615416Y-115854231D01*
X154615419Y-115854230D01*
X154740436Y-115841917D01*
X154824044Y-115841917D01*
X154949061Y-115854230D01*
X154949061Y-115854230D01*
G37*
G36*
X136875149Y-115249557D02*
X137066418Y-115328783D01*
X137238560Y-115443805D01*
X137384947Y-115590192D01*
X137499969Y-115762334D01*
X137579195Y-115953603D01*
X137619584Y-116156652D01*
X137619584Y-116363684D01*
X137579195Y-116566733D01*
X137499969Y-116758002D01*
X137384947Y-116930144D01*
X137238560Y-117076531D01*
X137066418Y-117191553D01*
X136875149Y-117270779D01*
X136672100Y-117311168D01*
X136465068Y-117311168D01*
X136262019Y-117270779D01*
X136070750Y-117191553D01*
X135898608Y-117076531D01*
X135752221Y-116930144D01*
X135637199Y-116758002D01*
X135557973Y-116566733D01*
X135517584Y-116363684D01*
X135517584Y-116156652D01*
X135557973Y-115953603D01*
X135637199Y-115762334D01*
X135752221Y-115590192D01*
X135898608Y-115443805D01*
X136070750Y-115328783D01*
X136262019Y-115249557D01*
X136465068Y-115209168D01*
X136672100Y-115209168D01*
X136875149Y-115249557D01*
X136875149Y-115249557D01*
G37*
G36*
X142541162Y-115031570D02*
X141266955Y-116305777D01*
X139992748Y-115031570D01*
X141266955Y-113757363D01*
X142541162Y-115031570D01*
X142541162Y-115031570D01*
G37*
G36*
X129096974Y-113835344D02*
X129288243Y-113914570D01*
X129460385Y-114029592D01*
X129606772Y-114175979D01*
X129721794Y-114348121D01*
X129801020Y-114539390D01*
X129841409Y-114742439D01*
X129841409Y-114949471D01*
X129801020Y-115152520D01*
X129721794Y-115343789D01*
X129606772Y-115515931D01*
X129460385Y-115662318D01*
X129288243Y-115777340D01*
X129096974Y-115856566D01*
X128893925Y-115896955D01*
X128686893Y-115896955D01*
X128483844Y-115856566D01*
X128292575Y-115777340D01*
X128120433Y-115662318D01*
X127974046Y-115515931D01*
X127859024Y-115343789D01*
X127779798Y-115152520D01*
X127739409Y-114949471D01*
X127739409Y-114742439D01*
X127779798Y-114539390D01*
X127859024Y-114348121D01*
X127974046Y-114175979D01*
X128120433Y-114029592D01*
X128292575Y-113914570D01*
X128483844Y-113835344D01*
X128686893Y-113794955D01*
X128893925Y-113794955D01*
X129096974Y-113835344D01*
X129096974Y-113835344D01*
G37*
G36*
X153153010Y-114058179D02*
X153153013Y-114058180D01*
X153153014Y-114058180D01*
X153313428Y-114106841D01*
X153313430Y-114106842D01*
X153313433Y-114106843D01*
X153461267Y-114185861D01*
X153590848Y-114292207D01*
X153697194Y-114421788D01*
X153776212Y-114569622D01*
X153776213Y-114569625D01*
X153776214Y-114569627D01*
X153800898Y-114651000D01*
X153824876Y-114730045D01*
X153841306Y-114896866D01*
X153824876Y-115063687D01*
X153824875Y-115063690D01*
X153824875Y-115063691D01*
X153785158Y-115194622D01*
X153776212Y-115224110D01*
X153697194Y-115371944D01*
X153590848Y-115501525D01*
X153461267Y-115607871D01*
X153313433Y-115686889D01*
X153313430Y-115686890D01*
X153313428Y-115686891D01*
X153153014Y-115735552D01*
X153153013Y-115735552D01*
X153153010Y-115735553D01*
X153027993Y-115747866D01*
X152944385Y-115747866D01*
X152819368Y-115735553D01*
X152819365Y-115735552D01*
X152819364Y-115735552D01*
X152658950Y-115686891D01*
X152658948Y-115686890D01*
X152658945Y-115686889D01*
X152511111Y-115607871D01*
X152381530Y-115501525D01*
X152275184Y-115371944D01*
X152196166Y-115224110D01*
X152187221Y-115194622D01*
X152147503Y-115063691D01*
X152147503Y-115063690D01*
X152147502Y-115063687D01*
X152131072Y-114896866D01*
X152147502Y-114730045D01*
X152171480Y-114651000D01*
X152196164Y-114569627D01*
X152196165Y-114569625D01*
X152196166Y-114569622D01*
X152275184Y-114421788D01*
X152381530Y-114292207D01*
X152511111Y-114185861D01*
X152658945Y-114106843D01*
X152658948Y-114106842D01*
X152658950Y-114106841D01*
X152819364Y-114058180D01*
X152819365Y-114058180D01*
X152819368Y-114058179D01*
X152944385Y-114045866D01*
X153027993Y-114045866D01*
X153153010Y-114058179D01*
X153153010Y-114058179D01*
G37*
G36*
X173005268Y-111767488D02*
X173244475Y-111815069D01*
X173382348Y-111872178D01*
X173577330Y-111952942D01*
X173876898Y-112153107D01*
X174131650Y-112407859D01*
X174331815Y-112707427D01*
X174469688Y-113040283D01*
X174539975Y-113393640D01*
X174539975Y-113753924D01*
X174523779Y-113835345D01*
X174469688Y-114107282D01*
X174441231Y-114175982D01*
X174331815Y-114440137D01*
X174131650Y-114739705D01*
X173876898Y-114994457D01*
X173577330Y-115194622D01*
X173444702Y-115249558D01*
X173244475Y-115332495D01*
X173067796Y-115367638D01*
X172891117Y-115402782D01*
X172530833Y-115402782D01*
X172354154Y-115367638D01*
X172177475Y-115332495D01*
X171977248Y-115249558D01*
X171844620Y-115194622D01*
X171545052Y-114994457D01*
X171290300Y-114739705D01*
X171090135Y-114440137D01*
X170980719Y-114175982D01*
X170952262Y-114107282D01*
X170898171Y-113835345D01*
X170881975Y-113753924D01*
X170881975Y-113393640D01*
X170952262Y-113040283D01*
X171090135Y-112707427D01*
X171290300Y-112407859D01*
X171545052Y-112153107D01*
X171844620Y-111952942D01*
X172039602Y-111872178D01*
X172177475Y-111815069D01*
X172416682Y-111767488D01*
X172530833Y-111744782D01*
X172891117Y-111744782D01*
X173005268Y-111767488D01*
X173005268Y-111767488D01*
G37*
G36*
X109065256Y-111391298D02*
X109171579Y-111412447D01*
X109472042Y-111536903D01*
X109507294Y-111560458D01*
X109742454Y-111717587D01*
X109972413Y-111947546D01*
X109972415Y-111947549D01*
X110135917Y-112192246D01*
X110153098Y-112217960D01*
X110171393Y-112262128D01*
X110262774Y-112482741D01*
X110277553Y-112518422D01*
X110341000Y-112837389D01*
X110341000Y-113162611D01*
X110277553Y-113481578D01*
X110163320Y-113757363D01*
X110153097Y-113782042D01*
X110117481Y-113835345D01*
X109972413Y-114052454D01*
X109742454Y-114282413D01*
X109742451Y-114282415D01*
X109472042Y-114463097D01*
X109171579Y-114587553D01*
X109065256Y-114608702D01*
X108852611Y-114651000D01*
X108527389Y-114651000D01*
X108314744Y-114608702D01*
X108208421Y-114587553D01*
X107907958Y-114463097D01*
X107637549Y-114282415D01*
X107637546Y-114282413D01*
X107407587Y-114052454D01*
X107262519Y-113835345D01*
X107226903Y-113782042D01*
X107216681Y-113757363D01*
X107102447Y-113481578D01*
X107039000Y-113162611D01*
X107039000Y-112837389D01*
X107102447Y-112518422D01*
X107117227Y-112482741D01*
X107208607Y-112262128D01*
X107226902Y-112217960D01*
X107244084Y-112192246D01*
X107407585Y-111947549D01*
X107407587Y-111947546D01*
X107637546Y-111717587D01*
X107872706Y-111560458D01*
X107907958Y-111536903D01*
X108208421Y-111412447D01*
X108314744Y-111391298D01*
X108527389Y-111349000D01*
X108852611Y-111349000D01*
X109065256Y-111391298D01*
X109065256Y-111391298D01*
G37*
G36*
X143167666Y-112340468D02*
X143239633Y-112347556D01*
X143352859Y-112381903D01*
X143409473Y-112399076D01*
X143548093Y-112473171D01*
X143565997Y-112482741D01*
X143601735Y-112512071D01*
X143703192Y-112595333D01*
X143768231Y-112674585D01*
X143815784Y-112732528D01*
X143815785Y-112732530D01*
X143899449Y-112889052D01*
X143899449Y-112889053D01*
X143950969Y-113058892D01*
X143968365Y-113235519D01*
X143950969Y-113412146D01*
X143946142Y-113428058D01*
X143899449Y-113581986D01*
X143833443Y-113705473D01*
X143815784Y-113738510D01*
X143800311Y-113757364D01*
X143703192Y-113875705D01*
X143601735Y-113958967D01*
X143565997Y-113988297D01*
X143565995Y-113988298D01*
X143409473Y-114071962D01*
X143352859Y-114089135D01*
X143239633Y-114123482D01*
X143173448Y-114130001D01*
X143107266Y-114136519D01*
X143018746Y-114136519D01*
X142952564Y-114130001D01*
X142886379Y-114123482D01*
X142773153Y-114089135D01*
X142716539Y-114071962D01*
X142560017Y-113988298D01*
X142560015Y-113988297D01*
X142524277Y-113958967D01*
X142422820Y-113875705D01*
X142325701Y-113757364D01*
X142310228Y-113738510D01*
X142292569Y-113705473D01*
X142226563Y-113581986D01*
X142179870Y-113428058D01*
X142175043Y-113412146D01*
X142157647Y-113235519D01*
X142175043Y-113058892D01*
X142226563Y-112889053D01*
X142226563Y-112889052D01*
X142310227Y-112732530D01*
X142310228Y-112732528D01*
X142357781Y-112674585D01*
X142422820Y-112595333D01*
X142524277Y-112512071D01*
X142560015Y-112482741D01*
X142577919Y-112473171D01*
X142716539Y-112399076D01*
X142773153Y-112381903D01*
X142886379Y-112347556D01*
X142958346Y-112340468D01*
X143018746Y-112334519D01*
X143107266Y-112334519D01*
X143167666Y-112340468D01*
X143167666Y-112340468D01*
G37*
G36*
X151356959Y-112262127D02*
X151356962Y-112262128D01*
X151356963Y-112262128D01*
X151517377Y-112310789D01*
X151517379Y-112310790D01*
X151517382Y-112310791D01*
X151665216Y-112389809D01*
X151794797Y-112496155D01*
X151901143Y-112625736D01*
X151980161Y-112773570D01*
X151980162Y-112773573D01*
X151980163Y-112773575D01*
X152015193Y-112889053D01*
X152028825Y-112933993D01*
X152045255Y-113100814D01*
X152028825Y-113267635D01*
X152028824Y-113267638D01*
X152028824Y-113267639D01*
X151984989Y-113412144D01*
X151980161Y-113428058D01*
X151901143Y-113575892D01*
X151794797Y-113705473D01*
X151665216Y-113811819D01*
X151517382Y-113890837D01*
X151517379Y-113890838D01*
X151517377Y-113890839D01*
X151356963Y-113939500D01*
X151356962Y-113939500D01*
X151356959Y-113939501D01*
X151231942Y-113951814D01*
X151148334Y-113951814D01*
X151023317Y-113939501D01*
X151023314Y-113939500D01*
X151023313Y-113939500D01*
X150862899Y-113890839D01*
X150862897Y-113890838D01*
X150862894Y-113890837D01*
X150715060Y-113811819D01*
X150585479Y-113705473D01*
X150479133Y-113575892D01*
X150400115Y-113428058D01*
X150395288Y-113412144D01*
X150351452Y-113267639D01*
X150351452Y-113267638D01*
X150351451Y-113267635D01*
X150335021Y-113100814D01*
X150351451Y-112933993D01*
X150365083Y-112889053D01*
X150400113Y-112773575D01*
X150400114Y-112773573D01*
X150400115Y-112773570D01*
X150479133Y-112625736D01*
X150585479Y-112496155D01*
X150715060Y-112389809D01*
X150862894Y-112310791D01*
X150862897Y-112310790D01*
X150862899Y-112310789D01*
X151023313Y-112262128D01*
X151023314Y-112262128D01*
X151023317Y-112262127D01*
X151148334Y-112249814D01*
X151231942Y-112249814D01*
X151356959Y-112262127D01*
X151356959Y-112262127D01*
G37*
G36*
X139441199Y-111931605D02*
X138166992Y-113205812D01*
X136892785Y-111931605D01*
X138166992Y-110657398D01*
X139441199Y-111931605D01*
X139441199Y-111931605D01*
G37*
G36*
X132278955Y-110653363D02*
X132470224Y-110732589D01*
X132642366Y-110847611D01*
X132788753Y-110993998D01*
X132903775Y-111166140D01*
X132983001Y-111357409D01*
X133023390Y-111560458D01*
X133023390Y-111767490D01*
X132983001Y-111970539D01*
X132903775Y-112161808D01*
X132788753Y-112333950D01*
X132642366Y-112480337D01*
X132470224Y-112595359D01*
X132278955Y-112674585D01*
X132075906Y-112714974D01*
X131868874Y-112714974D01*
X131665825Y-112674585D01*
X131474556Y-112595359D01*
X131302414Y-112480337D01*
X131156027Y-112333950D01*
X131041005Y-112161808D01*
X130961779Y-111970539D01*
X130921390Y-111767490D01*
X130921390Y-111560458D01*
X130961779Y-111357409D01*
X131041005Y-111166140D01*
X131156027Y-110993998D01*
X131302414Y-110847611D01*
X131474556Y-110732589D01*
X131665825Y-110653363D01*
X131868874Y-110612974D01*
X132075906Y-110612974D01*
X132278955Y-110653363D01*
X132278955Y-110653363D01*
G37*
G36*
X144963707Y-110544416D02*
X145035684Y-110551505D01*
X145148910Y-110585852D01*
X145205524Y-110603025D01*
X145271976Y-110638545D01*
X145362048Y-110686690D01*
X145397786Y-110716020D01*
X145499243Y-110799282D01*
X145572323Y-110888332D01*
X145611835Y-110936477D01*
X145611836Y-110936479D01*
X145695500Y-111093001D01*
X145695500Y-111093002D01*
X145747020Y-111262841D01*
X145764416Y-111439468D01*
X145747020Y-111616095D01*
X145716233Y-111717585D01*
X145695500Y-111785935D01*
X145679927Y-111815069D01*
X145611835Y-111942459D01*
X145588790Y-111970539D01*
X145499243Y-112079654D01*
X145409741Y-112153105D01*
X145362048Y-112192246D01*
X145362046Y-112192247D01*
X145205524Y-112275911D01*
X145148910Y-112293084D01*
X145035684Y-112327431D01*
X144969525Y-112333947D01*
X144903317Y-112340468D01*
X144814797Y-112340468D01*
X144748589Y-112333947D01*
X144682430Y-112327431D01*
X144569204Y-112293084D01*
X144512590Y-112275911D01*
X144356068Y-112192247D01*
X144356066Y-112192246D01*
X144308373Y-112153105D01*
X144218871Y-112079654D01*
X144129324Y-111970539D01*
X144106279Y-111942459D01*
X144038187Y-111815069D01*
X144022614Y-111785935D01*
X144001881Y-111717585D01*
X143971094Y-111616095D01*
X143953698Y-111439468D01*
X143971094Y-111262841D01*
X144022614Y-111093002D01*
X144022614Y-111093001D01*
X144106278Y-110936479D01*
X144106279Y-110936477D01*
X144145791Y-110888332D01*
X144218871Y-110799282D01*
X144320328Y-110716020D01*
X144356066Y-110686690D01*
X144446138Y-110638545D01*
X144512590Y-110603025D01*
X144569204Y-110585852D01*
X144682430Y-110551505D01*
X144754407Y-110544416D01*
X144814797Y-110538468D01*
X144903317Y-110538468D01*
X144963707Y-110544416D01*
X144963707Y-110544416D01*
G37*
G36*
X140067703Y-109240503D02*
X140139670Y-109247591D01*
X140252896Y-109281938D01*
X140309510Y-109299111D01*
X140448130Y-109373206D01*
X140466034Y-109382776D01*
X140501772Y-109412106D01*
X140603229Y-109495368D01*
X140686491Y-109596825D01*
X140715821Y-109632563D01*
X140715822Y-109632565D01*
X140799486Y-109789087D01*
X140808876Y-109820043D01*
X140851006Y-109958927D01*
X140868402Y-110135554D01*
X140851006Y-110312181D01*
X140825521Y-110396194D01*
X140799486Y-110482021D01*
X140762345Y-110551505D01*
X140715821Y-110638545D01*
X140700348Y-110657399D01*
X140603229Y-110775740D01*
X140501772Y-110859002D01*
X140466034Y-110888332D01*
X140466032Y-110888333D01*
X140309510Y-110971997D01*
X140252896Y-110989170D01*
X140139670Y-111023517D01*
X140073485Y-111030036D01*
X140007303Y-111036554D01*
X139918783Y-111036554D01*
X139852601Y-111030036D01*
X139786416Y-111023517D01*
X139673190Y-110989170D01*
X139616576Y-110971997D01*
X139460054Y-110888333D01*
X139460052Y-110888332D01*
X139424314Y-110859002D01*
X139322857Y-110775740D01*
X139225738Y-110657399D01*
X139210265Y-110638545D01*
X139163741Y-110551505D01*
X139126600Y-110482021D01*
X139100565Y-110396194D01*
X139075080Y-110312181D01*
X139057684Y-110135554D01*
X139075080Y-109958927D01*
X139117210Y-109820043D01*
X139126600Y-109789087D01*
X139210264Y-109632565D01*
X139210265Y-109632563D01*
X139239595Y-109596825D01*
X139322857Y-109495368D01*
X139424314Y-109412106D01*
X139460052Y-109382776D01*
X139477956Y-109373206D01*
X139616576Y-109299111D01*
X139673190Y-109281938D01*
X139786416Y-109247591D01*
X139858383Y-109240503D01*
X139918783Y-109234554D01*
X140007303Y-109234554D01*
X140067703Y-109240503D01*
X140067703Y-109240503D01*
G37*
G36*
X146765551Y-108748934D02*
X146831736Y-108755453D01*
X146944962Y-108789800D01*
X147001576Y-108806973D01*
X147054369Y-108835192D01*
X147158100Y-108890638D01*
X147193838Y-108919968D01*
X147295295Y-109003230D01*
X147368376Y-109092281D01*
X147407887Y-109140425D01*
X147407888Y-109140427D01*
X147491552Y-109296949D01*
X147491552Y-109296950D01*
X147543072Y-109466789D01*
X147560468Y-109643416D01*
X147543072Y-109820043D01*
X147508725Y-109933269D01*
X147491552Y-109989883D01*
X147427669Y-110109398D01*
X147407887Y-110146407D01*
X147378557Y-110182145D01*
X147295295Y-110283602D01*
X147193838Y-110366864D01*
X147158100Y-110396194D01*
X147158098Y-110396195D01*
X147001576Y-110479859D01*
X146944962Y-110497032D01*
X146831736Y-110531379D01*
X146765551Y-110537898D01*
X146699369Y-110544416D01*
X146610849Y-110544416D01*
X146544667Y-110537898D01*
X146478482Y-110531379D01*
X146365256Y-110497032D01*
X146308642Y-110479859D01*
X146152120Y-110396195D01*
X146152118Y-110396194D01*
X146116380Y-110366864D01*
X146014923Y-110283602D01*
X145931661Y-110182145D01*
X145902331Y-110146407D01*
X145882549Y-110109398D01*
X145818666Y-109989883D01*
X145801493Y-109933269D01*
X145767146Y-109820043D01*
X145749750Y-109643416D01*
X145767146Y-109466789D01*
X145818666Y-109296950D01*
X145818666Y-109296949D01*
X145902330Y-109140427D01*
X145902331Y-109140425D01*
X145941842Y-109092281D01*
X146014923Y-109003230D01*
X146116380Y-108919968D01*
X146152118Y-108890638D01*
X146255849Y-108835192D01*
X146308642Y-108806973D01*
X146365256Y-108789800D01*
X146478482Y-108755453D01*
X146544667Y-108748934D01*
X146610849Y-108742416D01*
X146699369Y-108742416D01*
X146765551Y-108748934D01*
X146765551Y-108748934D01*
G37*
G36*
X136344786Y-108835192D02*
X135070579Y-110109399D01*
X133796372Y-108835192D01*
X135070579Y-107560985D01*
X136344786Y-108835192D01*
X136344786Y-108835192D01*
G37*
G36*
X141863744Y-107444451D02*
X141935721Y-107451540D01*
X142048947Y-107485887D01*
X142105561Y-107503060D01*
X142213929Y-107560985D01*
X142262085Y-107586725D01*
X142297823Y-107616055D01*
X142399280Y-107699317D01*
X142475275Y-107791919D01*
X142511872Y-107836512D01*
X142511873Y-107836514D01*
X142595537Y-107993036D01*
X142605624Y-108026290D01*
X142647057Y-108162876D01*
X142664453Y-108339503D01*
X142647057Y-108516130D01*
X142612710Y-108629356D01*
X142595537Y-108685970D01*
X142558397Y-108755453D01*
X142511872Y-108842494D01*
X142482542Y-108878232D01*
X142399280Y-108979689D01*
X142297823Y-109062951D01*
X142262085Y-109092281D01*
X142262083Y-109092282D01*
X142105561Y-109175946D01*
X142048947Y-109193119D01*
X141935721Y-109227466D01*
X141869536Y-109233985D01*
X141803354Y-109240503D01*
X141714834Y-109240503D01*
X141648652Y-109233985D01*
X141582467Y-109227466D01*
X141469241Y-109193119D01*
X141412627Y-109175946D01*
X141256105Y-109092282D01*
X141256103Y-109092281D01*
X141220365Y-109062951D01*
X141118908Y-108979689D01*
X141035646Y-108878232D01*
X141006316Y-108842494D01*
X140959791Y-108755453D01*
X140922651Y-108685970D01*
X140905478Y-108629356D01*
X140871131Y-108516130D01*
X140853735Y-108339503D01*
X140871131Y-108162876D01*
X140912564Y-108026290D01*
X140922651Y-107993036D01*
X141006315Y-107836514D01*
X141006316Y-107836512D01*
X141042913Y-107791919D01*
X141118908Y-107699317D01*
X141220365Y-107616055D01*
X141256103Y-107586725D01*
X141304259Y-107560985D01*
X141412627Y-107503060D01*
X141469241Y-107485887D01*
X141582467Y-107451540D01*
X141654444Y-107444451D01*
X141714834Y-107438503D01*
X141803354Y-107438503D01*
X141863744Y-107444451D01*
X141863744Y-107444451D01*
G37*
G36*
X170294294Y-106373148D02*
X170467364Y-106444836D01*
X170623128Y-106548914D01*
X170755586Y-106681372D01*
X170859664Y-106837136D01*
X170931352Y-107010206D01*
X170967898Y-107193935D01*
X170967898Y-107381269D01*
X170931352Y-107564998D01*
X170859664Y-107738068D01*
X170755586Y-107893832D01*
X170623128Y-108026290D01*
X170467364Y-108130368D01*
X170294294Y-108202056D01*
X170110565Y-108238602D01*
X169923231Y-108238602D01*
X169739502Y-108202056D01*
X169566432Y-108130368D01*
X169410668Y-108026290D01*
X169278210Y-107893832D01*
X169174132Y-107738068D01*
X169102444Y-107564998D01*
X169065898Y-107381269D01*
X169065898Y-107193935D01*
X169102444Y-107010206D01*
X169174132Y-106837136D01*
X169278210Y-106681372D01*
X169410668Y-106548914D01*
X169566432Y-106444836D01*
X169739502Y-106373148D01*
X169923231Y-106336602D01*
X170110565Y-106336602D01*
X170294294Y-106373148D01*
X170294294Y-106373148D01*
G37*
G36*
X180241943Y-104593721D02*
X180428680Y-104630865D01*
X180566553Y-104687974D01*
X180761535Y-104768738D01*
X181061103Y-104968903D01*
X181315855Y-105223655D01*
X181516020Y-105523223D01*
X181570806Y-105655488D01*
X181651165Y-105849491D01*
X181653893Y-105856079D01*
X181724180Y-106209436D01*
X181724180Y-106569720D01*
X181653893Y-106923077D01*
X181516020Y-107255933D01*
X181315855Y-107555501D01*
X181061103Y-107810253D01*
X180761535Y-108010418D01*
X180566553Y-108091182D01*
X180428680Y-108148291D01*
X180252000Y-108183435D01*
X180075322Y-108218578D01*
X179715038Y-108218578D01*
X179538360Y-108183435D01*
X179361680Y-108148291D01*
X179223807Y-108091182D01*
X179028825Y-108010418D01*
X178729257Y-107810253D01*
X178474505Y-107555501D01*
X178274340Y-107255933D01*
X178136467Y-106923077D01*
X178066180Y-106569720D01*
X178066180Y-106209436D01*
X178136467Y-105856079D01*
X178139196Y-105849491D01*
X178219554Y-105655488D01*
X178274340Y-105523223D01*
X178474505Y-105223655D01*
X178729257Y-104968903D01*
X179028825Y-104768738D01*
X179223807Y-104687974D01*
X179361680Y-104630865D01*
X179548417Y-104593721D01*
X179715038Y-104560578D01*
X180075322Y-104560578D01*
X180241943Y-104593721D01*
X180241943Y-104593721D01*
G37*
G36*
X136971290Y-106144090D02*
X137043257Y-106151178D01*
X137147972Y-106182943D01*
X137213097Y-106202698D01*
X137272524Y-106234463D01*
X137369621Y-106286363D01*
X137405359Y-106315693D01*
X137506816Y-106398955D01*
X137590078Y-106500412D01*
X137619408Y-106536150D01*
X137619409Y-106536152D01*
X137703073Y-106692674D01*
X137703073Y-106692675D01*
X137754593Y-106862514D01*
X137771989Y-107039141D01*
X137754593Y-107215768D01*
X137730185Y-107296229D01*
X137703073Y-107385608D01*
X137671620Y-107444451D01*
X137619408Y-107542132D01*
X137603935Y-107560986D01*
X137506816Y-107679327D01*
X137405359Y-107762589D01*
X137369621Y-107791919D01*
X137369619Y-107791920D01*
X137213097Y-107875584D01*
X137156483Y-107892757D01*
X137043257Y-107927104D01*
X136977072Y-107933623D01*
X136910890Y-107940141D01*
X136822370Y-107940141D01*
X136756188Y-107933623D01*
X136690003Y-107927104D01*
X136576777Y-107892757D01*
X136520163Y-107875584D01*
X136363641Y-107791920D01*
X136363639Y-107791919D01*
X136327901Y-107762589D01*
X136226444Y-107679327D01*
X136129325Y-107560986D01*
X136113852Y-107542132D01*
X136061640Y-107444451D01*
X136030187Y-107385608D01*
X136003075Y-107296229D01*
X135978667Y-107215768D01*
X135961271Y-107039141D01*
X135978667Y-106862514D01*
X136030187Y-106692675D01*
X136030187Y-106692674D01*
X136113851Y-106536152D01*
X136113852Y-106536150D01*
X136143182Y-106500412D01*
X136226444Y-106398955D01*
X136327901Y-106315693D01*
X136363639Y-106286363D01*
X136460736Y-106234463D01*
X136520163Y-106202698D01*
X136585288Y-106182943D01*
X136690003Y-106151178D01*
X136761970Y-106144090D01*
X136822370Y-106138141D01*
X136910890Y-106138141D01*
X136971290Y-106144090D01*
X136971290Y-106144090D01*
G37*
G36*
X143665588Y-105648969D02*
X143731773Y-105655488D01*
X143844999Y-105689835D01*
X143901613Y-105707008D01*
X143974712Y-105746081D01*
X144058137Y-105790673D01*
X144093875Y-105820003D01*
X144195332Y-105903265D01*
X144263792Y-105986685D01*
X144307924Y-106040460D01*
X144307925Y-106040462D01*
X144391589Y-106196984D01*
X144401677Y-106230241D01*
X144443109Y-106366824D01*
X144460505Y-106543451D01*
X144443109Y-106720078D01*
X144408762Y-106833304D01*
X144391589Y-106889918D01*
X144373864Y-106923078D01*
X144307924Y-107046442D01*
X144278594Y-107082180D01*
X144195332Y-107183637D01*
X144093875Y-107266899D01*
X144058137Y-107296229D01*
X144058135Y-107296230D01*
X143901613Y-107379894D01*
X143844999Y-107397067D01*
X143731773Y-107431414D01*
X143665589Y-107437932D01*
X143599406Y-107444451D01*
X143510886Y-107444451D01*
X143444703Y-107437932D01*
X143378519Y-107431414D01*
X143265293Y-107397067D01*
X143208679Y-107379894D01*
X143052157Y-107296230D01*
X143052155Y-107296229D01*
X143016417Y-107266899D01*
X142914960Y-107183637D01*
X142831698Y-107082180D01*
X142802368Y-107046442D01*
X142736428Y-106923078D01*
X142718703Y-106889918D01*
X142701530Y-106833304D01*
X142667183Y-106720078D01*
X142649787Y-106543451D01*
X142667183Y-106366824D01*
X142708615Y-106230241D01*
X142718703Y-106196984D01*
X142802367Y-106040462D01*
X142802368Y-106040460D01*
X142846500Y-105986685D01*
X142914960Y-105903265D01*
X143016417Y-105820003D01*
X143052155Y-105790673D01*
X143135580Y-105746081D01*
X143208679Y-105707008D01*
X143265293Y-105689835D01*
X143378519Y-105655488D01*
X143444704Y-105648969D01*
X143510886Y-105642451D01*
X143599406Y-105642451D01*
X143665588Y-105648969D01*
X143665588Y-105648969D01*
G37*
G36*
X172090345Y-104577097D02*
X172263415Y-104648785D01*
X172419179Y-104752863D01*
X172551637Y-104885321D01*
X172655715Y-105041085D01*
X172727403Y-105214155D01*
X172763949Y-105397884D01*
X172763949Y-105585218D01*
X172727403Y-105768947D01*
X172655715Y-105942017D01*
X172551637Y-106097781D01*
X172419179Y-106230239D01*
X172263415Y-106334317D01*
X172090345Y-106406005D01*
X171906616Y-106442551D01*
X171719282Y-106442551D01*
X171535553Y-106406005D01*
X171362483Y-106334317D01*
X171206719Y-106230239D01*
X171074261Y-106097781D01*
X170970183Y-105942017D01*
X170898495Y-105768947D01*
X170861949Y-105585218D01*
X170861949Y-105397884D01*
X170898495Y-105214155D01*
X170970183Y-105041085D01*
X171074261Y-104885321D01*
X171206719Y-104752863D01*
X171362483Y-104648785D01*
X171535553Y-104577097D01*
X171719282Y-104540551D01*
X171906616Y-104540551D01*
X172090345Y-104577097D01*
X172090345Y-104577097D01*
G37*
G36*
X164130943Y-104452019D02*
X164197127Y-104458537D01*
X164301872Y-104490311D01*
X164366967Y-104510057D01*
X164492388Y-104577097D01*
X164523491Y-104593722D01*
X164534679Y-104602904D01*
X164660686Y-104706314D01*
X164725493Y-104785283D01*
X164773278Y-104843509D01*
X164773279Y-104843511D01*
X164856943Y-105000033D01*
X164856943Y-105000034D01*
X164908463Y-105169873D01*
X164925859Y-105346500D01*
X164908463Y-105523127D01*
X164874116Y-105636353D01*
X164856943Y-105692967D01*
X164816330Y-105768947D01*
X164773278Y-105849491D01*
X164767872Y-105856078D01*
X164660686Y-105986686D01*
X164559229Y-106069948D01*
X164523491Y-106099278D01*
X164523489Y-106099279D01*
X164366967Y-106182943D01*
X164320679Y-106196984D01*
X164197127Y-106234463D01*
X164130943Y-106240981D01*
X164064760Y-106247500D01*
X163976240Y-106247500D01*
X163910057Y-106240981D01*
X163843873Y-106234463D01*
X163720321Y-106196984D01*
X163674033Y-106182943D01*
X163517511Y-106099279D01*
X163517509Y-106099278D01*
X163481771Y-106069948D01*
X163380314Y-105986686D01*
X163273128Y-105856078D01*
X163267722Y-105849491D01*
X163224670Y-105768947D01*
X163184057Y-105692967D01*
X163166884Y-105636353D01*
X163132537Y-105523127D01*
X163115141Y-105346500D01*
X163132537Y-105169873D01*
X163184057Y-105000034D01*
X163184057Y-105000033D01*
X163267721Y-104843511D01*
X163267722Y-104843509D01*
X163315507Y-104785283D01*
X163380314Y-104706314D01*
X163506321Y-104602904D01*
X163517509Y-104593722D01*
X163548612Y-104577097D01*
X163674033Y-104510057D01*
X163739128Y-104490311D01*
X163843873Y-104458537D01*
X163910058Y-104452018D01*
X163976240Y-104445500D01*
X164064760Y-104445500D01*
X164130943Y-104452019D01*
X164130943Y-104452019D01*
G37*
G36*
X161590943Y-104452019D02*
X161657127Y-104458537D01*
X161761872Y-104490311D01*
X161826967Y-104510057D01*
X161952388Y-104577097D01*
X161983491Y-104593722D01*
X161994679Y-104602904D01*
X162120686Y-104706314D01*
X162185493Y-104785283D01*
X162233278Y-104843509D01*
X162233279Y-104843511D01*
X162316943Y-105000033D01*
X162316943Y-105000034D01*
X162368463Y-105169873D01*
X162385859Y-105346500D01*
X162368463Y-105523127D01*
X162334116Y-105636353D01*
X162316943Y-105692967D01*
X162276330Y-105768947D01*
X162233278Y-105849491D01*
X162227872Y-105856078D01*
X162120686Y-105986686D01*
X162019229Y-106069948D01*
X161983491Y-106099278D01*
X161983489Y-106099279D01*
X161826967Y-106182943D01*
X161780679Y-106196984D01*
X161657127Y-106234463D01*
X161590943Y-106240981D01*
X161524760Y-106247500D01*
X161436240Y-106247500D01*
X161370057Y-106240981D01*
X161303873Y-106234463D01*
X161180321Y-106196984D01*
X161134033Y-106182943D01*
X160977511Y-106099279D01*
X160977509Y-106099278D01*
X160941771Y-106069948D01*
X160840314Y-105986686D01*
X160733128Y-105856078D01*
X160727722Y-105849491D01*
X160684670Y-105768947D01*
X160644057Y-105692967D01*
X160626884Y-105636353D01*
X160592537Y-105523127D01*
X160575141Y-105346500D01*
X160592537Y-105169873D01*
X160644057Y-105000034D01*
X160644057Y-105000033D01*
X160727721Y-104843511D01*
X160727722Y-104843509D01*
X160775507Y-104785283D01*
X160840314Y-104706314D01*
X160966321Y-104602904D01*
X160977509Y-104593722D01*
X161008612Y-104577097D01*
X161134033Y-104510057D01*
X161199128Y-104490311D01*
X161303873Y-104458537D01*
X161370058Y-104452018D01*
X161436240Y-104445500D01*
X161524760Y-104445500D01*
X161590943Y-104452019D01*
X161590943Y-104452019D01*
G37*
G36*
X138767331Y-104348038D02*
X138839308Y-104355127D01*
X138952534Y-104389474D01*
X139009148Y-104406647D01*
X139106226Y-104458537D01*
X139165672Y-104490312D01*
X139189731Y-104510057D01*
X139302867Y-104602904D01*
X139386129Y-104704361D01*
X139415459Y-104740099D01*
X139415460Y-104740101D01*
X139499124Y-104896623D01*
X139499124Y-104896624D01*
X139550644Y-105066463D01*
X139568040Y-105243090D01*
X139550644Y-105419717D01*
X139519276Y-105523125D01*
X139499124Y-105589557D01*
X139443850Y-105692966D01*
X139415459Y-105746081D01*
X139396693Y-105768947D01*
X139302867Y-105883276D01*
X139201410Y-105966538D01*
X139165672Y-105995868D01*
X139165670Y-105995869D01*
X139009148Y-106079533D01*
X138952534Y-106096706D01*
X138839308Y-106131053D01*
X138773124Y-106137571D01*
X138706941Y-106144090D01*
X138618421Y-106144090D01*
X138552238Y-106137571D01*
X138486054Y-106131053D01*
X138372828Y-106096706D01*
X138316214Y-106079533D01*
X138159692Y-105995869D01*
X138159690Y-105995868D01*
X138123952Y-105966538D01*
X138022495Y-105883276D01*
X137928669Y-105768947D01*
X137909903Y-105746081D01*
X137881512Y-105692966D01*
X137826238Y-105589557D01*
X137806086Y-105523125D01*
X137774718Y-105419717D01*
X137757322Y-105243090D01*
X137774718Y-105066463D01*
X137826238Y-104896624D01*
X137826238Y-104896623D01*
X137909902Y-104740101D01*
X137909903Y-104740099D01*
X137939233Y-104704361D01*
X138022495Y-104602904D01*
X138135631Y-104510057D01*
X138159690Y-104490312D01*
X138219136Y-104458537D01*
X138316214Y-104406647D01*
X138372828Y-104389474D01*
X138486054Y-104355127D01*
X138558031Y-104348038D01*
X138618421Y-104342090D01*
X138706941Y-104342090D01*
X138767331Y-104348038D01*
X138767331Y-104348038D01*
G37*
G36*
X173608987Y-102579221D02*
X173676973Y-102599844D01*
X173739626Y-102633333D01*
X173799312Y-102682316D01*
X174622184Y-103505188D01*
X174671167Y-103564874D01*
X174704656Y-103627527D01*
X174725279Y-103695513D01*
X174732242Y-103766211D01*
X174725279Y-103836909D01*
X174704656Y-103904895D01*
X174671167Y-103967548D01*
X174622184Y-104027234D01*
X173940734Y-104708684D01*
X173881048Y-104757667D01*
X173818395Y-104791156D01*
X173750409Y-104811779D01*
X173679711Y-104818742D01*
X173609013Y-104811779D01*
X173541027Y-104791156D01*
X173478374Y-104757667D01*
X173418688Y-104708684D01*
X172595816Y-103885812D01*
X172546833Y-103826126D01*
X172513344Y-103763473D01*
X172492721Y-103695487D01*
X172485758Y-103624789D01*
X172492721Y-103554091D01*
X172513344Y-103486105D01*
X172546833Y-103423452D01*
X172595816Y-103363766D01*
X173277266Y-102682316D01*
X173336952Y-102633333D01*
X173399605Y-102599844D01*
X173467591Y-102579221D01*
X173538289Y-102572258D01*
X173608987Y-102579221D01*
X173608987Y-102579221D01*
G37*
G36*
X156072963Y-103151521D02*
X154869467Y-104355017D01*
X153100285Y-102585835D01*
X154303781Y-101382339D01*
X156072963Y-103151521D01*
X156072963Y-103151521D01*
G37*
G36*
X140569176Y-102552557D02*
X140635360Y-102559075D01*
X140723576Y-102585835D01*
X140805200Y-102610595D01*
X140914936Y-102669251D01*
X140961724Y-102694260D01*
X140995729Y-102722167D01*
X141098919Y-102806852D01*
X141182181Y-102908309D01*
X141211511Y-102944047D01*
X141211512Y-102944049D01*
X141295176Y-103100571D01*
X141295176Y-103100572D01*
X141346696Y-103270411D01*
X141364092Y-103447038D01*
X141346696Y-103623665D01*
X141324909Y-103695487D01*
X141295176Y-103793505D01*
X141265394Y-103849222D01*
X141211511Y-103950029D01*
X141197133Y-103967548D01*
X141098919Y-104087224D01*
X140997462Y-104170486D01*
X140961724Y-104199816D01*
X140961722Y-104199817D01*
X140805200Y-104283481D01*
X140748586Y-104300654D01*
X140635360Y-104335001D01*
X140569176Y-104341519D01*
X140502993Y-104348038D01*
X140414473Y-104348038D01*
X140348290Y-104341519D01*
X140282106Y-104335001D01*
X140168880Y-104300654D01*
X140112266Y-104283481D01*
X139955744Y-104199817D01*
X139955742Y-104199816D01*
X139920004Y-104170486D01*
X139818547Y-104087224D01*
X139720333Y-103967548D01*
X139705955Y-103950029D01*
X139652072Y-103849222D01*
X139622290Y-103793505D01*
X139592557Y-103695487D01*
X139570770Y-103623665D01*
X139553374Y-103447038D01*
X139570770Y-103270411D01*
X139622290Y-103100572D01*
X139622290Y-103100571D01*
X139705954Y-102944049D01*
X139705955Y-102944047D01*
X139735285Y-102908309D01*
X139818547Y-102806852D01*
X139921737Y-102722167D01*
X139955742Y-102694260D01*
X140002530Y-102669251D01*
X140112266Y-102610595D01*
X140193890Y-102585835D01*
X140282106Y-102559075D01*
X140348291Y-102552556D01*
X140414473Y-102546038D01*
X140502993Y-102546038D01*
X140569176Y-102552557D01*
X140569176Y-102552557D01*
G37*
G36*
X162381500Y-103707500D02*
X160579500Y-103707500D01*
X160579500Y-101905500D01*
X162381500Y-101905500D01*
X162381500Y-103707500D01*
X162381500Y-103707500D01*
G37*
G36*
X164130942Y-101912018D02*
X164197127Y-101918537D01*
X164310353Y-101952884D01*
X164366967Y-101970057D01*
X164505587Y-102044152D01*
X164523491Y-102053722D01*
X164539028Y-102066473D01*
X164660686Y-102166314D01*
X164743948Y-102267771D01*
X164773278Y-102303509D01*
X164773279Y-102303511D01*
X164856943Y-102460033D01*
X164856943Y-102460034D01*
X164908463Y-102629873D01*
X164925859Y-102806500D01*
X164908463Y-102983127D01*
X164905710Y-102992202D01*
X164856943Y-103152967D01*
X164806702Y-103246959D01*
X164773278Y-103309491D01*
X164761440Y-103323915D01*
X164660686Y-103446686D01*
X164559390Y-103529816D01*
X164523491Y-103559278D01*
X164523489Y-103559279D01*
X164366967Y-103642943D01*
X164326290Y-103655282D01*
X164197127Y-103694463D01*
X164130942Y-103700982D01*
X164064760Y-103707500D01*
X163976240Y-103707500D01*
X163910058Y-103700982D01*
X163843873Y-103694463D01*
X163714710Y-103655282D01*
X163674033Y-103642943D01*
X163517511Y-103559279D01*
X163517509Y-103559278D01*
X163481610Y-103529816D01*
X163380314Y-103446686D01*
X163279560Y-103323915D01*
X163267722Y-103309491D01*
X163234298Y-103246959D01*
X163184057Y-103152967D01*
X163135290Y-102992202D01*
X163132537Y-102983127D01*
X163115141Y-102806500D01*
X163132537Y-102629873D01*
X163184057Y-102460034D01*
X163184057Y-102460033D01*
X163267721Y-102303511D01*
X163267722Y-102303509D01*
X163297052Y-102267771D01*
X163380314Y-102166314D01*
X163501972Y-102066473D01*
X163517509Y-102053722D01*
X163535413Y-102044152D01*
X163674033Y-101970057D01*
X163730647Y-101952884D01*
X163843873Y-101918537D01*
X163910058Y-101912018D01*
X163976240Y-101905500D01*
X164064760Y-101905500D01*
X164130942Y-101912018D01*
X164130942Y-101912018D01*
G37*
G36*
X184815295Y-100032425D02*
X184991975Y-100067569D01*
X185127335Y-100123637D01*
X185324830Y-100205442D01*
X185624398Y-100405607D01*
X185879150Y-100660359D01*
X186079315Y-100959927D01*
X186117839Y-101052933D01*
X186205623Y-101264861D01*
X186217188Y-101292783D01*
X186287475Y-101646140D01*
X186287475Y-102006424D01*
X186275530Y-102066474D01*
X186217188Y-102359782D01*
X186175662Y-102460034D01*
X186079315Y-102692637D01*
X185879150Y-102992205D01*
X185624398Y-103246957D01*
X185324830Y-103447122D01*
X185129848Y-103527886D01*
X184991975Y-103584995D01*
X184815295Y-103620139D01*
X184638617Y-103655282D01*
X184278333Y-103655282D01*
X184101655Y-103620139D01*
X183924975Y-103584995D01*
X183787102Y-103527886D01*
X183592120Y-103447122D01*
X183292552Y-103246957D01*
X183037800Y-102992205D01*
X182837635Y-102692637D01*
X182741288Y-102460034D01*
X182699762Y-102359782D01*
X182641420Y-102066474D01*
X182629475Y-102006424D01*
X182629475Y-101646140D01*
X182699762Y-101292783D01*
X182711328Y-101264861D01*
X182799111Y-101052933D01*
X182837635Y-100959927D01*
X183037800Y-100660359D01*
X183292552Y-100405607D01*
X183592120Y-100205442D01*
X183789615Y-100123637D01*
X183924975Y-100067569D01*
X184101654Y-100032426D01*
X184278333Y-99997282D01*
X184638617Y-99997282D01*
X184815295Y-100032425D01*
X184815295Y-100032425D01*
G37*
G36*
X156266658Y-99951097D02*
X156427071Y-99999759D01*
X156574907Y-100078778D01*
X156672026Y-100158483D01*
X157296823Y-100783280D01*
X157347924Y-100845547D01*
X157376522Y-100880393D01*
X157455544Y-101028233D01*
X157504205Y-101188643D01*
X157511711Y-101264859D01*
X157520635Y-101355470D01*
X157510404Y-101459342D01*
X157504205Y-101522291D01*
X157504204Y-101522294D01*
X157504204Y-101522295D01*
X157466636Y-101646141D01*
X157455542Y-101682711D01*
X157376520Y-101830549D01*
X157270177Y-101960129D01*
X157140597Y-102066472D01*
X157140595Y-102066473D01*
X156992757Y-102145495D01*
X156832343Y-102194156D01*
X156832342Y-102194156D01*
X156832339Y-102194157D01*
X156769390Y-102200356D01*
X156665518Y-102210587D01*
X156589583Y-102203108D01*
X156498691Y-102194157D01*
X156338281Y-102145496D01*
X156190441Y-102066474D01*
X156171018Y-102050533D01*
X156093328Y-101986775D01*
X155468531Y-101361978D01*
X155388826Y-101264859D01*
X155309807Y-101117023D01*
X155261145Y-100956610D01*
X155244716Y-100789784D01*
X155261145Y-100622958D01*
X155309807Y-100462545D01*
X155388828Y-100314706D01*
X155495173Y-100185125D01*
X155624754Y-100078780D01*
X155772593Y-99999759D01*
X155933006Y-99951097D01*
X156099832Y-99934668D01*
X156266658Y-99951097D01*
X156266658Y-99951097D01*
G37*
G36*
X169330495Y-98803674D02*
X169393444Y-98809873D01*
X169393447Y-98809874D01*
X169393448Y-98809874D01*
X169553862Y-98858535D01*
X169553864Y-98858536D01*
X169701702Y-98937558D01*
X169831282Y-99043901D01*
X169937625Y-99173481D01*
X170016647Y-99321319D01*
X170016648Y-99321321D01*
X170061388Y-99468810D01*
X170065310Y-99481739D01*
X170071509Y-99544688D01*
X170081740Y-99648560D01*
X170074261Y-99724495D01*
X170065310Y-99815387D01*
X170016649Y-99975797D01*
X169961604Y-100078780D01*
X169937626Y-100123638D01*
X169857928Y-100220750D01*
X169233131Y-100845547D01*
X169136012Y-100925252D01*
X168988176Y-101004271D01*
X168827763Y-101052933D01*
X168660937Y-101069362D01*
X168494111Y-101052933D01*
X168333698Y-101004271D01*
X168185859Y-100925250D01*
X168056278Y-100818905D01*
X167949933Y-100689324D01*
X167870912Y-100541485D01*
X167822250Y-100381072D01*
X167805821Y-100214246D01*
X167822250Y-100047420D01*
X167870912Y-99887007D01*
X167949931Y-99739171D01*
X168029636Y-99642052D01*
X168654433Y-99017255D01*
X168751545Y-98937557D01*
X168751544Y-98937557D01*
X168751546Y-98937556D01*
X168899386Y-98858534D01*
X169059796Y-98809873D01*
X169150688Y-98800922D01*
X169226623Y-98793443D01*
X169330495Y-98803674D01*
X169330495Y-98803674D01*
G37*
G36*
X142876493Y-99072569D02*
X142942678Y-99079088D01*
X143055904Y-99113435D01*
X143112518Y-99130608D01*
X143192730Y-99173483D01*
X143269042Y-99214273D01*
X143290864Y-99232182D01*
X143406237Y-99326865D01*
X143489499Y-99428322D01*
X143518829Y-99464060D01*
X143518830Y-99464062D01*
X143602494Y-99620584D01*
X143602494Y-99620585D01*
X143654014Y-99790424D01*
X143671410Y-99967051D01*
X143654014Y-100143678D01*
X143630633Y-100220754D01*
X143602494Y-100313518D01*
X143548498Y-100414535D01*
X143518829Y-100470042D01*
X143489499Y-100505780D01*
X143406237Y-100607237D01*
X143306213Y-100689323D01*
X143269042Y-100719829D01*
X143269040Y-100719830D01*
X143112518Y-100803494D01*
X143061714Y-100818905D01*
X142942678Y-100855014D01*
X142876494Y-100861532D01*
X142810311Y-100868051D01*
X142721791Y-100868051D01*
X142655608Y-100861532D01*
X142589424Y-100855014D01*
X142470388Y-100818905D01*
X142419584Y-100803494D01*
X142263062Y-100719830D01*
X142263060Y-100719829D01*
X142225889Y-100689323D01*
X142125865Y-100607237D01*
X142042603Y-100505780D01*
X142013273Y-100470042D01*
X141983604Y-100414535D01*
X141929608Y-100313518D01*
X141901469Y-100220754D01*
X141878088Y-100143678D01*
X141860692Y-99967051D01*
X141878088Y-99790424D01*
X141929608Y-99620585D01*
X141929608Y-99620584D01*
X142013272Y-99464062D01*
X142013273Y-99464060D01*
X142042603Y-99428322D01*
X142125865Y-99326865D01*
X142241238Y-99232182D01*
X142263060Y-99214273D01*
X142339372Y-99173483D01*
X142419584Y-99130608D01*
X142476198Y-99113435D01*
X142589424Y-99079088D01*
X142655609Y-99072569D01*
X142721791Y-99066051D01*
X142810311Y-99066051D01*
X142876493Y-99072569D01*
X142876493Y-99072569D01*
G37*
G36*
X158062709Y-98155046D02*
X158223122Y-98203708D01*
X158370958Y-98282727D01*
X158468077Y-98362432D01*
X159092874Y-98987229D01*
X159143977Y-99049498D01*
X159172573Y-99084342D01*
X159251595Y-99232182D01*
X159300256Y-99392592D01*
X159305437Y-99445206D01*
X159316686Y-99559419D01*
X159308547Y-99642052D01*
X159300256Y-99726240D01*
X159300255Y-99726243D01*
X159300255Y-99726244D01*
X159273214Y-99815387D01*
X159251593Y-99886660D01*
X159172571Y-100034498D01*
X159066228Y-100164078D01*
X158936648Y-100270421D01*
X158853796Y-100314707D01*
X158788808Y-100349444D01*
X158628394Y-100398105D01*
X158628393Y-100398105D01*
X158628390Y-100398106D01*
X158565441Y-100404305D01*
X158461569Y-100414536D01*
X158385634Y-100407057D01*
X158294742Y-100398106D01*
X158134332Y-100349445D01*
X157986492Y-100270423D01*
X157918041Y-100214246D01*
X157889379Y-100190724D01*
X157264582Y-99565927D01*
X157184877Y-99468808D01*
X157105858Y-99320972D01*
X157057196Y-99160559D01*
X157040767Y-98993733D01*
X157057196Y-98826907D01*
X157105858Y-98666494D01*
X157184879Y-98518655D01*
X157291224Y-98389074D01*
X157420805Y-98282729D01*
X157568644Y-98203708D01*
X157729057Y-98155046D01*
X157895883Y-98138617D01*
X158062709Y-98155046D01*
X158062709Y-98155046D01*
G37*
G36*
X142244207Y-98171000D02*
X140970000Y-99445207D01*
X139695793Y-98171000D01*
X140970000Y-96896793D01*
X142244207Y-98171000D01*
X142244207Y-98171000D01*
G37*
G36*
X167534443Y-97007622D02*
X167597392Y-97013821D01*
X167597395Y-97013822D01*
X167597396Y-97013822D01*
X167757810Y-97062483D01*
X167757812Y-97062484D01*
X167905650Y-97141506D01*
X168035230Y-97247849D01*
X168141573Y-97377429D01*
X168220595Y-97525267D01*
X168220596Y-97525269D01*
X168265336Y-97672758D01*
X168269258Y-97685687D01*
X168275457Y-97748636D01*
X168285688Y-97852508D01*
X168278209Y-97928443D01*
X168269258Y-98019335D01*
X168220597Y-98179745D01*
X168220596Y-98179747D01*
X168141574Y-98327586D01*
X168061876Y-98424698D01*
X167437079Y-99049495D01*
X167339960Y-99129200D01*
X167192124Y-99208219D01*
X167031711Y-99256881D01*
X166864885Y-99273310D01*
X166698059Y-99256881D01*
X166537646Y-99208219D01*
X166389807Y-99129198D01*
X166260226Y-99022853D01*
X166153881Y-98893272D01*
X166074860Y-98745433D01*
X166026198Y-98585020D01*
X166009769Y-98418194D01*
X166026198Y-98251368D01*
X166074860Y-98090955D01*
X166153879Y-97943119D01*
X166233584Y-97846000D01*
X166858381Y-97221203D01*
X166955493Y-97141505D01*
X166955492Y-97141505D01*
X166955494Y-97141504D01*
X167103334Y-97062482D01*
X167263744Y-97013821D01*
X167354636Y-97004870D01*
X167430571Y-96997391D01*
X167534443Y-97007622D01*
X167534443Y-97007622D01*
G37*
G36*
X149082453Y-96358994D02*
X149242866Y-96407656D01*
X149390702Y-96486675D01*
X149487821Y-96566380D01*
X150112618Y-97191177D01*
X150163719Y-97253444D01*
X150192317Y-97288290D01*
X150271339Y-97436130D01*
X150320000Y-97596540D01*
X150327506Y-97672756D01*
X150336430Y-97763367D01*
X150328291Y-97846000D01*
X150320000Y-97930188D01*
X150319999Y-97930191D01*
X150319999Y-97930192D01*
X150292958Y-98019335D01*
X150271337Y-98090608D01*
X150192315Y-98238446D01*
X150085972Y-98368026D01*
X149956392Y-98474369D01*
X149956390Y-98474370D01*
X149808552Y-98553392D01*
X149648138Y-98602053D01*
X149648137Y-98602053D01*
X149648134Y-98602054D01*
X149585185Y-98608253D01*
X149481313Y-98618484D01*
X149405378Y-98611005D01*
X149314486Y-98602054D01*
X149154076Y-98553393D01*
X149006236Y-98474371D01*
X148937785Y-98418194D01*
X148909123Y-98394672D01*
X148284326Y-97769875D01*
X148204621Y-97672756D01*
X148125602Y-97524920D01*
X148076940Y-97364507D01*
X148060511Y-97197681D01*
X148076940Y-97030855D01*
X148125602Y-96870442D01*
X148204623Y-96722603D01*
X148310968Y-96593022D01*
X148440549Y-96486677D01*
X148588388Y-96407656D01*
X148748801Y-96358994D01*
X148915627Y-96342565D01*
X149082453Y-96358994D01*
X149082453Y-96358994D01*
G37*
G36*
X159858761Y-96358994D02*
X160019174Y-96407656D01*
X160167010Y-96486675D01*
X160264129Y-96566380D01*
X160888926Y-97191177D01*
X160940027Y-97253444D01*
X160968625Y-97288290D01*
X161047647Y-97436130D01*
X161096308Y-97596540D01*
X161103814Y-97672756D01*
X161112738Y-97763367D01*
X161104599Y-97846000D01*
X161096308Y-97930188D01*
X161096307Y-97930191D01*
X161096307Y-97930192D01*
X161069266Y-98019335D01*
X161047645Y-98090608D01*
X160968623Y-98238446D01*
X160862280Y-98368026D01*
X160732700Y-98474369D01*
X160732698Y-98474370D01*
X160584860Y-98553392D01*
X160424446Y-98602053D01*
X160424445Y-98602053D01*
X160424442Y-98602054D01*
X160361493Y-98608253D01*
X160257621Y-98618484D01*
X160181686Y-98611005D01*
X160090794Y-98602054D01*
X159930384Y-98553393D01*
X159782544Y-98474371D01*
X159714093Y-98418194D01*
X159685431Y-98394672D01*
X159060634Y-97769875D01*
X158980929Y-97672756D01*
X158901910Y-97524920D01*
X158853248Y-97364507D01*
X158836819Y-97197681D01*
X158853248Y-97030855D01*
X158901910Y-96870442D01*
X158980931Y-96722603D01*
X159087276Y-96593022D01*
X159216857Y-96486677D01*
X159364696Y-96407656D01*
X159525109Y-96358994D01*
X159691935Y-96342565D01*
X159858761Y-96358994D01*
X159858761Y-96358994D01*
G37*
G36*
X165738392Y-95211571D02*
X165801341Y-95217770D01*
X165801344Y-95217771D01*
X165801345Y-95217771D01*
X165961759Y-95266432D01*
X165961761Y-95266433D01*
X166109599Y-95345455D01*
X166239179Y-95451798D01*
X166345522Y-95581378D01*
X166424544Y-95729216D01*
X166424545Y-95729218D01*
X166469285Y-95876707D01*
X166473207Y-95889636D01*
X166479406Y-95952585D01*
X166489637Y-96056457D01*
X166482158Y-96132392D01*
X166473207Y-96223284D01*
X166424546Y-96383694D01*
X166369501Y-96486677D01*
X166345523Y-96531535D01*
X166265825Y-96628647D01*
X165641028Y-97253444D01*
X165543909Y-97333149D01*
X165396073Y-97412168D01*
X165235660Y-97460830D01*
X165068834Y-97477259D01*
X164902008Y-97460830D01*
X164741595Y-97412168D01*
X164593756Y-97333147D01*
X164464175Y-97226802D01*
X164357830Y-97097221D01*
X164278809Y-96949382D01*
X164230147Y-96788969D01*
X164213718Y-96622143D01*
X164230147Y-96455317D01*
X164278809Y-96294904D01*
X164357828Y-96147068D01*
X164437533Y-96049949D01*
X165062330Y-95425152D01*
X165159442Y-95345454D01*
X165159441Y-95345454D01*
X165159443Y-95345453D01*
X165307283Y-95266431D01*
X165467693Y-95217770D01*
X165558585Y-95208819D01*
X165634520Y-95201340D01*
X165738392Y-95211571D01*
X165738392Y-95211571D01*
G37*
G36*
X150878505Y-94562943D02*
X151038918Y-94611605D01*
X151186754Y-94690624D01*
X151283873Y-94770329D01*
X151908670Y-95395126D01*
X151959771Y-95457393D01*
X151988369Y-95492239D01*
X152067391Y-95640079D01*
X152116052Y-95800489D01*
X152123558Y-95876705D01*
X152132482Y-95967316D01*
X152124343Y-96049949D01*
X152116052Y-96134137D01*
X152116051Y-96134140D01*
X152116051Y-96134141D01*
X152072172Y-96278792D01*
X152067389Y-96294557D01*
X151988367Y-96442395D01*
X151882024Y-96571975D01*
X151752444Y-96678318D01*
X151669592Y-96722604D01*
X151604604Y-96757341D01*
X151444190Y-96806002D01*
X151444189Y-96806002D01*
X151444186Y-96806003D01*
X151381237Y-96812202D01*
X151277365Y-96822433D01*
X151201430Y-96814954D01*
X151110538Y-96806003D01*
X150950128Y-96757342D01*
X150802288Y-96678320D01*
X150733837Y-96622143D01*
X150705175Y-96598621D01*
X150080378Y-95973824D01*
X150000673Y-95876705D01*
X149921654Y-95728869D01*
X149872992Y-95568456D01*
X149856563Y-95401630D01*
X149872992Y-95234804D01*
X149921654Y-95074391D01*
X150000675Y-94926552D01*
X150107020Y-94796971D01*
X150236601Y-94690626D01*
X150384440Y-94611605D01*
X150544853Y-94562943D01*
X150711679Y-94546514D01*
X150878505Y-94562943D01*
X150878505Y-94562943D01*
G37*
G36*
X182041794Y-94625648D02*
X182214864Y-94697336D01*
X182370628Y-94801414D01*
X182503086Y-94933872D01*
X182607164Y-95089636D01*
X182678852Y-95262706D01*
X182715398Y-95446435D01*
X182715398Y-95633769D01*
X182678852Y-95817498D01*
X182607164Y-95990568D01*
X182503086Y-96146332D01*
X182370628Y-96278790D01*
X182214864Y-96382868D01*
X182041794Y-96454556D01*
X181858065Y-96491102D01*
X181670731Y-96491102D01*
X181487002Y-96454556D01*
X181313932Y-96382868D01*
X181158168Y-96278790D01*
X181025710Y-96146332D01*
X180921632Y-95990568D01*
X180849944Y-95817498D01*
X180813398Y-95633769D01*
X180813398Y-95446435D01*
X180849944Y-95262706D01*
X180921632Y-95089636D01*
X181025710Y-94933872D01*
X181158168Y-94801414D01*
X181313932Y-94697336D01*
X181487002Y-94625648D01*
X181670731Y-94589102D01*
X181858065Y-94589102D01*
X182041794Y-94625648D01*
X182041794Y-94625648D01*
G37*
G36*
X191999501Y-92848222D02*
X192176180Y-92883365D01*
X192311537Y-92939432D01*
X192509035Y-93021238D01*
X192808603Y-93221403D01*
X193063355Y-93476155D01*
X193263520Y-93775723D01*
X193308849Y-93885157D01*
X193395183Y-94093585D01*
X193401393Y-94108579D01*
X193471680Y-94461936D01*
X193471680Y-94822220D01*
X193449471Y-94933872D01*
X193401393Y-95175578D01*
X193376860Y-95234806D01*
X193263520Y-95508433D01*
X193063355Y-95808001D01*
X192808603Y-96062753D01*
X192509035Y-96262918D01*
X192316749Y-96342565D01*
X192176180Y-96400791D01*
X191999500Y-96435935D01*
X191822822Y-96471078D01*
X191462538Y-96471078D01*
X191285860Y-96435935D01*
X191109180Y-96400791D01*
X190968611Y-96342565D01*
X190776325Y-96262918D01*
X190476757Y-96062753D01*
X190222005Y-95808001D01*
X190021840Y-95508433D01*
X189908500Y-95234806D01*
X189883967Y-95175578D01*
X189835889Y-94933872D01*
X189813680Y-94822220D01*
X189813680Y-94461936D01*
X189883967Y-94108579D01*
X189890178Y-94093585D01*
X189976511Y-93885157D01*
X190021840Y-93775723D01*
X190222005Y-93476155D01*
X190476757Y-93221403D01*
X190776325Y-93021238D01*
X190973823Y-92939432D01*
X191109180Y-92883365D01*
X191285859Y-92848222D01*
X191462538Y-92813078D01*
X191822822Y-92813078D01*
X191999501Y-92848222D01*
X191999501Y-92848222D01*
G37*
G36*
X165041965Y-94260406D02*
X163272783Y-96029588D01*
X162069287Y-94826092D01*
X163838469Y-93056910D01*
X165041965Y-94260406D01*
X165041965Y-94260406D01*
G37*
G36*
X174718648Y-93415520D02*
X174781597Y-93421719D01*
X174781600Y-93421720D01*
X174781601Y-93421720D01*
X174942015Y-93470381D01*
X174942017Y-93470382D01*
X175089855Y-93549404D01*
X175219435Y-93655747D01*
X175325778Y-93785327D01*
X175404800Y-93933165D01*
X175404801Y-93933167D01*
X175449541Y-94080656D01*
X175453463Y-94093585D01*
X175459662Y-94156534D01*
X175469893Y-94260406D01*
X175462414Y-94336341D01*
X175453463Y-94427233D01*
X175404802Y-94587643D01*
X175349757Y-94690626D01*
X175325779Y-94735484D01*
X175246081Y-94832596D01*
X174621284Y-95457393D01*
X174524165Y-95537098D01*
X174376329Y-95616117D01*
X174215916Y-95664779D01*
X174049090Y-95681208D01*
X173882264Y-95664779D01*
X173721851Y-95616117D01*
X173574012Y-95537096D01*
X173444431Y-95430751D01*
X173338086Y-95301170D01*
X173259065Y-95153331D01*
X173210403Y-94992918D01*
X173193974Y-94826092D01*
X173210403Y-94659266D01*
X173259065Y-94498853D01*
X173338084Y-94351017D01*
X173417789Y-94253898D01*
X174042586Y-93629101D01*
X174139698Y-93549403D01*
X174139697Y-93549403D01*
X174139699Y-93549402D01*
X174287539Y-93470380D01*
X174447949Y-93421719D01*
X174538841Y-93412768D01*
X174614776Y-93405289D01*
X174718648Y-93415520D01*
X174718648Y-93415520D01*
G37*
G36*
X199765256Y-92244298D02*
X199871579Y-92265447D01*
X200073979Y-92349284D01*
X200152292Y-92381722D01*
X200172042Y-92389903D01*
X200345507Y-92505809D01*
X200442454Y-92570587D01*
X200672413Y-92800546D01*
X200672415Y-92800549D01*
X200830106Y-93036549D01*
X200853098Y-93070960D01*
X200859418Y-93086218D01*
X200977553Y-93371421D01*
X200996496Y-93466655D01*
X201041000Y-93690389D01*
X201041000Y-94015611D01*
X201008744Y-94177773D01*
X200977553Y-94334579D01*
X200916183Y-94482739D01*
X200873073Y-94586817D01*
X200853097Y-94635042D01*
X200768816Y-94761177D01*
X200672413Y-94905454D01*
X200442454Y-95135413D01*
X200442451Y-95135415D01*
X200172042Y-95316097D01*
X200172041Y-95316098D01*
X200172040Y-95316098D01*
X200101168Y-95345454D01*
X199871579Y-95440553D01*
X199815046Y-95451798D01*
X199552611Y-95504000D01*
X199227389Y-95504000D01*
X198964954Y-95451798D01*
X198908421Y-95440553D01*
X198678832Y-95345454D01*
X198607960Y-95316098D01*
X198607959Y-95316098D01*
X198607958Y-95316097D01*
X198337549Y-95135415D01*
X198337546Y-95135413D01*
X198107587Y-94905454D01*
X198011184Y-94761177D01*
X197926903Y-94635042D01*
X197906928Y-94586817D01*
X197863817Y-94482739D01*
X197802447Y-94334579D01*
X197771256Y-94177773D01*
X197739000Y-94015611D01*
X197739000Y-93690389D01*
X197783504Y-93466655D01*
X197802447Y-93371421D01*
X197920582Y-93086218D01*
X197926902Y-93070960D01*
X197949895Y-93036549D01*
X198107585Y-92800549D01*
X198107587Y-92800546D01*
X198337546Y-92570587D01*
X198434493Y-92505809D01*
X198607958Y-92389903D01*
X198627709Y-92381722D01*
X198706021Y-92349284D01*
X198908421Y-92265447D01*
X199014744Y-92244298D01*
X199227389Y-92202000D01*
X199552611Y-92202000D01*
X199765256Y-92244298D01*
X199765256Y-92244298D01*
G37*
G36*
X114215166Y-93690071D02*
X114281350Y-93696589D01*
X114394576Y-93730936D01*
X114451190Y-93748109D01*
X114585808Y-93820065D01*
X114607714Y-93831774D01*
X114622643Y-93844026D01*
X114744909Y-93944366D01*
X114828171Y-94045823D01*
X114857501Y-94081561D01*
X114857502Y-94081563D01*
X114941166Y-94238085D01*
X114941166Y-94238086D01*
X114992686Y-94407925D01*
X115010082Y-94584552D01*
X114992686Y-94761179D01*
X114958339Y-94874405D01*
X114941166Y-94931019D01*
X114867071Y-95069639D01*
X114857501Y-95087543D01*
X114855784Y-95089635D01*
X114744909Y-95224738D01*
X114651776Y-95301169D01*
X114607714Y-95337330D01*
X114607712Y-95337331D01*
X114451190Y-95420995D01*
X114419028Y-95430751D01*
X114281350Y-95472515D01*
X114215166Y-95479033D01*
X114148983Y-95485552D01*
X114060463Y-95485552D01*
X113994281Y-95479034D01*
X113928096Y-95472515D01*
X113790418Y-95430751D01*
X113758256Y-95420995D01*
X113601734Y-95337331D01*
X113601732Y-95337330D01*
X113557670Y-95301169D01*
X113464537Y-95224738D01*
X113353662Y-95089635D01*
X113351945Y-95087543D01*
X113342375Y-95069639D01*
X113268280Y-94931019D01*
X113251107Y-94874405D01*
X113216760Y-94761179D01*
X113199364Y-94584552D01*
X113216760Y-94407925D01*
X113268280Y-94238086D01*
X113268280Y-94238085D01*
X113351944Y-94081563D01*
X113351945Y-94081561D01*
X113381275Y-94045823D01*
X113464537Y-93944366D01*
X113586803Y-93844026D01*
X113601732Y-93831774D01*
X113623638Y-93820065D01*
X113758256Y-93748109D01*
X113814870Y-93730936D01*
X113928096Y-93696589D01*
X113994280Y-93690071D01*
X114060463Y-93683552D01*
X114148983Y-93683552D01*
X114215166Y-93690071D01*
X114215166Y-93690071D01*
G37*
G36*
X152674556Y-92766892D02*
X152834969Y-92815554D01*
X152982805Y-92894573D01*
X153079924Y-92974278D01*
X153704721Y-93599075D01*
X153755822Y-93661342D01*
X153784420Y-93696188D01*
X153863442Y-93844028D01*
X153912103Y-94004438D01*
X153919609Y-94080654D01*
X153928533Y-94171265D01*
X153920394Y-94253898D01*
X153912103Y-94338086D01*
X153912102Y-94338089D01*
X153912102Y-94338090D01*
X153868223Y-94482741D01*
X153863440Y-94498506D01*
X153784418Y-94646344D01*
X153678075Y-94775924D01*
X153548495Y-94882267D01*
X153451950Y-94933872D01*
X153400655Y-94961290D01*
X153240241Y-95009951D01*
X153240240Y-95009951D01*
X153240237Y-95009952D01*
X153177288Y-95016151D01*
X153073416Y-95026382D01*
X152997481Y-95018903D01*
X152906589Y-95009952D01*
X152746179Y-94961291D01*
X152598339Y-94882269D01*
X152525170Y-94822220D01*
X152501226Y-94802570D01*
X151876429Y-94177773D01*
X151796724Y-94080654D01*
X151717705Y-93932818D01*
X151669043Y-93772405D01*
X151652614Y-93605579D01*
X151669043Y-93438753D01*
X151717705Y-93278340D01*
X151796726Y-93130501D01*
X151903071Y-93000920D01*
X152032652Y-92894575D01*
X152180491Y-92815554D01*
X152340904Y-92766892D01*
X152507730Y-92750463D01*
X152674556Y-92766892D01*
X152674556Y-92766892D01*
G37*
G36*
X183837845Y-92829597D02*
X184010915Y-92901285D01*
X184166679Y-93005363D01*
X184299137Y-93137821D01*
X184403215Y-93293585D01*
X184474903Y-93466655D01*
X184511449Y-93650384D01*
X184511449Y-93837718D01*
X184474903Y-94021447D01*
X184403215Y-94194517D01*
X184299137Y-94350281D01*
X184166679Y-94482739D01*
X184010915Y-94586817D01*
X183837845Y-94658505D01*
X183654116Y-94695051D01*
X183466782Y-94695051D01*
X183283053Y-94658505D01*
X183109983Y-94586817D01*
X182954219Y-94482739D01*
X182821761Y-94350281D01*
X182717683Y-94194517D01*
X182645995Y-94021447D01*
X182609449Y-93837718D01*
X182609449Y-93650384D01*
X182645995Y-93466655D01*
X182717683Y-93293585D01*
X182821761Y-93137821D01*
X182954219Y-93005363D01*
X183109983Y-92901285D01*
X183283053Y-92829597D01*
X183466782Y-92793051D01*
X183654116Y-92793051D01*
X183837845Y-92829597D01*
X183837845Y-92829597D01*
G37*
G36*
X172922597Y-91619469D02*
X172985546Y-91625668D01*
X172985549Y-91625669D01*
X172985550Y-91625669D01*
X173145964Y-91674330D01*
X173145966Y-91674331D01*
X173293804Y-91753353D01*
X173423384Y-91859696D01*
X173529727Y-91989276D01*
X173608749Y-92137114D01*
X173608750Y-92137116D01*
X173653490Y-92284605D01*
X173657412Y-92297534D01*
X173662508Y-92349284D01*
X173673842Y-92464355D01*
X173669759Y-92505808D01*
X173657412Y-92631182D01*
X173608751Y-92791592D01*
X173553706Y-92894575D01*
X173529728Y-92939433D01*
X173450030Y-93036545D01*
X172825233Y-93661342D01*
X172728114Y-93741047D01*
X172580278Y-93820066D01*
X172419865Y-93868728D01*
X172253039Y-93885157D01*
X172086213Y-93868728D01*
X171925800Y-93820066D01*
X171777961Y-93741045D01*
X171648380Y-93634700D01*
X171542035Y-93505119D01*
X171463014Y-93357280D01*
X171414352Y-93196867D01*
X171397923Y-93030041D01*
X171414352Y-92863215D01*
X171463014Y-92702802D01*
X171542033Y-92554966D01*
X171621738Y-92457847D01*
X172246535Y-91833050D01*
X172335321Y-91760185D01*
X172343648Y-91753351D01*
X172472396Y-91684534D01*
X172491486Y-91674330D01*
X172491488Y-91674329D01*
X172651898Y-91625668D01*
X172742790Y-91616717D01*
X172818725Y-91609238D01*
X172922597Y-91619469D01*
X172922597Y-91619469D01*
G37*
G36*
X116072805Y-91957794D02*
X116138989Y-91964312D01*
X116252215Y-91998659D01*
X116308829Y-92015832D01*
X116445913Y-92089106D01*
X116465353Y-92099497D01*
X116501091Y-92128827D01*
X116602548Y-92212089D01*
X116672670Y-92297534D01*
X116715140Y-92349284D01*
X116715141Y-92349286D01*
X116798805Y-92505808D01*
X116798805Y-92505809D01*
X116850325Y-92675648D01*
X116867721Y-92852275D01*
X116850325Y-93028902D01*
X116832938Y-93086218D01*
X116798805Y-93198742D01*
X116724710Y-93337362D01*
X116715140Y-93355266D01*
X116701881Y-93371422D01*
X116602548Y-93492461D01*
X116501091Y-93575723D01*
X116465353Y-93605053D01*
X116465351Y-93605054D01*
X116308829Y-93688718D01*
X116284203Y-93696188D01*
X116138989Y-93740238D01*
X116072805Y-93746756D01*
X116006622Y-93753275D01*
X115918102Y-93753275D01*
X115851919Y-93746756D01*
X115785735Y-93740238D01*
X115640521Y-93696188D01*
X115615895Y-93688718D01*
X115459373Y-93605054D01*
X115459371Y-93605053D01*
X115423633Y-93575723D01*
X115322176Y-93492461D01*
X115222843Y-93371422D01*
X115209584Y-93355266D01*
X115200014Y-93337362D01*
X115125919Y-93198742D01*
X115091786Y-93086218D01*
X115074399Y-93028902D01*
X115057003Y-92852275D01*
X115074399Y-92675648D01*
X115125919Y-92505809D01*
X115125919Y-92505808D01*
X115209583Y-92349286D01*
X115209584Y-92349284D01*
X115252054Y-92297534D01*
X115322176Y-92212089D01*
X115423633Y-92128827D01*
X115459371Y-92099497D01*
X115478811Y-92089106D01*
X115615895Y-92015832D01*
X115672509Y-91998659D01*
X115785735Y-91964312D01*
X115851919Y-91957794D01*
X115918102Y-91951275D01*
X116006622Y-91951275D01*
X116072805Y-91957794D01*
X116072805Y-91957794D01*
G37*
G36*
X154470607Y-90970841D02*
X154631020Y-91019503D01*
X154778856Y-91098522D01*
X154875975Y-91178227D01*
X155500772Y-91803024D01*
X155551873Y-91865291D01*
X155580471Y-91900137D01*
X155659493Y-92047977D01*
X155708154Y-92208387D01*
X155713773Y-92265447D01*
X155724584Y-92375214D01*
X155716445Y-92457847D01*
X155708154Y-92542035D01*
X155708153Y-92542038D01*
X155708153Y-92542039D01*
X155667623Y-92675650D01*
X155659491Y-92702455D01*
X155580469Y-92850293D01*
X155474126Y-92979873D01*
X155344546Y-93086216D01*
X155261694Y-93130502D01*
X155196706Y-93165239D01*
X155036292Y-93213900D01*
X155036291Y-93213900D01*
X155036288Y-93213901D01*
X154973339Y-93220100D01*
X154869467Y-93230331D01*
X154793532Y-93222852D01*
X154702640Y-93213901D01*
X154542230Y-93165240D01*
X154394390Y-93086218D01*
X154358680Y-93056911D01*
X154297277Y-93006519D01*
X153672480Y-92381722D01*
X153592775Y-92284603D01*
X153513756Y-92136767D01*
X153465094Y-91976354D01*
X153448665Y-91809528D01*
X153465094Y-91642702D01*
X153513756Y-91482289D01*
X153592777Y-91334450D01*
X153699122Y-91204869D01*
X153828703Y-91098524D01*
X153976542Y-91019503D01*
X154136955Y-90970841D01*
X154303781Y-90954412D01*
X154470607Y-90970841D01*
X154470607Y-90970841D01*
G37*
G36*
X185356487Y-90831721D02*
X185424473Y-90852344D01*
X185487126Y-90885833D01*
X185546812Y-90934816D01*
X186369684Y-91757688D01*
X186418667Y-91817374D01*
X186452156Y-91880027D01*
X186472779Y-91948013D01*
X186479742Y-92018711D01*
X186472779Y-92089409D01*
X186452156Y-92157395D01*
X186418667Y-92220048D01*
X186369684Y-92279734D01*
X185688234Y-92961184D01*
X185628548Y-93010167D01*
X185565895Y-93043656D01*
X185497909Y-93064279D01*
X185427211Y-93071242D01*
X185356513Y-93064279D01*
X185288527Y-93043656D01*
X185225874Y-93010167D01*
X185166188Y-92961184D01*
X184343316Y-92138312D01*
X184294333Y-92078626D01*
X184260844Y-92015973D01*
X184240221Y-91947987D01*
X184233258Y-91877289D01*
X184240221Y-91806591D01*
X184260844Y-91738605D01*
X184294333Y-91675952D01*
X184343316Y-91616266D01*
X185024766Y-90934816D01*
X185084452Y-90885833D01*
X185147105Y-90852344D01*
X185215091Y-90831721D01*
X185285789Y-90824758D01*
X185356487Y-90831721D01*
X185356487Y-90831721D01*
G37*
G36*
X171126546Y-89823418D02*
X171189495Y-89829617D01*
X171189498Y-89829618D01*
X171189499Y-89829618D01*
X171349913Y-89878279D01*
X171349915Y-89878280D01*
X171497753Y-89957302D01*
X171627333Y-90063645D01*
X171733676Y-90193225D01*
X171752244Y-90227963D01*
X171812699Y-90341065D01*
X171838969Y-90427667D01*
X171861361Y-90501483D01*
X171862682Y-90514901D01*
X171877791Y-90668304D01*
X171870312Y-90744239D01*
X171861361Y-90835131D01*
X171812700Y-90995541D01*
X171757655Y-91098524D01*
X171733677Y-91143382D01*
X171653979Y-91240494D01*
X171029182Y-91865291D01*
X170932063Y-91944996D01*
X170784227Y-92024015D01*
X170623814Y-92072677D01*
X170456988Y-92089106D01*
X170290162Y-92072677D01*
X170129749Y-92024015D01*
X169981910Y-91944994D01*
X169852329Y-91838649D01*
X169745984Y-91709068D01*
X169666963Y-91561229D01*
X169618301Y-91400816D01*
X169601872Y-91233990D01*
X169618301Y-91067164D01*
X169666963Y-90906751D01*
X169745982Y-90758915D01*
X169825687Y-90661796D01*
X170450484Y-90036999D01*
X170547596Y-89957301D01*
X170547595Y-89957301D01*
X170547597Y-89957300D01*
X170695437Y-89878278D01*
X170855847Y-89829617D01*
X170946739Y-89820666D01*
X171022674Y-89813187D01*
X171126546Y-89823418D01*
X171126546Y-89823418D01*
G37*
G36*
X117930443Y-90225519D02*
X117996627Y-90232037D01*
X118109853Y-90266384D01*
X118166467Y-90283557D01*
X118274055Y-90341065D01*
X118322991Y-90367222D01*
X118358729Y-90396552D01*
X118460186Y-90479814D01*
X118513886Y-90545249D01*
X118572778Y-90617009D01*
X118572779Y-90617011D01*
X118656443Y-90773533D01*
X118656443Y-90773534D01*
X118707963Y-90943373D01*
X118725359Y-91120000D01*
X118707963Y-91296627D01*
X118696489Y-91334451D01*
X118656443Y-91466467D01*
X118631744Y-91512674D01*
X118572778Y-91622991D01*
X118570580Y-91625669D01*
X118460186Y-91760186D01*
X118364577Y-91838649D01*
X118322991Y-91872778D01*
X118322989Y-91872779D01*
X118166467Y-91956443D01*
X118109853Y-91973616D01*
X117996627Y-92007963D01*
X117930442Y-92014482D01*
X117864260Y-92021000D01*
X117775740Y-92021000D01*
X117709558Y-92014482D01*
X117643373Y-92007963D01*
X117530147Y-91973616D01*
X117473533Y-91956443D01*
X117317011Y-91872779D01*
X117317009Y-91872778D01*
X117275423Y-91838649D01*
X117179814Y-91760186D01*
X117069420Y-91625669D01*
X117067222Y-91622991D01*
X117008256Y-91512674D01*
X116983557Y-91466467D01*
X116943511Y-91334451D01*
X116932037Y-91296627D01*
X116914641Y-91120000D01*
X116932037Y-90943373D01*
X116983557Y-90773534D01*
X116983557Y-90773533D01*
X117067221Y-90617011D01*
X117067222Y-90617009D01*
X117126114Y-90545249D01*
X117179814Y-90479814D01*
X117281271Y-90396552D01*
X117317009Y-90367222D01*
X117365945Y-90341065D01*
X117473533Y-90283557D01*
X117530147Y-90266384D01*
X117643373Y-90232037D01*
X117709557Y-90225519D01*
X117775740Y-90219000D01*
X117864260Y-90219000D01*
X117930443Y-90225519D01*
X117930443Y-90225519D01*
G37*
G36*
X176697041Y-88259891D02*
X176732611Y-88270681D01*
X176765383Y-88288198D01*
X176798890Y-88315696D01*
X178962164Y-90478970D01*
X178989662Y-90512477D01*
X179007179Y-90545249D01*
X179017969Y-90580819D01*
X179021611Y-90617800D01*
X179017969Y-90654781D01*
X179007179Y-90690351D01*
X178989662Y-90723123D01*
X178962164Y-90756630D01*
X178213104Y-91505690D01*
X178179597Y-91533188D01*
X178146825Y-91550705D01*
X178111255Y-91561495D01*
X178074274Y-91565137D01*
X178037293Y-91561495D01*
X178001723Y-91550705D01*
X177968951Y-91533188D01*
X177935444Y-91505690D01*
X175772170Y-89342416D01*
X175744672Y-89308909D01*
X175727155Y-89276137D01*
X175716365Y-89240567D01*
X175712723Y-89203586D01*
X175716365Y-89166605D01*
X175727155Y-89131035D01*
X175744672Y-89098263D01*
X175772170Y-89064756D01*
X176521230Y-88315696D01*
X176554737Y-88288198D01*
X176587509Y-88270681D01*
X176623079Y-88259891D01*
X176660060Y-88256249D01*
X176697041Y-88259891D01*
X176697041Y-88259891D01*
G37*
G36*
X120273348Y-88705427D02*
X120951068Y-89432193D01*
X120951068Y-89432194D01*
X120435450Y-89913015D01*
X119633169Y-90661154D01*
X119633168Y-90661154D01*
X118797657Y-89765177D01*
X118404208Y-89343255D01*
X118404208Y-89343254D01*
X119260220Y-88545011D01*
X119722107Y-88114294D01*
X119722108Y-88114294D01*
X120273348Y-88705427D01*
X120273348Y-88705427D01*
G37*
G36*
X169330495Y-88027366D02*
X169393444Y-88033565D01*
X169393447Y-88033566D01*
X169393448Y-88033566D01*
X169553862Y-88082227D01*
X169553864Y-88082228D01*
X169701702Y-88161250D01*
X169831282Y-88267593D01*
X169937625Y-88397173D01*
X169991208Y-88497418D01*
X170016648Y-88545013D01*
X170061718Y-88693589D01*
X170065310Y-88705431D01*
X170071509Y-88768380D01*
X170081740Y-88872252D01*
X170074261Y-88948187D01*
X170065310Y-89039079D01*
X170016649Y-89199489D01*
X169939805Y-89343255D01*
X169937626Y-89347330D01*
X169857928Y-89444442D01*
X169233131Y-90069239D01*
X169136012Y-90148944D01*
X168988176Y-90227963D01*
X168827763Y-90276625D01*
X168660937Y-90293054D01*
X168494111Y-90276625D01*
X168333698Y-90227963D01*
X168185859Y-90148942D01*
X168056278Y-90042597D01*
X167949933Y-89913016D01*
X167870912Y-89765177D01*
X167822250Y-89604764D01*
X167805821Y-89437938D01*
X167822250Y-89271112D01*
X167870912Y-89110699D01*
X167949931Y-88962863D01*
X168029636Y-88865744D01*
X168654433Y-88240947D01*
X168751545Y-88161249D01*
X168751544Y-88161249D01*
X168751546Y-88161248D01*
X168899386Y-88082226D01*
X169059796Y-88033565D01*
X169150688Y-88024614D01*
X169226623Y-88017135D01*
X169330495Y-88027366D01*
X169330495Y-88027366D01*
G37*
G36*
X129783154Y-85698700D02*
X129897595Y-85746104D01*
X129918503Y-85754764D01*
X129931114Y-85759988D01*
X129987876Y-85797915D01*
X130064269Y-85848959D01*
X130177511Y-85962201D01*
X130213310Y-86015778D01*
X130266482Y-86095356D01*
X130327770Y-86243316D01*
X130359012Y-86400383D01*
X130359012Y-86560533D01*
X130327770Y-86717600D01*
X130280366Y-86832041D01*
X130266483Y-86865558D01*
X130177511Y-86998715D01*
X130064269Y-87111957D01*
X130014902Y-87144943D01*
X129995967Y-87160482D01*
X129980422Y-87179424D01*
X129968870Y-87201035D01*
X129961757Y-87224484D01*
X129959355Y-87248870D01*
X129961757Y-87273257D01*
X129968870Y-87296706D01*
X129980421Y-87318317D01*
X129995967Y-87337259D01*
X130052281Y-87393573D01*
X130141253Y-87526729D01*
X130202541Y-87674689D01*
X130233783Y-87831756D01*
X130233783Y-87991906D01*
X130202541Y-88148973D01*
X130141253Y-88296933D01*
X130096466Y-88363961D01*
X130074274Y-88397175D01*
X130052281Y-88430089D01*
X129939041Y-88543329D01*
X129805885Y-88632301D01*
X129657925Y-88693589D01*
X129500858Y-88724831D01*
X129340708Y-88724831D01*
X129183641Y-88693589D01*
X129035681Y-88632301D01*
X128902525Y-88543329D01*
X128789285Y-88430089D01*
X128767293Y-88397175D01*
X128745100Y-88363961D01*
X128700313Y-88296933D01*
X128639025Y-88148973D01*
X128607783Y-87991906D01*
X128607783Y-87831756D01*
X128639025Y-87674689D01*
X128700313Y-87526729D01*
X128789285Y-87393573D01*
X128902526Y-87280332D01*
X128951893Y-87247346D01*
X128970828Y-87231807D01*
X128986373Y-87212865D01*
X128997925Y-87191254D01*
X129005038Y-87167805D01*
X129007440Y-87143419D01*
X129005038Y-87119032D01*
X128997925Y-87095583D01*
X128986374Y-87073972D01*
X128970828Y-87055030D01*
X128914514Y-86998716D01*
X128825542Y-86865560D01*
X128764254Y-86717600D01*
X128733012Y-86560533D01*
X128733012Y-86400383D01*
X128764254Y-86243316D01*
X128825542Y-86095356D01*
X128878714Y-86015778D01*
X128914513Y-85962201D01*
X129027755Y-85848959D01*
X129104148Y-85797915D01*
X129160910Y-85759988D01*
X129173522Y-85754764D01*
X129194429Y-85746104D01*
X129308870Y-85698700D01*
X129465937Y-85667458D01*
X129626087Y-85667458D01*
X129783154Y-85698700D01*
X129783154Y-85698700D01*
G37*
G36*
X173643754Y-85206604D02*
X173679324Y-85217394D01*
X173712096Y-85234911D01*
X173745603Y-85262409D01*
X175908877Y-87425683D01*
X175936375Y-87459190D01*
X175953892Y-87491962D01*
X175964682Y-87527532D01*
X175968324Y-87564513D01*
X175964682Y-87601494D01*
X175953892Y-87637064D01*
X175936375Y-87669836D01*
X175908877Y-87703343D01*
X175159817Y-88452403D01*
X175126310Y-88479901D01*
X175093538Y-88497418D01*
X175057968Y-88508208D01*
X175020987Y-88511850D01*
X174984006Y-88508208D01*
X174948436Y-88497418D01*
X174915664Y-88479901D01*
X174882157Y-88452403D01*
X172718883Y-86289129D01*
X172691385Y-86255622D01*
X172673868Y-86222850D01*
X172663078Y-86187280D01*
X172659436Y-86150299D01*
X172663078Y-86113318D01*
X172673868Y-86077748D01*
X172691385Y-86044976D01*
X172718883Y-86011469D01*
X173467943Y-85262409D01*
X173501450Y-85234911D01*
X173534222Y-85217394D01*
X173569792Y-85206604D01*
X173606773Y-85202962D01*
X173643754Y-85206604D01*
X173643754Y-85206604D01*
G37*
G36*
X180798261Y-84158671D02*
X180833831Y-84169461D01*
X180866603Y-84186978D01*
X180900110Y-84214476D01*
X183063384Y-86377750D01*
X183090882Y-86411257D01*
X183108399Y-86444029D01*
X183119189Y-86479599D01*
X183122831Y-86516580D01*
X183119189Y-86553561D01*
X183108399Y-86589131D01*
X183090882Y-86621903D01*
X183063384Y-86655410D01*
X182314324Y-87404470D01*
X182280817Y-87431968D01*
X182248045Y-87449485D01*
X182212475Y-87460275D01*
X182175494Y-87463917D01*
X182138513Y-87460275D01*
X182102943Y-87449485D01*
X182070171Y-87431968D01*
X182036664Y-87404470D01*
X179873390Y-85241196D01*
X179845892Y-85207689D01*
X179828375Y-85174917D01*
X179817585Y-85139347D01*
X179813943Y-85102366D01*
X179817585Y-85065385D01*
X179828375Y-85029815D01*
X179845892Y-84997043D01*
X179873390Y-84963536D01*
X180622450Y-84214476D01*
X180655957Y-84186978D01*
X180688729Y-84169461D01*
X180724299Y-84158671D01*
X180761280Y-84155029D01*
X180798261Y-84158671D01*
X180798261Y-84158671D01*
G37*
G36*
X148907487Y-85053221D02*
X148975473Y-85073844D01*
X149038126Y-85107333D01*
X149097812Y-85156316D01*
X149920684Y-85979188D01*
X149969667Y-86038874D01*
X150003156Y-86101527D01*
X150023779Y-86169513D01*
X150030742Y-86240211D01*
X150023779Y-86310909D01*
X150003156Y-86378895D01*
X149969667Y-86441548D01*
X149920684Y-86501234D01*
X149239234Y-87182684D01*
X149179548Y-87231667D01*
X149116895Y-87265156D01*
X149048909Y-87285779D01*
X148978211Y-87292742D01*
X148907513Y-87285779D01*
X148839527Y-87265156D01*
X148776874Y-87231667D01*
X148717188Y-87182684D01*
X147894316Y-86359812D01*
X147845333Y-86300126D01*
X147811844Y-86237473D01*
X147791221Y-86169487D01*
X147784258Y-86098789D01*
X147791221Y-86028091D01*
X147811844Y-85960105D01*
X147845333Y-85897452D01*
X147894316Y-85837766D01*
X148575766Y-85156316D01*
X148635452Y-85107333D01*
X148698105Y-85073844D01*
X148766091Y-85053221D01*
X148836789Y-85046258D01*
X148907487Y-85053221D01*
X148907487Y-85053221D01*
G37*
G36*
X133285509Y-82759875D02*
X133433469Y-82821163D01*
X133483801Y-82854794D01*
X133566624Y-82910134D01*
X133679866Y-83023376D01*
X133682865Y-83027865D01*
X133768837Y-83156531D01*
X133830125Y-83304491D01*
X133861367Y-83461558D01*
X133861367Y-83621708D01*
X133830125Y-83778775D01*
X133782721Y-83893216D01*
X133768838Y-83926733D01*
X133679866Y-84059890D01*
X133566624Y-84173132D01*
X133517257Y-84206118D01*
X133498322Y-84221657D01*
X133482777Y-84240599D01*
X133471225Y-84262210D01*
X133464112Y-84285659D01*
X133461710Y-84310045D01*
X133464112Y-84334432D01*
X133471225Y-84357881D01*
X133482776Y-84379492D01*
X133498322Y-84398434D01*
X133554636Y-84454748D01*
X133643608Y-84587904D01*
X133704896Y-84735864D01*
X133736138Y-84892931D01*
X133736138Y-85053081D01*
X133704896Y-85210148D01*
X133665846Y-85304422D01*
X133643609Y-85358106D01*
X133556128Y-85489032D01*
X133554636Y-85491264D01*
X133441396Y-85604504D01*
X133308240Y-85693476D01*
X133308239Y-85693477D01*
X133308238Y-85693477D01*
X133295626Y-85698701D01*
X133160280Y-85754764D01*
X133003213Y-85786006D01*
X132843063Y-85786006D01*
X132685996Y-85754764D01*
X132550650Y-85698701D01*
X132538038Y-85693477D01*
X132538037Y-85693477D01*
X132538036Y-85693476D01*
X132404880Y-85604504D01*
X132291640Y-85491264D01*
X132290149Y-85489032D01*
X132202667Y-85358106D01*
X132180430Y-85304422D01*
X132141380Y-85210148D01*
X132110138Y-85053081D01*
X132110138Y-84892931D01*
X132141380Y-84735864D01*
X132202668Y-84587904D01*
X132291640Y-84454748D01*
X132404881Y-84341507D01*
X132454248Y-84308521D01*
X132473183Y-84292982D01*
X132488728Y-84274040D01*
X132500280Y-84252429D01*
X132507393Y-84228980D01*
X132509795Y-84204594D01*
X132507393Y-84180207D01*
X132500280Y-84156758D01*
X132488729Y-84135147D01*
X132473183Y-84116205D01*
X132416869Y-84059891D01*
X132327897Y-83926735D01*
X132266609Y-83778775D01*
X132235367Y-83621708D01*
X132235367Y-83461558D01*
X132266609Y-83304491D01*
X132327897Y-83156531D01*
X132413869Y-83027865D01*
X132416868Y-83023376D01*
X132530110Y-82910134D01*
X132612933Y-82854794D01*
X132663265Y-82821163D01*
X132811225Y-82759875D01*
X132968292Y-82728633D01*
X133128442Y-82728633D01*
X133285509Y-82759875D01*
X133285509Y-82759875D01*
G37*
G36*
X170635368Y-82198218D02*
X170670938Y-82209008D01*
X170703710Y-82226525D01*
X170737217Y-82254023D01*
X172900491Y-84417297D01*
X172927989Y-84450804D01*
X172945506Y-84483576D01*
X172956296Y-84519146D01*
X172959938Y-84556127D01*
X172956296Y-84593108D01*
X172945506Y-84628678D01*
X172927989Y-84661450D01*
X172900491Y-84694957D01*
X172151431Y-85444017D01*
X172117924Y-85471515D01*
X172085152Y-85489032D01*
X172049582Y-85499822D01*
X172012601Y-85503464D01*
X171975620Y-85499822D01*
X171940050Y-85489032D01*
X171907278Y-85471515D01*
X171873771Y-85444017D01*
X169710497Y-83280743D01*
X169682999Y-83247236D01*
X169665482Y-83214464D01*
X169654692Y-83178894D01*
X169651050Y-83141913D01*
X169654692Y-83104932D01*
X169665482Y-83069362D01*
X169682999Y-83036590D01*
X169710497Y-83003083D01*
X170459557Y-82254023D01*
X170493064Y-82226525D01*
X170525836Y-82209008D01*
X170561406Y-82198218D01*
X170598387Y-82194576D01*
X170635368Y-82198218D01*
X170635368Y-82198218D01*
G37*
G36*
X150980947Y-83458995D02*
X151154017Y-83530683D01*
X151309781Y-83634761D01*
X151442239Y-83767219D01*
X151546317Y-83922983D01*
X151618005Y-84096053D01*
X151654551Y-84279782D01*
X151654551Y-84467116D01*
X151618005Y-84650845D01*
X151546317Y-84823915D01*
X151442239Y-84979679D01*
X151309781Y-85112137D01*
X151154017Y-85216215D01*
X150980947Y-85287903D01*
X150797218Y-85324449D01*
X150609884Y-85324449D01*
X150426155Y-85287903D01*
X150253085Y-85216215D01*
X150097321Y-85112137D01*
X149964863Y-84979679D01*
X149860785Y-84823915D01*
X149789097Y-84650845D01*
X149752551Y-84467116D01*
X149752551Y-84279782D01*
X149789097Y-84096053D01*
X149860785Y-83922983D01*
X149964863Y-83767219D01*
X150097321Y-83634761D01*
X150253085Y-83530683D01*
X150426155Y-83458995D01*
X150609884Y-83422449D01*
X150797218Y-83422449D01*
X150980947Y-83458995D01*
X150980947Y-83458995D01*
G37*
G36*
X142895835Y-81665194D02*
X143154820Y-81716709D01*
X143292693Y-81773818D01*
X143487675Y-81854582D01*
X143787243Y-82054747D01*
X144041995Y-82309499D01*
X144242160Y-82609067D01*
X144304627Y-82759876D01*
X144380033Y-82941922D01*
X144399346Y-83039014D01*
X144450320Y-83295280D01*
X144450320Y-83655564D01*
X144380033Y-84008921D01*
X144242160Y-84341777D01*
X144041995Y-84641345D01*
X143787243Y-84896097D01*
X143487675Y-85096262D01*
X143342691Y-85156316D01*
X143154820Y-85234135D01*
X143047787Y-85255425D01*
X142801462Y-85304422D01*
X142441178Y-85304422D01*
X142194853Y-85255425D01*
X142087820Y-85234135D01*
X141899949Y-85156316D01*
X141754965Y-85096262D01*
X141455397Y-84896097D01*
X141200645Y-84641345D01*
X141000480Y-84341777D01*
X140862607Y-84008921D01*
X140792320Y-83655564D01*
X140792320Y-83295280D01*
X140843294Y-83039014D01*
X140862607Y-82941922D01*
X140938013Y-82759876D01*
X141000480Y-82609067D01*
X141200645Y-82309499D01*
X141455397Y-82054747D01*
X141754965Y-81854582D01*
X141949947Y-81773818D01*
X142087820Y-81716709D01*
X142346805Y-81665194D01*
X142441178Y-81646422D01*
X142801462Y-81646422D01*
X142895835Y-81665194D01*
X142895835Y-81665194D01*
G37*
G36*
X177744974Y-81105384D02*
X177780544Y-81116174D01*
X177813316Y-81133691D01*
X177846823Y-81161189D01*
X180010097Y-83324463D01*
X180037595Y-83357970D01*
X180055112Y-83390742D01*
X180065902Y-83426312D01*
X180069544Y-83463293D01*
X180065902Y-83500274D01*
X180055112Y-83535844D01*
X180037595Y-83568616D01*
X180010097Y-83602123D01*
X179261037Y-84351183D01*
X179227530Y-84378681D01*
X179194758Y-84396198D01*
X179159188Y-84406988D01*
X179122207Y-84410630D01*
X179085226Y-84406988D01*
X179049656Y-84396198D01*
X179016884Y-84378681D01*
X178983377Y-84351183D01*
X176820103Y-82187909D01*
X176792605Y-82154402D01*
X176775088Y-82121630D01*
X176764298Y-82086060D01*
X176760656Y-82049079D01*
X176764298Y-82012098D01*
X176775088Y-81976528D01*
X176792605Y-81943756D01*
X176820103Y-81910249D01*
X177569163Y-81161189D01*
X177602670Y-81133691D01*
X177635442Y-81116174D01*
X177671012Y-81105384D01*
X177707993Y-81101742D01*
X177744974Y-81105384D01*
X177744974Y-81105384D01*
G37*
G36*
X152776998Y-81662944D02*
X152950068Y-81734632D01*
X153105832Y-81838710D01*
X153238290Y-81971168D01*
X153342368Y-82126932D01*
X153414056Y-82300002D01*
X153450602Y-82483731D01*
X153450602Y-82671065D01*
X153414056Y-82854794D01*
X153342368Y-83027864D01*
X153238290Y-83183628D01*
X153105832Y-83316086D01*
X152950068Y-83420164D01*
X152776998Y-83491852D01*
X152593269Y-83528398D01*
X152405935Y-83528398D01*
X152222206Y-83491852D01*
X152049136Y-83420164D01*
X151893372Y-83316086D01*
X151760914Y-83183628D01*
X151656836Y-83027864D01*
X151585148Y-82854794D01*
X151548602Y-82671065D01*
X151548602Y-82483731D01*
X151585148Y-82300002D01*
X151656836Y-82126932D01*
X151760914Y-81971168D01*
X151893372Y-81838710D01*
X152049136Y-81734632D01*
X152222206Y-81662944D01*
X152405935Y-81626398D01*
X152593269Y-81626398D01*
X152776998Y-81662944D01*
X152776998Y-81662944D01*
G37*
G36*
X167671885Y-79234734D02*
X167707455Y-79245524D01*
X167740227Y-79263041D01*
X167773734Y-79290539D01*
X169937008Y-81453813D01*
X169964506Y-81487320D01*
X169982023Y-81520092D01*
X169992813Y-81555662D01*
X169996455Y-81592643D01*
X169992813Y-81629624D01*
X169982023Y-81665194D01*
X169964506Y-81697966D01*
X169937008Y-81731473D01*
X169187948Y-82480533D01*
X169154441Y-82508031D01*
X169121669Y-82525548D01*
X169086099Y-82536338D01*
X169049118Y-82539980D01*
X169012137Y-82536338D01*
X168976567Y-82525548D01*
X168943795Y-82508031D01*
X168910288Y-82480533D01*
X166747014Y-80317259D01*
X166719516Y-80283752D01*
X166701999Y-80250980D01*
X166691209Y-80215410D01*
X166687567Y-80178429D01*
X166691209Y-80141448D01*
X166701999Y-80105878D01*
X166719516Y-80073106D01*
X166747014Y-80039599D01*
X167496074Y-79290539D01*
X167529581Y-79263041D01*
X167562353Y-79245524D01*
X167597923Y-79234734D01*
X167634904Y-79231092D01*
X167671885Y-79234734D01*
X167671885Y-79234734D01*
G37*
G36*
X174736588Y-78096998D02*
X174772158Y-78107788D01*
X174804930Y-78125305D01*
X174838437Y-78152803D01*
X177001711Y-80316077D01*
X177029209Y-80349584D01*
X177046726Y-80382356D01*
X177057516Y-80417926D01*
X177061158Y-80454907D01*
X177057516Y-80491888D01*
X177046726Y-80527458D01*
X177029209Y-80560230D01*
X177001711Y-80593737D01*
X176252651Y-81342797D01*
X176219144Y-81370295D01*
X176186372Y-81387812D01*
X176150802Y-81398602D01*
X176113821Y-81402244D01*
X176076840Y-81398602D01*
X176041270Y-81387812D01*
X176008498Y-81370295D01*
X175974991Y-81342797D01*
X173811717Y-79179523D01*
X173784219Y-79146016D01*
X173766702Y-79113244D01*
X173755912Y-79077674D01*
X173752270Y-79040693D01*
X173755912Y-79003712D01*
X173766702Y-78968142D01*
X173784219Y-78935370D01*
X173811717Y-78901863D01*
X174560777Y-78152803D01*
X174594284Y-78125305D01*
X174627056Y-78107788D01*
X174662626Y-78096998D01*
X174699607Y-78093356D01*
X174736588Y-78096998D01*
X174736588Y-78096998D01*
G37*
G36*
X181752105Y-77184061D02*
X181948337Y-77243587D01*
X181975778Y-77258255D01*
X182129182Y-77340251D01*
X182287695Y-77470339D01*
X182417783Y-77628852D01*
X182462169Y-77711893D01*
X182514447Y-77809697D01*
X182573973Y-78005929D01*
X182594071Y-78209998D01*
X182573973Y-78414068D01*
X182514447Y-78610300D01*
X182500983Y-78635488D01*
X182417783Y-78791145D01*
X182335582Y-78891307D01*
X182320289Y-78909942D01*
X180847907Y-80382323D01*
X180804524Y-80417926D01*
X180729110Y-80479817D01*
X180596597Y-80550647D01*
X180548265Y-80576481D01*
X180352033Y-80636007D01*
X180147964Y-80656105D01*
X179943895Y-80636007D01*
X179747663Y-80576481D01*
X179687382Y-80544260D01*
X179566818Y-80479817D01*
X179408305Y-80349729D01*
X179278217Y-80191216D01*
X179191534Y-80029043D01*
X179181553Y-80010371D01*
X179122027Y-79814139D01*
X179101929Y-79610070D01*
X179122027Y-79406001D01*
X179181553Y-79209769D01*
X179216926Y-79143592D01*
X179278217Y-79028924D01*
X179354995Y-78935370D01*
X179375711Y-78910127D01*
X180848092Y-77437745D01*
X180884774Y-77407641D01*
X180966889Y-77340251D01*
X181120293Y-77258255D01*
X181147734Y-77243587D01*
X181343966Y-77184061D01*
X181548036Y-77163963D01*
X181752105Y-77184061D01*
X181752105Y-77184061D01*
G37*
G36*
X164714452Y-76314560D02*
X164750022Y-76325350D01*
X164782794Y-76342867D01*
X164816301Y-76370365D01*
X166979575Y-78533639D01*
X167007073Y-78567146D01*
X167024590Y-78599918D01*
X167035380Y-78635488D01*
X167039022Y-78672469D01*
X167035380Y-78709450D01*
X167024590Y-78745020D01*
X167007073Y-78777792D01*
X166979575Y-78811299D01*
X166230515Y-79560359D01*
X166197008Y-79587857D01*
X166164236Y-79605374D01*
X166128666Y-79616164D01*
X166091685Y-79619806D01*
X166054704Y-79616164D01*
X166019134Y-79605374D01*
X165986362Y-79587857D01*
X165952855Y-79560359D01*
X163789581Y-77397085D01*
X163762083Y-77363578D01*
X163744566Y-77330806D01*
X163733776Y-77295236D01*
X163730134Y-77258255D01*
X163733776Y-77221274D01*
X163744566Y-77185704D01*
X163762083Y-77152932D01*
X163789581Y-77119425D01*
X164538641Y-76370365D01*
X164572148Y-76342867D01*
X164604920Y-76325350D01*
X164640490Y-76314560D01*
X164677471Y-76310918D01*
X164714452Y-76314560D01*
X164714452Y-76314560D01*
G37*
G36*
X171773103Y-75133514D02*
X171808673Y-75144304D01*
X171841445Y-75161821D01*
X171874952Y-75189319D01*
X174038226Y-77352593D01*
X174065724Y-77386100D01*
X174083241Y-77418872D01*
X174094031Y-77454442D01*
X174097673Y-77491423D01*
X174094031Y-77528404D01*
X174083241Y-77563974D01*
X174065724Y-77596746D01*
X174038226Y-77630253D01*
X173289166Y-78379313D01*
X173255659Y-78406811D01*
X173222887Y-78424328D01*
X173187317Y-78435118D01*
X173150336Y-78438760D01*
X173113355Y-78435118D01*
X173077785Y-78424328D01*
X173045013Y-78406811D01*
X173011506Y-78379313D01*
X170848232Y-76216039D01*
X170820734Y-76182532D01*
X170803217Y-76149760D01*
X170792427Y-76114190D01*
X170788785Y-76077209D01*
X170792427Y-76040228D01*
X170803217Y-76004658D01*
X170820734Y-75971886D01*
X170848232Y-75938379D01*
X171597292Y-75189319D01*
X171630799Y-75161821D01*
X171663571Y-75144304D01*
X171699141Y-75133514D01*
X171736122Y-75129872D01*
X171773103Y-75133514D01*
X171773103Y-75133514D01*
G37*
G36*
X150120943Y-74489126D02*
X150339025Y-74532505D01*
X150432561Y-74571249D01*
X150671880Y-74670378D01*
X150971448Y-74870543D01*
X151226200Y-75125295D01*
X151426365Y-75424863D01*
X151564238Y-75757719D01*
X151634525Y-76111076D01*
X151634525Y-76471360D01*
X151564238Y-76824717D01*
X151426365Y-77157573D01*
X151226200Y-77457141D01*
X150971448Y-77711893D01*
X150671880Y-77912058D01*
X150476898Y-77992822D01*
X150339025Y-78049931D01*
X150162346Y-78085074D01*
X149985667Y-78120218D01*
X149625383Y-78120218D01*
X149448705Y-78085075D01*
X149272025Y-78049931D01*
X149134152Y-77992822D01*
X148939170Y-77912058D01*
X148639602Y-77711893D01*
X148384850Y-77457141D01*
X148184685Y-77157573D01*
X148046812Y-76824717D01*
X147976525Y-76471360D01*
X147976525Y-76111076D01*
X148046812Y-75757719D01*
X148184685Y-75424863D01*
X148384850Y-75125295D01*
X148639602Y-74870543D01*
X148939170Y-74670378D01*
X149178489Y-74571249D01*
X149272025Y-74532505D01*
X149490107Y-74489126D01*
X149625383Y-74462218D01*
X149985667Y-74462218D01*
X150120943Y-74489126D01*
X150120943Y-74489126D01*
G37*
G36*
X179484699Y-74674464D02*
X176612430Y-77546733D01*
X175140233Y-76074536D01*
X178012502Y-73202267D01*
X179484699Y-74674464D01*
X179484699Y-74674464D01*
G37*
G36*
X168815670Y-72213340D02*
X168851240Y-72224130D01*
X168884012Y-72241647D01*
X168917519Y-72269145D01*
X171080793Y-74432419D01*
X171108291Y-74465926D01*
X171125808Y-74498698D01*
X171136598Y-74534268D01*
X171140240Y-74571249D01*
X171136598Y-74608230D01*
X171125808Y-74643800D01*
X171108291Y-74676572D01*
X171080793Y-74710079D01*
X170331733Y-75459139D01*
X170298226Y-75486637D01*
X170265454Y-75504154D01*
X170229884Y-75514944D01*
X170192903Y-75518586D01*
X170155922Y-75514944D01*
X170120352Y-75504154D01*
X170087580Y-75486637D01*
X170054073Y-75459139D01*
X167890799Y-73295865D01*
X167863301Y-73262358D01*
X167845784Y-73229586D01*
X167834994Y-73194016D01*
X167831352Y-73157035D01*
X167834994Y-73120054D01*
X167845784Y-73084484D01*
X167863301Y-73051712D01*
X167890799Y-73018205D01*
X168639859Y-72269145D01*
X168673366Y-72241647D01*
X168706138Y-72224130D01*
X168741708Y-72213340D01*
X168778689Y-72209698D01*
X168815670Y-72213340D01*
X168815670Y-72213340D01*
G37*
G36*
X160718487Y-73242221D02*
X160786473Y-73262844D01*
X160849126Y-73296333D01*
X160908812Y-73345316D01*
X161731684Y-74168188D01*
X161780667Y-74227874D01*
X161814156Y-74290527D01*
X161834779Y-74358513D01*
X161841742Y-74429211D01*
X161834779Y-74499909D01*
X161814156Y-74567895D01*
X161780667Y-74630548D01*
X161731684Y-74690234D01*
X161050234Y-75371684D01*
X160990548Y-75420667D01*
X160927895Y-75454156D01*
X160859909Y-75474779D01*
X160789211Y-75481742D01*
X160718513Y-75474779D01*
X160650527Y-75454156D01*
X160587874Y-75420667D01*
X160528188Y-75371684D01*
X159705316Y-74548812D01*
X159656333Y-74489126D01*
X159622844Y-74426473D01*
X159602221Y-74358487D01*
X159595258Y-74287789D01*
X159602221Y-74217091D01*
X159622844Y-74149105D01*
X159656333Y-74086452D01*
X159705316Y-74026766D01*
X160386766Y-73345316D01*
X160446452Y-73296333D01*
X160509105Y-73262844D01*
X160577091Y-73242221D01*
X160647789Y-73235258D01*
X160718487Y-73242221D01*
X160718487Y-73242221D01*
G37*
G36*
X162791947Y-71647995D02*
X162965017Y-71719683D01*
X163120781Y-71823761D01*
X163253239Y-71956219D01*
X163357317Y-72111983D01*
X163429005Y-72285053D01*
X163465551Y-72468782D01*
X163465551Y-72656116D01*
X163429005Y-72839845D01*
X163357317Y-73012915D01*
X163253239Y-73168679D01*
X163120781Y-73301137D01*
X162965017Y-73405215D01*
X162791947Y-73476903D01*
X162608218Y-73513449D01*
X162420884Y-73513449D01*
X162237155Y-73476903D01*
X162064085Y-73405215D01*
X161908321Y-73301137D01*
X161775863Y-73168679D01*
X161671785Y-73012915D01*
X161600097Y-72839845D01*
X161563551Y-72656116D01*
X161563551Y-72468782D01*
X161600097Y-72285053D01*
X161671785Y-72111983D01*
X161775863Y-71956219D01*
X161908321Y-71823761D01*
X162064085Y-71719683D01*
X162237155Y-71647995D01*
X162420884Y-71611449D01*
X162608218Y-71611449D01*
X162791947Y-71647995D01*
X162791947Y-71647995D01*
G37*
G36*
X154789140Y-69870565D02*
X154965820Y-69905709D01*
X155009092Y-69923633D01*
X155298675Y-70043582D01*
X155598243Y-70243747D01*
X155852995Y-70498499D01*
X156053160Y-70798067D01*
X156078839Y-70860063D01*
X156191033Y-71130922D01*
X156261320Y-71484281D01*
X156261320Y-71844563D01*
X156191033Y-72197922D01*
X156180177Y-72224130D01*
X156053160Y-72530777D01*
X155852995Y-72830345D01*
X155598243Y-73085097D01*
X155298675Y-73285262D01*
X155185233Y-73332251D01*
X154965820Y-73423135D01*
X154789141Y-73458278D01*
X154612462Y-73493422D01*
X154252178Y-73493422D01*
X154075499Y-73458278D01*
X153898820Y-73423135D01*
X153679407Y-73332251D01*
X153565965Y-73285262D01*
X153266397Y-73085097D01*
X153011645Y-72830345D01*
X152811480Y-72530777D01*
X152684463Y-72224130D01*
X152673607Y-72197922D01*
X152603320Y-71844563D01*
X152603320Y-71484281D01*
X152673607Y-71130922D01*
X152785801Y-70860063D01*
X152811480Y-70798067D01*
X153011645Y-70498499D01*
X153266397Y-70243747D01*
X153565965Y-70043582D01*
X153855548Y-69923633D01*
X153898820Y-69905709D01*
X154075500Y-69870565D01*
X154252178Y-69835422D01*
X154612462Y-69835422D01*
X154789140Y-69870565D01*
X154789140Y-69870565D01*
G37*
G36*
X164587998Y-69851944D02*
X164761068Y-69923632D01*
X164916832Y-70027710D01*
X165049290Y-70160168D01*
X165153368Y-70315932D01*
X165225056Y-70489002D01*
X165261602Y-70672731D01*
X165261602Y-70860065D01*
X165225056Y-71043794D01*
X165153368Y-71216864D01*
X165049290Y-71372628D01*
X164916832Y-71505086D01*
X164761068Y-71609164D01*
X164587998Y-71680852D01*
X164404269Y-71717398D01*
X164216935Y-71717398D01*
X164033206Y-71680852D01*
X163860136Y-71609164D01*
X163704372Y-71505086D01*
X163571914Y-71372628D01*
X163467836Y-71216864D01*
X163396148Y-71043794D01*
X163359602Y-70860065D01*
X163359602Y-70672731D01*
X163396148Y-70489002D01*
X163467836Y-70315932D01*
X163571914Y-70160168D01*
X163704372Y-70027710D01*
X163860136Y-69923632D01*
X164033206Y-69851944D01*
X164216935Y-69815398D01*
X164404269Y-69815398D01*
X164587998Y-69851944D01*
X164587998Y-69851944D01*
G37*
G36*
X161973346Y-62686362D02*
X162150025Y-62721505D01*
X162287898Y-62778614D01*
X162482880Y-62859378D01*
X162782448Y-63059543D01*
X163037200Y-63314295D01*
X163237365Y-63613863D01*
X163375238Y-63946719D01*
X163445525Y-64300076D01*
X163445525Y-64660360D01*
X163375238Y-65013717D01*
X163237365Y-65346573D01*
X163037200Y-65646141D01*
X162782448Y-65900893D01*
X162482880Y-66101058D01*
X162287898Y-66181822D01*
X162150025Y-66238931D01*
X161973346Y-66274074D01*
X161796667Y-66309218D01*
X161436383Y-66309218D01*
X161259704Y-66274074D01*
X161083025Y-66238931D01*
X160945152Y-66181822D01*
X160750170Y-66101058D01*
X160450602Y-65900893D01*
X160195850Y-65646141D01*
X159995685Y-65346573D01*
X159857812Y-65013717D01*
X159787525Y-64660360D01*
X159787525Y-64300076D01*
X159857812Y-63946719D01*
X159995685Y-63613863D01*
X160195850Y-63314295D01*
X160450602Y-63059543D01*
X160750170Y-62859378D01*
X160945152Y-62778614D01*
X161083025Y-62721505D01*
X161259704Y-62686362D01*
X161436383Y-62651218D01*
X161796667Y-62651218D01*
X161973346Y-62686362D01*
X161973346Y-62686362D01*
G37*
G36*
X162681256Y-55287298D02*
X162787579Y-55308447D01*
X163088042Y-55432903D01*
X163354852Y-55611180D01*
X163358454Y-55613587D01*
X163588413Y-55843546D01*
X163769098Y-56113960D01*
X163893553Y-56414422D01*
X163957000Y-56733389D01*
X163957000Y-57058611D01*
X163893553Y-57377578D01*
X163769098Y-57678040D01*
X163588413Y-57948454D01*
X163358454Y-58178413D01*
X163358451Y-58178415D01*
X163088042Y-58359097D01*
X162787579Y-58483553D01*
X162681256Y-58504702D01*
X162468611Y-58547000D01*
X162143389Y-58547000D01*
X161930744Y-58504702D01*
X161824421Y-58483553D01*
X161523958Y-58359097D01*
X161253549Y-58178415D01*
X161253546Y-58178413D01*
X161023587Y-57948454D01*
X160842902Y-57678040D01*
X160718447Y-57377578D01*
X160655000Y-57058611D01*
X160655000Y-56733389D01*
X160718447Y-56414422D01*
X160842902Y-56113960D01*
X161023587Y-55843546D01*
X161253546Y-55613587D01*
X161257148Y-55611180D01*
X161523958Y-55432903D01*
X161824421Y-55308447D01*
X161930744Y-55287298D01*
X162143389Y-55245000D01*
X162468611Y-55245000D01*
X162681256Y-55287298D01*
X162681256Y-55287298D01*
G37*
M02*
