G04 #@! TF.GenerationSoftware,KiCad,Pcbnew,(5.0.1)-3*
G04 #@! TF.CreationDate,2018-11-05T20:46:55+05:30*
G04 #@! TF.ProjectId,MosfetDriverOn210404,4D6F736665744472697665724F6E3231,rev?*
G04 #@! TF.SameCoordinates,Original*
G04 #@! TF.FileFunction,Legend,Bot*
G04 #@! TF.FilePolarity,Positive*
%FSLAX46Y46*%
G04 Gerber Fmt 4.6, Leading zero omitted, Abs format (unit mm)*
G04 Created by KiCad (PCBNEW (5.0.1)-3) date 11/5/2018 8:46:55 PM*
%MOMM*%
%LPD*%
G01*
G04 APERTURE LIST*
%ADD10C,0.300000*%
%ADD11C,0.120000*%
%ADD12C,0.010000*%
%ADD13C,0.150000*%
%ADD14C,1.626000*%
%ADD15C,2.082000*%
%ADD16C,2.082000*%
%ADD17C,0.100000*%
%ADD18C,3.658000*%
%ADD19C,1.902000*%
%ADD20C,1.702000*%
%ADD21C,3.302000*%
%ADD22C,1.702000*%
%ADD23C,1.802000*%
%ADD24C,1.802000*%
%ADD25O,1.802000X1.802000*%
%ADD26R,1.802000X1.802000*%
%ADD27C,2.102000*%
%ADD28C,1.902000*%
%ADD29C,1.452000*%
G04 APERTURE END LIST*
D10*
X136725238Y-98047142D02*
X136439523Y-98142380D01*
X136344285Y-98237619D01*
X136249047Y-98428095D01*
X136249047Y-98713809D01*
X136344285Y-98904285D01*
X136439523Y-98999523D01*
X136630000Y-99094761D01*
X137391904Y-99094761D01*
X137391904Y-97094761D01*
X136725238Y-97094761D01*
X136534761Y-97190000D01*
X136439523Y-97285238D01*
X136344285Y-97475714D01*
X136344285Y-97666190D01*
X136439523Y-97856666D01*
X136534761Y-97951904D01*
X136725238Y-98047142D01*
X137391904Y-98047142D01*
X135582380Y-97761428D02*
X135106190Y-99094761D01*
X134630000Y-97761428D02*
X135106190Y-99094761D01*
X135296666Y-99570952D01*
X135391904Y-99666190D01*
X135582380Y-99761428D01*
X133868095Y-98904285D02*
X133772857Y-98999523D01*
X133868095Y-99094761D01*
X133963333Y-98999523D01*
X133868095Y-98904285D01*
X133868095Y-99094761D01*
X133868095Y-97856666D02*
X133772857Y-97951904D01*
X133868095Y-98047142D01*
X133963333Y-97951904D01*
X133868095Y-97856666D01*
X133868095Y-98047142D01*
X153261428Y-149228571D02*
X152904285Y-150228571D01*
X152547142Y-149228571D01*
X151404285Y-150157142D02*
X151547142Y-150228571D01*
X151832857Y-150228571D01*
X151975714Y-150157142D01*
X152047142Y-150014285D01*
X152047142Y-149442857D01*
X151975714Y-149300000D01*
X151832857Y-149228571D01*
X151547142Y-149228571D01*
X151404285Y-149300000D01*
X151332857Y-149442857D01*
X151332857Y-149585714D01*
X152047142Y-149728571D01*
X150690000Y-150228571D02*
X150690000Y-149228571D01*
X150690000Y-149514285D02*
X150618571Y-149371428D01*
X150547142Y-149300000D01*
X150404285Y-149228571D01*
X150261428Y-149228571D01*
X149832857Y-150157142D02*
X149690000Y-150228571D01*
X149404285Y-150228571D01*
X149261428Y-150157142D01*
X149190000Y-150014285D01*
X149190000Y-149942857D01*
X149261428Y-149800000D01*
X149404285Y-149728571D01*
X149618571Y-149728571D01*
X149761428Y-149657142D01*
X149832857Y-149514285D01*
X149832857Y-149442857D01*
X149761428Y-149300000D01*
X149618571Y-149228571D01*
X149404285Y-149228571D01*
X149261428Y-149300000D01*
X148547142Y-150228571D02*
X148547142Y-149228571D01*
X148547142Y-148728571D02*
X148618571Y-148800000D01*
X148547142Y-148871428D01*
X148475714Y-148800000D01*
X148547142Y-148728571D01*
X148547142Y-148871428D01*
X147618571Y-150228571D02*
X147761428Y-150157142D01*
X147832857Y-150085714D01*
X147904285Y-149942857D01*
X147904285Y-149514285D01*
X147832857Y-149371428D01*
X147761428Y-149300000D01*
X147618571Y-149228571D01*
X147404285Y-149228571D01*
X147261428Y-149300000D01*
X147190000Y-149371428D01*
X147118571Y-149514285D01*
X147118571Y-149942857D01*
X147190000Y-150085714D01*
X147261428Y-150157142D01*
X147404285Y-150228571D01*
X147618571Y-150228571D01*
X146475714Y-149228571D02*
X146475714Y-150228571D01*
X146475714Y-149371428D02*
X146404285Y-149300000D01*
X146261428Y-149228571D01*
X146047142Y-149228571D01*
X145904285Y-149300000D01*
X145832857Y-149442857D01*
X145832857Y-150228571D01*
X143975714Y-150085714D02*
X143904285Y-150157142D01*
X143975714Y-150228571D01*
X144047142Y-150157142D01*
X143975714Y-150085714D01*
X143975714Y-150228571D01*
X143975714Y-149300000D02*
X143904285Y-149371428D01*
X143975714Y-149442857D01*
X144047142Y-149371428D01*
X143975714Y-149300000D01*
X143975714Y-149442857D01*
X141332857Y-150228571D02*
X142190000Y-150228571D01*
X141761428Y-150228571D02*
X141761428Y-148728571D01*
X141904285Y-148942857D01*
X142047142Y-149085714D01*
X142190000Y-149157142D01*
X140690000Y-150085714D02*
X140618571Y-150157142D01*
X140690000Y-150228571D01*
X140761428Y-150157142D01*
X140690000Y-150085714D01*
X140690000Y-150228571D01*
X139690000Y-148728571D02*
X139547142Y-148728571D01*
X139404285Y-148800000D01*
X139332857Y-148871428D01*
X139261428Y-149014285D01*
X139190000Y-149300000D01*
X139190000Y-149657142D01*
X139261428Y-149942857D01*
X139332857Y-150085714D01*
X139404285Y-150157142D01*
X139547142Y-150228571D01*
X139690000Y-150228571D01*
X139832857Y-150157142D01*
X139904285Y-150085714D01*
X139975714Y-149942857D01*
X140047142Y-149657142D01*
X140047142Y-149300000D01*
X139975714Y-149014285D01*
X139904285Y-148871428D01*
X139832857Y-148800000D01*
X139690000Y-148728571D01*
X132773809Y-99144761D02*
X132773809Y-97144761D01*
X132107142Y-98573333D01*
X131440476Y-97144761D01*
X131440476Y-99144761D01*
X129630952Y-99144761D02*
X129630952Y-98097142D01*
X129726190Y-97906666D01*
X129916666Y-97811428D01*
X130297619Y-97811428D01*
X130488095Y-97906666D01*
X129630952Y-99049523D02*
X129821428Y-99144761D01*
X130297619Y-99144761D01*
X130488095Y-99049523D01*
X130583333Y-98859047D01*
X130583333Y-98668571D01*
X130488095Y-98478095D01*
X130297619Y-98382857D01*
X129821428Y-98382857D01*
X129630952Y-98287619D01*
X128392857Y-99144761D02*
X128583333Y-99049523D01*
X128678571Y-98859047D01*
X128678571Y-97144761D01*
X127630952Y-99144761D02*
X127630952Y-97144761D01*
X126773809Y-99144761D02*
X126773809Y-98097142D01*
X126869047Y-97906666D01*
X127059523Y-97811428D01*
X127345238Y-97811428D01*
X127535714Y-97906666D01*
X127630952Y-98001904D01*
X124964285Y-99144761D02*
X124964285Y-98097142D01*
X125059523Y-97906666D01*
X125250000Y-97811428D01*
X125630952Y-97811428D01*
X125821428Y-97906666D01*
X124964285Y-99049523D02*
X125154761Y-99144761D01*
X125630952Y-99144761D01*
X125821428Y-99049523D01*
X125916666Y-98859047D01*
X125916666Y-98668571D01*
X125821428Y-98478095D01*
X125630952Y-98382857D01*
X125154761Y-98382857D01*
X124964285Y-98287619D01*
X124011904Y-99144761D02*
X124011904Y-97811428D01*
X124011904Y-98192380D02*
X123916666Y-98001904D01*
X123821428Y-97906666D01*
X123630952Y-97811428D01*
X123440476Y-97811428D01*
X127392857Y-102444761D02*
X127488095Y-102444761D01*
X127678571Y-102349523D01*
X127964285Y-102063809D01*
X128440476Y-101492380D01*
X128630952Y-101206666D01*
X128726190Y-100920952D01*
X128726190Y-100730476D01*
X128630952Y-100540000D01*
X128440476Y-100444761D01*
X128345238Y-100444761D01*
X128154761Y-100540000D01*
X128059523Y-100730476D01*
X128059523Y-100825714D01*
X128154761Y-101016190D01*
X128250000Y-101111428D01*
X128821428Y-101492380D01*
X128916666Y-101587619D01*
X129011904Y-101778095D01*
X129011904Y-102063809D01*
X128916666Y-102254285D01*
X128821428Y-102349523D01*
X128630952Y-102444761D01*
X128345238Y-102444761D01*
X128154761Y-102349523D01*
X128059523Y-102254285D01*
X127773809Y-101873333D01*
X127678571Y-101587619D01*
X127678571Y-101397142D01*
X131297619Y-105173333D02*
X130345238Y-105173333D01*
X131488095Y-105744761D02*
X130821428Y-103744761D01*
X130154761Y-105744761D01*
X129488095Y-105744761D02*
X129488095Y-104411428D01*
X129488095Y-104792380D02*
X129392857Y-104601904D01*
X129297619Y-104506666D01*
X129107142Y-104411428D01*
X128916666Y-104411428D01*
X128250000Y-104411428D02*
X128250000Y-106411428D01*
X128250000Y-104506666D02*
X128059523Y-104411428D01*
X127678571Y-104411428D01*
X127488095Y-104506666D01*
X127392857Y-104601904D01*
X127297619Y-104792380D01*
X127297619Y-105363809D01*
X127392857Y-105554285D01*
X127488095Y-105649523D01*
X127678571Y-105744761D01*
X128059523Y-105744761D01*
X128250000Y-105649523D01*
X126440476Y-105744761D02*
X126440476Y-104411428D01*
X126440476Y-103744761D02*
X126535714Y-103840000D01*
X126440476Y-103935238D01*
X126345238Y-103840000D01*
X126440476Y-103744761D01*
X126440476Y-103935238D01*
X125773809Y-104411428D02*
X125011904Y-104411428D01*
X125488095Y-103744761D02*
X125488095Y-105459047D01*
X125392857Y-105649523D01*
X125202380Y-105744761D01*
X125011904Y-105744761D01*
D11*
G04 #@! TO.C,R7*
X176757596Y-88101959D02*
X179659653Y-85199902D01*
X179175901Y-90520264D02*
X182077958Y-87618207D01*
G04 #@! TO.C,R8*
X167193311Y-78574933D02*
X170095368Y-75672876D01*
X164775006Y-76156628D02*
X167677063Y-73254571D01*
G04 #@! TO.C,R9*
X170150744Y-81495107D02*
X173052801Y-78593050D01*
X167732439Y-79076802D02*
X170634496Y-76174745D01*
G04 #@! TO.C,R11*
X170695924Y-82040286D02*
X173597980Y-79138228D01*
X173114228Y-84458592D02*
X176016284Y-81556534D01*
G04 #@! TO.C,R12*
X176122614Y-87466977D02*
X179024671Y-84564920D01*
X173704309Y-85048672D02*
X176606366Y-82146615D01*
D12*
G04 #@! TO.C,REF\002A\002A*
G36*
X127879913Y-90537654D02*
X127801431Y-90540825D01*
X127744663Y-90543972D01*
X127705958Y-90547590D01*
X127681671Y-90552174D01*
X127668149Y-90558215D01*
X127661746Y-90566211D01*
X127658813Y-90576651D01*
X127658540Y-90578000D01*
X127654379Y-90602296D01*
X127646780Y-90650212D01*
X127636529Y-90716650D01*
X127624414Y-90796509D01*
X127611219Y-90884691D01*
X127610759Y-90887788D01*
X127597476Y-90974218D01*
X127584893Y-91050611D01*
X127573833Y-91112383D01*
X127565120Y-91154950D01*
X127559578Y-91173728D01*
X127559295Y-91174067D01*
X127541377Y-91183768D01*
X127504311Y-91200185D01*
X127456099Y-91219775D01*
X127455831Y-91219880D01*
X127395126Y-91245149D01*
X127323634Y-91277136D01*
X127256310Y-91309137D01*
X127253126Y-91310714D01*
X127143551Y-91365135D01*
X126891125Y-91205381D01*
X126813700Y-91156697D01*
X126743586Y-91113203D01*
X126684843Y-91077372D01*
X126641531Y-91051675D01*
X126617711Y-91038583D01*
X126615459Y-91037629D01*
X126598662Y-91042813D01*
X126567764Y-91066077D01*
X126521566Y-91108507D01*
X126458869Y-91171191D01*
X126394955Y-91237784D01*
X126333389Y-91303358D01*
X126278328Y-91363155D01*
X126233081Y-91413488D01*
X126200961Y-91450667D01*
X126185279Y-91471001D01*
X126184706Y-91472039D01*
X126183369Y-91485664D01*
X126190960Y-91507574D01*
X126209271Y-91540700D01*
X126240086Y-91587975D01*
X126285198Y-91652332D01*
X126345230Y-91735112D01*
X126398487Y-91807958D01*
X126446102Y-91873299D01*
X126485322Y-91927339D01*
X126513397Y-91966287D01*
X126527572Y-91986347D01*
X126528469Y-91987710D01*
X126527512Y-92007438D01*
X126516391Y-92046104D01*
X126497332Y-92096396D01*
X126490475Y-92112484D01*
X126460605Y-92184132D01*
X126428906Y-92265351D01*
X126403304Y-92335563D01*
X126384908Y-92387653D01*
X126370234Y-92427263D01*
X126361680Y-92447997D01*
X126360582Y-92449609D01*
X126343629Y-92452809D01*
X126303700Y-92461350D01*
X126246104Y-92474028D01*
X126176145Y-92489641D01*
X126099132Y-92506987D01*
X126020370Y-92524863D01*
X125945166Y-92542067D01*
X125878828Y-92557396D01*
X125826659Y-92569647D01*
X125793970Y-92577617D01*
X125785961Y-92579827D01*
X125777784Y-92584879D01*
X125771862Y-92595848D01*
X125768037Y-92616374D01*
X125766154Y-92650096D01*
X125766055Y-92700651D01*
X125767584Y-92771678D01*
X125770584Y-92866816D01*
X125771929Y-92905808D01*
X125783003Y-93222922D01*
X125859681Y-93235294D01*
X125902334Y-93241965D01*
X125965974Y-93251654D01*
X126042862Y-93263195D01*
X126125257Y-93275421D01*
X126148031Y-93278773D01*
X126224092Y-93290824D01*
X126290409Y-93302969D01*
X126341415Y-93314065D01*
X126371536Y-93322967D01*
X126376598Y-93325757D01*
X126389510Y-93346315D01*
X126408392Y-93386364D01*
X126429583Y-93438011D01*
X126433817Y-93449148D01*
X126461637Y-93518142D01*
X126495893Y-93595889D01*
X126529195Y-93665617D01*
X126529359Y-93665941D01*
X126584576Y-93775218D01*
X126424400Y-94029483D01*
X126264223Y-94283747D01*
X126488597Y-94493330D01*
X126556424Y-94555669D01*
X126618217Y-94610553D01*
X126670514Y-94655055D01*
X126709848Y-94686252D01*
X126732755Y-94701221D01*
X126735997Y-94702108D01*
X126754551Y-94693582D01*
X126792209Y-94670362D01*
X126844864Y-94635192D01*
X126908408Y-94590811D01*
X126977054Y-94541197D01*
X127046716Y-94490602D01*
X127108863Y-94446525D01*
X127159544Y-94411678D01*
X127194813Y-94388780D01*
X127210663Y-94380547D01*
X127230556Y-94386350D01*
X127268444Y-94402150D01*
X127316513Y-94424663D01*
X127321613Y-94427173D01*
X127386323Y-94456847D01*
X127430478Y-94470966D01*
X127457607Y-94470185D01*
X127471236Y-94455159D01*
X127471310Y-94454953D01*
X127477775Y-94437495D01*
X127493201Y-94396052D01*
X127516391Y-94333831D01*
X127546148Y-94254037D01*
X127581277Y-94159882D01*
X127620581Y-94054571D01*
X127658646Y-93952611D01*
X127700463Y-93840097D01*
X127738827Y-93735881D01*
X127772590Y-93643159D01*
X127800604Y-93565119D01*
X127821723Y-93504960D01*
X127834799Y-93465874D01*
X127838740Y-93451318D01*
X127827017Y-93435189D01*
X127796942Y-93409882D01*
X127757050Y-93382214D01*
X127643127Y-93294288D01*
X127552911Y-93192094D01*
X127487518Y-93077814D01*
X127448061Y-92953625D01*
X127435656Y-92821709D01*
X127439187Y-92760498D01*
X127465613Y-92632836D01*
X127514835Y-92519195D01*
X127583596Y-92420796D01*
X127668638Y-92338853D01*
X127766707Y-92274585D01*
X127874544Y-92229211D01*
X127988895Y-92203946D01*
X128106501Y-92200010D01*
X128224107Y-92218619D01*
X128338457Y-92260991D01*
X128446293Y-92328344D01*
X128491670Y-92366982D01*
X128579610Y-92467192D01*
X128642267Y-92577868D01*
X128679921Y-92695711D01*
X128692845Y-92817419D01*
X128681318Y-92939694D01*
X128645613Y-93059236D01*
X128586009Y-93172744D01*
X128502780Y-93276921D01*
X128408595Y-93359462D01*
X128369269Y-93391128D01*
X128341650Y-93418166D01*
X128331926Y-93434121D01*
X128337897Y-93450941D01*
X128354608Y-93491039D01*
X128380691Y-93551307D01*
X128414778Y-93628642D01*
X128455501Y-93719937D01*
X128501493Y-93822086D01*
X128546665Y-93921624D01*
X128596486Y-94031033D01*
X128642636Y-94132418D01*
X128683696Y-94222664D01*
X128718250Y-94298656D01*
X128744881Y-94357277D01*
X128762174Y-94395410D01*
X128768585Y-94409651D01*
X128783051Y-94423840D01*
X128810041Y-94422854D01*
X128852999Y-94405801D01*
X128915373Y-94371789D01*
X128915865Y-94371501D01*
X128962802Y-94345156D01*
X129000814Y-94325833D01*
X129022333Y-94317353D01*
X129023292Y-94317248D01*
X129039968Y-94324506D01*
X129076940Y-94345015D01*
X129130078Y-94376343D01*
X129195253Y-94416055D01*
X129267538Y-94461212D01*
X129341122Y-94506920D01*
X129407389Y-94546591D01*
X129462050Y-94577779D01*
X129500818Y-94598032D01*
X129519234Y-94604915D01*
X129535603Y-94594452D01*
X129568247Y-94565664D01*
X129613911Y-94521713D01*
X129669343Y-94465754D01*
X129731293Y-94400946D01*
X129751538Y-94379311D01*
X129960818Y-94154510D01*
X129787290Y-93918019D01*
X129734526Y-93845377D01*
X129688167Y-93780146D01*
X129650815Y-93726110D01*
X129625079Y-93687048D01*
X129613560Y-93666745D01*
X129613193Y-93665284D01*
X129618204Y-93645592D01*
X129632142Y-93605845D01*
X129652589Y-93552707D01*
X129667000Y-93517108D01*
X129693890Y-93448974D01*
X129719053Y-93380211D01*
X129738396Y-93322176D01*
X129743585Y-93304523D01*
X129758431Y-93257342D01*
X129773275Y-93220768D01*
X129781645Y-93206850D01*
X129800872Y-93197838D01*
X129843060Y-93184543D01*
X129902725Y-93168495D01*
X129974389Y-93151224D01*
X130006479Y-93144033D01*
X130087981Y-93126096D01*
X130166150Y-93108753D01*
X130233352Y-93093710D01*
X130281946Y-93082669D01*
X130291094Y-93080545D01*
X130366723Y-93062855D01*
X130355649Y-92745741D01*
X130351837Y-92641473D01*
X130348380Y-92562605D01*
X130344868Y-92505517D01*
X130340892Y-92466593D01*
X130336041Y-92442214D01*
X130329905Y-92428760D01*
X130322074Y-92422613D01*
X130318912Y-92421533D01*
X130299941Y-92417974D01*
X130258063Y-92411013D01*
X130198652Y-92401480D01*
X130127088Y-92390205D01*
X130048747Y-92378016D01*
X129969008Y-92365744D01*
X129893248Y-92354217D01*
X129826845Y-92344266D01*
X129775177Y-92336719D01*
X129743619Y-92332407D01*
X129736607Y-92331716D01*
X129729847Y-92319426D01*
X129714687Y-92286585D01*
X129693963Y-92239411D01*
X129686034Y-92220928D01*
X129654162Y-92149563D01*
X129616815Y-92070793D01*
X129583515Y-92004473D01*
X129558943Y-91953731D01*
X129542314Y-91911911D01*
X129536352Y-91886153D01*
X129537036Y-91882649D01*
X129547151Y-91865866D01*
X129570283Y-91828517D01*
X129603946Y-91774579D01*
X129645657Y-91708031D01*
X129692932Y-91632851D01*
X129702281Y-91618010D01*
X129757110Y-91530102D01*
X129797336Y-91463214D01*
X129824547Y-91414278D01*
X129840332Y-91380222D01*
X129846282Y-91357976D01*
X129843987Y-91344470D01*
X129843938Y-91344385D01*
X129828974Y-91327063D01*
X129796053Y-91293712D01*
X129748734Y-91247786D01*
X129690584Y-91192736D01*
X129625161Y-91132015D01*
X129617786Y-91125240D01*
X129535412Y-91050863D01*
X129471944Y-90996355D01*
X129426108Y-90960713D01*
X129396634Y-90942935D01*
X129383856Y-90940954D01*
X129365700Y-90952177D01*
X129328110Y-90977949D01*
X129274964Y-91015523D01*
X129210140Y-91062149D01*
X129137516Y-91115079D01*
X129120564Y-91127528D01*
X128879897Y-91304500D01*
X128766792Y-91257855D01*
X128698053Y-91230771D01*
X128624337Y-91203691D01*
X128561031Y-91182258D01*
X128558245Y-91181383D01*
X128508747Y-91165200D01*
X128470544Y-91151387D01*
X128451870Y-91142924D01*
X128451838Y-91142899D01*
X128445438Y-91126646D01*
X128434123Y-91086518D01*
X128419035Y-91027031D01*
X128401316Y-90952702D01*
X128382107Y-90868045D01*
X128380528Y-90860907D01*
X128361178Y-90773668D01*
X128343445Y-90694485D01*
X128328471Y-90628388D01*
X128317395Y-90580411D01*
X128311357Y-90555585D01*
X128311254Y-90555206D01*
X128307739Y-90544679D01*
X128301348Y-90536860D01*
X128288404Y-90531513D01*
X128265234Y-90528400D01*
X128228164Y-90527281D01*
X128173518Y-90527919D01*
X128097624Y-90530075D01*
X127996805Y-90533510D01*
X127983757Y-90533966D01*
X127879913Y-90537654D01*
X127879913Y-90537654D01*
G37*
X127879913Y-90537654D02*
X127801431Y-90540825D01*
X127744663Y-90543972D01*
X127705958Y-90547590D01*
X127681671Y-90552174D01*
X127668149Y-90558215D01*
X127661746Y-90566211D01*
X127658813Y-90576651D01*
X127658540Y-90578000D01*
X127654379Y-90602296D01*
X127646780Y-90650212D01*
X127636529Y-90716650D01*
X127624414Y-90796509D01*
X127611219Y-90884691D01*
X127610759Y-90887788D01*
X127597476Y-90974218D01*
X127584893Y-91050611D01*
X127573833Y-91112383D01*
X127565120Y-91154950D01*
X127559578Y-91173728D01*
X127559295Y-91174067D01*
X127541377Y-91183768D01*
X127504311Y-91200185D01*
X127456099Y-91219775D01*
X127455831Y-91219880D01*
X127395126Y-91245149D01*
X127323634Y-91277136D01*
X127256310Y-91309137D01*
X127253126Y-91310714D01*
X127143551Y-91365135D01*
X126891125Y-91205381D01*
X126813700Y-91156697D01*
X126743586Y-91113203D01*
X126684843Y-91077372D01*
X126641531Y-91051675D01*
X126617711Y-91038583D01*
X126615459Y-91037629D01*
X126598662Y-91042813D01*
X126567764Y-91066077D01*
X126521566Y-91108507D01*
X126458869Y-91171191D01*
X126394955Y-91237784D01*
X126333389Y-91303358D01*
X126278328Y-91363155D01*
X126233081Y-91413488D01*
X126200961Y-91450667D01*
X126185279Y-91471001D01*
X126184706Y-91472039D01*
X126183369Y-91485664D01*
X126190960Y-91507574D01*
X126209271Y-91540700D01*
X126240086Y-91587975D01*
X126285198Y-91652332D01*
X126345230Y-91735112D01*
X126398487Y-91807958D01*
X126446102Y-91873299D01*
X126485322Y-91927339D01*
X126513397Y-91966287D01*
X126527572Y-91986347D01*
X126528469Y-91987710D01*
X126527512Y-92007438D01*
X126516391Y-92046104D01*
X126497332Y-92096396D01*
X126490475Y-92112484D01*
X126460605Y-92184132D01*
X126428906Y-92265351D01*
X126403304Y-92335563D01*
X126384908Y-92387653D01*
X126370234Y-92427263D01*
X126361680Y-92447997D01*
X126360582Y-92449609D01*
X126343629Y-92452809D01*
X126303700Y-92461350D01*
X126246104Y-92474028D01*
X126176145Y-92489641D01*
X126099132Y-92506987D01*
X126020370Y-92524863D01*
X125945166Y-92542067D01*
X125878828Y-92557396D01*
X125826659Y-92569647D01*
X125793970Y-92577617D01*
X125785961Y-92579827D01*
X125777784Y-92584879D01*
X125771862Y-92595848D01*
X125768037Y-92616374D01*
X125766154Y-92650096D01*
X125766055Y-92700651D01*
X125767584Y-92771678D01*
X125770584Y-92866816D01*
X125771929Y-92905808D01*
X125783003Y-93222922D01*
X125859681Y-93235294D01*
X125902334Y-93241965D01*
X125965974Y-93251654D01*
X126042862Y-93263195D01*
X126125257Y-93275421D01*
X126148031Y-93278773D01*
X126224092Y-93290824D01*
X126290409Y-93302969D01*
X126341415Y-93314065D01*
X126371536Y-93322967D01*
X126376598Y-93325757D01*
X126389510Y-93346315D01*
X126408392Y-93386364D01*
X126429583Y-93438011D01*
X126433817Y-93449148D01*
X126461637Y-93518142D01*
X126495893Y-93595889D01*
X126529195Y-93665617D01*
X126529359Y-93665941D01*
X126584576Y-93775218D01*
X126424400Y-94029483D01*
X126264223Y-94283747D01*
X126488597Y-94493330D01*
X126556424Y-94555669D01*
X126618217Y-94610553D01*
X126670514Y-94655055D01*
X126709848Y-94686252D01*
X126732755Y-94701221D01*
X126735997Y-94702108D01*
X126754551Y-94693582D01*
X126792209Y-94670362D01*
X126844864Y-94635192D01*
X126908408Y-94590811D01*
X126977054Y-94541197D01*
X127046716Y-94490602D01*
X127108863Y-94446525D01*
X127159544Y-94411678D01*
X127194813Y-94388780D01*
X127210663Y-94380547D01*
X127230556Y-94386350D01*
X127268444Y-94402150D01*
X127316513Y-94424663D01*
X127321613Y-94427173D01*
X127386323Y-94456847D01*
X127430478Y-94470966D01*
X127457607Y-94470185D01*
X127471236Y-94455159D01*
X127471310Y-94454953D01*
X127477775Y-94437495D01*
X127493201Y-94396052D01*
X127516391Y-94333831D01*
X127546148Y-94254037D01*
X127581277Y-94159882D01*
X127620581Y-94054571D01*
X127658646Y-93952611D01*
X127700463Y-93840097D01*
X127738827Y-93735881D01*
X127772590Y-93643159D01*
X127800604Y-93565119D01*
X127821723Y-93504960D01*
X127834799Y-93465874D01*
X127838740Y-93451318D01*
X127827017Y-93435189D01*
X127796942Y-93409882D01*
X127757050Y-93382214D01*
X127643127Y-93294288D01*
X127552911Y-93192094D01*
X127487518Y-93077814D01*
X127448061Y-92953625D01*
X127435656Y-92821709D01*
X127439187Y-92760498D01*
X127465613Y-92632836D01*
X127514835Y-92519195D01*
X127583596Y-92420796D01*
X127668638Y-92338853D01*
X127766707Y-92274585D01*
X127874544Y-92229211D01*
X127988895Y-92203946D01*
X128106501Y-92200010D01*
X128224107Y-92218619D01*
X128338457Y-92260991D01*
X128446293Y-92328344D01*
X128491670Y-92366982D01*
X128579610Y-92467192D01*
X128642267Y-92577868D01*
X128679921Y-92695711D01*
X128692845Y-92817419D01*
X128681318Y-92939694D01*
X128645613Y-93059236D01*
X128586009Y-93172744D01*
X128502780Y-93276921D01*
X128408595Y-93359462D01*
X128369269Y-93391128D01*
X128341650Y-93418166D01*
X128331926Y-93434121D01*
X128337897Y-93450941D01*
X128354608Y-93491039D01*
X128380691Y-93551307D01*
X128414778Y-93628642D01*
X128455501Y-93719937D01*
X128501493Y-93822086D01*
X128546665Y-93921624D01*
X128596486Y-94031033D01*
X128642636Y-94132418D01*
X128683696Y-94222664D01*
X128718250Y-94298656D01*
X128744881Y-94357277D01*
X128762174Y-94395410D01*
X128768585Y-94409651D01*
X128783051Y-94423840D01*
X128810041Y-94422854D01*
X128852999Y-94405801D01*
X128915373Y-94371789D01*
X128915865Y-94371501D01*
X128962802Y-94345156D01*
X129000814Y-94325833D01*
X129022333Y-94317353D01*
X129023292Y-94317248D01*
X129039968Y-94324506D01*
X129076940Y-94345015D01*
X129130078Y-94376343D01*
X129195253Y-94416055D01*
X129267538Y-94461212D01*
X129341122Y-94506920D01*
X129407389Y-94546591D01*
X129462050Y-94577779D01*
X129500818Y-94598032D01*
X129519234Y-94604915D01*
X129535603Y-94594452D01*
X129568247Y-94565664D01*
X129613911Y-94521713D01*
X129669343Y-94465754D01*
X129731293Y-94400946D01*
X129751538Y-94379311D01*
X129960818Y-94154510D01*
X129787290Y-93918019D01*
X129734526Y-93845377D01*
X129688167Y-93780146D01*
X129650815Y-93726110D01*
X129625079Y-93687048D01*
X129613560Y-93666745D01*
X129613193Y-93665284D01*
X129618204Y-93645592D01*
X129632142Y-93605845D01*
X129652589Y-93552707D01*
X129667000Y-93517108D01*
X129693890Y-93448974D01*
X129719053Y-93380211D01*
X129738396Y-93322176D01*
X129743585Y-93304523D01*
X129758431Y-93257342D01*
X129773275Y-93220768D01*
X129781645Y-93206850D01*
X129800872Y-93197838D01*
X129843060Y-93184543D01*
X129902725Y-93168495D01*
X129974389Y-93151224D01*
X130006479Y-93144033D01*
X130087981Y-93126096D01*
X130166150Y-93108753D01*
X130233352Y-93093710D01*
X130281946Y-93082669D01*
X130291094Y-93080545D01*
X130366723Y-93062855D01*
X130355649Y-92745741D01*
X130351837Y-92641473D01*
X130348380Y-92562605D01*
X130344868Y-92505517D01*
X130340892Y-92466593D01*
X130336041Y-92442214D01*
X130329905Y-92428760D01*
X130322074Y-92422613D01*
X130318912Y-92421533D01*
X130299941Y-92417974D01*
X130258063Y-92411013D01*
X130198652Y-92401480D01*
X130127088Y-92390205D01*
X130048747Y-92378016D01*
X129969008Y-92365744D01*
X129893248Y-92354217D01*
X129826845Y-92344266D01*
X129775177Y-92336719D01*
X129743619Y-92332407D01*
X129736607Y-92331716D01*
X129729847Y-92319426D01*
X129714687Y-92286585D01*
X129693963Y-92239411D01*
X129686034Y-92220928D01*
X129654162Y-92149563D01*
X129616815Y-92070793D01*
X129583515Y-92004473D01*
X129558943Y-91953731D01*
X129542314Y-91911911D01*
X129536352Y-91886153D01*
X129537036Y-91882649D01*
X129547151Y-91865866D01*
X129570283Y-91828517D01*
X129603946Y-91774579D01*
X129645657Y-91708031D01*
X129692932Y-91632851D01*
X129702281Y-91618010D01*
X129757110Y-91530102D01*
X129797336Y-91463214D01*
X129824547Y-91414278D01*
X129840332Y-91380222D01*
X129846282Y-91357976D01*
X129843987Y-91344470D01*
X129843938Y-91344385D01*
X129828974Y-91327063D01*
X129796053Y-91293712D01*
X129748734Y-91247786D01*
X129690584Y-91192736D01*
X129625161Y-91132015D01*
X129617786Y-91125240D01*
X129535412Y-91050863D01*
X129471944Y-90996355D01*
X129426108Y-90960713D01*
X129396634Y-90942935D01*
X129383856Y-90940954D01*
X129365700Y-90952177D01*
X129328110Y-90977949D01*
X129274964Y-91015523D01*
X129210140Y-91062149D01*
X129137516Y-91115079D01*
X129120564Y-91127528D01*
X128879897Y-91304500D01*
X128766792Y-91257855D01*
X128698053Y-91230771D01*
X128624337Y-91203691D01*
X128561031Y-91182258D01*
X128558245Y-91181383D01*
X128508747Y-91165200D01*
X128470544Y-91151387D01*
X128451870Y-91142924D01*
X128451838Y-91142899D01*
X128445438Y-91126646D01*
X128434123Y-91086518D01*
X128419035Y-91027031D01*
X128401316Y-90952702D01*
X128382107Y-90868045D01*
X128380528Y-90860907D01*
X128361178Y-90773668D01*
X128343445Y-90694485D01*
X128328471Y-90628388D01*
X128317395Y-90580411D01*
X128311357Y-90555585D01*
X128311254Y-90555206D01*
X128307739Y-90544679D01*
X128301348Y-90536860D01*
X128288404Y-90531513D01*
X128265234Y-90528400D01*
X128228164Y-90527281D01*
X128173518Y-90527919D01*
X128097624Y-90530075D01*
X127996805Y-90533510D01*
X127983757Y-90533966D01*
X127879913Y-90537654D01*
G36*
X124996972Y-95365827D02*
X124940891Y-95405339D01*
X124914382Y-95439884D01*
X124894581Y-95501581D01*
X124894522Y-95549856D01*
X124900719Y-95614187D01*
X125051672Y-95674073D01*
X125125126Y-95704797D01*
X125173296Y-95729893D01*
X125198667Y-95752201D01*
X125203721Y-95774561D01*
X125190942Y-95799811D01*
X125176471Y-95816757D01*
X125133614Y-95844619D01*
X125086064Y-95848126D01*
X125041618Y-95829131D01*
X125008070Y-95789483D01*
X125001822Y-95775288D01*
X124972731Y-95731285D01*
X124940399Y-95713229D01*
X124896397Y-95698352D01*
X124898567Y-95760501D01*
X124903884Y-95802659D01*
X124920169Y-95837798D01*
X124953123Y-95877646D01*
X124957994Y-95882803D01*
X124994330Y-95918009D01*
X125025154Y-95936508D01*
X125063177Y-95944185D01*
X125094541Y-95946039D01*
X125150482Y-95944821D01*
X125189963Y-95934132D01*
X125214313Y-95919459D01*
X125252281Y-95887735D01*
X125278149Y-95853958D01*
X125293805Y-95812067D01*
X125301131Y-95756004D01*
X125302014Y-95679711D01*
X125300947Y-95641042D01*
X125298367Y-95594729D01*
X125210786Y-95597787D01*
X125210639Y-95622686D01*
X125208249Y-95626846D01*
X125191348Y-95621898D01*
X125154884Y-95608514D01*
X125106105Y-95589378D01*
X125095899Y-95585256D01*
X125034092Y-95556495D01*
X124999685Y-95530523D01*
X124991443Y-95505359D01*
X125008133Y-95479021D01*
X125022263Y-95467149D01*
X125073883Y-95442587D01*
X125123072Y-95444630D01*
X125165111Y-95470941D01*
X125195282Y-95519185D01*
X125205768Y-95557948D01*
X125210786Y-95597787D01*
X125298367Y-95594729D01*
X125295919Y-95550789D01*
X125286679Y-95484206D01*
X125271300Y-95436025D01*
X125247851Y-95400976D01*
X125214404Y-95373790D01*
X125199934Y-95365132D01*
X125134821Y-95343543D01*
X125064391Y-95344501D01*
X124996972Y-95365827D01*
X124996972Y-95365827D01*
G37*
X124996972Y-95365827D02*
X124940891Y-95405339D01*
X124914382Y-95439884D01*
X124894581Y-95501581D01*
X124894522Y-95549856D01*
X124900719Y-95614187D01*
X125051672Y-95674073D01*
X125125126Y-95704797D01*
X125173296Y-95729893D01*
X125198667Y-95752201D01*
X125203721Y-95774561D01*
X125190942Y-95799811D01*
X125176471Y-95816757D01*
X125133614Y-95844619D01*
X125086064Y-95848126D01*
X125041618Y-95829131D01*
X125008070Y-95789483D01*
X125001822Y-95775288D01*
X124972731Y-95731285D01*
X124940399Y-95713229D01*
X124896397Y-95698352D01*
X124898567Y-95760501D01*
X124903884Y-95802659D01*
X124920169Y-95837798D01*
X124953123Y-95877646D01*
X124957994Y-95882803D01*
X124994330Y-95918009D01*
X125025154Y-95936508D01*
X125063177Y-95944185D01*
X125094541Y-95946039D01*
X125150482Y-95944821D01*
X125189963Y-95934132D01*
X125214313Y-95919459D01*
X125252281Y-95887735D01*
X125278149Y-95853958D01*
X125293805Y-95812067D01*
X125301131Y-95756004D01*
X125302014Y-95679711D01*
X125300947Y-95641042D01*
X125298367Y-95594729D01*
X125210786Y-95597787D01*
X125210639Y-95622686D01*
X125208249Y-95626846D01*
X125191348Y-95621898D01*
X125154884Y-95608514D01*
X125106105Y-95589378D01*
X125095899Y-95585256D01*
X125034092Y-95556495D01*
X124999685Y-95530523D01*
X124991443Y-95505359D01*
X125008133Y-95479021D01*
X125022263Y-95467149D01*
X125073883Y-95442587D01*
X125123072Y-95444630D01*
X125165111Y-95470941D01*
X125195282Y-95519185D01*
X125205768Y-95557948D01*
X125210786Y-95597787D01*
X125298367Y-95594729D01*
X125295919Y-95550789D01*
X125286679Y-95484206D01*
X125271300Y-95436025D01*
X125247851Y-95400976D01*
X125214404Y-95373790D01*
X125199934Y-95365132D01*
X125134821Y-95343543D01*
X125064391Y-95344501D01*
X124996972Y-95365827D01*
G36*
X125497375Y-95340133D02*
X125480303Y-95348316D01*
X125440064Y-95382535D01*
X125406332Y-95431161D01*
X125386212Y-95482498D01*
X125383520Y-95507555D01*
X125396678Y-95541945D01*
X125423517Y-95559449D01*
X125451993Y-95569621D01*
X125464926Y-95571226D01*
X125470667Y-95556094D01*
X125481899Y-95523208D01*
X125486812Y-95508354D01*
X125515460Y-95456565D01*
X125558619Y-95429725D01*
X125615122Y-95428532D01*
X125619339Y-95429382D01*
X125649990Y-95442624D01*
X125673129Y-95469719D01*
X125689835Y-95514057D01*
X125701187Y-95579029D01*
X125708261Y-95668025D01*
X125710289Y-95715440D01*
X125713084Y-95790198D01*
X125716071Y-95841123D01*
X125720413Y-95873393D01*
X125727273Y-95892189D01*
X125737815Y-95902689D01*
X125753203Y-95910072D01*
X125754089Y-95910439D01*
X125783619Y-95921727D01*
X125798193Y-95925754D01*
X125799931Y-95911980D01*
X125800505Y-95874052D01*
X125799949Y-95816827D01*
X125798296Y-95745153D01*
X125796634Y-95692717D01*
X125792228Y-95591291D01*
X125786165Y-95514441D01*
X125777107Y-95457713D01*
X125763720Y-95416658D01*
X125744665Y-95386822D01*
X125718607Y-95363755D01*
X125693119Y-95347910D01*
X125632455Y-95327756D01*
X125562582Y-95325172D01*
X125497375Y-95340133D01*
X125497375Y-95340133D01*
G37*
X125497375Y-95340133D02*
X125480303Y-95348316D01*
X125440064Y-95382535D01*
X125406332Y-95431161D01*
X125386212Y-95482498D01*
X125383520Y-95507555D01*
X125396678Y-95541945D01*
X125423517Y-95559449D01*
X125451993Y-95569621D01*
X125464926Y-95571226D01*
X125470667Y-95556094D01*
X125481899Y-95523208D01*
X125486812Y-95508354D01*
X125515460Y-95456565D01*
X125558619Y-95429725D01*
X125615122Y-95428532D01*
X125619339Y-95429382D01*
X125649990Y-95442624D01*
X125673129Y-95469719D01*
X125689835Y-95514057D01*
X125701187Y-95579029D01*
X125708261Y-95668025D01*
X125710289Y-95715440D01*
X125713084Y-95790198D01*
X125716071Y-95841123D01*
X125720413Y-95873393D01*
X125727273Y-95892189D01*
X125737815Y-95902689D01*
X125753203Y-95910072D01*
X125754089Y-95910439D01*
X125783619Y-95921727D01*
X125798193Y-95925754D01*
X125799931Y-95911980D01*
X125800505Y-95874052D01*
X125799949Y-95816827D01*
X125798296Y-95745153D01*
X125796634Y-95692717D01*
X125792228Y-95591291D01*
X125786165Y-95514441D01*
X125777107Y-95457713D01*
X125763720Y-95416658D01*
X125744665Y-95386822D01*
X125718607Y-95363755D01*
X125693119Y-95347910D01*
X125632455Y-95327756D01*
X125562582Y-95325172D01*
X125497375Y-95340133D01*
G36*
X126004706Y-95319998D02*
X125963604Y-95340454D01*
X125931625Y-95364619D01*
X125908505Y-95391197D01*
X125893081Y-95424981D01*
X125884193Y-95470761D01*
X125880680Y-95533329D01*
X125881381Y-95617476D01*
X125883079Y-95672844D01*
X125890621Y-95888817D01*
X125928155Y-95904361D01*
X125957685Y-95915648D01*
X125972259Y-95919675D01*
X125974546Y-95906098D01*
X125975465Y-95869672D01*
X125974951Y-95816546D01*
X125973764Y-95774392D01*
X125972860Y-95713461D01*
X125974469Y-95665044D01*
X125978248Y-95635297D01*
X125981852Y-95628878D01*
X126007773Y-95634400D01*
X126048688Y-95649454D01*
X126096178Y-95670142D01*
X126141823Y-95692562D01*
X126177203Y-95712813D01*
X126193899Y-95726994D01*
X126193968Y-95727151D01*
X126193530Y-95754490D01*
X126181960Y-95780977D01*
X126160787Y-95802902D01*
X126129054Y-95811097D01*
X126101692Y-95811227D01*
X126062961Y-95811972D01*
X126042958Y-95821750D01*
X126031591Y-95846138D01*
X126030210Y-95850710D01*
X126026112Y-95885066D01*
X126040984Y-95905322D01*
X126078206Y-95913922D01*
X126118105Y-95914360D01*
X126189315Y-95898300D01*
X126225746Y-95877644D01*
X126269986Y-95830561D01*
X126292341Y-95773885D01*
X126292463Y-95714818D01*
X126270000Y-95660565D01*
X126237896Y-95627198D01*
X126206370Y-95608990D01*
X126157025Y-95586269D01*
X126099652Y-95563483D01*
X126090101Y-95560028D01*
X126027073Y-95534805D01*
X125990449Y-95511912D01*
X125978103Y-95488313D01*
X125987911Y-95460970D01*
X126005630Y-95439247D01*
X126048342Y-95411768D01*
X126096268Y-95408146D01*
X126140979Y-95426609D01*
X126174050Y-95465393D01*
X126178567Y-95475538D01*
X126204096Y-95512546D01*
X126240418Y-95539413D01*
X126285818Y-95560916D01*
X126283534Y-95495524D01*
X126279515Y-95455661D01*
X126267161Y-95424564D01*
X126241034Y-95391837D01*
X126216175Y-95366796D01*
X126177646Y-95331452D01*
X126148016Y-95312778D01*
X126116655Y-95305968D01*
X126081423Y-95305891D01*
X126004706Y-95319998D01*
X126004706Y-95319998D01*
G37*
X126004706Y-95319998D02*
X125963604Y-95340454D01*
X125931625Y-95364619D01*
X125908505Y-95391197D01*
X125893081Y-95424981D01*
X125884193Y-95470761D01*
X125880680Y-95533329D01*
X125881381Y-95617476D01*
X125883079Y-95672844D01*
X125890621Y-95888817D01*
X125928155Y-95904361D01*
X125957685Y-95915648D01*
X125972259Y-95919675D01*
X125974546Y-95906098D01*
X125975465Y-95869672D01*
X125974951Y-95816546D01*
X125973764Y-95774392D01*
X125972860Y-95713461D01*
X125974469Y-95665044D01*
X125978248Y-95635297D01*
X125981852Y-95628878D01*
X126007773Y-95634400D01*
X126048688Y-95649454D01*
X126096178Y-95670142D01*
X126141823Y-95692562D01*
X126177203Y-95712813D01*
X126193899Y-95726994D01*
X126193968Y-95727151D01*
X126193530Y-95754490D01*
X126181960Y-95780977D01*
X126160787Y-95802902D01*
X126129054Y-95811097D01*
X126101692Y-95811227D01*
X126062961Y-95811972D01*
X126042958Y-95821750D01*
X126031591Y-95846138D01*
X126030210Y-95850710D01*
X126026112Y-95885066D01*
X126040984Y-95905322D01*
X126078206Y-95913922D01*
X126118105Y-95914360D01*
X126189315Y-95898300D01*
X126225746Y-95877644D01*
X126269986Y-95830561D01*
X126292341Y-95773885D01*
X126292463Y-95714818D01*
X126270000Y-95660565D01*
X126237896Y-95627198D01*
X126206370Y-95608990D01*
X126157025Y-95586269D01*
X126099652Y-95563483D01*
X126090101Y-95560028D01*
X126027073Y-95534805D01*
X125990449Y-95511912D01*
X125978103Y-95488313D01*
X125987911Y-95460970D01*
X126005630Y-95439247D01*
X126048342Y-95411768D01*
X126096268Y-95408146D01*
X126140979Y-95426609D01*
X126174050Y-95465393D01*
X126178567Y-95475538D01*
X126204096Y-95512546D01*
X126240418Y-95539413D01*
X126285818Y-95560916D01*
X126283534Y-95495524D01*
X126279515Y-95455661D01*
X126267161Y-95424564D01*
X126241034Y-95391837D01*
X126216175Y-95366796D01*
X126177646Y-95331452D01*
X126148016Y-95312778D01*
X126116655Y-95305968D01*
X126081423Y-95305891D01*
X126004706Y-95319998D01*
G36*
X126369608Y-95309585D02*
X126368727Y-95347826D01*
X126369017Y-95405887D01*
X126370461Y-95479176D01*
X126372786Y-95556016D01*
X126381865Y-95815999D01*
X126429371Y-95860299D01*
X126461990Y-95887479D01*
X126490158Y-95897966D01*
X126528085Y-95895917D01*
X126543086Y-95893545D01*
X126589984Y-95886531D01*
X126628823Y-95882093D01*
X126638306Y-95881478D01*
X126670375Y-95882219D01*
X126716311Y-95885287D01*
X126734136Y-95886873D01*
X126777845Y-95888763D01*
X126806881Y-95880329D01*
X126835129Y-95856436D01*
X126845255Y-95845776D01*
X126889555Y-95798270D01*
X126872573Y-95311972D01*
X126835039Y-95296429D01*
X126802790Y-95285071D01*
X126784025Y-95281356D01*
X126779735Y-95295318D01*
X126776620Y-95334018D01*
X126774830Y-95393187D01*
X126774513Y-95468551D01*
X126775313Y-95532185D01*
X126780083Y-95782542D01*
X126745630Y-95788647D01*
X126714020Y-95786324D01*
X126698203Y-95775779D01*
X126693167Y-95755210D01*
X126687943Y-95711202D01*
X126683020Y-95649337D01*
X126678887Y-95575199D01*
X126677331Y-95537027D01*
X126669434Y-95317246D01*
X126623196Y-95302917D01*
X126590486Y-95293219D01*
X126572723Y-95288783D01*
X126572214Y-95288753D01*
X126570929Y-95302540D01*
X126570319Y-95340666D01*
X126570382Y-95398451D01*
X126571120Y-95471215D01*
X126572237Y-95539276D01*
X126577006Y-95789633D01*
X126489973Y-95792673D01*
X126478008Y-95564534D01*
X126466043Y-95336395D01*
X126422848Y-95315936D01*
X126390996Y-95301964D01*
X126372216Y-95295774D01*
X126371680Y-95295755D01*
X126369608Y-95309585D01*
X126369608Y-95309585D01*
G37*
X126369608Y-95309585D02*
X126368727Y-95347826D01*
X126369017Y-95405887D01*
X126370461Y-95479176D01*
X126372786Y-95556016D01*
X126381865Y-95815999D01*
X126429371Y-95860299D01*
X126461990Y-95887479D01*
X126490158Y-95897966D01*
X126528085Y-95895917D01*
X126543086Y-95893545D01*
X126589984Y-95886531D01*
X126628823Y-95882093D01*
X126638306Y-95881478D01*
X126670375Y-95882219D01*
X126716311Y-95885287D01*
X126734136Y-95886873D01*
X126777845Y-95888763D01*
X126806881Y-95880329D01*
X126835129Y-95856436D01*
X126845255Y-95845776D01*
X126889555Y-95798270D01*
X126872573Y-95311972D01*
X126835039Y-95296429D01*
X126802790Y-95285071D01*
X126784025Y-95281356D01*
X126779735Y-95295318D01*
X126776620Y-95334018D01*
X126774830Y-95393187D01*
X126774513Y-95468551D01*
X126775313Y-95532185D01*
X126780083Y-95782542D01*
X126745630Y-95788647D01*
X126714020Y-95786324D01*
X126698203Y-95775779D01*
X126693167Y-95755210D01*
X126687943Y-95711202D01*
X126683020Y-95649337D01*
X126678887Y-95575199D01*
X126677331Y-95537027D01*
X126669434Y-95317246D01*
X126623196Y-95302917D01*
X126590486Y-95293219D01*
X126572723Y-95288783D01*
X126572214Y-95288753D01*
X126570929Y-95302540D01*
X126570319Y-95340666D01*
X126570382Y-95398451D01*
X126571120Y-95471215D01*
X126572237Y-95539276D01*
X126577006Y-95789633D01*
X126489973Y-95792673D01*
X126478008Y-95564534D01*
X126466043Y-95336395D01*
X126422848Y-95315936D01*
X126390996Y-95301964D01*
X126372216Y-95295774D01*
X126371680Y-95295755D01*
X126369608Y-95309585D01*
G36*
X126962688Y-95395634D02*
X126966658Y-95504041D01*
X126970284Y-95587415D01*
X126974005Y-95649740D01*
X126978261Y-95695000D01*
X126983494Y-95727181D01*
X126990143Y-95750267D01*
X126998649Y-95768243D01*
X127004970Y-95778452D01*
X127056279Y-95833222D01*
X127120068Y-95866448D01*
X127189720Y-95876736D01*
X127258617Y-95862696D01*
X127299156Y-95840373D01*
X127341218Y-95802736D01*
X127369203Y-95757586D01*
X127385001Y-95699185D01*
X127390496Y-95621797D01*
X127389681Y-95565192D01*
X127389383Y-95561133D01*
X127288045Y-95564671D01*
X127289692Y-95629557D01*
X127288355Y-95672593D01*
X127282814Y-95700912D01*
X127271848Y-95721638D01*
X127258431Y-95737451D01*
X127212611Y-95768671D01*
X127162394Y-95772956D01*
X127113985Y-95749917D01*
X127110168Y-95746699D01*
X127093765Y-95729840D01*
X127083138Y-95709473D01*
X127076700Y-95678832D01*
X127072863Y-95631152D01*
X127070677Y-95578367D01*
X127069104Y-95512014D01*
X127070636Y-95467659D01*
X127076304Y-95438346D01*
X127087135Y-95417119D01*
X127096226Y-95405729D01*
X127139278Y-95376300D01*
X127189866Y-95371176D01*
X127239008Y-95390789D01*
X127248625Y-95398372D01*
X127265138Y-95415380D01*
X127275793Y-95435961D01*
X127282210Y-95466951D01*
X127286011Y-95515187D01*
X127288045Y-95564671D01*
X127389383Y-95561133D01*
X127382994Y-95474224D01*
X127368695Y-95406199D01*
X127344503Y-95355527D01*
X127308134Y-95316615D01*
X127280181Y-95296997D01*
X127229903Y-95276503D01*
X127172169Y-95268192D01*
X127118932Y-95272816D01*
X127089478Y-95284996D01*
X127077878Y-95288574D01*
X127069694Y-95277027D01*
X127063163Y-95245544D01*
X127057375Y-95197444D01*
X127051005Y-95143870D01*
X127043634Y-95111760D01*
X127031633Y-95093671D01*
X127011366Y-95082157D01*
X126998713Y-95077187D01*
X126950881Y-95059084D01*
X126962688Y-95395634D01*
X126962688Y-95395634D01*
G37*
X126962688Y-95395634D02*
X126966658Y-95504041D01*
X126970284Y-95587415D01*
X126974005Y-95649740D01*
X126978261Y-95695000D01*
X126983494Y-95727181D01*
X126990143Y-95750267D01*
X126998649Y-95768243D01*
X127004970Y-95778452D01*
X127056279Y-95833222D01*
X127120068Y-95866448D01*
X127189720Y-95876736D01*
X127258617Y-95862696D01*
X127299156Y-95840373D01*
X127341218Y-95802736D01*
X127369203Y-95757586D01*
X127385001Y-95699185D01*
X127390496Y-95621797D01*
X127389681Y-95565192D01*
X127389383Y-95561133D01*
X127288045Y-95564671D01*
X127289692Y-95629557D01*
X127288355Y-95672593D01*
X127282814Y-95700912D01*
X127271848Y-95721638D01*
X127258431Y-95737451D01*
X127212611Y-95768671D01*
X127162394Y-95772956D01*
X127113985Y-95749917D01*
X127110168Y-95746699D01*
X127093765Y-95729840D01*
X127083138Y-95709473D01*
X127076700Y-95678832D01*
X127072863Y-95631152D01*
X127070677Y-95578367D01*
X127069104Y-95512014D01*
X127070636Y-95467659D01*
X127076304Y-95438346D01*
X127087135Y-95417119D01*
X127096226Y-95405729D01*
X127139278Y-95376300D01*
X127189866Y-95371176D01*
X127239008Y-95390789D01*
X127248625Y-95398372D01*
X127265138Y-95415380D01*
X127275793Y-95435961D01*
X127282210Y-95466951D01*
X127286011Y-95515187D01*
X127288045Y-95564671D01*
X127389383Y-95561133D01*
X127382994Y-95474224D01*
X127368695Y-95406199D01*
X127344503Y-95355527D01*
X127308134Y-95316615D01*
X127280181Y-95296997D01*
X127229903Y-95276503D01*
X127172169Y-95268192D01*
X127118932Y-95272816D01*
X127089478Y-95284996D01*
X127077878Y-95288574D01*
X127069694Y-95277027D01*
X127063163Y-95245544D01*
X127057375Y-95197444D01*
X127051005Y-95143870D01*
X127043634Y-95111760D01*
X127031633Y-95093671D01*
X127011366Y-95082157D01*
X126998713Y-95077187D01*
X126950881Y-95059084D01*
X126962688Y-95395634D01*
G36*
X127618442Y-95257061D02*
X127553400Y-95283677D01*
X127501519Y-95328548D01*
X127481698Y-95359550D01*
X127460877Y-95415896D01*
X127462752Y-95456047D01*
X127487585Y-95482227D01*
X127496585Y-95486512D01*
X127535249Y-95499502D01*
X127554611Y-95495151D01*
X127560373Y-95470870D01*
X127560245Y-95457574D01*
X127570625Y-95408277D01*
X127600932Y-95372987D01*
X127644141Y-95354945D01*
X127693220Y-95357392D01*
X127733751Y-95377583D01*
X127747616Y-95389423D01*
X127757661Y-95404024D01*
X127764881Y-95426374D01*
X127770277Y-95461460D01*
X127774843Y-95514271D01*
X127779577Y-95589793D01*
X127780954Y-95613709D01*
X127785791Y-95695523D01*
X127790052Y-95753074D01*
X127794756Y-95791086D01*
X127800920Y-95814281D01*
X127809565Y-95827382D01*
X127821707Y-95835110D01*
X127829425Y-95838441D01*
X127862095Y-95849616D01*
X127881216Y-95853013D01*
X127887013Y-95839236D01*
X127889410Y-95798113D01*
X127888409Y-95729171D01*
X127884015Y-95631935D01*
X127883181Y-95616943D01*
X127877891Y-95528276D01*
X127873037Y-95463566D01*
X127867747Y-95417771D01*
X127861147Y-95385850D01*
X127852365Y-95362760D01*
X127840526Y-95343460D01*
X127834398Y-95335227D01*
X127799649Y-95299065D01*
X127761226Y-95271335D01*
X127756559Y-95268960D01*
X127688784Y-95251291D01*
X127618442Y-95257061D01*
X127618442Y-95257061D01*
G37*
X127618442Y-95257061D02*
X127553400Y-95283677D01*
X127501519Y-95328548D01*
X127481698Y-95359550D01*
X127460877Y-95415896D01*
X127462752Y-95456047D01*
X127487585Y-95482227D01*
X127496585Y-95486512D01*
X127535249Y-95499502D01*
X127554611Y-95495151D01*
X127560373Y-95470870D01*
X127560245Y-95457574D01*
X127570625Y-95408277D01*
X127600932Y-95372987D01*
X127644141Y-95354945D01*
X127693220Y-95357392D01*
X127733751Y-95377583D01*
X127747616Y-95389423D01*
X127757661Y-95404024D01*
X127764881Y-95426374D01*
X127770277Y-95461460D01*
X127774843Y-95514271D01*
X127779577Y-95589793D01*
X127780954Y-95613709D01*
X127785791Y-95695523D01*
X127790052Y-95753074D01*
X127794756Y-95791086D01*
X127800920Y-95814281D01*
X127809565Y-95827382D01*
X127821707Y-95835110D01*
X127829425Y-95838441D01*
X127862095Y-95849616D01*
X127881216Y-95853013D01*
X127887013Y-95839236D01*
X127889410Y-95798113D01*
X127888409Y-95729171D01*
X127884015Y-95631935D01*
X127883181Y-95616943D01*
X127877891Y-95528276D01*
X127873037Y-95463566D01*
X127867747Y-95417771D01*
X127861147Y-95385850D01*
X127852365Y-95362760D01*
X127840526Y-95343460D01*
X127834398Y-95335227D01*
X127799649Y-95299065D01*
X127761226Y-95271335D01*
X127756559Y-95268960D01*
X127688784Y-95251291D01*
X127618442Y-95257061D01*
G36*
X128108368Y-95241167D02*
X128052268Y-95264258D01*
X128051631Y-95264686D01*
X128017383Y-95291785D01*
X127992488Y-95322926D01*
X127975612Y-95362964D01*
X127965421Y-95416756D01*
X127960581Y-95489158D01*
X127959758Y-95585026D01*
X127959869Y-95598677D01*
X127961807Y-95804499D01*
X128006737Y-95825780D01*
X128039209Y-95840087D01*
X128058745Y-95846722D01*
X128059640Y-95846782D01*
X128062506Y-95833182D01*
X128063886Y-95796715D01*
X128063661Y-95743517D01*
X128062514Y-95700472D01*
X128060087Y-95630762D01*
X128061746Y-95586873D01*
X128072125Y-95565605D01*
X128095862Y-95563757D01*
X128137593Y-95578125D01*
X128200780Y-95605010D01*
X128247340Y-95627547D01*
X128271585Y-95647663D01*
X128279295Y-95670242D01*
X128279344Y-95671371D01*
X128269311Y-95711080D01*
X128236280Y-95733496D01*
X128184702Y-95738376D01*
X128147454Y-95739144D01*
X128128198Y-95750552D01*
X128116856Y-95776734D01*
X128110956Y-95809792D01*
X128121760Y-95828055D01*
X128125676Y-95830586D01*
X128162044Y-95840030D01*
X128212501Y-95839785D01*
X128264162Y-95830880D01*
X128300491Y-95816632D01*
X128349836Y-95771680D01*
X128376643Y-95710568D01*
X128380728Y-95663413D01*
X128374881Y-95621211D01*
X128357865Y-95587190D01*
X128325490Y-95557577D01*
X128273566Y-95528598D01*
X128197901Y-95496481D01*
X128193297Y-95494677D01*
X128125149Y-95466037D01*
X128082876Y-95442073D01*
X128064340Y-95419858D01*
X128067400Y-95396468D01*
X128089918Y-95368976D01*
X128096716Y-95362593D01*
X128142853Y-95337154D01*
X128191555Y-95336456D01*
X128234755Y-95358310D01*
X128264385Y-95400526D01*
X128267294Y-95408914D01*
X128294176Y-95449149D01*
X128327155Y-95467829D01*
X128374527Y-95485829D01*
X128372753Y-95435040D01*
X128355974Y-95361713D01*
X128311456Y-95295471D01*
X128288729Y-95273585D01*
X128237851Y-95246252D01*
X128173980Y-95235305D01*
X128108368Y-95241167D01*
X128108368Y-95241167D01*
G37*
X128108368Y-95241167D02*
X128052268Y-95264258D01*
X128051631Y-95264686D01*
X128017383Y-95291785D01*
X127992488Y-95322926D01*
X127975612Y-95362964D01*
X127965421Y-95416756D01*
X127960581Y-95489158D01*
X127959758Y-95585026D01*
X127959869Y-95598677D01*
X127961807Y-95804499D01*
X128006737Y-95825780D01*
X128039209Y-95840087D01*
X128058745Y-95846722D01*
X128059640Y-95846782D01*
X128062506Y-95833182D01*
X128063886Y-95796715D01*
X128063661Y-95743517D01*
X128062514Y-95700472D01*
X128060087Y-95630762D01*
X128061746Y-95586873D01*
X128072125Y-95565605D01*
X128095862Y-95563757D01*
X128137593Y-95578125D01*
X128200780Y-95605010D01*
X128247340Y-95627547D01*
X128271585Y-95647663D01*
X128279295Y-95670242D01*
X128279344Y-95671371D01*
X128269311Y-95711080D01*
X128236280Y-95733496D01*
X128184702Y-95738376D01*
X128147454Y-95739144D01*
X128128198Y-95750552D01*
X128116856Y-95776734D01*
X128110956Y-95809792D01*
X128121760Y-95828055D01*
X128125676Y-95830586D01*
X128162044Y-95840030D01*
X128212501Y-95839785D01*
X128264162Y-95830880D01*
X128300491Y-95816632D01*
X128349836Y-95771680D01*
X128376643Y-95710568D01*
X128380728Y-95663413D01*
X128374881Y-95621211D01*
X128357865Y-95587190D01*
X128325490Y-95557577D01*
X128273566Y-95528598D01*
X128197901Y-95496481D01*
X128193297Y-95494677D01*
X128125149Y-95466037D01*
X128082876Y-95442073D01*
X128064340Y-95419858D01*
X128067400Y-95396468D01*
X128089918Y-95368976D01*
X128096716Y-95362593D01*
X128142853Y-95337154D01*
X128191555Y-95336456D01*
X128234755Y-95358310D01*
X128264385Y-95400526D01*
X128267294Y-95408914D01*
X128294176Y-95449149D01*
X128327155Y-95467829D01*
X128374527Y-95485829D01*
X128372753Y-95435040D01*
X128355974Y-95361713D01*
X128311456Y-95295471D01*
X128288729Y-95273585D01*
X128237851Y-95246252D01*
X128173980Y-95235305D01*
X128108368Y-95241167D01*
G36*
X128768343Y-95118380D02*
X128766163Y-95177816D01*
X128762500Y-95212924D01*
X128756266Y-95228399D01*
X128746372Y-95228940D01*
X128743098Y-95227233D01*
X128699934Y-95215553D01*
X128644412Y-95218262D01*
X128588409Y-95233774D01*
X128553698Y-95252525D01*
X128518458Y-95281772D01*
X128493088Y-95314366D01*
X128476318Y-95355240D01*
X128466877Y-95409332D01*
X128463497Y-95481577D01*
X128464904Y-95576911D01*
X128465508Y-95595187D01*
X128472653Y-95800472D01*
X128518891Y-95814801D01*
X128551713Y-95824501D01*
X128569691Y-95828925D01*
X128570216Y-95828952D01*
X128571491Y-95815214D01*
X128571666Y-95777432D01*
X128570799Y-95720576D01*
X128568950Y-95649607D01*
X128567541Y-95606469D01*
X128564773Y-95521414D01*
X128563683Y-95460423D01*
X128564750Y-95418556D01*
X128568453Y-95390875D01*
X128575271Y-95372440D01*
X128585680Y-95358310D01*
X128592249Y-95351452D01*
X128638023Y-95323139D01*
X128688923Y-95319360D01*
X128735953Y-95340312D01*
X128744790Y-95348160D01*
X128757868Y-95363042D01*
X128767202Y-95380909D01*
X128773673Y-95406990D01*
X128778160Y-95446510D01*
X128781543Y-95504698D01*
X128784637Y-95584980D01*
X128791773Y-95789328D01*
X128838010Y-95803657D01*
X128870833Y-95813357D01*
X128888810Y-95817781D01*
X128889335Y-95817808D01*
X128890190Y-95803879D01*
X128890030Y-95764677D01*
X128888937Y-95703939D01*
X128886994Y-95625400D01*
X128884281Y-95532795D01*
X128880882Y-95429862D01*
X128867021Y-95032937D01*
X128819184Y-95014697D01*
X128771347Y-94996459D01*
X128768343Y-95118380D01*
X128768343Y-95118380D01*
G37*
X128768343Y-95118380D02*
X128766163Y-95177816D01*
X128762500Y-95212924D01*
X128756266Y-95228399D01*
X128746372Y-95228940D01*
X128743098Y-95227233D01*
X128699934Y-95215553D01*
X128644412Y-95218262D01*
X128588409Y-95233774D01*
X128553698Y-95252525D01*
X128518458Y-95281772D01*
X128493088Y-95314366D01*
X128476318Y-95355240D01*
X128466877Y-95409332D01*
X128463497Y-95481577D01*
X128464904Y-95576911D01*
X128465508Y-95595187D01*
X128472653Y-95800472D01*
X128518891Y-95814801D01*
X128551713Y-95824501D01*
X128569691Y-95828925D01*
X128570216Y-95828952D01*
X128571491Y-95815214D01*
X128571666Y-95777432D01*
X128570799Y-95720576D01*
X128568950Y-95649607D01*
X128567541Y-95606469D01*
X128564773Y-95521414D01*
X128563683Y-95460423D01*
X128564750Y-95418556D01*
X128568453Y-95390875D01*
X128575271Y-95372440D01*
X128585680Y-95358310D01*
X128592249Y-95351452D01*
X128638023Y-95323139D01*
X128688923Y-95319360D01*
X128735953Y-95340312D01*
X128744790Y-95348160D01*
X128757868Y-95363042D01*
X128767202Y-95380909D01*
X128773673Y-95406990D01*
X128778160Y-95446510D01*
X128781543Y-95504698D01*
X128784637Y-95584980D01*
X128791773Y-95789328D01*
X128838010Y-95803657D01*
X128870833Y-95813357D01*
X128888810Y-95817781D01*
X128889335Y-95817808D01*
X128890190Y-95803879D01*
X128890030Y-95764677D01*
X128888937Y-95703939D01*
X128886994Y-95625400D01*
X128884281Y-95532795D01*
X128880882Y-95429862D01*
X128867021Y-95032937D01*
X128819184Y-95014697D01*
X128771347Y-94996459D01*
X128768343Y-95118380D01*
G36*
X129977980Y-95156137D02*
X129922135Y-95196607D01*
X129879880Y-95253716D01*
X129855947Y-95325346D01*
X129852425Y-95377577D01*
X129853790Y-95399274D01*
X129859449Y-95415724D01*
X129873927Y-95430134D01*
X129901754Y-95445708D01*
X129947455Y-95465650D01*
X130015557Y-95493166D01*
X130015903Y-95493304D01*
X130078616Y-95519420D01*
X130130110Y-95542758D01*
X130165116Y-95560793D01*
X130178366Y-95571006D01*
X130178373Y-95571091D01*
X130167833Y-95594706D01*
X130142184Y-95621225D01*
X130112354Y-95640725D01*
X130097044Y-95644927D01*
X130054483Y-95633731D01*
X130017104Y-95603276D01*
X129998188Y-95569017D01*
X129980266Y-95543900D01*
X129945893Y-95515783D01*
X129905807Y-95491857D01*
X129870741Y-95479309D01*
X129863482Y-95478805D01*
X129855775Y-95491527D01*
X129856394Y-95523337D01*
X129863875Y-95565996D01*
X129876749Y-95611266D01*
X129893549Y-95650907D01*
X129894382Y-95652440D01*
X129942980Y-95715522D01*
X130004574Y-95757433D01*
X130073532Y-95776653D01*
X130144228Y-95771656D01*
X130211030Y-95740925D01*
X130213975Y-95738825D01*
X130265615Y-95688632D01*
X130298479Y-95624350D01*
X130314990Y-95540758D01*
X130316781Y-95517372D01*
X130317553Y-95407255D01*
X130310234Y-95356173D01*
X130171038Y-95361033D01*
X130170346Y-95393082D01*
X130160780Y-95402762D01*
X130135875Y-95396639D01*
X130096425Y-95381489D01*
X130052249Y-95362313D01*
X130051150Y-95361803D01*
X130013643Y-95343717D01*
X129998409Y-95331305D01*
X130001581Y-95317624D01*
X130016307Y-95299280D01*
X130054456Y-95272145D01*
X130096441Y-95268783D01*
X130134816Y-95286221D01*
X130162132Y-95321487D01*
X130171038Y-95361033D01*
X130310234Y-95356173D01*
X130304994Y-95319612D01*
X130278216Y-95250690D01*
X130242624Y-95202993D01*
X130179739Y-95155735D01*
X130111515Y-95133583D01*
X130042685Y-95134424D01*
X129977980Y-95156137D01*
X129977980Y-95156137D01*
G37*
X129977980Y-95156137D02*
X129922135Y-95196607D01*
X129879880Y-95253716D01*
X129855947Y-95325346D01*
X129852425Y-95377577D01*
X129853790Y-95399274D01*
X129859449Y-95415724D01*
X129873927Y-95430134D01*
X129901754Y-95445708D01*
X129947455Y-95465650D01*
X130015557Y-95493166D01*
X130015903Y-95493304D01*
X130078616Y-95519420D01*
X130130110Y-95542758D01*
X130165116Y-95560793D01*
X130178366Y-95571006D01*
X130178373Y-95571091D01*
X130167833Y-95594706D01*
X130142184Y-95621225D01*
X130112354Y-95640725D01*
X130097044Y-95644927D01*
X130054483Y-95633731D01*
X130017104Y-95603276D01*
X129998188Y-95569017D01*
X129980266Y-95543900D01*
X129945893Y-95515783D01*
X129905807Y-95491857D01*
X129870741Y-95479309D01*
X129863482Y-95478805D01*
X129855775Y-95491527D01*
X129856394Y-95523337D01*
X129863875Y-95565996D01*
X129876749Y-95611266D01*
X129893549Y-95650907D01*
X129894382Y-95652440D01*
X129942980Y-95715522D01*
X130004574Y-95757433D01*
X130073532Y-95776653D01*
X130144228Y-95771656D01*
X130211030Y-95740925D01*
X130213975Y-95738825D01*
X130265615Y-95688632D01*
X130298479Y-95624350D01*
X130314990Y-95540758D01*
X130316781Y-95517372D01*
X130317553Y-95407255D01*
X130310234Y-95356173D01*
X130171038Y-95361033D01*
X130170346Y-95393082D01*
X130160780Y-95402762D01*
X130135875Y-95396639D01*
X130096425Y-95381489D01*
X130052249Y-95362313D01*
X130051150Y-95361803D01*
X130013643Y-95343717D01*
X129998409Y-95331305D01*
X130001581Y-95317624D01*
X130016307Y-95299280D01*
X130054456Y-95272145D01*
X130096441Y-95268783D01*
X130134816Y-95286221D01*
X130162132Y-95321487D01*
X130171038Y-95361033D01*
X130310234Y-95356173D01*
X130304994Y-95319612D01*
X130278216Y-95250690D01*
X130242624Y-95202993D01*
X130179739Y-95155735D01*
X130111515Y-95133583D01*
X130042685Y-95134424D01*
X129977980Y-95156137D01*
G36*
X131104158Y-95107528D02*
X131037418Y-95145651D01*
X130989252Y-95204936D01*
X130972720Y-95242547D01*
X130960790Y-95298567D01*
X130956141Y-95368987D01*
X130958142Y-95445594D01*
X130966164Y-95520185D01*
X130979575Y-95584546D01*
X130997745Y-95630471D01*
X131003109Y-95638302D01*
X131065431Y-95695983D01*
X131138224Y-95729290D01*
X131216220Y-95737058D01*
X131294150Y-95718117D01*
X131315657Y-95707642D01*
X131357152Y-95676226D01*
X131393103Y-95635236D01*
X131396456Y-95630080D01*
X131409951Y-95605321D01*
X131418527Y-95579060D01*
X131422935Y-95544729D01*
X131423931Y-95495761D01*
X131422268Y-95425592D01*
X131421732Y-95409867D01*
X131421521Y-95404863D01*
X131276503Y-95409927D01*
X131277971Y-95476154D01*
X131276184Y-95520199D01*
X131270192Y-95548819D01*
X131259048Y-95568766D01*
X131253239Y-95575505D01*
X131219397Y-95601525D01*
X131185662Y-95601570D01*
X131150839Y-95581241D01*
X131129715Y-95558978D01*
X131116509Y-95525867D01*
X131107904Y-95473227D01*
X131107225Y-95467077D01*
X131102725Y-95371289D01*
X131112297Y-95299698D01*
X131135790Y-95252744D01*
X131173060Y-95230871D01*
X131186580Y-95229277D01*
X131222383Y-95233668D01*
X131247420Y-95252340D01*
X131263616Y-95289153D01*
X131272892Y-95347973D01*
X131276503Y-95409927D01*
X131421521Y-95404863D01*
X131418582Y-95335144D01*
X131414490Y-95283001D01*
X131408257Y-95246987D01*
X131398688Y-95220655D01*
X131384581Y-95197556D01*
X131381492Y-95193277D01*
X131330089Y-95135947D01*
X131275129Y-95103543D01*
X131209201Y-95092221D01*
X131186951Y-95092332D01*
X131104158Y-95107528D01*
X131104158Y-95107528D01*
G37*
X131104158Y-95107528D02*
X131037418Y-95145651D01*
X130989252Y-95204936D01*
X130972720Y-95242547D01*
X130960790Y-95298567D01*
X130956141Y-95368987D01*
X130958142Y-95445594D01*
X130966164Y-95520185D01*
X130979575Y-95584546D01*
X130997745Y-95630471D01*
X131003109Y-95638302D01*
X131065431Y-95695983D01*
X131138224Y-95729290D01*
X131216220Y-95737058D01*
X131294150Y-95718117D01*
X131315657Y-95707642D01*
X131357152Y-95676226D01*
X131393103Y-95635236D01*
X131396456Y-95630080D01*
X131409951Y-95605321D01*
X131418527Y-95579060D01*
X131422935Y-95544729D01*
X131423931Y-95495761D01*
X131422268Y-95425592D01*
X131421732Y-95409867D01*
X131421521Y-95404863D01*
X131276503Y-95409927D01*
X131277971Y-95476154D01*
X131276184Y-95520199D01*
X131270192Y-95548819D01*
X131259048Y-95568766D01*
X131253239Y-95575505D01*
X131219397Y-95601525D01*
X131185662Y-95601570D01*
X131150839Y-95581241D01*
X131129715Y-95558978D01*
X131116509Y-95525867D01*
X131107904Y-95473227D01*
X131107225Y-95467077D01*
X131102725Y-95371289D01*
X131112297Y-95299698D01*
X131135790Y-95252744D01*
X131173060Y-95230871D01*
X131186580Y-95229277D01*
X131222383Y-95233668D01*
X131247420Y-95252340D01*
X131263616Y-95289153D01*
X131272892Y-95347973D01*
X131276503Y-95409927D01*
X131421521Y-95404863D01*
X131418582Y-95335144D01*
X131414490Y-95283001D01*
X131408257Y-95246987D01*
X131398688Y-95220655D01*
X131384581Y-95197556D01*
X131381492Y-95193277D01*
X131330089Y-95135947D01*
X131275129Y-95103543D01*
X131209201Y-95092221D01*
X131186951Y-95092332D01*
X131104158Y-95107528D01*
G36*
X129430403Y-95171798D02*
X129384793Y-95200350D01*
X129353361Y-95228207D01*
X129330668Y-95257035D01*
X129315557Y-95291847D01*
X129306871Y-95337657D01*
X129303451Y-95399479D01*
X129304141Y-95482325D01*
X129305964Y-95541832D01*
X129313612Y-95760844D01*
X129376224Y-95786327D01*
X129438838Y-95811810D01*
X129437713Y-95571676D01*
X129437582Y-95481984D01*
X129438455Y-95416848D01*
X129440782Y-95371804D01*
X129445012Y-95342382D01*
X129451594Y-95324119D01*
X129460977Y-95312548D01*
X129464028Y-95310008D01*
X129510887Y-95289364D01*
X129559185Y-95295199D01*
X129588474Y-95314131D01*
X129600599Y-95327848D01*
X129609297Y-95346101D01*
X129615396Y-95374019D01*
X129619719Y-95416733D01*
X129623092Y-95479376D01*
X129625572Y-95544695D01*
X129628473Y-95626650D01*
X129631902Y-95684614D01*
X129637966Y-95723575D01*
X129648770Y-95748528D01*
X129666421Y-95764465D01*
X129693024Y-95776377D01*
X129728425Y-95788484D01*
X129767087Y-95801659D01*
X129753554Y-95544356D01*
X129748484Y-95451607D01*
X129743950Y-95383093D01*
X129739166Y-95334052D01*
X129733351Y-95299721D01*
X129725722Y-95275337D01*
X129715494Y-95256136D01*
X129703385Y-95239302D01*
X129645940Y-95186185D01*
X129577079Y-95156712D01*
X129503125Y-95151659D01*
X129430403Y-95171798D01*
X129430403Y-95171798D01*
G37*
X129430403Y-95171798D02*
X129384793Y-95200350D01*
X129353361Y-95228207D01*
X129330668Y-95257035D01*
X129315557Y-95291847D01*
X129306871Y-95337657D01*
X129303451Y-95399479D01*
X129304141Y-95482325D01*
X129305964Y-95541832D01*
X129313612Y-95760844D01*
X129376224Y-95786327D01*
X129438838Y-95811810D01*
X129437713Y-95571676D01*
X129437582Y-95481984D01*
X129438455Y-95416848D01*
X129440782Y-95371804D01*
X129445012Y-95342382D01*
X129451594Y-95324119D01*
X129460977Y-95312548D01*
X129464028Y-95310008D01*
X129510887Y-95289364D01*
X129559185Y-95295199D01*
X129588474Y-95314131D01*
X129600599Y-95327848D01*
X129609297Y-95346101D01*
X129615396Y-95374019D01*
X129619719Y-95416733D01*
X129623092Y-95479376D01*
X129625572Y-95544695D01*
X129628473Y-95626650D01*
X129631902Y-95684614D01*
X129637966Y-95723575D01*
X129648770Y-95748528D01*
X129666421Y-95764465D01*
X129693024Y-95776377D01*
X129728425Y-95788484D01*
X129767087Y-95801659D01*
X129753554Y-95544356D01*
X129748484Y-95451607D01*
X129743950Y-95383093D01*
X129739166Y-95334052D01*
X129733351Y-95299721D01*
X129725722Y-95275337D01*
X129715494Y-95256136D01*
X129703385Y-95239302D01*
X129645940Y-95186185D01*
X129577079Y-95156712D01*
X129503125Y-95151659D01*
X129430403Y-95171798D01*
G36*
X130545798Y-95124981D02*
X130491340Y-95154549D01*
X130444199Y-95207139D01*
X130431385Y-95226455D01*
X130417570Y-95251630D01*
X130408983Y-95278747D01*
X130404784Y-95314687D01*
X130404131Y-95366323D01*
X130405969Y-95434398D01*
X130411659Y-95527577D01*
X130422557Y-95597308D01*
X130440591Y-95648985D01*
X130467690Y-95688001D01*
X130505778Y-95719751D01*
X130508559Y-95721612D01*
X130545658Y-95740350D01*
X130589835Y-95748721D01*
X130645664Y-95749215D01*
X130736285Y-95746050D01*
X130739395Y-95834021D01*
X130741950Y-95882987D01*
X130748092Y-95911547D01*
X130762123Y-95928313D01*
X130788342Y-95941904D01*
X130794621Y-95944647D01*
X130824002Y-95957509D01*
X130846683Y-95965488D01*
X130863346Y-95965664D01*
X130874678Y-95955114D01*
X130881363Y-95930916D01*
X130884086Y-95890149D01*
X130883534Y-95829891D01*
X130880391Y-95747220D01*
X130875340Y-95639214D01*
X130873813Y-95606909D01*
X130868486Y-95495551D01*
X130864655Y-95422719D01*
X130725241Y-95427588D01*
X130726618Y-95489473D01*
X130724548Y-95530068D01*
X130717601Y-95557038D01*
X130704345Y-95578049D01*
X130695209Y-95588391D01*
X130657448Y-95619034D01*
X130623193Y-95622617D01*
X130586917Y-95599667D01*
X130585989Y-95598806D01*
X130570920Y-95580617D01*
X130561264Y-95555517D01*
X130555474Y-95516548D01*
X130552006Y-95456745D01*
X130551518Y-95443487D01*
X130551967Y-95360892D01*
X130560807Y-95303339D01*
X130579205Y-95267750D01*
X130608330Y-95251051D01*
X130625423Y-95248873D01*
X130666382Y-95254860D01*
X130695151Y-95278274D01*
X130713514Y-95322310D01*
X130723255Y-95390161D01*
X130725241Y-95427588D01*
X130864655Y-95422719D01*
X130863953Y-95409378D01*
X130859720Y-95344574D01*
X130855295Y-95297324D01*
X130850185Y-95263814D01*
X130843897Y-95240227D01*
X130835939Y-95222750D01*
X130825818Y-95207564D01*
X130821506Y-95201868D01*
X130765095Y-95148609D01*
X130695114Y-95119738D01*
X130615122Y-95113802D01*
X130545798Y-95124981D01*
X130545798Y-95124981D01*
G37*
X130545798Y-95124981D02*
X130491340Y-95154549D01*
X130444199Y-95207139D01*
X130431385Y-95226455D01*
X130417570Y-95251630D01*
X130408983Y-95278747D01*
X130404784Y-95314687D01*
X130404131Y-95366323D01*
X130405969Y-95434398D01*
X130411659Y-95527577D01*
X130422557Y-95597308D01*
X130440591Y-95648985D01*
X130467690Y-95688001D01*
X130505778Y-95719751D01*
X130508559Y-95721612D01*
X130545658Y-95740350D01*
X130589835Y-95748721D01*
X130645664Y-95749215D01*
X130736285Y-95746050D01*
X130739395Y-95834021D01*
X130741950Y-95882987D01*
X130748092Y-95911547D01*
X130762123Y-95928313D01*
X130788342Y-95941904D01*
X130794621Y-95944647D01*
X130824002Y-95957509D01*
X130846683Y-95965488D01*
X130863346Y-95965664D01*
X130874678Y-95955114D01*
X130881363Y-95930916D01*
X130884086Y-95890149D01*
X130883534Y-95829891D01*
X130880391Y-95747220D01*
X130875340Y-95639214D01*
X130873813Y-95606909D01*
X130868486Y-95495551D01*
X130864655Y-95422719D01*
X130725241Y-95427588D01*
X130726618Y-95489473D01*
X130724548Y-95530068D01*
X130717601Y-95557038D01*
X130704345Y-95578049D01*
X130695209Y-95588391D01*
X130657448Y-95619034D01*
X130623193Y-95622617D01*
X130586917Y-95599667D01*
X130585989Y-95598806D01*
X130570920Y-95580617D01*
X130561264Y-95555517D01*
X130555474Y-95516548D01*
X130552006Y-95456745D01*
X130551518Y-95443487D01*
X130551967Y-95360892D01*
X130560807Y-95303339D01*
X130579205Y-95267750D01*
X130608330Y-95251051D01*
X130625423Y-95248873D01*
X130666382Y-95254860D01*
X130695151Y-95278274D01*
X130713514Y-95322310D01*
X130723255Y-95390161D01*
X130725241Y-95427588D01*
X130864655Y-95422719D01*
X130863953Y-95409378D01*
X130859720Y-95344574D01*
X130855295Y-95297324D01*
X130850185Y-95263814D01*
X130843897Y-95240227D01*
X130835939Y-95222750D01*
X130825818Y-95207564D01*
X130821506Y-95201868D01*
X130765095Y-95148609D01*
X130695114Y-95119738D01*
X130615122Y-95113802D01*
X130545798Y-95124981D01*
G04 #@! TO.C,R8*
D13*
X174398274Y-75433824D02*
X174734992Y-75770541D01*
X174431946Y-76140931D01*
X174431946Y-76073587D01*
X174398274Y-75972572D01*
X174229915Y-75804213D01*
X174128900Y-75770541D01*
X174061557Y-75770541D01*
X173960541Y-75804213D01*
X173792183Y-75972572D01*
X173758511Y-76073587D01*
X173758511Y-76140931D01*
X173792183Y-76241946D01*
X173960541Y-76410305D01*
X174061557Y-76443976D01*
X174128900Y-76443976D01*
X173960541Y-74996091D02*
X173792183Y-75164450D01*
X174027885Y-75265465D02*
X173792183Y-75164450D01*
X173691167Y-74928748D01*
X173758511Y-75400152D02*
X173792183Y-75164450D01*
X173556480Y-75198122D01*
X173388122Y-74423671D02*
X173320778Y-74356328D01*
X173219763Y-74322656D01*
X173152419Y-74322656D01*
X173051404Y-74356328D01*
X172883045Y-74457343D01*
X172714687Y-74625702D01*
X172613671Y-74794061D01*
X172580000Y-74895076D01*
X172580000Y-74962419D01*
X172613671Y-75063435D01*
X172681015Y-75130778D01*
X172782030Y-75164450D01*
X172849374Y-75164450D01*
X172950389Y-75130778D01*
X173118748Y-75029763D01*
X173287106Y-74861404D01*
X173388122Y-74693045D01*
X173421793Y-74592030D01*
X173421793Y-74524687D01*
X173388122Y-74423671D01*
X172512656Y-74221641D02*
X172276954Y-73985938D01*
X171805549Y-74255312D02*
X172142267Y-74592030D01*
X172849374Y-73884923D01*
X172512656Y-73548206D01*
X172074923Y-73110473D02*
X172007580Y-73043129D01*
X171906564Y-73009458D01*
X171839221Y-73009458D01*
X171738206Y-73043129D01*
X171569847Y-73144145D01*
X171401488Y-73312503D01*
X171300473Y-73480862D01*
X171266801Y-73581877D01*
X171266801Y-73649221D01*
X171300473Y-73750236D01*
X171367816Y-73817580D01*
X171468832Y-73851251D01*
X171536175Y-73851251D01*
X171637190Y-73817580D01*
X171805549Y-73716564D01*
X171973908Y-73548206D01*
X172074923Y-73379847D01*
X172108595Y-73278832D01*
X172108595Y-73211488D01*
X172074923Y-73110473D01*
X171199458Y-72235007D02*
X171536175Y-72571725D01*
X171233129Y-72942114D01*
X171233129Y-72874771D01*
X171199458Y-72773755D01*
X171031099Y-72605397D01*
X170930084Y-72571725D01*
X170862740Y-72571725D01*
X170761725Y-72605397D01*
X170593366Y-72773755D01*
X170559694Y-72874771D01*
X170559694Y-72942114D01*
X170593366Y-73043129D01*
X170761725Y-73211488D01*
X170862740Y-73245160D01*
X170930084Y-73245160D01*
G04 #@! TD*
%LPC*%
D14*
G04 #@! TO.C,470uF*
X111150400Y-121437400D03*
X110134400Y-122453400D03*
X117754400Y-122453400D03*
X118770400Y-121437400D03*
G04 #@! TD*
G04 #@! TO.C,470uF*
X132923138Y-84973006D03*
X133048367Y-83541633D03*
X129420783Y-87911831D03*
X129546012Y-86480458D03*
G04 #@! TD*
G04 #@! TO.C,C2*
X172214380Y-125895356D03*
X172389487Y-127321487D03*
X174666333Y-125232387D03*
X174891535Y-124119012D03*
G04 #@! TD*
G04 #@! TO.C,C18*
X120435969Y-138411949D03*
X118999128Y-138411949D03*
X122591231Y-142004051D03*
X124028072Y-142004051D03*
G04 #@! TD*
G04 #@! TO.C,C1*
X113190000Y-132010000D03*
X110650000Y-132010000D03*
X113952000Y-130994000D03*
X109888000Y-133026000D03*
G04 #@! TD*
D15*
G04 #@! TO.C,J4*
X109060000Y-143750000D03*
D16*
X108359964Y-144450036D02*
X109760036Y-143049964D01*
D15*
X112595534Y-147285534D03*
D17*
G36*
X114767766Y-146585498D02*
X111895498Y-149457766D01*
X110423302Y-147985570D01*
X113295570Y-145113302D01*
X114767766Y-146585498D01*
X114767766Y-146585498D01*
G37*
G04 #@! TD*
D18*
G04 #@! TO.C,Q4*
X154432320Y-71664422D03*
X161616525Y-64480218D03*
D19*
X164310602Y-70766398D03*
X162514551Y-72562449D03*
D17*
G36*
X160689495Y-73262590D02*
X160730800Y-73268717D01*
X160771305Y-73278863D01*
X160810621Y-73292930D01*
X160848368Y-73310784D01*
X160884184Y-73332251D01*
X160917723Y-73357125D01*
X160948663Y-73385167D01*
X161691833Y-74128337D01*
X161719875Y-74159277D01*
X161744749Y-74192816D01*
X161766216Y-74228632D01*
X161784070Y-74266379D01*
X161798137Y-74305695D01*
X161808283Y-74346200D01*
X161814410Y-74387505D01*
X161816459Y-74429211D01*
X161814410Y-74470917D01*
X161808283Y-74512222D01*
X161798137Y-74552727D01*
X161784070Y-74592043D01*
X161766216Y-74629790D01*
X161744749Y-74665606D01*
X161719875Y-74699145D01*
X161691833Y-74730085D01*
X161090085Y-75331833D01*
X161059145Y-75359875D01*
X161025606Y-75384749D01*
X160989790Y-75406216D01*
X160952043Y-75424070D01*
X160912727Y-75438137D01*
X160872222Y-75448283D01*
X160830917Y-75454410D01*
X160789211Y-75456459D01*
X160747505Y-75454410D01*
X160706200Y-75448283D01*
X160665695Y-75438137D01*
X160626379Y-75424070D01*
X160588632Y-75406216D01*
X160552816Y-75384749D01*
X160519277Y-75359875D01*
X160488337Y-75331833D01*
X159745167Y-74588663D01*
X159717125Y-74557723D01*
X159692251Y-74524184D01*
X159670784Y-74488368D01*
X159652930Y-74450621D01*
X159638863Y-74411305D01*
X159628717Y-74370800D01*
X159622590Y-74329495D01*
X159620541Y-74287789D01*
X159622590Y-74246083D01*
X159628717Y-74204778D01*
X159638863Y-74164273D01*
X159652930Y-74124957D01*
X159670784Y-74087210D01*
X159692251Y-74051394D01*
X159717125Y-74017855D01*
X159745167Y-73986915D01*
X160346915Y-73385167D01*
X160377855Y-73357125D01*
X160411394Y-73332251D01*
X160447210Y-73310784D01*
X160484957Y-73292930D01*
X160524273Y-73278863D01*
X160564778Y-73268717D01*
X160606083Y-73262590D01*
X160647789Y-73260541D01*
X160689495Y-73262590D01*
X160689495Y-73262590D01*
G37*
D20*
X160718500Y-74358500D03*
G04 #@! TD*
D17*
G04 #@! TO.C,Q3*
G36*
X148878495Y-85073590D02*
X148919800Y-85079717D01*
X148960305Y-85089863D01*
X148999621Y-85103930D01*
X149037368Y-85121784D01*
X149073184Y-85143251D01*
X149106723Y-85168125D01*
X149137663Y-85196167D01*
X149880833Y-85939337D01*
X149908875Y-85970277D01*
X149933749Y-86003816D01*
X149955216Y-86039632D01*
X149973070Y-86077379D01*
X149987137Y-86116695D01*
X149997283Y-86157200D01*
X150003410Y-86198505D01*
X150005459Y-86240211D01*
X150003410Y-86281917D01*
X149997283Y-86323222D01*
X149987137Y-86363727D01*
X149973070Y-86403043D01*
X149955216Y-86440790D01*
X149933749Y-86476606D01*
X149908875Y-86510145D01*
X149880833Y-86541085D01*
X149279085Y-87142833D01*
X149248145Y-87170875D01*
X149214606Y-87195749D01*
X149178790Y-87217216D01*
X149141043Y-87235070D01*
X149101727Y-87249137D01*
X149061222Y-87259283D01*
X149019917Y-87265410D01*
X148978211Y-87267459D01*
X148936505Y-87265410D01*
X148895200Y-87259283D01*
X148854695Y-87249137D01*
X148815379Y-87235070D01*
X148777632Y-87217216D01*
X148741816Y-87195749D01*
X148708277Y-87170875D01*
X148677337Y-87142833D01*
X147934167Y-86399663D01*
X147906125Y-86368723D01*
X147881251Y-86335184D01*
X147859784Y-86299368D01*
X147841930Y-86261621D01*
X147827863Y-86222305D01*
X147817717Y-86181800D01*
X147811590Y-86140495D01*
X147809541Y-86098789D01*
X147811590Y-86057083D01*
X147817717Y-86015778D01*
X147827863Y-85975273D01*
X147841930Y-85935957D01*
X147859784Y-85898210D01*
X147881251Y-85862394D01*
X147906125Y-85828855D01*
X147934167Y-85797915D01*
X148535915Y-85196167D01*
X148566855Y-85168125D01*
X148600394Y-85143251D01*
X148636210Y-85121784D01*
X148673957Y-85103930D01*
X148713273Y-85089863D01*
X148753778Y-85079717D01*
X148795083Y-85073590D01*
X148836789Y-85071541D01*
X148878495Y-85073590D01*
X148878495Y-85073590D01*
G37*
D20*
X148907500Y-86169500D03*
D19*
X150703551Y-84373449D03*
X152499602Y-82577398D03*
D18*
X149805525Y-76291218D03*
X142621320Y-83475422D03*
G04 #@! TD*
D17*
G04 #@! TO.C,IRFZ44N*
G36*
X173579995Y-102599590D02*
X173621300Y-102605717D01*
X173661805Y-102615863D01*
X173701121Y-102629930D01*
X173738868Y-102647784D01*
X173774684Y-102669251D01*
X173808223Y-102694125D01*
X173839163Y-102722167D01*
X174582333Y-103465337D01*
X174610375Y-103496277D01*
X174635249Y-103529816D01*
X174656716Y-103565632D01*
X174674570Y-103603379D01*
X174688637Y-103642695D01*
X174698783Y-103683200D01*
X174704910Y-103724505D01*
X174706959Y-103766211D01*
X174704910Y-103807917D01*
X174698783Y-103849222D01*
X174688637Y-103889727D01*
X174674570Y-103929043D01*
X174656716Y-103966790D01*
X174635249Y-104002606D01*
X174610375Y-104036145D01*
X174582333Y-104067085D01*
X173980585Y-104668833D01*
X173949645Y-104696875D01*
X173916106Y-104721749D01*
X173880290Y-104743216D01*
X173842543Y-104761070D01*
X173803227Y-104775137D01*
X173762722Y-104785283D01*
X173721417Y-104791410D01*
X173679711Y-104793459D01*
X173638005Y-104791410D01*
X173596700Y-104785283D01*
X173556195Y-104775137D01*
X173516879Y-104761070D01*
X173479132Y-104743216D01*
X173443316Y-104721749D01*
X173409777Y-104696875D01*
X173378837Y-104668833D01*
X172635667Y-103925663D01*
X172607625Y-103894723D01*
X172582751Y-103861184D01*
X172561284Y-103825368D01*
X172543430Y-103787621D01*
X172529363Y-103748305D01*
X172519217Y-103707800D01*
X172513090Y-103666495D01*
X172511041Y-103624789D01*
X172513090Y-103583083D01*
X172519217Y-103541778D01*
X172529363Y-103501273D01*
X172543430Y-103461957D01*
X172561284Y-103424210D01*
X172582751Y-103388394D01*
X172607625Y-103354855D01*
X172635667Y-103323915D01*
X173237415Y-102722167D01*
X173268355Y-102694125D01*
X173301894Y-102669251D01*
X173337710Y-102647784D01*
X173375457Y-102629930D01*
X173414773Y-102615863D01*
X173455278Y-102605717D01*
X173496583Y-102599590D01*
X173538289Y-102597541D01*
X173579995Y-102599590D01*
X173579995Y-102599590D01*
G37*
D20*
X173609000Y-103695500D03*
D19*
X171812949Y-105491551D03*
X170016898Y-107287602D03*
D18*
X172710975Y-113573782D03*
X179895180Y-106389578D03*
G04 #@! TD*
G04 #@! TO.C,Q2*
X191642680Y-94642078D03*
X184458475Y-101826282D03*
D19*
X181764398Y-95540102D03*
X183560449Y-93744051D03*
D17*
G36*
X185327495Y-90852090D02*
X185368800Y-90858217D01*
X185409305Y-90868363D01*
X185448621Y-90882430D01*
X185486368Y-90900284D01*
X185522184Y-90921751D01*
X185555723Y-90946625D01*
X185586663Y-90974667D01*
X186329833Y-91717837D01*
X186357875Y-91748777D01*
X186382749Y-91782316D01*
X186404216Y-91818132D01*
X186422070Y-91855879D01*
X186436137Y-91895195D01*
X186446283Y-91935700D01*
X186452410Y-91977005D01*
X186454459Y-92018711D01*
X186452410Y-92060417D01*
X186446283Y-92101722D01*
X186436137Y-92142227D01*
X186422070Y-92181543D01*
X186404216Y-92219290D01*
X186382749Y-92255106D01*
X186357875Y-92288645D01*
X186329833Y-92319585D01*
X185728085Y-92921333D01*
X185697145Y-92949375D01*
X185663606Y-92974249D01*
X185627790Y-92995716D01*
X185590043Y-93013570D01*
X185550727Y-93027637D01*
X185510222Y-93037783D01*
X185468917Y-93043910D01*
X185427211Y-93045959D01*
X185385505Y-93043910D01*
X185344200Y-93037783D01*
X185303695Y-93027637D01*
X185264379Y-93013570D01*
X185226632Y-92995716D01*
X185190816Y-92974249D01*
X185157277Y-92949375D01*
X185126337Y-92921333D01*
X184383167Y-92178163D01*
X184355125Y-92147223D01*
X184330251Y-92113684D01*
X184308784Y-92077868D01*
X184290930Y-92040121D01*
X184276863Y-92000805D01*
X184266717Y-91960300D01*
X184260590Y-91918995D01*
X184258541Y-91877289D01*
X184260590Y-91835583D01*
X184266717Y-91794278D01*
X184276863Y-91753773D01*
X184290930Y-91714457D01*
X184308784Y-91676710D01*
X184330251Y-91640894D01*
X184355125Y-91607355D01*
X184383167Y-91576415D01*
X184984915Y-90974667D01*
X185015855Y-90946625D01*
X185049394Y-90921751D01*
X185085210Y-90900284D01*
X185122957Y-90882430D01*
X185162273Y-90868363D01*
X185202778Y-90858217D01*
X185244083Y-90852090D01*
X185285789Y-90850041D01*
X185327495Y-90852090D01*
X185327495Y-90852090D01*
G37*
D20*
X185356500Y-91948000D03*
G04 #@! TD*
D21*
G04 #@! TO.C,REF\002A\002A*
X128670000Y-147550000D03*
G04 #@! TD*
G04 #@! TO.C,REF\002A\002A*
X108690000Y-113000000D03*
G04 #@! TD*
G04 #@! TO.C,REF\002A\002A*
X162306000Y-56896000D03*
G04 #@! TD*
D20*
G04 #@! TO.C,U5*
X149198470Y-97480524D03*
D22*
X149481313Y-97763367D02*
X148915627Y-97197681D01*
D20*
X159974778Y-97480524D03*
D22*
X160257621Y-97763367D02*
X159691935Y-97197681D01*
D20*
X150994522Y-95684473D03*
D22*
X151277365Y-95967316D02*
X150711679Y-95401630D01*
D20*
X158178726Y-99276576D03*
D22*
X158461569Y-99559419D02*
X157895883Y-98993733D01*
D20*
X152790573Y-93888422D03*
D22*
X153073416Y-94171265D02*
X152507730Y-93605579D01*
D20*
X156382675Y-101072627D03*
D22*
X156665518Y-101355470D02*
X156099832Y-100789784D01*
D20*
X154586624Y-92092371D03*
D22*
X154869467Y-92375214D02*
X154303781Y-91809528D01*
D20*
X154586624Y-102868678D03*
D17*
G36*
X156072962Y-103151521D02*
X154869467Y-104355016D01*
X153100286Y-102585835D01*
X154303781Y-101382340D01*
X156072962Y-103151521D01*
X156072962Y-103151521D01*
G37*
G04 #@! TD*
D23*
G04 #@! TO.C,J3*
X140458733Y-103447038D03*
D24*
X140458733Y-103447038D02*
X140458733Y-103447038D01*
D23*
X138662681Y-105243090D03*
D24*
X138662681Y-105243090D02*
X138662681Y-105243090D01*
D23*
X136866630Y-107039141D03*
D24*
X136866630Y-107039141D02*
X136866630Y-107039141D01*
D23*
X135070579Y-108835192D03*
D17*
G36*
X136344785Y-108835192D02*
X135070579Y-110109398D01*
X133796373Y-108835192D01*
X135070579Y-107560986D01*
X136344785Y-108835192D01*
X136344785Y-108835192D01*
G37*
G04 #@! TD*
D23*
G04 #@! TO.C,J5*
X143555146Y-106543451D03*
D24*
X143555146Y-106543451D02*
X143555146Y-106543451D01*
D23*
X141759094Y-108339503D03*
D24*
X141759094Y-108339503D02*
X141759094Y-108339503D01*
D23*
X139963043Y-110135554D03*
D24*
X139963043Y-110135554D02*
X139963043Y-110135554D01*
D23*
X138166992Y-111931605D03*
D17*
G36*
X139441198Y-111931605D02*
X138166992Y-113205811D01*
X136892786Y-111931605D01*
X138166992Y-110657399D01*
X139441198Y-111931605D01*
X139441198Y-111931605D01*
G37*
G04 #@! TD*
D23*
G04 #@! TO.C,J6*
X126698554Y-119706846D03*
D24*
X126698554Y-119706846D02*
X126698554Y-119706846D01*
D23*
X124902502Y-121502898D03*
D24*
X124902502Y-121502898D02*
X124902502Y-121502898D01*
D23*
X123106451Y-123298949D03*
D24*
X123106451Y-123298949D02*
X123106451Y-123298949D01*
D23*
X121310400Y-125095000D03*
D17*
G36*
X122584606Y-125095000D02*
X121310400Y-126369206D01*
X120036194Y-125095000D01*
X121310400Y-123820794D01*
X122584606Y-125095000D01*
X122584606Y-125095000D01*
G37*
G04 #@! TD*
D23*
G04 #@! TO.C,J7*
X131848046Y-140407846D03*
D24*
X131848046Y-140407846D02*
X131848046Y-140407846D01*
D23*
X133644098Y-142203898D03*
D24*
X133644098Y-142203898D02*
X133644098Y-142203898D01*
D23*
X135440149Y-143999949D03*
D24*
X135440149Y-143999949D02*
X135440149Y-143999949D01*
D23*
X137236200Y-145796000D03*
D17*
G36*
X137236200Y-144521794D02*
X138510406Y-145796000D01*
X137236200Y-147070206D01*
X135961994Y-145796000D01*
X137236200Y-144521794D01*
X137236200Y-144521794D01*
G37*
G04 #@! TD*
D23*
G04 #@! TO.C,J8*
X114104723Y-94584552D03*
D24*
X114104723Y-94584552D02*
X114104723Y-94584552D01*
D23*
X115962362Y-92852275D03*
D24*
X115962362Y-92852275D02*
X115962362Y-92852275D01*
D23*
X117820000Y-91120000D03*
D24*
X117820000Y-91120000D02*
X117820000Y-91120000D01*
D23*
X119677638Y-89387724D03*
D17*
G36*
X118404208Y-89343255D02*
X119722107Y-88114294D01*
X120951068Y-89432193D01*
X119633169Y-90661154D01*
X118404208Y-89343255D01*
X118404208Y-89343255D01*
G37*
G04 #@! TD*
D23*
G04 #@! TO.C,J10*
X129682425Y-122844392D03*
D24*
X129682425Y-122844392D02*
X129682425Y-122844392D01*
D23*
X127886373Y-124640444D03*
D24*
X127886373Y-124640444D02*
X127886373Y-124640444D01*
D23*
X126090322Y-126436495D03*
D24*
X126090322Y-126436495D02*
X126090322Y-126436495D01*
D23*
X124294271Y-128232546D03*
D17*
G36*
X125568477Y-128232546D02*
X124294271Y-129506752D01*
X123020065Y-128232546D01*
X124294271Y-126958340D01*
X125568477Y-128232546D01*
X125568477Y-128232546D01*
G37*
G04 #@! TD*
D15*
G04 #@! TO.C,J12*
X180848000Y-78910034D03*
D16*
X181548036Y-78209998D02*
X180147964Y-79610070D01*
D15*
X177312466Y-75374500D03*
D17*
G36*
X175140234Y-76074536D02*
X178012502Y-73202268D01*
X179484698Y-74674464D01*
X176612430Y-77546732D01*
X175140234Y-76074536D01*
X175140234Y-76074536D01*
G37*
G04 #@! TD*
D23*
G04 #@! TO.C,J1*
X146655109Y-109643416D03*
D24*
X146655109Y-109643416D02*
X146655109Y-109643416D01*
D23*
X144859057Y-111439468D03*
D24*
X144859057Y-111439468D02*
X144859057Y-111439468D01*
D23*
X143063006Y-113235519D03*
D24*
X143063006Y-113235519D02*
X143063006Y-113235519D01*
D23*
X141266955Y-115031570D03*
D17*
G36*
X142541161Y-115031570D02*
X141266955Y-116305776D01*
X139992749Y-115031570D01*
X141266955Y-113757364D01*
X142541161Y-115031570D01*
X142541161Y-115031570D01*
G37*
G04 #@! TD*
D25*
G04 #@! TO.C,J11*
X164020500Y-105346500D03*
X161480500Y-105346500D03*
X164020500Y-102806500D03*
D26*
X161480500Y-102806500D03*
G04 #@! TD*
D27*
G04 #@! TO.C,SW1*
X136568584Y-116260168D03*
X133386604Y-119442149D03*
X131972390Y-111663974D03*
X128790409Y-114845955D03*
G04 #@! TD*
G04 #@! TO.C,SW4*
X132376501Y-127424323D03*
X135558482Y-130606303D03*
X127780307Y-132020517D03*
X130962288Y-135202498D03*
G04 #@! TD*
D23*
G04 #@! TO.C,ISP*
X160260197Y-128995868D03*
D24*
X160260197Y-128995868D02*
X160260197Y-128995868D01*
D23*
X158464145Y-130791919D03*
D24*
X158464145Y-130791919D02*
X158464145Y-130791919D01*
D23*
X158464145Y-127199817D03*
D24*
X158464145Y-127199817D02*
X158464145Y-127199817D01*
D23*
X156668094Y-128995868D03*
D24*
X156668094Y-128995868D02*
X156668094Y-128995868D01*
D23*
X156668094Y-125403766D03*
D24*
X156668094Y-125403766D02*
X156668094Y-125403766D01*
D23*
X154872043Y-127199817D03*
D17*
G36*
X154872043Y-128474023D02*
X153597837Y-127199817D01*
X154872043Y-125925611D01*
X156146249Y-127199817D01*
X154872043Y-128474023D01*
X154872043Y-128474023D01*
G37*
G04 #@! TD*
D20*
G04 #@! TO.C,SW2*
X151190138Y-113100814D03*
D22*
X151190138Y-113100814D02*
X151190138Y-113100814D01*
D20*
X151190138Y-123877122D03*
D22*
X151190138Y-123877122D02*
X151190138Y-123877122D01*
D20*
X152986189Y-114896866D03*
D22*
X152986189Y-114896866D02*
X152986189Y-114896866D01*
D20*
X149394086Y-122081070D03*
D22*
X149394086Y-122081070D02*
X149394086Y-122081070D01*
D20*
X154782240Y-116692917D03*
D22*
X154782240Y-116692917D02*
X154782240Y-116692917D01*
D20*
X147598035Y-120285019D03*
D22*
X147598035Y-120285019D02*
X147598035Y-120285019D01*
D20*
X156578291Y-118488968D03*
D22*
X156578291Y-118488968D02*
X156578291Y-118488968D01*
D20*
X145801984Y-118488968D03*
D17*
G36*
X145801984Y-119692464D02*
X144598488Y-118488968D01*
X145801984Y-117285472D01*
X147005480Y-118488968D01*
X145801984Y-119692464D01*
X145801984Y-119692464D01*
G37*
G04 #@! TD*
D27*
G04 #@! TO.C,SW3*
X143531710Y-145574199D03*
X140349729Y-142392219D03*
X148127904Y-140978005D03*
X144945923Y-137796024D03*
G04 #@! TD*
D20*
G04 #@! TO.C,U3*
X168943780Y-89155095D03*
D22*
X168660937Y-89437938D02*
X169226623Y-88872252D01*
D20*
X168943780Y-99931403D03*
D22*
X168660937Y-100214246D02*
X169226623Y-99648560D01*
D20*
X170739831Y-90951147D03*
D22*
X170456988Y-91233990D02*
X171022674Y-90668304D01*
D20*
X167147728Y-98135351D03*
D22*
X166864885Y-98418194D02*
X167430571Y-97852508D01*
D20*
X172535882Y-92747198D03*
D22*
X172253039Y-93030041D02*
X172818725Y-92464355D01*
D20*
X165351677Y-96339300D03*
D22*
X165068834Y-96622143D02*
X165634520Y-96056457D01*
D20*
X174331933Y-94543249D03*
D22*
X174049090Y-94826092D02*
X174614776Y-94260406D01*
D20*
X163555626Y-94543249D03*
D17*
G36*
X163272783Y-96029587D02*
X162069288Y-94826092D01*
X163838469Y-93056911D01*
X165041964Y-94260406D01*
X163272783Y-96029587D01*
X163272783Y-96029587D01*
G37*
G04 #@! TD*
D19*
G04 #@! TO.C,D11*
X152537177Y-140580399D03*
D28*
X152537177Y-140580399D02*
X152537177Y-140580399D01*
D19*
X147149023Y-135192245D03*
D17*
G36*
X145804106Y-135192245D02*
X147149023Y-133847328D01*
X148493940Y-135192245D01*
X147149023Y-136537162D01*
X145804106Y-135192245D01*
X145804106Y-135192245D01*
G37*
G04 #@! TD*
D19*
G04 #@! TO.C,D12*
X155550853Y-138310898D03*
D28*
X155550853Y-138310898D02*
X155550853Y-138310898D01*
D19*
X150162699Y-132922744D03*
D17*
G36*
X148817782Y-132922744D02*
X150162699Y-131577827D01*
X151507616Y-132922744D01*
X150162699Y-134267661D01*
X148817782Y-132922744D01*
X148817782Y-132922744D01*
G37*
G04 #@! TD*
D19*
G04 #@! TO.C,D13*
X158142687Y-135782565D03*
D28*
X158142687Y-135782565D02*
X158142687Y-135782565D01*
D19*
X152754533Y-130394411D03*
D17*
G36*
X151409616Y-130394411D02*
X152754533Y-129049494D01*
X154099450Y-130394411D01*
X152754533Y-131739328D01*
X151409616Y-130394411D01*
X151409616Y-130394411D01*
G37*
G04 #@! TD*
D23*
G04 #@! TO.C,J9*
X157795502Y-140502098D03*
D24*
X157795502Y-140502098D02*
X157795502Y-140502098D01*
D23*
X155999451Y-142298149D03*
D24*
X155999451Y-142298149D02*
X155999451Y-142298149D01*
D23*
X154203400Y-144094200D03*
D17*
G36*
X155477606Y-144094200D02*
X154203400Y-145368406D01*
X152929194Y-144094200D01*
X154203400Y-142819994D01*
X155477606Y-144094200D01*
X155477606Y-144094200D01*
G37*
G04 #@! TD*
G04 #@! TO.C,R7*
G36*
X180787636Y-84188319D02*
X180813737Y-84192191D01*
X180839334Y-84198602D01*
X180864179Y-84207492D01*
X180888033Y-84218774D01*
X180910666Y-84232340D01*
X180931861Y-84248059D01*
X180951413Y-84265779D01*
X183012081Y-86326447D01*
X183029801Y-86345999D01*
X183045520Y-86367194D01*
X183059086Y-86389827D01*
X183070368Y-86413681D01*
X183079258Y-86438526D01*
X183085669Y-86464123D01*
X183089541Y-86490224D01*
X183090836Y-86516580D01*
X183089541Y-86542936D01*
X183085669Y-86569037D01*
X183079258Y-86594634D01*
X183070368Y-86619479D01*
X183059086Y-86643333D01*
X183045520Y-86665966D01*
X183029801Y-86687161D01*
X183012081Y-86706713D01*
X182365627Y-87353167D01*
X182346075Y-87370887D01*
X182324880Y-87386606D01*
X182302247Y-87400172D01*
X182278393Y-87411454D01*
X182253548Y-87420344D01*
X182227951Y-87426755D01*
X182201850Y-87430627D01*
X182175494Y-87431922D01*
X182149138Y-87430627D01*
X182123037Y-87426755D01*
X182097440Y-87420344D01*
X182072595Y-87411454D01*
X182048741Y-87400172D01*
X182026108Y-87386606D01*
X182004913Y-87370887D01*
X181985361Y-87353167D01*
X179924693Y-85292499D01*
X179906973Y-85272947D01*
X179891254Y-85251752D01*
X179877688Y-85229119D01*
X179866406Y-85205265D01*
X179857516Y-85180420D01*
X179851105Y-85154823D01*
X179847233Y-85128722D01*
X179845938Y-85102366D01*
X179847233Y-85076010D01*
X179851105Y-85049909D01*
X179857516Y-85024312D01*
X179866406Y-84999467D01*
X179877688Y-84975613D01*
X179891254Y-84952980D01*
X179906973Y-84931785D01*
X179924693Y-84912233D01*
X180571147Y-84265779D01*
X180590699Y-84248059D01*
X180611894Y-84232340D01*
X180634527Y-84218774D01*
X180658381Y-84207492D01*
X180683226Y-84198602D01*
X180708823Y-84192191D01*
X180734924Y-84188319D01*
X180761280Y-84187024D01*
X180787636Y-84188319D01*
X180787636Y-84188319D01*
G37*
D29*
X181468387Y-85809473D03*
D17*
G36*
X176686416Y-88289539D02*
X176712517Y-88293411D01*
X176738114Y-88299822D01*
X176762959Y-88308712D01*
X176786813Y-88319994D01*
X176809446Y-88333560D01*
X176830641Y-88349279D01*
X176850193Y-88366999D01*
X178910861Y-90427667D01*
X178928581Y-90447219D01*
X178944300Y-90468414D01*
X178957866Y-90491047D01*
X178969148Y-90514901D01*
X178978038Y-90539746D01*
X178984449Y-90565343D01*
X178988321Y-90591444D01*
X178989616Y-90617800D01*
X178988321Y-90644156D01*
X178984449Y-90670257D01*
X178978038Y-90695854D01*
X178969148Y-90720699D01*
X178957866Y-90744553D01*
X178944300Y-90767186D01*
X178928581Y-90788381D01*
X178910861Y-90807933D01*
X178264407Y-91454387D01*
X178244855Y-91472107D01*
X178223660Y-91487826D01*
X178201027Y-91501392D01*
X178177173Y-91512674D01*
X178152328Y-91521564D01*
X178126731Y-91527975D01*
X178100630Y-91531847D01*
X178074274Y-91533142D01*
X178047918Y-91531847D01*
X178021817Y-91527975D01*
X177996220Y-91521564D01*
X177971375Y-91512674D01*
X177947521Y-91501392D01*
X177924888Y-91487826D01*
X177903693Y-91472107D01*
X177884141Y-91454387D01*
X175823473Y-89393719D01*
X175805753Y-89374167D01*
X175790034Y-89352972D01*
X175776468Y-89330339D01*
X175765186Y-89306485D01*
X175756296Y-89281640D01*
X175749885Y-89256043D01*
X175746013Y-89229942D01*
X175744718Y-89203586D01*
X175746013Y-89177230D01*
X175749885Y-89151129D01*
X175756296Y-89125532D01*
X175765186Y-89100687D01*
X175776468Y-89076833D01*
X175790034Y-89054200D01*
X175805753Y-89033005D01*
X175823473Y-89013453D01*
X176469927Y-88366999D01*
X176489479Y-88349279D01*
X176510674Y-88333560D01*
X176533307Y-88319994D01*
X176557161Y-88308712D01*
X176582006Y-88299822D01*
X176607603Y-88293411D01*
X176633704Y-88289539D01*
X176660060Y-88288244D01*
X176686416Y-88289539D01*
X176686416Y-88289539D01*
G37*
D29*
X177367167Y-89910693D03*
G04 #@! TD*
D17*
G04 #@! TO.C,R8*
G36*
X164703827Y-76344208D02*
X164729928Y-76348080D01*
X164755525Y-76354491D01*
X164780370Y-76363381D01*
X164804224Y-76374663D01*
X164826857Y-76388229D01*
X164848052Y-76403948D01*
X164867604Y-76421668D01*
X166928272Y-78482336D01*
X166945992Y-78501888D01*
X166961711Y-78523083D01*
X166975277Y-78545716D01*
X166986559Y-78569570D01*
X166995449Y-78594415D01*
X167001860Y-78620012D01*
X167005732Y-78646113D01*
X167007027Y-78672469D01*
X167005732Y-78698825D01*
X167001860Y-78724926D01*
X166995449Y-78750523D01*
X166986559Y-78775368D01*
X166975277Y-78799222D01*
X166961711Y-78821855D01*
X166945992Y-78843050D01*
X166928272Y-78862602D01*
X166281818Y-79509056D01*
X166262266Y-79526776D01*
X166241071Y-79542495D01*
X166218438Y-79556061D01*
X166194584Y-79567343D01*
X166169739Y-79576233D01*
X166144142Y-79582644D01*
X166118041Y-79586516D01*
X166091685Y-79587811D01*
X166065329Y-79586516D01*
X166039228Y-79582644D01*
X166013631Y-79576233D01*
X165988786Y-79567343D01*
X165964932Y-79556061D01*
X165942299Y-79542495D01*
X165921104Y-79526776D01*
X165901552Y-79509056D01*
X163840884Y-77448388D01*
X163823164Y-77428836D01*
X163807445Y-77407641D01*
X163793879Y-77385008D01*
X163782597Y-77361154D01*
X163773707Y-77336309D01*
X163767296Y-77310712D01*
X163763424Y-77284611D01*
X163762129Y-77258255D01*
X163763424Y-77231899D01*
X163767296Y-77205798D01*
X163773707Y-77180201D01*
X163782597Y-77155356D01*
X163793879Y-77131502D01*
X163807445Y-77108869D01*
X163823164Y-77087674D01*
X163840884Y-77068122D01*
X164487338Y-76421668D01*
X164506890Y-76403948D01*
X164528085Y-76388229D01*
X164550718Y-76374663D01*
X164574572Y-76363381D01*
X164599417Y-76354491D01*
X164625014Y-76348080D01*
X164651115Y-76344208D01*
X164677471Y-76342913D01*
X164703827Y-76344208D01*
X164703827Y-76344208D01*
G37*
D29*
X165384578Y-77965362D03*
D17*
G36*
X168805045Y-72242988D02*
X168831146Y-72246860D01*
X168856743Y-72253271D01*
X168881588Y-72262161D01*
X168905442Y-72273443D01*
X168928075Y-72287009D01*
X168949270Y-72302728D01*
X168968822Y-72320448D01*
X171029490Y-74381116D01*
X171047210Y-74400668D01*
X171062929Y-74421863D01*
X171076495Y-74444496D01*
X171087777Y-74468350D01*
X171096667Y-74493195D01*
X171103078Y-74518792D01*
X171106950Y-74544893D01*
X171108245Y-74571249D01*
X171106950Y-74597605D01*
X171103078Y-74623706D01*
X171096667Y-74649303D01*
X171087777Y-74674148D01*
X171076495Y-74698002D01*
X171062929Y-74720635D01*
X171047210Y-74741830D01*
X171029490Y-74761382D01*
X170383036Y-75407836D01*
X170363484Y-75425556D01*
X170342289Y-75441275D01*
X170319656Y-75454841D01*
X170295802Y-75466123D01*
X170270957Y-75475013D01*
X170245360Y-75481424D01*
X170219259Y-75485296D01*
X170192903Y-75486591D01*
X170166547Y-75485296D01*
X170140446Y-75481424D01*
X170114849Y-75475013D01*
X170090004Y-75466123D01*
X170066150Y-75454841D01*
X170043517Y-75441275D01*
X170022322Y-75425556D01*
X170002770Y-75407836D01*
X167942102Y-73347168D01*
X167924382Y-73327616D01*
X167908663Y-73306421D01*
X167895097Y-73283788D01*
X167883815Y-73259934D01*
X167874925Y-73235089D01*
X167868514Y-73209492D01*
X167864642Y-73183391D01*
X167863347Y-73157035D01*
X167864642Y-73130679D01*
X167868514Y-73104578D01*
X167874925Y-73078981D01*
X167883815Y-73054136D01*
X167895097Y-73030282D01*
X167908663Y-73007649D01*
X167924382Y-72986454D01*
X167942102Y-72966902D01*
X168588556Y-72320448D01*
X168608108Y-72302728D01*
X168629303Y-72287009D01*
X168651936Y-72273443D01*
X168675790Y-72262161D01*
X168700635Y-72253271D01*
X168726232Y-72246860D01*
X168752333Y-72242988D01*
X168778689Y-72241693D01*
X168805045Y-72242988D01*
X168805045Y-72242988D01*
G37*
D29*
X169485796Y-73864142D03*
G04 #@! TD*
D17*
G04 #@! TO.C,R9*
G36*
X167661260Y-79264382D02*
X167687361Y-79268254D01*
X167712958Y-79274665D01*
X167737803Y-79283555D01*
X167761657Y-79294837D01*
X167784290Y-79308403D01*
X167805485Y-79324122D01*
X167825037Y-79341842D01*
X169885705Y-81402510D01*
X169903425Y-81422062D01*
X169919144Y-81443257D01*
X169932710Y-81465890D01*
X169943992Y-81489744D01*
X169952882Y-81514589D01*
X169959293Y-81540186D01*
X169963165Y-81566287D01*
X169964460Y-81592643D01*
X169963165Y-81618999D01*
X169959293Y-81645100D01*
X169952882Y-81670697D01*
X169943992Y-81695542D01*
X169932710Y-81719396D01*
X169919144Y-81742029D01*
X169903425Y-81763224D01*
X169885705Y-81782776D01*
X169239251Y-82429230D01*
X169219699Y-82446950D01*
X169198504Y-82462669D01*
X169175871Y-82476235D01*
X169152017Y-82487517D01*
X169127172Y-82496407D01*
X169101575Y-82502818D01*
X169075474Y-82506690D01*
X169049118Y-82507985D01*
X169022762Y-82506690D01*
X168996661Y-82502818D01*
X168971064Y-82496407D01*
X168946219Y-82487517D01*
X168922365Y-82476235D01*
X168899732Y-82462669D01*
X168878537Y-82446950D01*
X168858985Y-82429230D01*
X166798317Y-80368562D01*
X166780597Y-80349010D01*
X166764878Y-80327815D01*
X166751312Y-80305182D01*
X166740030Y-80281328D01*
X166731140Y-80256483D01*
X166724729Y-80230886D01*
X166720857Y-80204785D01*
X166719562Y-80178429D01*
X166720857Y-80152073D01*
X166724729Y-80125972D01*
X166731140Y-80100375D01*
X166740030Y-80075530D01*
X166751312Y-80051676D01*
X166764878Y-80029043D01*
X166780597Y-80007848D01*
X166798317Y-79988296D01*
X167444771Y-79341842D01*
X167464323Y-79324122D01*
X167485518Y-79308403D01*
X167508151Y-79294837D01*
X167532005Y-79283555D01*
X167556850Y-79274665D01*
X167582447Y-79268254D01*
X167608548Y-79264382D01*
X167634904Y-79263087D01*
X167661260Y-79264382D01*
X167661260Y-79264382D01*
G37*
D29*
X168342011Y-80885536D03*
D17*
G36*
X171762478Y-75163162D02*
X171788579Y-75167034D01*
X171814176Y-75173445D01*
X171839021Y-75182335D01*
X171862875Y-75193617D01*
X171885508Y-75207183D01*
X171906703Y-75222902D01*
X171926255Y-75240622D01*
X173986923Y-77301290D01*
X174004643Y-77320842D01*
X174020362Y-77342037D01*
X174033928Y-77364670D01*
X174045210Y-77388524D01*
X174054100Y-77413369D01*
X174060511Y-77438966D01*
X174064383Y-77465067D01*
X174065678Y-77491423D01*
X174064383Y-77517779D01*
X174060511Y-77543880D01*
X174054100Y-77569477D01*
X174045210Y-77594322D01*
X174033928Y-77618176D01*
X174020362Y-77640809D01*
X174004643Y-77662004D01*
X173986923Y-77681556D01*
X173340469Y-78328010D01*
X173320917Y-78345730D01*
X173299722Y-78361449D01*
X173277089Y-78375015D01*
X173253235Y-78386297D01*
X173228390Y-78395187D01*
X173202793Y-78401598D01*
X173176692Y-78405470D01*
X173150336Y-78406765D01*
X173123980Y-78405470D01*
X173097879Y-78401598D01*
X173072282Y-78395187D01*
X173047437Y-78386297D01*
X173023583Y-78375015D01*
X173000950Y-78361449D01*
X172979755Y-78345730D01*
X172960203Y-78328010D01*
X170899535Y-76267342D01*
X170881815Y-76247790D01*
X170866096Y-76226595D01*
X170852530Y-76203962D01*
X170841248Y-76180108D01*
X170832358Y-76155263D01*
X170825947Y-76129666D01*
X170822075Y-76103565D01*
X170820780Y-76077209D01*
X170822075Y-76050853D01*
X170825947Y-76024752D01*
X170832358Y-75999155D01*
X170841248Y-75974310D01*
X170852530Y-75950456D01*
X170866096Y-75927823D01*
X170881815Y-75906628D01*
X170899535Y-75887076D01*
X171545989Y-75240622D01*
X171565541Y-75222902D01*
X171586736Y-75207183D01*
X171609369Y-75193617D01*
X171633223Y-75182335D01*
X171658068Y-75173445D01*
X171683665Y-75167034D01*
X171709766Y-75163162D01*
X171736122Y-75161867D01*
X171762478Y-75163162D01*
X171762478Y-75163162D01*
G37*
D29*
X172443229Y-76784316D03*
G04 #@! TD*
D17*
G04 #@! TO.C,R11*
G36*
X174725963Y-78126646D02*
X174752064Y-78130518D01*
X174777661Y-78136929D01*
X174802506Y-78145819D01*
X174826360Y-78157101D01*
X174848993Y-78170667D01*
X174870188Y-78186386D01*
X174889740Y-78204106D01*
X176950408Y-80264774D01*
X176968128Y-80284326D01*
X176983847Y-80305521D01*
X176997413Y-80328154D01*
X177008695Y-80352008D01*
X177017585Y-80376853D01*
X177023996Y-80402450D01*
X177027868Y-80428551D01*
X177029163Y-80454907D01*
X177027868Y-80481263D01*
X177023996Y-80507364D01*
X177017585Y-80532961D01*
X177008695Y-80557806D01*
X176997413Y-80581660D01*
X176983847Y-80604293D01*
X176968128Y-80625488D01*
X176950408Y-80645040D01*
X176303954Y-81291494D01*
X176284402Y-81309214D01*
X176263207Y-81324933D01*
X176240574Y-81338499D01*
X176216720Y-81349781D01*
X176191875Y-81358671D01*
X176166278Y-81365082D01*
X176140177Y-81368954D01*
X176113821Y-81370249D01*
X176087465Y-81368954D01*
X176061364Y-81365082D01*
X176035767Y-81358671D01*
X176010922Y-81349781D01*
X175987068Y-81338499D01*
X175964435Y-81324933D01*
X175943240Y-81309214D01*
X175923688Y-81291494D01*
X173863020Y-79230826D01*
X173845300Y-79211274D01*
X173829581Y-79190079D01*
X173816015Y-79167446D01*
X173804733Y-79143592D01*
X173795843Y-79118747D01*
X173789432Y-79093150D01*
X173785560Y-79067049D01*
X173784265Y-79040693D01*
X173785560Y-79014337D01*
X173789432Y-78988236D01*
X173795843Y-78962639D01*
X173804733Y-78937794D01*
X173816015Y-78913940D01*
X173829581Y-78891307D01*
X173845300Y-78870112D01*
X173863020Y-78850560D01*
X174509474Y-78204106D01*
X174529026Y-78186386D01*
X174550221Y-78170667D01*
X174572854Y-78157101D01*
X174596708Y-78145819D01*
X174621553Y-78136929D01*
X174647150Y-78130518D01*
X174673251Y-78126646D01*
X174699607Y-78125351D01*
X174725963Y-78126646D01*
X174725963Y-78126646D01*
G37*
D29*
X175406714Y-79747800D03*
D17*
G36*
X170624743Y-82227866D02*
X170650844Y-82231738D01*
X170676441Y-82238149D01*
X170701286Y-82247039D01*
X170725140Y-82258321D01*
X170747773Y-82271887D01*
X170768968Y-82287606D01*
X170788520Y-82305326D01*
X172849188Y-84365994D01*
X172866908Y-84385546D01*
X172882627Y-84406741D01*
X172896193Y-84429374D01*
X172907475Y-84453228D01*
X172916365Y-84478073D01*
X172922776Y-84503670D01*
X172926648Y-84529771D01*
X172927943Y-84556127D01*
X172926648Y-84582483D01*
X172922776Y-84608584D01*
X172916365Y-84634181D01*
X172907475Y-84659026D01*
X172896193Y-84682880D01*
X172882627Y-84705513D01*
X172866908Y-84726708D01*
X172849188Y-84746260D01*
X172202734Y-85392714D01*
X172183182Y-85410434D01*
X172161987Y-85426153D01*
X172139354Y-85439719D01*
X172115500Y-85451001D01*
X172090655Y-85459891D01*
X172065058Y-85466302D01*
X172038957Y-85470174D01*
X172012601Y-85471469D01*
X171986245Y-85470174D01*
X171960144Y-85466302D01*
X171934547Y-85459891D01*
X171909702Y-85451001D01*
X171885848Y-85439719D01*
X171863215Y-85426153D01*
X171842020Y-85410434D01*
X171822468Y-85392714D01*
X169761800Y-83332046D01*
X169744080Y-83312494D01*
X169728361Y-83291299D01*
X169714795Y-83268666D01*
X169703513Y-83244812D01*
X169694623Y-83219967D01*
X169688212Y-83194370D01*
X169684340Y-83168269D01*
X169683045Y-83141913D01*
X169684340Y-83115557D01*
X169688212Y-83089456D01*
X169694623Y-83063859D01*
X169703513Y-83039014D01*
X169714795Y-83015160D01*
X169728361Y-82992527D01*
X169744080Y-82971332D01*
X169761800Y-82951780D01*
X170408254Y-82305326D01*
X170427806Y-82287606D01*
X170449001Y-82271887D01*
X170471634Y-82258321D01*
X170495488Y-82247039D01*
X170520333Y-82238149D01*
X170545930Y-82231738D01*
X170572031Y-82227866D01*
X170598387Y-82226571D01*
X170624743Y-82227866D01*
X170624743Y-82227866D01*
G37*
D29*
X171305494Y-83849020D03*
G04 #@! TD*
D17*
G04 #@! TO.C,R12*
G36*
X173633129Y-85236252D02*
X173659230Y-85240124D01*
X173684827Y-85246535D01*
X173709672Y-85255425D01*
X173733526Y-85266707D01*
X173756159Y-85280273D01*
X173777354Y-85295992D01*
X173796906Y-85313712D01*
X175857574Y-87374380D01*
X175875294Y-87393932D01*
X175891013Y-87415127D01*
X175904579Y-87437760D01*
X175915861Y-87461614D01*
X175924751Y-87486459D01*
X175931162Y-87512056D01*
X175935034Y-87538157D01*
X175936329Y-87564513D01*
X175935034Y-87590869D01*
X175931162Y-87616970D01*
X175924751Y-87642567D01*
X175915861Y-87667412D01*
X175904579Y-87691266D01*
X175891013Y-87713899D01*
X175875294Y-87735094D01*
X175857574Y-87754646D01*
X175211120Y-88401100D01*
X175191568Y-88418820D01*
X175170373Y-88434539D01*
X175147740Y-88448105D01*
X175123886Y-88459387D01*
X175099041Y-88468277D01*
X175073444Y-88474688D01*
X175047343Y-88478560D01*
X175020987Y-88479855D01*
X174994631Y-88478560D01*
X174968530Y-88474688D01*
X174942933Y-88468277D01*
X174918088Y-88459387D01*
X174894234Y-88448105D01*
X174871601Y-88434539D01*
X174850406Y-88418820D01*
X174830854Y-88401100D01*
X172770186Y-86340432D01*
X172752466Y-86320880D01*
X172736747Y-86299685D01*
X172723181Y-86277052D01*
X172711899Y-86253198D01*
X172703009Y-86228353D01*
X172696598Y-86202756D01*
X172692726Y-86176655D01*
X172691431Y-86150299D01*
X172692726Y-86123943D01*
X172696598Y-86097842D01*
X172703009Y-86072245D01*
X172711899Y-86047400D01*
X172723181Y-86023546D01*
X172736747Y-86000913D01*
X172752466Y-85979718D01*
X172770186Y-85960166D01*
X173416640Y-85313712D01*
X173436192Y-85295992D01*
X173457387Y-85280273D01*
X173480020Y-85266707D01*
X173503874Y-85255425D01*
X173528719Y-85246535D01*
X173554316Y-85240124D01*
X173580417Y-85236252D01*
X173606773Y-85234957D01*
X173633129Y-85236252D01*
X173633129Y-85236252D01*
G37*
D29*
X174313880Y-86857406D03*
D17*
G36*
X177734349Y-81135032D02*
X177760450Y-81138904D01*
X177786047Y-81145315D01*
X177810892Y-81154205D01*
X177834746Y-81165487D01*
X177857379Y-81179053D01*
X177878574Y-81194772D01*
X177898126Y-81212492D01*
X179958794Y-83273160D01*
X179976514Y-83292712D01*
X179992233Y-83313907D01*
X180005799Y-83336540D01*
X180017081Y-83360394D01*
X180025971Y-83385239D01*
X180032382Y-83410836D01*
X180036254Y-83436937D01*
X180037549Y-83463293D01*
X180036254Y-83489649D01*
X180032382Y-83515750D01*
X180025971Y-83541347D01*
X180017081Y-83566192D01*
X180005799Y-83590046D01*
X179992233Y-83612679D01*
X179976514Y-83633874D01*
X179958794Y-83653426D01*
X179312340Y-84299880D01*
X179292788Y-84317600D01*
X179271593Y-84333319D01*
X179248960Y-84346885D01*
X179225106Y-84358167D01*
X179200261Y-84367057D01*
X179174664Y-84373468D01*
X179148563Y-84377340D01*
X179122207Y-84378635D01*
X179095851Y-84377340D01*
X179069750Y-84373468D01*
X179044153Y-84367057D01*
X179019308Y-84358167D01*
X178995454Y-84346885D01*
X178972821Y-84333319D01*
X178951626Y-84317600D01*
X178932074Y-84299880D01*
X176871406Y-82239212D01*
X176853686Y-82219660D01*
X176837967Y-82198465D01*
X176824401Y-82175832D01*
X176813119Y-82151978D01*
X176804229Y-82127133D01*
X176797818Y-82101536D01*
X176793946Y-82075435D01*
X176792651Y-82049079D01*
X176793946Y-82022723D01*
X176797818Y-81996622D01*
X176804229Y-81971025D01*
X176813119Y-81946180D01*
X176824401Y-81922326D01*
X176837967Y-81899693D01*
X176853686Y-81878498D01*
X176871406Y-81858946D01*
X177517860Y-81212492D01*
X177537412Y-81194772D01*
X177558607Y-81179053D01*
X177581240Y-81165487D01*
X177605094Y-81154205D01*
X177629939Y-81145315D01*
X177655536Y-81138904D01*
X177681637Y-81135032D01*
X177707993Y-81133737D01*
X177734349Y-81135032D01*
X177734349Y-81135032D01*
G37*
D29*
X178415100Y-82756186D03*
G04 #@! TD*
D23*
G04 #@! TO.C,J13*
X140970000Y-98171000D03*
D17*
G36*
X140970000Y-99445206D02*
X139695794Y-98171000D01*
X140970000Y-96896794D01*
X142244206Y-98171000D01*
X140970000Y-99445206D01*
X140970000Y-99445206D01*
G37*
D23*
X142766051Y-99967051D03*
D24*
X142766051Y-99967051D02*
X142766051Y-99967051D01*
G04 #@! TD*
D21*
G04 #@! TO.C,REF\002A\002A*
X199390000Y-93853000D03*
G04 #@! TD*
M02*
